<svg width="178" height="173" viewBox="0 0 178 173" fill="none" xmlns="http://www.w3.org/2000/svg">
<path d="M90.5871 74.0427C91.4622 74.2309 94.974 74.0722 95.4042 74.6036C95.6526 75.2236 95.5785 76.0725 95.5525 76.7589C95.3374 82.5936 95.3041 88.539 95.2151 94.3774C95.1409 99.2895 97.6069 102.995 97.8665 108.22C98.4191 119.285 97.9629 130.563 98.2003 141.653C98.2373 143.435 98.9827 144.672 97.288 146.019C94.3881 148.325 88.2768 148.351 84.9133 147.133C82.3101 146.192 81.3385 144.926 81.6463 142.066C79.2025 142.664 76.2024 142.542 73.8699 141.572L74.2036 149.894C73.6659 152.067 71.8785 152.846 69.8649 153.319C66.6275 154.079 62.3741 154.13 59.133 153.355C55.128 152.396 56.2256 149.798 55.8288 146.513C53.3294 146.458 50.8003 146.665 48.3158 146.329C43.3281 145.657 39.9127 143.074 46.7249 140.996C47.7039 140.697 50.2997 140.372 50.8634 139.841C51.4271 139.309 51.9462 137.885 52.1391 137.158C52.4135 136.128 52.5433 133.176 53.0921 132.67C53.3072 132.475 53.8115 132.397 53.8486 132.235L54.3455 109.394C51.1526 107.885 51.6718 104.076 50.9524 101.209C50.8226 100.692 50.0364 99.0348 50.0401 98.8208C50.055 98.0347 51.9759 97.8944 52.0315 97.6472L52.3541 83.59C50.4555 83.8631 49.9956 82.8482 51.1971 81.4495C49.5914 81.4791 48.0562 80.8997 48.6755 79.0212C49.1242 77.6668 51.0117 77.6409 51.0266 77.4121C50.2033 76.2791 50.9821 74.9136 52.3541 75.0207C52.4543 74.9469 51.1489 73.8951 51.7868 72.7289C52.2429 71.8985 52.4357 72.2602 52.521 70.998C53.0179 63.4768 52.5321 55.21 52.6805 47.5891C52.7176 45.7623 52.6211 42.6512 52.8436 41.0016C53.0402 39.5438 54.4271 41.0163 55.1465 40.1638L55.1762 38.5658C51.7831 36.5951 55.4061 31.8639 55.5136 28.9188C55.8251 28.8561 56.1774 28.8524 56.2998 29.1772C56.552 32.1443 59.9748 36.9346 56.1515 38.7245L56.1589 40.2708L58.3728 40.293L58.6435 40.6805L58.7955 72.3155L59.1367 72.7141C59.4111 71.7398 60.4272 71.6844 61.2875 71.8874C61.8363 68.6324 65.2962 69.2782 64.9365 72.548C67.6584 70.0127 69.3568 72.8986 67.5027 75.3528L65.9266 76.6666C66.8389 76.5559 67.8958 75.8289 68.8303 75.9212C69.2456 75.9618 69.4236 76.4157 69.6832 76.4784C69.9984 76.5522 70.7623 76.2422 71.4335 76.3788C72.0343 76.5006 72.7351 77.2018 73.1208 77.6668C73.2654 77.8402 73.3285 78.2388 73.4026 78.2868C73.5621 78.3864 74.0553 78.2868 74.5263 78.5709C75.4608 79.1393 75.6425 80.1652 75.5127 81.1838C75.4459 81.6931 74.9082 82.5604 75.0491 82.9811C75.127 83.221 75.6313 83.3465 75.839 83.686C77.1443 85.8117 73.9478 89.0003 71.7191 88.8564C72.1641 91.115 69.991 92.8569 67.8476 92.6355C66.7907 92.5248 66.0638 91.6317 65.0997 91.329L63.7758 96.7615L65.0515 94.6542C65.3556 94.2925 65.6819 92.2111 66.1714 92.3144C66.4458 92.3734 66.5237 94.1449 66.672 94.6173C67.0021 95.6654 67.8661 96.6323 67.5843 97.9129C69.6164 96.7873 71.9749 98.0052 74.1888 97.4294C74.6227 98.3262 73.4731 98.1897 72.8686 98.4812C71.8563 98.9684 70.8995 99.9132 69.902 100.467C70.8031 100.976 71.6523 101.607 72.5646 102.094C72.8835 102.264 74.1295 102.482 74.0331 102.932C73.9366 103.382 72.9725 103.043 72.5831 103.124C71.4632 103.36 70.258 104.648 68.9044 104.006C68.9786 106.663 68.8006 109.342 68.897 112C68.9341 113.003 68.9526 114.683 69.0824 115.602C69.2678 116.897 70.4582 117.402 71.0553 118.329L71.3927 118.233C72.7574 115.229 75.954 114.937 74.7413 110.955C74.4298 109.933 72.4125 107.235 73.5398 106.401C73.6363 106.327 74.8452 105.98 74.9379 105.98H78.9911L78.8242 102.685C77.1295 103.482 75.242 101.478 76.0949 99.8873C76.6289 100.426 77.1332 100.467 77.7599 100.696C78.1048 100.821 78.4163 101.36 78.4942 100.791C78.5313 100.511 78.3199 97.5623 78.2457 97.411C78.1345 97.1859 77.6338 97.005 77.4113 96.7615C77.1295 96.4478 75.7945 94.9531 75.8464 94.6985C76.3508 94.0416 76.6141 94.8461 77.0924 94.942C77.5263 95.0269 78.0677 94.9273 78.4719 94.7538L79.3211 90.1665C79.2729 90.1112 78.4719 90.5946 77.9046 90.0115C77.5411 89.6351 77.7673 89.2956 77.6301 89.0483C77.556 88.9154 76.9997 88.8859 76.996 88.4357C76.9923 87.9854 77.5931 87.9338 77.7377 87.7013C77.8193 87.5684 77.619 87.2067 77.9157 86.8783C78.2123 86.5498 78.6536 86.631 78.7797 86.4982C78.8539 86.417 78.8316 86.1882 78.9243 86.0701C79.0356 85.9261 79.2989 85.904 79.3286 85.7711C79.3805 85.5608 78.8761 83.8336 78.8242 83.328C78.7649 82.7781 78.9466 81.778 78.8316 81.372C78.7946 81.2355 77.8712 81.2281 77.8749 80.3977C77.8786 79.4382 78.624 79.1614 78.7834 78.6817C79.1988 77.438 79.5511 77.0726 80.1666 75.9396C80.6116 75.1166 81.2977 74.3638 81.1419 73.3673C79.5659 73.6958 78.7315 72.1753 80.4781 71.7177L80.1889 70.9796C80.7303 69.9241 81.6388 70.6437 82.3657 70.5699C82.7068 70.533 82.9071 70.2378 83.3299 70.271C84.8243 70.3891 84.3608 71.3744 84.6945 72.0535C84.9504 72.5812 86.278 72.6698 85.9034 73.9135C85.7069 74.5594 84.9838 74.2235 84.6129 74.4413C84.4646 74.5261 84.3793 74.8657 84.205 75.0207C83.4967 75.6554 82.9739 75.1757 82.5474 74.5298C82.3286 74.9616 81.7056 74.7586 81.4979 74.8841C81.4164 74.9321 80.6376 76.471 80.6413 76.5928C80.6487 77.3678 82.7699 76.6334 83.5486 77.4822C84.409 78.4233 83.2001 78.9031 83.1778 79.0433C83.1444 79.25 83.4188 79.5305 83.2149 79.9623C83.0443 80.3166 82.4028 80.3793 82.3323 80.4863C82.2989 80.538 82.1321 81.5639 82.1358 81.6931C82.1469 82.2873 82.6141 83.0844 82.7513 83.7155C83.4856 87.1218 83.3966 90.5024 83.1333 93.9604C84.5276 93.381 85.7811 93.1226 86.5746 91.7055C86.8528 88.4209 86.7267 85.14 86.7749 81.8444C86.7971 80.1579 86.9974 78.4861 86.9455 76.7441C86.8973 75.1978 86.0221 74.3379 88.2656 74.1128L86.7823 66.3554C84.4164 65.5139 81.9429 65.3515 80.2334 63.3291C79.5659 62.5431 79.0801 61.6241 78.8353 60.6203C79.2507 60.0298 79.8848 60.7901 80.4411 60.9857C82.7773 61.8013 84.7205 62.0596 86.4411 64.1521C86.1853 63.3808 85.3064 62.8789 84.7909 62.2515C83.4856 60.6535 81.7872 58.0628 80.9491 56.1917C80.7414 55.7267 80.5708 54.7007 80.3928 54.4387C80.2445 54.2173 79.2396 53.8187 78.9948 53.446C79.0171 54.3095 78.8353 55.2875 77.7599 55.0956C77.3965 55.0292 77.2778 54.6786 77.0591 54.6232C76.755 54.5457 76.31 54.8816 75.8019 54.7339C74.9453 54.483 74.949 53.1175 75.0603 52.4163C75.1752 51.7003 75.8724 50.763 75.9391 50.3275C75.9873 50.0249 75.3681 49.6521 75.8687 48.7738C76.2914 48.0283 76.9478 48.3198 77.5115 48.1021C78.4386 47.7441 79.158 46.9986 80.3187 47.519L79.9886 45.3785C80.6561 45.2309 80.6079 45.5741 80.9788 45.8693C81.739 44.6625 80.1481 42.8099 79.0393 42.6143C77.9194 42.415 77.3038 42.7435 76.1913 41.9869C74.8526 41.0754 73.0355 37.4328 73.3174 35.8533C73.4323 35.2185 73.8958 34.9196 74.1035 34.4915C74.2556 34.1778 74.1888 33.591 74.4002 33.3843C74.5893 33.1961 75.0899 33.2589 75.3495 33.0928C75.5535 32.9636 75.6276 32.5909 75.9651 32.3731C76.0689 32.3067 78.1604 31.6018 78.2939 31.576C78.6796 31.5059 80.3187 31.5059 80.6636 31.6092C81.1605 31.7605 81.5091 32.3879 81.7835 32.8012C83.0591 34.7055 83.5857 35.9493 83.2594 38.3296C83.0962 39.5254 81.6982 41.3448 82.4806 42.3191C83.4559 43.5369 83.6006 41.6179 83.8824 40.9277C84.3237 39.8575 84.8428 38.1783 85.5326 40.2671L86.5932 38.7208L87.0048 38.6323C87.7502 38.9459 87.4201 41.4481 89.6674 38.4588L90.8281 40.1011C91.2026 40.186 91.1989 39.6176 91.3287 39.4515C92.2373 38.3075 91.8256 40.8429 91.8998 40.9241L93.9616 39.7726C94.466 40.1675 94.0024 40.7321 94.0543 41.3152C94.1026 41.8651 94.5698 42.4667 94.5476 43.0646C94.9592 43.2491 94.8479 42.7472 94.9592 42.7287C95.1557 42.6955 95.5377 42.8284 95.5377 42.9834V46.279C95.5377 47.4341 94.1841 49.8588 93.3016 50.6449C92.8862 51.0139 91.3473 51.7336 91.2212 51.9107C90.8392 52.4458 90.2385 55.5569 90.1198 56.3725C90.0123 57.1254 89.7601 58.9485 89.7786 59.6202C89.8157 61.1259 90.6501 63.0302 90.4091 64.643C90.5092 64.7463 92.1149 64.1743 92.393 64.0635C92.7898 63.9012 94.2101 63.0265 94.3176 63.0081C94.5401 62.9748 94.7367 63.1815 94.7144 63.4029C93.5537 65.3257 93.3498 67.2927 90.5759 67.278V74.0316L90.5871 74.0427ZM55.6694 34.0191C55.9549 33.9638 56.0068 34.0855 56.1292 34.2996C56.1886 34.4066 56.7374 36.4807 56.7522 36.6431C56.7819 36.9383 56.2219 37.1413 56.7411 37.4734C58.2318 35.3772 56.018 32.8086 55.9957 30.5611C55.7287 30.598 55.6546 31.159 55.5841 31.3841C55.2133 32.5835 54.0229 36.167 54.5903 37.1524C54.6348 37.2299 54.7942 37.3627 54.8387 37.3147C54.9203 36.9826 54.8684 36.3958 55.0316 36.1116C55.1651 35.8865 55.4172 35.8939 55.5322 35.5987C55.7436 35.0672 55.4061 34.5616 55.6657 34.0228L55.6694 34.0191ZM81.6537 40.4406C81.8947 40.4221 81.9133 40.197 81.9874 40.0346C83.0295 37.813 83.1148 34.7535 80.7377 33.3843C80.2519 33.8014 78.9281 34.6613 78.9095 35.344C78.8761 36.7722 80.2816 37.4771 80.9565 38.5769C81.2866 39.112 81.6648 39.8095 81.65 40.4406H81.6537ZM75.8576 33.6907C74.7525 33.6685 74.8118 34.7978 74.2036 35.499C75.4719 35.606 74.9045 34.9048 75.1456 34.3919C75.3087 34.0449 75.7241 34.0154 75.8576 33.6907ZM78.0084 34.8421C77.5745 34.82 77.4151 35.3145 77.0257 35.4326C76.5992 35.5617 76.2692 35.3625 76.017 35.4326C75.5609 35.5617 74.8007 36.4881 74.0368 36.3257C74.1591 37.9606 75.7241 41.5404 77.467 41.8873C78.2049 42.0349 78.8947 41.8356 79.7031 42.1309C80.2408 42.3301 80.4373 42.7915 80.9862 42.7435C80.7488 42.1899 81.1827 41.8799 81.1568 41.1861C81.0752 38.9902 79.5103 38.433 78.6944 37.038C78.3347 36.4216 78.2717 35.5138 78.0047 34.8384L78.0084 34.8421ZM87.1717 40.2192C86.9937 40.0752 87.0085 39.684 86.6191 39.7874C86.1371 40.7174 85.744 40.9019 86.3781 41.9205L88.1878 43.9023C90.105 41.6622 88.7403 41.4887 87.1717 40.2192ZM89.7638 41.9242C90.9023 41.127 90.7243 40.3926 89.5413 39.8058C89.304 39.8538 88.5846 40.3446 88.77 40.603C89.4004 40.6916 89.6303 41.3964 89.7638 41.9242ZM84.9578 40.7727C84.5276 40.6952 84.7019 40.8318 84.6129 41.0052C82.5214 45.0906 85.1914 46.8658 87.6797 49.5119L88.3509 50.8146C89.0184 49.5414 88.9146 47.2976 88.4436 45.9505C87.7316 43.9171 85.6179 42.8173 84.9578 40.7691V40.7727ZM57.9834 70.7471V41.1824L57.7349 40.9351H53.7633L53.1848 72.0646C54.6644 71.7287 54.8202 73.6109 55.9957 73.5482C55.5173 71.8653 55.8214 69.7912 57.9834 70.7508V70.7471ZM93.4017 41.1012L91.948 41.8578L92.2447 44.5555C94.9036 44.3378 93.5834 42.7656 93.4017 41.0975V41.1012ZM89.4301 49.8293C91.8368 47.5264 91.77 44.4817 91.2471 41.4297C90.6612 42.2342 88.9739 43.4262 88.7959 44.3525C88.681 44.9615 89.2076 45.8324 89.3522 46.5262C89.5858 47.6408 89.6637 48.711 89.4301 49.8293ZM83.1185 43.4336L82.4732 43.3118C81.7835 43.7731 82.5771 46.6443 82.9145 46.8842C83.0591 46.9876 84.3608 47.2717 84.4646 47.1979C83.5153 46.1646 83.1111 44.836 83.1185 43.4373V43.4336ZM94.8887 44.3968L92.2706 45.2493C92.1186 47.0983 91.3844 48.6298 90.2533 50.0728C89.9937 50.405 87.8651 52.1321 89.723 51.6893C93.2496 50.8515 95.0556 47.9139 94.8887 44.3931V44.3968ZM82.9738 50.3238C82.5659 48.8697 82.7402 47.3013 80.9899 46.8658C81.0974 48.2128 81.8576 49.5488 82.9738 50.3238ZM86.2298 48.8992C85.4028 48.1427 84.2013 47.9434 83.1407 47.6888L84.0011 50.7076L87.4424 51.4752C87.346 50.5784 86.8936 49.5045 86.2298 48.8956V48.8992ZM80.1592 49.0063C80.2 47.2939 78.5869 48.2313 77.6783 48.6815L80.1592 49.0063ZM85.9516 62.3475L83.2631 51.4346L82.0579 50.4935L80.823 49.01C80.5301 49.5709 81.0233 49.6964 81.2458 50.1503C81.9578 51.6192 80.8972 51.8221 80.8675 52.217C80.8601 52.3388 81.1234 52.634 81.1531 52.8924C81.2013 53.2946 81.001 53.6231 81.027 53.9922C81.1605 56.0699 83.5709 59.3803 84.8243 61.0853C85.1469 61.5245 85.477 62.0633 85.9516 62.3512V62.3475ZM77.8452 49.5008L80.4151 51.4752L80.8193 51.2132C80.6561 49.5525 79.2841 49.3384 77.8489 49.5008H77.8452ZM78.1753 54.4424C78.3347 53.0621 77.9008 51.7594 77.4336 50.4899C76.8366 51.5786 76.7809 53.97 78.1753 54.4424ZM76.3582 50.8183C76.1246 51.6524 75.3644 52.9219 75.7797 53.7818C75.9577 54.1471 76.4731 54.2689 76.6734 53.8519C76.2506 52.9108 76.4101 52.3019 76.5028 51.3719C76.5213 51.1874 76.6548 50.7777 76.3582 50.8183ZM78.3421 50.8183C78.6759 51.9181 79.399 52.8665 80.2445 53.6157C80.6784 53.6305 80.2519 52.4421 80.1407 52.2392C79.9849 51.9661 78.5535 50.6043 78.3421 50.8183ZM87.9393 63.831C88.1841 63.6465 89.1037 60.1147 89.1 59.6312C89.0963 58.8895 88.0506 55.151 87.6834 54.4572C87.4201 53.9589 86.1593 53.1544 86.3151 52.4274C86.3521 52.2539 86.6748 52.1321 86.5413 51.9734C86.2594 51.5638 84.5128 51.4789 83.9714 51.4826L86.9566 63.211L87.943 63.8347L87.9393 63.831ZM90.4239 52.3019C89.9603 51.9476 89.3299 53.4238 89.1371 53.7375C88.9702 54.0143 88.5104 54.3612 88.4622 54.5568C88.3769 54.8926 89.1482 56.7896 89.3485 57.2398L90.4239 52.3019ZM86.4523 65.477C85.1989 62.9785 82.4843 62.2589 79.9998 61.5245C79.7402 61.8345 81.535 63.7572 81.9281 63.9676L86.4523 65.477ZM89.7416 64.8016C89.8306 64.6946 89.6303 62.6132 89.5784 62.281C89.5524 62.1113 89.5116 61.6647 89.2632 61.6906C89.5005 62.3364 87.9838 64.6983 88.2693 64.9825L89.7416 64.8016ZM90.613 66.4402C92.037 66.7096 92.9493 65.8018 93.2348 64.488C92.3596 65.2298 89.7341 64.8865 90.613 66.4402ZM89.7601 65.477L88.8775 65.6468C88.3472 65.894 89.3707 66.6617 89.7601 66.4661V65.4807V65.477ZM87.6093 66.7982L89.1816 74.2051L89.2632 72.4779C89.0741 71.6992 88.7032 67.1525 88.2805 66.8683C88.0913 66.7392 87.8206 66.8056 87.6093 66.7982ZM89.7601 67.123L89.1 67.2042C89.4968 68.1342 89.4746 69.1601 89.634 70.1307C89.66 70.2784 89.7045 70.6253 89.9233 70.581L89.7601 67.123ZM61.9587 76.1832C63.3864 74.9469 65.4965 71.8542 63.3382 70.4555C60.9315 71.0644 62.3963 74.4449 61.9587 76.1832ZM82.8478 71.7029C82.8774 71.7509 83.4411 72.0646 83.5338 72.0498C84.7946 71.2711 82.9701 70.5958 82.8033 71.1862C82.807 71.356 82.7588 71.5479 82.8478 71.7066V71.7029ZM59.6373 76.6777C58.955 75.8584 58.2059 71.5331 57.3752 71.26C56.1255 71.1419 56.4185 72.5554 56.7893 73.3341C57.0044 73.777 58.2763 75.4967 58.6472 75.9322C58.7696 76.0762 59.4593 76.8585 59.6373 76.674V76.6777ZM62.2888 77.3383L62.6262 77.5966C64.3061 76.6703 67.9254 75.4414 67.5472 73.013C67.41 72.1347 67.1356 72.1199 66.3865 72.4373C64.9551 73.0462 63.6608 75.84 62.6707 77.128C62.5632 77.2682 62.4853 77.3678 62.2888 77.3346V77.3383ZM61.2949 76.2681C61.4099 75.5853 61.2949 74.3933 61.2949 73.633C61.2949 71.917 59.4816 72.1901 59.4741 73.7954C59.4741 74.3232 60.4606 77.1501 61.1281 76.6777C61.091 76.5116 61.2801 76.3566 61.2949 76.2681ZM57.9834 77.5007C57.3456 76.7331 56.2701 76.412 55.6694 75.6075C54.8684 74.5409 54.4827 71.8948 52.5099 72.7953C52.0908 73.3341 52.5173 74.2235 52.9141 74.6479C53.081 74.8288 56.8041 77.2866 57.0378 77.3789C57.3567 77.5081 57.6496 77.5302 57.9871 77.5007H57.9834ZM82.6438 72.8912C81.9726 72.9503 81.7056 73.6404 81.8169 74.2088C82.2915 74.3416 82.7699 73.0315 82.6438 72.8912ZM56.6076 74.2604C56.4481 74.1239 56.1997 73.9836 55.992 74.1202C55.0649 74.7254 57.5569 76.2016 57.9055 76.5043C58.0983 76.6703 58.3542 77.1833 58.395 77.1685C58.7436 77.0468 58.5693 76.829 58.4506 76.6223C58.2726 76.3123 56.8412 74.456 56.6076 74.2567V74.2604ZM88.4214 75.375L87.4424 75.3565C87.5685 77.4749 87.6352 79.5784 87.6167 81.7042C87.5833 84.8485 87.3793 88.0961 87.2718 91.2442C87.1643 94.4032 87.5796 97.5549 85.7885 100.389L90.0938 100.061C89.9381 96.8906 90.2756 93.7389 90.2681 90.5835C90.2607 88.4689 90.2681 85.5608 90.0901 83.5088C89.8676 80.9402 88.8367 77.9509 88.4214 75.3676V75.375ZM94.8887 75.3602L90.5871 75.5226C90.639 76.5891 90.524 77.6778 90.5796 78.7407C90.702 80.9993 91.0803 84.0366 91.4363 86.2878C92.1705 90.9563 94.0098 95.455 94.2398 100.219L95.4709 100.397C95.508 99.7877 94.9777 99.2304 94.8034 98.592C94.2694 96.6249 94.7144 94.6689 94.733 92.7462C94.7923 86.9521 94.5624 81.1358 94.8924 75.3639L94.8887 75.3602ZM57.3085 78.1761C55.9957 77.8476 54.2157 75.9396 52.9808 75.6333C51.9536 75.3787 50.8374 76.1241 51.6162 77.1722C52.5766 78.4639 55.8251 77.9546 57.238 78.6595L57.3122 78.1761H57.3085ZM63.5273 78.8182C64.2208 78.9142 65.2628 78.8182 66.0082 78.8182C66.5904 78.8182 67.9773 78.1834 68.3964 77.7332C68.567 77.5524 69.2308 76.6666 68.656 76.6703C67.1096 76.674 64.6992 78.1908 63.1157 78.4897C63.0564 78.6558 63.4606 78.8071 63.5273 78.8182ZM69.075 78.1613C70.0651 77.9288 70.7586 77.914 71.7228 78.2425C71.9082 78.3052 72.5942 78.9732 72.7129 78.4049C72.7537 78.2056 71.9082 77.3863 71.7116 77.2608C70.8031 76.6925 69.3717 77.0578 69.0713 78.1576L69.075 78.1613ZM61.7325 77.8882C60.2974 76.2127 56.73 78.1576 58.0724 80.132C58.5841 80.8849 59.1849 80.3867 59.5965 80.3461C60.0749 80.2981 60.6311 80.3202 61.1206 80.2243C61.6064 79.3681 62.5743 78.8736 61.7362 77.8919L61.7325 77.8882ZM80.6042 78.1133C81.3793 77.2387 79.3063 77.3937 79.4991 78.4897C79.8477 78.5414 80.378 78.368 80.6042 78.1133ZM83.1407 78.3237C83.0406 77.4749 81.9207 77.6778 81.3236 77.6668L82.5622 78.3384L83.1407 78.32V78.3237ZM56.8227 79.1504C55.7992 78.9326 54.6496 78.9474 53.6372 78.7776C52.4061 78.5709 50.1106 77.4195 49.3356 79.1909C48.6458 80.7742 50.5593 80.7188 51.6051 80.6302L56.819 79.1504H56.8227ZM69.2382 78.8219C68.5892 78.7998 67.6992 78.737 67.2542 79.3127L68.1516 79.4825L69.2382 78.8219ZM74.3705 82.1138C75.1085 81.3831 75.1048 79.7039 74.0998 79.1725C73.7846 79.0064 72.9057 78.7665 73.1801 79.4235C73.5324 80.2575 74.3705 81.0916 74.3705 82.1138ZM80.9862 78.9843L80.6561 79.0655C80.7377 79.7261 80.8193 80.8591 81.65 80.9587C81.8502 80.0656 81.3014 79.6929 80.9862 78.9843ZM71.5522 80.7963C71.6115 79.4751 71.0998 78.7739 69.7351 79.3164L71.5522 80.7963ZM73.7067 82.6084C73.9515 82.2873 72.6906 79.5046 72.0565 79.3127C72.483 80.5749 71.86 81.7079 72.2234 82.9368L73.0355 82.35L73.7104 82.6084H73.7067ZM79.8329 81.1248L80.3224 80.7262L79.9961 79.3164C79.7439 79.3312 79.6623 80.0656 79.6586 80.2317C79.6549 80.5601 79.7661 80.8222 79.8329 81.1285V81.1248ZM70.8921 81.4532C70.677 80.2723 69.1381 79.5526 68.0812 80.1357L70.8921 81.4532ZM57.3196 80.4642C57.3641 80.2427 57.2566 80.0582 57.0415 79.9918C56.5297 79.8331 53.1403 80.896 52.5173 81.206C51.8461 81.5381 51.3195 82.1987 51.1971 82.9368C51.8943 83.5568 56.1663 80.3055 57.3196 80.4642ZM67.1689 79.9733H62.9488C63.7091 80.8627 66.3234 81.5972 67.2097 80.7557C67.4174 80.5564 67.4953 80.0656 67.1689 79.9733ZM64.9328 83.5937C65.0329 82.9995 64.7511 82.5235 64.3617 82.1064C64.1207 81.8481 62.1479 80.2981 61.955 80.4679C62.1775 80.8221 64.5026 84.0698 64.9328 83.5937ZM69.8612 81.8149C69.8093 81.7263 68.4854 80.8775 68.4112 80.9587C68.4817 81.4791 69.0528 81.6378 68.9118 82.2688L69.8983 82.2762C69.8834 82.1249 69.9428 81.9551 69.8612 81.8149ZM57.4865 81.1248C57.2491 80.8886 53.6076 83.2874 53.8486 84.2543C54.7423 84.664 57.8388 81.4754 57.4865 81.1248ZM60.9612 85.5718C61.5656 85.129 60.1973 81.6968 59.7226 81.1248C59.4074 81.3388 59.5112 81.4938 59.5409 81.7854C59.5706 82.0954 60.3975 85.9852 60.9612 85.5718ZM60.9649 81.1248C61.1206 81.7964 61.9995 84.9334 62.7041 84.9075C62.9971 84.7083 62.9711 84.5016 62.9451 84.1879C62.9044 83.7229 61.5323 80.538 60.9686 81.1248H60.9649ZM82.4769 86.8893C82.4139 85.7047 82.1209 82.8261 81.4646 81.885C80.8712 81.0325 80.3335 82.0179 79.4954 81.7817C79.2766 81.9847 79.7995 85.5091 80.0739 85.904C80.3298 86.2693 80.7934 85.8228 81.1976 85.9224C81.5202 86.0036 81.9837 86.834 82.4732 86.8893H82.4769ZM58.6472 82.0326C58.4173 82.9331 58.8178 84.7267 58.6472 85.7379C59.133 85.8634 59.1293 85.1659 59.1515 84.8411C59.222 83.8078 59.0366 82.804 58.9772 81.7854C58.8734 81.7817 58.662 81.9773 58.6472 82.0326ZM56.3295 85.0773C57.6014 85.0293 57.6311 83.0697 57.9834 82.1138C57.5273 82.4386 55.9475 84.6787 56.3295 85.0773ZM71.5522 82.4423C71.2666 82.1434 71.3223 82.3205 71.2852 82.6157C71.2258 83.114 71.2407 83.4646 71.0145 83.9628C70.7549 84.5311 70.2098 84.83 70.0651 85.4058C70.9885 84.723 71.9823 83.6491 71.5522 82.4423ZM67.4174 84.0883C67.855 84.2174 68.4483 84.151 68.8636 83.9628C70.1319 83.3871 69.4347 82.0585 68.5002 83.2763C68.3667 83.4498 68.274 83.8668 68.2221 83.9C67.9996 84.044 67.4211 83.734 67.4211 84.0883H67.4174ZM52.8511 98.913H57.9834L57.8165 85.2434C57.4346 85.1696 57.3418 85.6161 57.0378 85.7047C56.0847 85.9889 55.4321 85.3799 55.6657 84.4167C55.4951 84.2211 54.034 85.594 53.3628 84.6492C52.8993 84.0144 53.4926 83.531 53.5964 82.9331L53.0142 83.2136L52.8548 98.913H52.8511ZM73.1282 83.1066C72.4941 84.2211 70.0429 85.5017 71.8006 86.6864C73.1505 86.0996 74.504 84.3761 73.1282 83.1066ZM66.7536 84.9149C66.8611 84.0329 66.6053 83.2357 65.5966 83.269C65.5187 83.3391 66.4829 84.8633 66.7536 84.9149ZM71.389 88.2069C73.4694 88.3656 76.1394 86.0553 75.1122 83.9259C74.7747 85.022 74.2926 85.642 73.4546 86.3911C73.258 86.5683 71.0886 87.9485 71.3927 88.2069H71.389ZM65.4297 84.2543C65.0403 83.8631 65.0626 84.9297 65.1034 85.1253C65.1293 85.236 66.1306 86.1623 66.3791 86.2066C66.761 86.273 67.7289 85.9889 67.0428 85.6973C66.2641 85.3689 65.6003 85.3246 65.4297 84.2543ZM69.5682 84.4204L67.5843 84.9924C67.9254 85.6567 70.1059 84.985 69.5682 84.4204ZM66.5904 89.0298C66.3346 88.2807 65.5336 87.9116 65.1294 87.2769C64.8661 86.8635 64.4804 85.14 64.028 85.2434C63.0341 85.4759 64.2431 87.358 64.6881 87.7123L66.5904 89.0298ZM61.625 96.9386C61.5286 94.8867 62.3147 92.0819 61.9476 90.1112C61.8586 89.6425 61.1837 89.0003 60.9575 88.4615C60.468 87.3027 60.8944 86.3321 59.8858 85.4095C59.5409 86.0885 59.3518 86.3616 58.6361 86.6716L58.7844 92.9233C58.5804 94.0452 58.9105 95.2225 58.6435 96.278C59.6447 96.1046 60.4049 97.2781 61.6213 96.9386H61.625ZM64.3691 88.277C63.9909 87.8858 63.6163 87.6127 63.3086 87.1071C62.8747 86.3874 62.9043 85.3209 61.803 85.4168C60.3975 87.6422 62.3147 90.1776 64.7659 90.3437L64.9031 88.79C64.7103 88.6202 64.5397 88.4541 64.3617 88.2733L64.3691 88.277ZM70.5621 85.904C70.4693 85.8228 69.5794 86.2214 69.3012 86.2251C68.7264 86.2324 68.1034 85.5534 67.7511 86.727C67.9032 86.8598 69.8352 86.5166 70.1504 86.3985C70.4063 86.3026 70.6288 86.2583 70.5658 85.9077L70.5621 85.904ZM68.2443 87.3876L65.6003 86.5609C65.7301 87.3433 66.6312 87.6865 67.3358 87.7123C67.4916 87.7197 68.2369 87.6385 68.2443 87.3876ZM71.059 87.0554C69.7351 87.5057 68.5707 88.4394 67.0873 88.3729C67.321 89.2144 67.4656 89.2623 68.3259 89.1959C69.4829 89.1073 70.7846 88.2069 71.0553 87.0554H71.059ZM81.1568 88.539C80.938 88.7272 82.2099 90.1185 82.6438 89.2771C82.7328 88.8748 81.4905 88.432 81.1568 88.539ZM79.666 88.7051C79.2915 88.6534 78.3273 89.0594 78.3459 89.4469C78.3792 90.1075 79.7365 89.1553 79.666 88.7051ZM91.9146 100.068C91.7923 97.2412 91.0988 94.4401 91.2508 91.5874L90.9245 88.7051L90.7576 100.072H91.9183L91.9146 100.068ZM65.4334 89.362C64.9847 90.6168 67.0243 91.9232 68.0181 91.9896C69.5719 92.0967 71.8118 90.4913 70.8142 88.8712C69.279 90.1149 67.1912 90.1481 65.4334 89.362ZM82.6438 90.185H81.4868C81.3199 90.34 82.3768 91.7608 82.5622 91.997L82.6438 90.185ZM64.4211 91.0227L62.6188 90.5134C62.578 91.4139 62.6744 92.3292 62.6188 93.2296C62.578 93.857 61.9736 96.8611 62.5372 97.101C62.8598 97.2375 62.8747 97.1268 62.9896 96.8943C63.2641 96.3297 64.625 91.2515 64.4248 91.0227H64.4211ZM82.1469 95.289L82.451 93.1079L80.7414 90.5134C79.425 91.27 79.6178 93.1521 79.1691 94.4623C80.4003 94.3479 81.2124 94.4697 82.1469 95.2853V95.289ZM93.5648 100.064L91.9109 91.997C92.0073 94.6948 92.3263 97.3888 92.7564 100.05L93.5648 100.068V100.064ZM86.2372 95.0786C86.6414 94.6726 86.7304 93.5212 86.5339 92.9861C85.6179 94.1227 83.7637 93.9456 82.9738 95.1266C83.8824 95.2447 85.477 95.8388 86.2372 95.0823V95.0786ZM66.2085 98.8687C66.2901 98.8023 66.8129 98.0458 66.8463 97.935C67.1801 96.9312 66.3568 95.4513 65.7635 94.632C65.5373 95.8019 63.5793 97.4479 64.4507 98.6547C64.6732 98.9647 65.9118 99.1123 66.2085 98.8687ZM79.0134 97.0936C79.6623 97.3556 81.9244 97.1268 81.7946 96.2337C81.6982 95.5842 80.8601 95.1303 80.2445 95.1118C78.7093 95.0638 78.9763 95.8684 79.0134 97.0936ZM86.4486 95.7835C85.2396 96.4736 84.0493 95.9311 82.8107 95.7835C82.4398 99.3079 81.7019 102.792 80.1629 105.995L82.896 106.165C83.2075 102.353 86.2706 99.5552 86.4486 95.7835ZM79.666 105.01C80.1147 104.548 80.404 103.681 80.6191 103.076C80.8675 102.367 82.0616 97.769 81.8169 97.4331C80.9083 97.8096 79.9701 98.1159 79.0059 97.7616V98.5846L81.4868 98.09C81.6389 99.3743 80.3891 100.4 79.1728 99.9021L79.6697 105.006L79.666 105.01ZM63.4235 100.205L63.9316 99.1824C63.1417 97.7025 62.1071 97.47 60.468 97.5955C60.3196 97.7247 61.7696 99.7102 62.0403 99.9021C62.337 100.112 63.1528 100.445 63.4235 100.205ZM71.7191 98.2561C70.9551 98.3558 70.2357 98.0679 69.4829 98.079C68.7301 98.09 66.7351 98.5956 66.9501 99.6142C67.3877 101.699 70.9848 99.0385 71.7191 98.2561ZM59.8042 99.5736C56.9265 99.4961 54.0155 99.9907 51.2009 99.4076L52.5989 106.331C54.0488 110.173 57.4828 109.08 58.4618 105.567C59.0143 103.596 58.6731 101.378 59.8042 99.5736ZM61.7881 100.4L60.6311 99.4076L59.6373 102.371C60.3679 101.865 60.7424 100.961 61.6843 100.736L61.7844 100.4H61.7881ZM64.892 99.6032C62.8895 100.005 65.0033 102.843 66.5163 101.725C67.5806 100.939 66.0639 99.3707 64.892 99.6032ZM87.5277 101.22C88.3064 101.327 89.2854 101.142 90.0938 101.22C90.2681 100.33 89.5005 100.873 89.0184 100.887C88.3843 100.91 87.7502 100.873 87.1161 100.887C87.0567 101.054 87.4609 101.205 87.5277 101.216V101.22ZM92.0593 100.74L90.7502 100.725V101.22C91.3658 101.057 92.5228 101.762 92.0593 100.74ZM71.8859 102.375C70.8921 102.105 70.2098 101.183 69.1603 101.05C67.4063 100.832 66.583 101.947 68.0886 102.939C69.3049 103.744 70.6214 103.345 71.7858 102.711L71.8859 102.371V102.375ZM63.8388 101.814C63.6683 101.688 63.6534 101.408 63.2937 101.29C62.1219 100.902 61.2727 101.655 60.6311 102.533C62.0551 102.574 63.3308 103.161 64.7696 102.699C64.9958 102.474 64.0057 101.939 63.8388 101.814ZM78.3384 102.209C78.4905 101.622 76.8551 101.09 76.6845 101.223C76.9515 101.976 77.5374 102.308 78.3384 102.209ZM85.1581 101.578C83.9306 103.999 83.315 106.825 83.1444 109.542C82.8033 114.922 83.137 120.61 82.985 126.016C82.8626 130.271 82.4028 134.585 82.3101 138.852C82.2804 140.287 82.1209 143.487 82.5585 144.712C83.3929 147.052 90.0938 147.358 92.1446 147.155C93.3016 147.041 97.2954 145.897 97.5402 144.62C97.5698 140.055 97.3028 135.486 97.2769 130.925C97.2287 122.861 97.9741 112.996 96.8616 105.117C96.7726 104.5 96.2534 101.943 95.9715 101.555C95.7639 101.268 94.7923 102.002 94.4178 101.902C94.7923 105.084 94.0803 108.346 94.2361 111.52C94.7256 121.562 95.8047 131.622 96.2237 141.66C96.2497 142.291 96.4462 143.147 96.5426 143.793L96.1384 144.048C95.3041 142.727 95.6749 140.719 95.5562 139.191C95.2744 135.623 94.796 132.057 94.5661 128.481C94.2657 123.809 94.3696 118.982 93.8875 114.332C93.8726 114.173 93.8133 113.712 93.5723 113.741L92.5636 123.868C92.7416 128.286 93.7391 132.563 94.377 136.899C94.6811 138.955 94.8183 141.051 95.0482 143.118C93.9357 144.133 94.3065 141.845 94.2323 141.166C94.0914 139.911 93.7651 138.667 93.7132 137.398L92.2484 128.729C92.0222 131.596 92.2076 134.508 91.9146 137.372C91.6439 139.992 90.8726 142.638 90.5908 145.266C90.5537 145.532 89.8676 145.329 89.9381 144.967C90.2793 142.273 90.9876 139.579 91.2508 136.877C91.6143 133.179 91.7811 128.607 91.9146 124.854C92.1112 119.255 90.8986 113.605 90.4276 108.054C90.2533 106.006 90.3015 103.925 90.0976 101.88L85.1618 101.578H85.1581ZM92.4078 118.019C92.4783 115.579 93.309 112.911 93.4017 110.523C93.5018 107.903 92.4338 104.973 92.3893 102.312L92.1408 102.065L90.9245 101.877L91.2546 109.206L92.4116 118.019H92.4078ZM93.7317 106.656V101.88L93.0939 102.068L93.0531 102.286L93.728 106.659L93.7317 106.656ZM66.5904 105.995C66.6683 105.117 67.6696 103.493 66.6831 102.858C65.2072 101.906 64.918 105.792 66.5904 105.995ZM61.1281 103.198C58.9735 103.061 59.4816 104.759 58.9809 106.25C58.5322 107.589 57.772 108.364 56.6929 109.224L56.4926 121.643L57.6793 119.451C58.1911 118.51 59.2257 117.978 59.7745 117.089C61.7325 113.9 60.3085 107.623 60.7832 103.928C60.8277 103.57 60.9538 103.474 61.1243 103.198H61.1281ZM64.9365 103.364C63.8982 103.748 62.7857 103.246 61.7919 103.607C62.6188 104.209 63.7202 103.973 64.6695 104.032L64.9365 103.364ZM61.4581 104.349V114.314C61.4581 115.052 60.887 116.639 60.4976 117.31C59.7856 118.539 57.6941 119.945 57.4865 121.233C57.442 121.514 57.4679 121.492 57.7053 121.451C59.7671 121.086 61.6658 120.849 63.7795 120.986C63.5236 119.31 62.8487 117.712 62.5335 116.052C61.8364 112.402 61.8178 108.316 62.1404 104.626L61.4655 104.353L61.4581 104.349ZM68.2443 104.515C67.4916 104.316 67.1615 106.017 67.2802 106.538C67.3543 106.862 67.7178 107.088 67.7289 107.386C67.74 107.626 67.5435 107.922 67.5657 108.22C67.7326 110.73 68.4372 113.324 66.9316 115.624L68.1071 120.705L68.4891 120.986L72.546 121.23C71.9712 119.133 69.253 118.27 68.5336 116.329C68.478 116.177 68.2406 115.218 68.2406 115.137V104.512L68.2443 104.515ZM62.9488 113.572V110.523C62.9488 110.324 63.227 109.619 63.1936 109.283L63.6942 109.125L64.7733 112.088C65.0329 112.132 64.9514 111.856 64.9439 111.675C64.8364 109.401 64.2282 106.988 64.7696 104.681H62.782C62.6114 107.464 62.667 110.217 62.782 113C62.7894 113.203 62.6559 113.612 62.9488 113.575V113.572ZM66.9056 107.172L65.2666 106.161L65.4334 110.771L66.9056 107.172ZM79.0022 106.656H75.2791C75.2531 106.656 74.797 106.818 74.8674 106.984L78.598 107.165L79.0059 106.659L79.0022 106.656ZM79.8292 107.15H82.1469C82.1691 106.759 82.2025 106.859 81.8984 106.822C81.4126 106.763 80.5189 106.634 80.0776 106.648C79.6363 106.663 79.8551 106.84 79.8292 107.15ZM78.3384 107.807C76.8366 107.988 75.3532 107.645 73.8736 107.479C74.6116 109.372 75.9948 111.077 75.6944 113.243L76.9404 112.919L78.3421 107.807H78.3384ZM82.3138 107.811L79.7439 107.958L79.336 112.915L81.3236 113.077C80.8119 111.147 81.8502 109.601 82.3175 107.807L82.3138 107.811ZM78.4831 112.893C78.6981 112.764 79.0171 109.191 79.0022 108.634L78.2976 110.32L77.6783 112.834L78.4831 112.896V112.893ZM55.6657 133.176L55.9957 109.291C55.1428 109.483 55.0872 109.46 55.0056 110.365C54.657 114.332 54.9426 119 54.8461 123.053C54.8387 123.444 54.6756 123.802 54.6681 124.193C54.594 127.193 54.6793 130.186 54.5087 133.176H55.6694H55.6657ZM67.0873 113.324C67.2283 112.273 67.0873 110.664 67.0873 109.534C67.0873 109.501 66.8092 109.235 66.7573 109.287C66.7054 109.807 66.4495 110.254 66.3346 110.763C65.9971 112.299 66.1454 113.675 66.2604 115.214C66.4903 115.214 66.5941 114.742 66.6683 114.55C66.7796 114.269 67.054 113.561 67.0873 113.321V113.324ZM82.4769 112.834C82.5474 111.826 82.425 110.793 82.4769 109.785C82.2359 109.748 82.2507 110.069 82.1951 110.243C81.7835 111.509 81.8502 112.125 82.1469 113.409C82.5734 113.535 82.4547 113.155 82.4769 112.834ZM65.2629 116.207C65.2703 115.841 65.4446 115.502 65.4446 115.137C65.4446 114.564 64.3654 112.601 64.0206 111.929C63.9241 111.741 63.8648 111.476 63.6126 111.431C63.4309 113.332 63.7276 114.948 65.2629 116.207ZM64.6621 116.646C64.2468 116.233 63.8945 115.554 63.4717 115.111L62.9488 113.738C63.0935 116.055 63.8982 118.259 64.4396 120.488L65.4186 117.048C65.1627 116.956 64.8512 116.834 64.6621 116.646ZM76.1913 140.586C76.0801 136.763 76.0207 133.12 76.3582 129.304C76.5547 127.075 77.1258 124.606 77.1888 122.392C77.263 119.86 76.3396 117.336 76.8106 114.801L75.3643 114.472C74.5671 115.598 73.3841 116.539 72.5534 117.613C71.3668 119.152 72.1047 118.849 72.8501 120.108C73.6214 121.41 73.9403 123.352 74.0368 124.857C74.3779 130.109 73.5324 135.604 73.8996 140.889C74.3112 141.549 78.8539 141.808 79.7439 141.738C80.2816 141.693 81.5424 141.594 81.65 141C81.6759 137.043 81.8057 133.083 82.1543 129.146C81.7278 124.621 82.8404 119.399 82.3212 114.967C82.1988 113.922 81.2643 114.616 80.5597 114.708C80.048 114.775 79.5251 114.69 79.0134 114.734C78.8836 116.834 78.0269 119.336 78.001 121.396C77.9676 123.931 79.1691 128.323 79.4806 131.135C79.7698 133.763 79.8143 136.39 79.9998 139.018C80.048 139.715 80.7971 141.217 79.6697 141.077C79.5918 140.616 79.4027 140.121 79.3582 139.656C79.1506 137.549 79.2099 135.217 79.0059 133.091C78.7278 130.201 78.1345 127.33 77.8489 124.444C77.6079 124.473 77.5708 125.16 77.5411 125.37C76.8217 130.437 76.7809 135.471 76.8588 140.586H76.1987H76.1913ZM77.5115 114.727V118.845C77.7599 118.853 77.7562 118.262 77.7896 118.052C77.8638 117.631 78.2902 114.841 78.1716 114.727H77.5115ZM67.4174 120.986C67.5546 120.853 66.761 117.694 66.6127 117.259C66.5385 117.045 66.5608 116.757 66.2604 116.705C65.8117 118.022 66.5051 119.366 66.4458 120.717C66.5645 121.093 67.0911 120.982 67.4137 120.986H67.4174ZM58.6472 122.137C60.29 122.082 62.0626 122.495 63.7016 122.311C64.4989 122.222 64.473 121.72 63.7016 121.635C62.604 121.517 60.3975 121.702 59.2405 121.824C59.0811 121.842 58.6175 121.898 58.6472 122.137ZM67.5843 121.647L66.6164 121.672L66.4273 122.303H67.5843V121.647ZM71.8859 121.809L68.2481 121.643L68.4409 122.274C69.4199 122.226 70.6844 122.256 71.6449 122.137C71.8859 122.108 72.1566 122.012 71.8896 121.809H71.8859ZM63.939 122.96C61.6695 123.031 59.3814 122.953 57.1564 122.466C56.6669 124.248 56.9006 126.02 56.8301 127.824C56.5816 134.357 56.2034 140.885 56.6632 147.41C56.8449 149.997 56.0439 151.983 59.2961 152.695C62.1738 153.326 65.3963 153.352 68.3 152.909C70.3321 152.599 72.6313 152.119 73.5028 150.016C73.5324 147.008 73.1282 143.993 73.0355 141C72.8723 135.855 73.6808 130.419 73.3804 125.337C73.3285 124.462 73.0541 123.518 73.0392 122.628L68.8191 122.953L68.4483 123.193C69.5942 129.976 71.2407 137.364 70.7215 144.28C70.6956 144.638 70.5954 146.1 70.1467 146.011C69.6053 145.901 70.054 144.343 70.0688 143.959C70.1801 140.66 69.9205 137.361 69.546 134.091C69.1158 130.352 68.3371 126.662 67.7437 122.953L66.2752 123.141C66.1454 123.839 65.8747 124.418 65.9378 125.156C66.1195 127.348 67.4322 130.836 67.8624 133.298C68.63 137.697 68.9675 141.631 68.7301 146.089C68.7042 146.55 68.897 149.477 68.3222 149.469C68.1405 149.322 68.007 149.141 67.9848 148.901C67.829 147.041 68.2814 144.716 68.2443 142.793C68.1776 139.151 66.9835 129.899 65.5966 126.651C65.5261 126.481 65.4891 126.267 65.2591 126.249C64.2356 129.884 63.5273 133.589 63.2715 137.368C63.0156 141.147 63.0786 145.395 63.2715 149.226C63.3271 150.337 63.6015 151.562 63.6015 152.687C63.6015 152.828 63.2492 152.798 63.1862 152.769C62.5521 152.488 62.6485 148.222 62.6114 147.41C62.2962 140.468 62.4223 134.475 64.1429 127.699C64.5175 126.226 65.3778 124.931 64.7548 123.451L62.9859 130.009C61.9439 136.161 60.2195 142.243 60.5903 148.543C59.6855 149.477 59.9748 147.052 59.9525 146.428C59.8153 142.439 60.5903 138.711 61.3246 134.781C62.0588 130.851 63.0453 126.906 63.9241 122.957L63.939 122.96ZM49.3763 141.081C46.3986 141.549 39.9238 143.779 46.6915 145.317C48.8943 145.819 53.0476 146.133 55.2615 145.864C55.4395 145.842 55.6434 145.871 55.7621 145.701L55.8437 133.903L53.3517 133.667C53.1106 137.209 52.369 140.461 49.0315 142.299C48.8423 142.402 47.3368 143.203 47.7299 142.321C47.9116 141.915 49.1872 141.638 49.3763 141.081Z" fill="#563E29"/>
<path d="M107.304 22.49L107.46 21.1134L107.308 20.9252C103.503 19.9103 106.681 15.3968 107.223 13.105C107.449 12.1565 107.471 11.2081 107.638 10.2522L108.05 10.1341C108.561 12.0126 109.236 14.0719 109.644 15.9615C109.889 17.1018 110.193 18.2496 109.756 19.4084C109.318 20.5672 107.735 20.7776 108.135 22.49H110.864C111.272 22.49 111.502 22.18 111.617 23.0583C111.569 44.1791 111.606 65.2962 111.773 86.3985L114.257 86.5609V51.5601C114.257 51.5232 114.773 51.1468 114.836 51.1468H117.402C117.766 49.7665 116.512 50.0802 115.997 49.331C114.918 47.7663 116.486 44.9135 116.894 43.3118C117.265 41.8541 117.276 40.352 117.554 38.8869L117.966 38.802C118.426 38.9902 118.541 41.4518 118.704 42.1862C119.101 43.9613 120.476 46.1535 120.176 47.8917C120.028 48.7406 119.208 49.9843 118.248 50.0064L118.229 51.1431C119.141 51.0619 120.135 50.7445 121.003 51.1837C121.122 51.3424 121.166 51.538 121.192 51.7299C121.585 54.5162 121.159 58.7898 121.199 61.7754C121.288 67.9976 121.47 74.3158 121.544 80.538C121.674 91.4693 121.652 102.389 121.86 113.31C125.475 113.9 123.602 115.849 123.106 118.177C122.449 121.252 122.816 124.573 119.579 126.363L119.542 129.947C121.559 130.268 120.71 133.183 121.726 134.63C123.903 134.707 129.184 135.29 130.548 137.132C132.591 139.892 126.832 141.561 125.015 141.981C119.868 143.173 114.484 143.055 109.292 142.229C109.166 142.834 110.108 142.524 110.267 142.992C110.375 143.302 110.093 144.122 110.104 144.616C110.163 146.69 110.838 148.739 112.103 150.377C114.124 150.569 116.175 150.827 118.096 151.495C120.343 152.281 123.228 154.031 120.365 156.293C115.859 159.847 99.8172 160.065 95.0038 157.02C90.5427 154.201 96.6726 151.831 99.1942 151.2C99.8914 151.027 102.832 150.636 103.121 150.41C104 149.72 104.786 147.665 104.972 146.572C105.205 145.192 104.664 143.107 106.155 142.609C106.092 142.129 106.255 141.461 106.118 141.018C106.047 140.789 105.32 140.376 105.094 139.9C104.501 138.656 105.191 137.922 106.162 137.213L106.922 100.622C103.029 98.4443 105.161 92.7462 103.073 89.8602C102.662 89.2919 101.542 88.5021 101.505 87.7935C101.427 86.3432 104.453 86.5904 104.505 86.2915V25.8557C104.404 25.2948 104.026 22.4863 104.742 22.4863H107.308L107.304 22.49ZM108.628 19.5228C109.259 19.5376 109.218 18.5817 109.296 18.1315L107.968 12.7729C107.731 15.0462 105.12 17.9691 106.807 20.0173C107.156 19.2718 106.644 19.6926 106.477 19.1131L106.956 18.8474C106.548 17.9064 107.06 18.3972 107.304 18.0909C107.668 17.6369 107.557 16.9468 107.634 16.4781C107.738 15.8544 108.224 15.9282 108.302 16.6331C108.409 17.5963 108.461 18.567 108.625 19.5228H108.628ZM110.779 23.1469H105.154V88.2069C105.81 88.4135 110.887 88.5132 110.957 88.1109L110.783 23.1469H110.779ZM118.062 42.2526C117.625 42.212 117.795 42.2453 117.736 42.4999C117.387 44.0167 116.705 45.5778 116.46 46.9986C116.327 47.7663 116.204 48.5523 116.827 49.1723C117.536 49.1207 116.549 48.235 116.571 48.1169C116.583 48.0431 117.109 46.7588 117.157 46.6997C117.313 46.5226 117.643 46.5853 117.706 46.5115C117.799 46.4118 117.732 45.6368 117.914 45.397L118.396 45.3859C118.418 45.9358 118.318 46.6148 118.529 47.1352C118.667 47.471 119.175 47.5042 119.06 48.0246C119.241 48.0541 119.371 48.0246 119.475 47.8622C120.098 46.8879 117.977 43.5332 118.066 42.26L118.062 42.2526ZM120.38 51.8074H115.166L114.918 52.0546V115.55C117.005 115.731 119.197 115.9 121.218 115.284L120.38 51.8074ZM104.49 87.0554C104.119 87.0776 102.346 87.2658 102.343 87.6311C102.558 87.9559 104.36 88.336 104.49 88.2069V87.0517V87.0554ZM114.254 87.3876C113.442 87.192 112.618 86.9779 111.773 87.0554V88.2069C112.036 88.0666 114.695 87.9781 114.254 87.3839V87.3876ZM113.427 88.7051C109.982 89.0926 106.437 89.2771 102.999 88.7051C105.332 91.0486 104.505 94.6985 105.406 97.5881C106.351 100.622 109.704 101.327 111.243 98.3078C112.837 95.1819 110.72 91.2847 113.423 88.7051H113.427ZM114.254 113.324V89.0298C111.899 90.6057 112.808 93.6725 112.596 96.0271C112.426 97.9277 111.55 99.6068 109.948 100.677L109.314 135.567L109.667 135.778L114.554 134.792C115.092 133.962 115.073 130.899 115.615 130.412C115.837 130.209 116.356 130.297 116.412 130.105C116.156 128.943 116.85 127.278 116.534 126.204C116.423 125.828 115.715 125.518 115.411 125.182C113.642 123.23 114.128 120.61 113.516 118.34C113.245 117.329 111.854 115.554 112.222 114.609C112.559 113.745 114.143 113.66 114.254 113.324ZM109.292 100.891H107.471L106.807 143.387L108.447 143.369C108.495 143.074 108.602 142.782 108.628 142.479C109.121 136.733 108.68 130.046 108.788 124.193C108.795 123.802 108.958 123.444 108.966 123.053C109.006 120.86 108.799 118.631 109.133 116.465L109.292 100.891ZM121.871 115.221L123.358 114.646C123.354 114.398 122.145 114.099 121.874 114.07V115.221H121.871ZM114.254 114.232L112.934 114.808L114.254 115.384V114.232ZM123.028 115.716C119.853 116.447 116.215 116.816 113.1 115.716C113.323 116.594 113.935 117.307 114.176 118.185C114.866 120.658 114.432 126.201 118.644 125.769C122.494 125.374 121.871 118.288 123.028 115.716ZM118.722 126.588L117.235 126.422L117.068 131.364L118.452 131.342L118.7 131.094L118.722 126.588ZM124.637 137.66C124.708 137.722 124.719 137.855 124.771 137.944C124.882 138.811 123.295 137.77 123.024 137.542C121.422 136.183 120.447 133.556 120.213 131.526C118.952 132.161 117.358 132.139 116.008 131.873C115.704 131.947 115.648 133.412 115.533 133.866C115.199 135.154 114.435 136.796 113.423 137.693C113.245 137.852 111.643 138.937 111.528 138.933C111.372 138.926 111.243 138.604 111.302 138.387C111.384 138.088 113.998 136.497 114.094 135.645C113.434 135.549 109.592 136.291 109.37 136.626L109.288 141.302C109.337 141.513 110.345 141.645 110.586 141.693C115.236 142.568 124.986 142.295 129.043 139.734C131.731 138.036 129.469 136.866 127.496 136.231C127.099 136.106 122.112 135.098 122.208 135.401C122.679 136.088 123.135 136.759 123.806 137.268C124.047 137.453 124.463 137.497 124.648 137.663L124.637 137.66ZM106.144 139.926C106.136 139.516 106.162 139.099 106.144 138.689C106.136 138.49 106.27 138.077 105.98 138.117C105.654 138.767 105.317 139.523 106.144 139.929V139.926ZM116.571 154.422C116.123 154.854 113.223 152.617 112.763 152.2C110.597 150.244 109.663 147.643 109.444 144.775C109.426 144.539 109.485 144.321 109.615 144.122L109.377 143.886C108.22 144.232 106.993 144.059 105.814 144.044C105.847 147.34 105.046 150.016 102.324 152.019C101.115 152.909 99.5391 153.514 98.0335 153.595C98.0113 153.333 97.9927 153.215 98.1967 153.02C98.7529 152.496 101.189 152.507 101.671 151.459C99.6318 151.58 90.7096 154.005 95.7344 156.625C100.633 159.179 112.199 158.795 117.387 156.968C120.369 155.92 122.698 154.149 118.5 152.414C116.679 151.661 114.695 151.414 112.759 151.126C113.456 152.322 115.429 152.953 116.293 153.784C116.523 154.005 116.638 154.016 116.564 154.418L116.571 154.422Z" fill="#563E29"/>
<path d="M65.2666 99.9021L65.1702 100.732L66.0936 101.138C65.1665 102.581 63.0379 99.9095 65.2666 99.9021Z" fill="#563E29"/>
</svg>
