<svg width="230" height="148" viewBox="0 0 230 148" fill="none" xmlns="http://www.w3.org/2000/svg">
<path d="M104.533 19.3597C106.511 20.4768 109.94 20.4086 112.257 21.0801C112.53 21.159 112.777 21.5427 113.028 21.5811C113.765 21.6941 115.339 21.3743 115.76 21.4148C116.182 21.4553 116.371 21.967 116.642 22.016C119.057 22.4531 120.037 22.6321 122.42 23.5019C123.065 23.7386 124.743 23.6704 125.578 23.7429C125.684 23.7514 125.659 23.3826 125.925 23.2717C126.826 22.9029 127.141 23.2077 127.797 23.7663C128.101 22.5234 127.931 19.7008 129.705 19.9417C130.131 21.3189 129.848 22.5959 129.716 23.9774C129.784 24.0562 130.71 23.4614 131.411 24.0925C131.922 24.553 131.707 25.1627 131.89 25.4228C131.99 25.5656 132.567 25.6274 132.819 25.8811C133.1 26.1647 133.078 26.6529 133.153 26.7147C133.291 26.8298 133.854 26.687 134.19 26.849C134.595 27.043 134.546 27.7146 134.827 27.9171C135.121 28.1324 135.798 28.0279 136.056 28.2859C136.292 28.5204 136.245 29.209 136.337 29.2836C136.522 29.4393 137.676 28.998 138.119 29.9552C138.243 30.2195 138.207 30.7504 138.241 30.7845C138.347 30.8911 139.738 30.4796 140.104 31.5925C140.194 31.8632 140.081 32.3557 140.174 32.4751C140.249 32.571 141.182 32.5518 141.533 32.927C141.81 33.2212 141.801 33.9375 142.053 34.1081C142.151 34.1742 142.636 33.961 143.069 34.1422C143.812 34.4513 143.876 35.351 144.02 35.4448C144.246 35.5898 144.919 35.4043 145.354 35.7091C145.711 35.9607 145.654 36.4702 145.901 36.6514C146.186 36.8646 146.819 36.741 147.177 37.0799C147.505 37.3891 147.481 38.0777 147.628 38.2269C147.671 38.2695 148.324 37.986 148.774 38.4657C149.083 38.7919 149.055 39.4954 149.095 39.5338C149.157 39.5913 149.875 38.9816 150.592 39.845C150.788 40.0795 150.78 40.5315 151.012 40.702C151.297 40.911 151.894 40.798 152.283 41.1327C152.673 41.4674 152.633 42.1624 152.752 42.2626C152.865 42.3564 153.295 42.2924 153.548 42.4161C154.339 42.8019 154.138 43.7037 154.217 43.7783C154.3 43.8572 154.958 43.6845 155.393 43.9873C155.774 44.2538 155.863 45.0362 155.912 45.0703C155.97 45.1108 156.555 44.6204 157.269 45.0916C157.837 45.4689 157.75 46.2407 157.85 46.3217C157.972 46.4198 158.542 46.2897 158.89 46.4517C159.347 46.6649 159.437 47.5113 159.565 47.5902C159.748 47.7032 160.231 47.5816 160.587 47.7351C161.16 47.9824 161.149 48.752 161.277 48.8586C161.473 49.0228 162.363 48.8693 162.74 49.4215C162.972 49.7604 162.885 50.2913 162.961 50.3701C163.047 50.4597 163.762 50.3979 164.075 50.5919C164.356 50.7667 164.305 51.3359 164.646 51.564C164.957 51.7729 165.63 51.6877 165.926 51.9861C166.296 52.3592 166.039 53.0478 166.143 53.1544C166.192 53.2034 166.765 53.1203 167.106 53.3591C167.446 53.5978 167.51 54.2886 167.67 54.3952C167.83 54.5017 168.211 54.4293 168.458 54.5572C169.084 54.877 169.02 55.5592 169.159 55.6743C169.337 55.8235 170.085 55.6871 170.513 56.1305C170.905 56.5356 170.735 57.028 170.854 57.173C170.95 57.2903 171.763 57.2924 172.087 57.5376C172.411 57.7827 172.411 58.3328 172.566 58.4436C172.8 58.6078 173.488 58.4521 173.92 58.8998C174.317 59.307 174.159 59.8571 174.251 59.953C174.355 60.0596 175.166 59.9466 175.456 60.2387C175.688 60.4753 175.62 61.1042 175.754 61.2193C175.848 61.3003 176.497 61.2876 176.864 61.4922C177.477 61.8312 177.454 62.5006 177.686 62.6925C177.896 62.8673 178.484 62.8182 178.819 63.1572C179.213 63.5559 179.055 64.1187 179.149 64.2104C179.215 64.2765 179.762 64.2232 180.094 64.4321C180.561 64.7242 180.541 65.3722 180.656 65.4682C180.814 65.5982 181.468 65.5087 181.892 65.8327C182.315 66.1568 182.258 66.6791 182.35 66.758C182.477 66.8667 183.259 66.7281 183.802 67.1161C184.279 67.4572 184.343 68.133 184.492 68.2375C184.724 68.4017 185.354 68.2375 185.723 68.6042C185.946 68.8259 185.908 69.2395 186.155 69.4506C186.419 69.6765 186.962 69.6062 187.32 69.9921C187.522 70.2116 187.548 70.6956 187.686 70.7936C187.872 70.9258 188.423 70.8384 188.792 71.0708C189.241 71.3522 189.228 71.9577 189.39 72.0728C189.612 72.2284 190.206 72.0834 190.619 72.4395C191.032 72.7955 190.923 73.3519 191.096 73.5587C191.258 73.7506 191.831 73.7293 192.105 73.936C192.446 74.194 192.427 74.7334 192.587 74.8421C192.746 74.9508 193.181 74.8719 193.511 75.083C193.973 75.3772 193.922 75.972 194.175 76.1788C194.412 76.3728 195.049 76.4176 195.255 76.6436C195.502 76.91 195.455 77.5645 195.54 77.637C195.655 77.7329 196.375 77.5794 196.797 77.7649C197.219 77.9504 197.349 78.5964 197.485 78.6731C197.728 78.8095 198.175 78.6603 198.507 78.8223C198.792 78.963 198.822 79.415 198.982 79.5173C199.293 79.7199 199.855 79.5067 200.302 80.0055C200.777 80.5342 200.615 81.0992 200.413 81.7004L200.106 80.2017L199.131 79.8947L198.499 80.7389C198.769 81.0907 199.297 80.9009 199.137 81.4829L197.419 82.8644L198.518 105.43L206.167 131.111C201.337 130.687 196.688 132.007 191.901 131.966L192.325 133.667L183.593 133.883V132.815L181.464 133.03C182.573 137.008 178.378 135.684 176.044 135.575C174.804 135.518 173.546 135.635 172.306 135.586V133.883L166.556 134.522L166.98 137.285C166.401 137.051 164.561 138.294 164.64 137.289L166.718 136.767C166.311 134.098 166.243 134.586 163.786 134.731L164.211 137.498L155.054 137.714L154.945 135.58L127.582 138.353L127.797 76.797L76.2578 84.361L127 76.5348C127.624 76.6478 128.11 75.3665 127.678 75.3047L74.339 83.7193C74.9779 84.1499 75.6956 84.474 76.3259 84.9302C77.5611 85.8235 78.6259 87.3797 80.204 87.2476L127.156 81.2719L79.4544 87.7656C83.901 92.5858 86.1031 99.4931 87.0848 105.906C88.337 114.082 88.1198 123.181 87.5448 131.427C87.4192 133.228 87.1743 135.072 86.9081 136.859L97.7692 137.709C96.8875 136.275 96.6745 134.838 97.3709 133.267C100.64 133.224 103.926 133.117 107.163 133.576C107.725 135.234 106.731 136.938 105.649 138.136C109.02 138.364 112.387 138.259 115.773 138.343C116.278 138.355 116.742 138.562 117.247 138.573C120.72 138.647 124.223 138.421 127.693 138.564C127.95 138.575 128.485 138.404 128.434 138.775C123.218 138.711 117.99 138.865 112.772 138.786C110.547 138.752 107.721 138.302 105.53 138.379C104.861 138.402 103.325 139.66 101.718 139.634C99.7327 139.605 98.7701 138.117 97.6478 137.937C95.3797 137.577 92.3706 137.714 89.996 137.498C81.8694 136.759 73.5617 135.309 65.5202 134.946C65.3988 134.94 65.4244 134.584 65.2391 134.531C62.1447 133.652 57.4297 133.341 54.0692 132.746C49.9036 132.009 45.7466 131.192 41.6172 130.271C39.0851 131.105 37.5092 130.99 35.4626 129.203L18.3531 127.039L19.4989 111.511L42.8694 90.1576L48.5705 58.9041L48.9921 59.0064L43.6744 88.2965L127.695 74.6737V30.3538L82.0887 18.8608L48.3256 58.8828L44.5263 58.0513L78.6387 16.9826L125.269 25.9856L128.702 25.071L166.409 55.1157L166.869 55.071C167.41 54.3141 167.368 53.3953 166.245 53.5744C165.836 53.6405 165.702 54.0711 165.278 54.0029C165.002 53.7321 166.473 52.986 165.649 52.1396C164.991 51.4659 164.067 52.5937 164.003 52.5127C164.054 51.9541 164.484 51.4489 163.913 51.0033C163.298 50.5684 162.814 50.8434 162.299 51.2357C162.105 51.0033 163.264 50.174 162.423 49.5131C161.581 48.8522 160.819 49.9352 160.593 49.7434C160.968 49.1507 161.194 48.6945 160.583 48.1572C159.771 47.4431 159.166 48.4813 158.89 48.2532C159.58 46.6607 158.485 46.311 157.186 46.9762C157.908 45.5457 156.662 44.6951 155.484 45.7013C155.71 44.322 154.992 43.5822 153.781 44.4222C154.313 43.0961 153.638 42.3095 152.29 42.932C152.475 41.3395 151.83 40.9323 150.371 41.4397C151.048 39.9495 150.028 39.408 148.667 39.9495C148.816 38.8324 148.284 38.0883 147.177 38.6725L146.908 37.2313C146.237 36.8305 145.892 37.2974 145.258 37.3912C145.92 36.0502 144.549 35.2529 143.556 36.3274C143.763 34.4343 143.13 34.1507 141.424 34.6219C142.061 33.1807 141.05 32.7757 139.721 32.9185C140.398 31.6841 139.122 30.4029 138.121 31.4262L137.819 31.1149C138.288 29.6951 137.108 29.2708 135.887 29.7249C136.207 28.9894 135.975 28.6569 135.31 28.2582L134.184 28.6611L134.301 27.382C133.809 26.8405 133.311 27.0857 132.693 27.1709C132.9 25.4228 131.805 25.6978 130.778 26.5314C131.043 25.636 132.163 25.1478 131.066 24.2183H129.952C129.524 24.4847 130.216 25.3951 129.614 25.2458C129.266 25.1606 128.783 24.8877 128.374 24.7576C128.11 24.6745 127.629 24.7789 127.567 24.7278C127.258 24.4656 127.435 23.3271 126.621 23.3293C125.667 23.5361 125.867 24.4975 125.874 25.2501C125.158 24.7726 125.902 23.794 124.705 23.794C123.508 23.794 124.251 24.7726 123.536 25.2501L123.501 24.0072C122.241 23.3293 122.539 24.2033 121.832 24.8258C122.094 24.0115 121.866 22.6236 120.759 23.2205C120.396 23.4167 120.497 23.9646 120.128 23.9731L119.702 22.7963C118.978 22.4296 118.733 23.0052 118.211 23.3357L118.116 22.4722L117.253 22.2612L116.823 22.4829L116.295 23.5488C116.504 22.6684 116.167 21.1611 115.1 22.0395C114.653 22.4062 115.028 23.0457 114.591 23.1246C114.708 21.4767 113.799 21.2272 112.887 22.4872C112.717 20.6026 111.595 21.8135 111.286 21.8156C110.932 21.8178 111.02 20.7028 109.829 20.9927C109.604 21.0481 109.821 21.6387 109.267 21.4212C108.954 19.6432 108.332 20.9202 107.776 21.6344L107.744 20.6004C107.001 20.1442 106.852 20.5962 106.286 20.9948C106.256 19.8436 105.402 19.6091 104.584 20.3553L104.009 19.5217L103.095 19.9289L102.561 19.2808L101.602 19.7157L101.036 18.8928L100.212 19.2893L99.8583 18.6903C98.9873 18.6114 98.7339 19.219 98.2654 18.2127L96.9152 18.654C96.9024 17.5177 95.9888 17.3983 95.3158 18.2234L94.6429 17.3941L93.61 17.797L92.9392 16.9656L91.7061 17.3898C91.0055 15.8996 90.4198 16.957 89.7873 16.9634C89.6169 16.9634 89.7106 16.439 89.1378 16.3004C88.271 16.0915 88.7374 16.9784 88.1816 17.1596C88.2199 16.569 87.9452 16.2642 87.3808 16.1235L86.267 16.52L85.6899 15.6864L84.6698 16.0979C84.2183 15.032 83.7796 15.6012 82.8575 15.6694L82.7446 15.017C82.1696 15.017 81.8566 14.8571 81.6862 15.4541L81.0409 14.6013L80.0911 15.2409L79.5331 14.3966C78.7111 15.0128 78.5706 15.0128 77.5441 14.8273C77.4014 15.825 77.2608 15.9636 76.2663 16.1086L76.4643 17.3706C75.8638 17.166 75.5465 17.1041 75.1972 17.716L75.6082 18.33L74.3411 18.7777L74.5477 19.4983L73.3615 19.6987C72.9398 20.2743 73.7682 20.933 73.6958 20.9906L72.6331 20.7774L72.5309 21.6493C71.0892 21.7794 72.2818 23.0457 70.7165 22.9093L70.9273 24.1863L70.0669 24.0648C69.8795 25.1456 69.69 24.9218 68.8893 25.4654L69.0106 26.316C68.014 25.7681 67.4156 26.6785 67.948 27.593C66.9726 27.2114 66.487 27.6804 66.8853 28.659C65.9057 28.6078 65.665 28.8082 66.0334 29.7249L65.1667 29.8166L64.9601 30.7823L64.1317 30.8037C64.285 32.151 62.8624 31.5605 63.1648 32.7224L62.3875 33.0571L62.4067 33.9653L61.6464 34.187L61.7763 34.8329L60.9053 34.9246C60.8094 36.1441 60.2983 35.7475 59.9704 36.0971C59.8916 36.1803 60.047 36.5086 59.8724 36.645C59.7446 36.7452 59.1249 36.6045 59.0248 36.7751C58.9396 36.9222 59.0674 37.2739 58.9886 37.4274C58.6777 38.0308 58.0814 38.455 57.5213 38.7983L57.7236 39.7299C56.8654 39.3035 56.7184 39.9026 57.0869 40.5805H56.0242L56.235 41.4333L55.1723 41.4375L55.3874 42.286C54.5824 42.2306 54.461 42.6186 54.5334 43.3562L53.8945 43.2411L53.8903 43.9809C52.8574 43.9041 53.3259 44.9551 52.2803 45.0447L52.4038 45.6821C51.06 45.7802 52.046 46.7438 50.7001 47.087L51.126 47.8268L50.2593 47.9206C49.959 48.1231 50.1464 48.7648 50.0399 48.8736C49.8142 49.1017 48.7472 48.5069 49.1242 49.9715L48.3447 50.287L48.5619 51.1355C48.5279 51.6365 46.7731 50.7454 47.5057 52.3016C46.641 51.8412 46.1959 52.2825 46.6559 53.1523L45.3803 53.4763L46.017 54.6446C45.8616 54.7768 44.1046 53.3143 45.1631 55.4995L44.2111 54.862L44.0982 56.139L43.3529 55.2884L42.8226 56.3544C42.1347 56.5441 42.5074 55.6444 42.0772 55.5016C41.3723 55.2692 41.5342 56.0943 41.1231 56.139C41.055 54.7597 42.1794 55.346 42.829 55.2053C44.9267 54.749 44.373 54.2097 45.3952 53.067C46.3535 51.9968 47.2373 51.3124 48.1381 50.1228C48.7643 49.2978 49.154 49.0228 49.7907 48.4109C49.9398 48.2681 50.3849 47.1148 50.6277 46.7907C53.1108 43.4991 55.9177 40.4483 58.5776 37.2846C61.2375 34.1209 64.1104 30.8058 66.6681 27.4843C67.5817 26.2969 68.7636 25.5017 69.6006 24.5594C69.8369 24.2929 70.3076 22.9903 70.6206 22.6961C70.8379 22.4914 71.2361 22.5383 71.3192 22.4445C71.4448 22.2996 71.3043 21.8519 71.4619 21.6259C71.5172 21.5449 72.499 20.9117 72.8482 20.4C73.0889 20.0483 73.9961 18.4622 74.1793 18.2703C74.339 18.1019 74.7649 18.1509 74.9289 17.959C75.768 16.972 75.7403 16.5413 76.8882 15.5543C77.2587 15.2345 77.05 14.5885 77.9061 14.4393C78.1574 14.3966 78.4343 14.5757 78.6706 14.5374C78.907 14.499 79.1051 14.1835 79.5481 14.1685C80.4553 14.1366 82.5018 14.8017 83.2792 15.1215C84.0565 15.4413 86.7505 15.7994 87.6385 15.8847C88.2263 15.9423 89.5978 16.3836 89.9896 16.4283C91.4463 16.5925 92.2811 16.859 93.6739 17.1127C94.5385 17.2704 95.5437 17.2598 96.3743 17.3664C96.83 17.4239 96.9982 17.9228 97.2602 17.9676C98.1291 18.1211 104.062 19.0953 104.529 19.3597H104.533ZM169.665 58.1473C156.027 47.2533 142.364 36.385 128.711 25.5081L124.747 26.3054L79.3415 17.3664L78.8282 17.4836L45.1716 57.7358C46.0596 57.9042 47.6483 58.7975 48.3831 58.1814L81.9013 18.5176L128.165 30.1129L196.918 81.4787L197.231 82.3378C197.421 82.5233 198.741 81.4659 198.409 81.0544C188.8 73.4564 179.236 65.788 169.67 58.1451L169.665 58.1473ZM129.29 24.4059C129.343 22.986 130.193 21.4425 129.185 20.1506C128.642 20.1591 128.108 23.5019 128.01 24.0818L129.292 24.408L129.29 24.4059ZM128.014 30.5819V76.5881L132.897 78.4152L133.973 77.5453L128.227 74.9892C128.195 74.8272 128.423 74.8592 128.547 74.8805C129.122 74.9807 133.098 76.6286 133.698 76.9697C133.971 77.1254 134.207 77.2938 134.399 77.5432C133.707 78.413 131.984 79.8542 131.837 80.9414C130.959 87.4863 131.707 96.2761 131.641 103.111C131.637 103.614 131.415 104.081 131.411 104.584C131.356 109.946 131.473 115.314 131.419 120.673C131.157 121.019 131.034 120.669 130.994 120.358C130.825 119.038 130.951 116.853 130.983 115.446C131.155 108.104 131.336 100.653 131.428 93.3149C131.473 89.7717 131.366 86.2243 131.432 82.6811L128.014 81.7004L127.799 137.931L155.06 135.375L154.635 91.0722C155.42 91.4325 156.854 91.2107 157.211 92.0081L163.683 120.891H171.882L170.818 96.824L172.928 96.8453L174.229 102.789C174.883 102 176.723 99.9494 176.994 99.0582C177.172 98.4698 176.272 98.8664 176.142 98.7448C176.042 92.2404 175.405 85.7552 175.29 79.2572C175.269 78.0549 174.838 77.3833 175.822 76.1681L176.77 77.7756L177.873 98.9282L196.158 105.772L186.673 102.998C185.915 102.876 185.44 103.235 184.877 103.644C184.852 103.07 184.46 102.9 183.913 102.992C183.402 103.077 183.353 103.838 183.172 103.644C183.125 103.593 183.133 103.237 182.833 103.026C182.103 102.51 181.253 102.874 180.931 103.648C180.335 102.036 179.445 103.247 179.057 103.186C178.838 103.149 178.578 102.674 178.171 102.795C177.617 104.115 177.266 102.699 176.167 103.036L175.82 103.864C175.571 102.872 175.341 102.891 174.442 103.235C174.449 104.934 175.247 104.104 176.248 104.077C179.611 103.981 184.351 103.51 187.533 103.861C188.138 103.927 193.543 105.507 193.728 105.774L193.656 108.601C195.758 115.715 196.952 123.353 199.112 130.416C199.218 130.764 198.939 131.017 199.563 130.911C198.437 114.642 197.921 98.3568 196.974 82.0649L128.008 30.5926L128.014 30.5819ZM167.945 54.7235C167.657 54.7235 166.905 55.2799 166.986 55.6061L168.158 56.5548C169.214 56.0836 168.963 54.7213 167.945 54.7235ZM170.177 58.0577C170.349 57.431 170.867 57.1453 170.375 56.4801C169.793 55.6935 168.458 56.333 168.784 56.9918L170.177 58.0577ZM170.396 58.4799C171.207 58.5268 171.442 59.8869 172.08 58.9851C172.781 57.9916 170.609 56.7978 170.396 58.4799ZM173.586 60.8271C175.162 58.5459 171.885 58.5523 172.11 59.6332L173.586 60.8271ZM175.294 62.1062C175.835 60.7226 174.904 59.7163 173.805 60.9358C173.805 61.1085 176.108 62.9462 176.463 63.1721C176.742 63.3491 176.772 63.5729 177.109 63.1785C177.586 61.78 176.323 61.1916 175.294 62.1062ZM178.697 64.6602C179.108 63.671 178.557 62.8289 177.415 63.2702C176.704 63.735 178.45 64.8457 178.697 64.6602ZM180.188 65.9372C180.633 64.9032 179.596 64.14 178.704 64.98L180.188 65.9372ZM182.109 67.4317C182.124 67.033 182.041 66.2549 181.685 66.0438C181.208 65.7603 180.126 65.95 180.612 66.4766C181.794 67.76 184 68.811 185.197 70.1988L185.714 69.862C185.859 68.7534 184.914 68.4294 184.023 68.9218C184.215 67.3485 183.555 66.9029 182.107 67.4317H182.109ZM187.188 70.2287L186.074 70.0006L185.729 70.5144L186.901 71.4716C187.256 71.2605 187.354 70.493 187.188 70.2266V70.2287ZM188.709 72.7529C189.859 70.5805 186.702 71.1944 187.218 71.898C188.229 72.1495 189.365 73.7847 190.199 74.1428C190.8 74.3987 190.964 72.497 189.671 72.5269C189.337 72.5333 189.051 72.7848 188.709 72.7529ZM192.067 74.2963C191.611 74.0299 190.989 73.8188 190.63 74.3518L194.989 77.8651C195.696 77.0934 194.354 76.3515 193.609 76.5881L193.409 75.4007L192.329 75.422L192.069 74.2985L192.067 74.2963ZM177.422 98.5274L176.261 77.4302L175.72 76.8013C175.418 77.8587 175.464 79.0078 175.496 80.11C175.624 84.6296 176.114 89.2046 176.365 93.7242C176.455 95.3274 176.286 96.9306 176.572 98.5253H177.422V98.5274ZM128.014 77.0145V81.1674L131.419 82.3378C131.115 80.6323 131.854 79.8648 132.91 78.72L128.012 77.0145H128.014ZM195.31 78.0826C195.234 78.1785 197.044 79.9437 197.227 79.0334C197.38 78.2702 195.994 77.5667 195.31 78.0826ZM197.446 79.1506C196.846 80.0055 198.501 80.6899 198.714 79.6687C198.831 79.1059 197.647 78.865 197.446 79.1506ZM34.7364 109.603H39.4216L37.5049 125.364L43.257 125.577C43.2677 126.376 43.3145 127.093 43.1101 127.881C42.8375 128.937 42.0474 129.131 41.7663 130.05L55.8219 132.608C55.6962 129.25 56.0369 125.918 56.4607 122.596L38.8849 120.893L38.5719 120.467L56.4565 122.383C58.0665 111.813 61.7763 101.612 67.4454 92.5815C69.2513 89.7035 71.3468 86.6911 73.7086 84.2565L67.3219 93.413L74.0089 96.1674C75.1269 94.8243 76.1939 93.3725 77.5419 92.2426C77.7102 92.1019 77.9679 91.684 78.1808 92.0294C72.8312 96.8155 70.2607 102.904 68.6656 109.775C66.8193 117.723 65.9291 126.125 65.8545 134.288L83.9394 136.56L84.5719 132.608C83.1535 132.533 81.6138 132.52 80.2082 132.392C79.9122 132.365 78.9241 132.292 78.8219 131.97L84.5633 132.386C85.3385 127.53 85.2299 122.607 85.2107 117.697H80.7385L80.9515 113.651H84.3589V113.864H81.1644L80.9515 117.273L85.2129 117.486L84.7869 109.818H80.3147L80.5511 107.072C81.6415 107.04 82.7255 106.69 83.8329 106.835C84.2183 106.887 84.1757 106.759 84.1481 107.262H80.7406L80.5788 109.293L80.8471 109.605H84.574C84.0054 100.342 80.5106 91.2214 73.7129 84.7895C73.9258 84.442 74.1835 84.8598 74.3518 85.0027C75.276 85.7766 76.3557 87.0386 77.1118 87.9916C80.8684 92.718 83.2195 98.5508 84.246 104.499C84.4824 104.923 85.6942 103.917 86.0605 103.855C86.1627 104.686 84.5165 104.727 84.3951 105.258L85.4258 113.44L87.3169 112.777C87.0145 102.194 83.9905 88.8252 73.6064 83.8152L43.47 88.5203V89.3709L72.1348 84.7021L72.433 85.1114L43.4657 89.9018L43.0441 91.7139L67.0045 88.7356L68.3867 88.9445L43.0526 92.1488L41.3425 108.117L33.2712 108.138L32.1851 115.996L20.3614 115.783L20.0462 115.359L31.7272 115.753L33.022 107.782C33.2797 107.599 37.5369 107.658 38.2631 107.682C38.8721 107.701 40.6674 108.247 41.038 107.705L42.8311 90.8654L20.0462 111.632L19.6331 112.496L18.5555 126.86L35.5904 128.99C35.2241 127.826 34.7449 126.374 35.7267 125.4L37.2962 125.372L38.9999 109.822L34.9515 110.033C34.1763 115.568 33.7078 121.217 32.7942 126.726C32.7537 126.975 32.7303 127.717 32.3981 127.711L34.7385 109.607L34.7364 109.603ZM163.366 134.52C160.768 120.671 158.696 106.714 156.922 92.7244L156.553 91.8141L154.847 91.4986L155.486 135.373L163.364 134.518L163.366 134.52ZM71.1339 101.28L73.7107 96.5064L67.111 93.6262C66.8917 94.4853 63.9719 98.6319 64.3446 99.1542L71.1318 101.278L71.1339 101.28ZM166.135 134.309L157.831 96.824L163.579 134.524L166.132 134.309H166.135ZM172.283 97.0649L171.246 97.0351C171.369 99.9813 171.341 102.934 171.45 105.885C171.678 111.973 172.07 118.096 172.319 124.185C172.443 127.223 172.383 130.284 172.553 133.322L172.958 133.582L179.125 133.032L172.281 97.0628L172.283 97.0649ZM185.94 102.785L177.524 99.1456L175.081 102.471C175.043 102.587 175.677 102.772 175.841 102.774C176.527 102.785 178.077 102.352 178.382 102.365C178.687 102.378 178.919 102.798 179.189 102.753C179.402 102.719 179.59 102.331 180.064 102.354C180.392 102.371 180.678 102.695 180.963 102.727C181.932 102.836 183.272 102.584 184.13 102.584C184.59 102.584 185.19 103.22 185.94 102.787V102.785ZM70.7186 101.516L63.9208 99.3801C63.1946 100.849 58.6223 111.711 59.1036 112.376L67.5455 113.346L69.0213 107.046C66.8768 106.688 64.4021 106.507 62.313 105.98C62.0169 105.906 61.6485 105.985 61.5676 105.556L69.0277 106.746L70.7165 101.516H70.7186ZM181.042 132.817L174.016 103.426L174.074 104.537L179.541 132.682L181.042 132.817ZM193.394 107.473L193.185 105.872L187.307 104.083L174.868 104.492L175.296 106.196C176.987 105.782 178.782 106.042 180.52 105.991C182.601 105.929 184.79 105.539 186.903 105.767C187.852 105.87 193.104 107.769 193.396 107.473H193.394ZM191.264 107.262L186.475 105.98L175.292 106.409L177.426 115.992L181.579 108.108C181.523 107.876 181.898 107.439 182.107 107.688C182.433 108.076 177.696 115.474 177.622 116.742L181.276 132.586L183.6 132.608L183.382 119.616L182.318 120.784C182.52 119.895 183.276 119.396 183.389 118.448C183.779 115.197 183.112 111.159 183.353 107.822L182.85 107.473C180.729 107.353 178.559 107.287 176.453 107.057C176.133 107.023 175.797 107.01 175.716 106.624C179.519 107.155 183.293 107.142 187.118 107.253C188.24 107.285 189.269 107.526 190.519 107.475C190.776 107.464 191.311 107.635 191.26 107.264L191.264 107.262ZM185.486 107.927L183.597 107.686L183.813 117.908L186.679 113.246L185.486 107.927ZM189.986 107.686H185.727L186.901 112.587L187.467 112.09L189.986 107.688V107.686ZM193.181 107.901L190.457 107.733L187.207 113.547L192.012 131.751L192.555 131.399L191.053 108.11L193.183 107.901H193.181ZM205.746 130.687L198.72 107.686L199.998 130.9L205.746 130.687ZM198.933 130.898L193.362 108.677L193.047 108.353L191.477 108.323L192.755 131.542L198.933 130.898ZM67.5327 113.651L58.8246 112.822L57.3126 120.04C59.8937 120.204 62.7517 120.049 65.3008 120.251C65.5479 120.271 66.2549 120.317 66.257 120.676L57.1018 120.253L56.4607 126.005C57.3105 125.86 58.0984 126.178 58.9013 126.227C60.8052 126.34 63.0413 126.003 64.8813 126.21C65.2007 126.246 65.5394 126.255 65.6181 126.641L56.2478 126.43L56.0369 132.819L65.4031 134.311C65.6522 127.378 66.2868 120.469 67.5327 113.653V113.651ZM87.5512 113.009C86.7611 113.357 85.5323 113.453 85.4109 114.38C85.2895 115.307 85.6196 116.101 85.6431 116.941C85.6963 118.75 85.5856 120.573 85.6324 122.381L87.5491 122.592V113.007L87.5512 113.009ZM191.477 131.753L186.901 113.864L183.823 118.881C183.872 123.385 183.625 127.913 184.023 132.395L191.477 131.753ZM171.887 121.315C169.866 121.273 167.83 121.375 165.807 121.326C165.236 121.313 164.033 120.804 163.673 121.311L166.358 134.085L172.313 133.672L171.887 121.315ZM87.5533 122.807L85.6367 122.596L85.2086 129.838L86.6993 130.05C86.1797 130.077 85.494 129.853 85.2448 130.406L84.3589 136.654L86.7015 136.867L87.5555 122.81L87.5533 122.807ZM43.0441 125.788L35.9396 125.602C35.2645 125.828 35.5286 128.687 36.1781 128.979L41.1849 129.804C42.5117 128.905 43.1974 127.385 43.0441 125.788ZM40.4864 130.052L36.6552 129.412C37.2281 130.388 38.476 130.521 39.5025 130.45C39.6984 130.438 40.5119 130.357 40.4864 130.052ZM191.903 133.456C191.811 133.09 191.716 132.083 191.358 131.99L184.013 132.938L184.023 133.669L191.903 133.456ZM179.783 133.262L180.297 135.582C181.498 134.912 181.76 134.194 180.912 133.045L179.785 133.262H179.783ZM174.334 135.375C175.812 135.522 177.696 135.375 179.232 135.375C179.308 135.375 179.457 135.769 179.764 135.266L179.323 133.262L172.728 133.983C172.423 134.185 172.417 134.865 172.728 135.07C172.796 135.115 174.127 135.358 174.336 135.377L174.334 135.375ZM106.933 133.669L97.6925 133.446C97.0685 134.791 97.158 136.65 98.3442 137.682L105.078 138.102C106.524 137.076 107.146 135.422 106.935 133.672L106.933 133.669ZM163.336 134.976L155.484 135.586V137.292L163.79 137.076L163.334 134.976H163.336ZM104.588 138.357L98.8404 138.144C99.8179 139.293 101.728 139.391 103.112 139.114C103.46 139.044 104.409 138.705 104.588 138.357Z" fill="#563E29"/>
<path d="M78.7707 37.0266C79.5629 36.9328 81.5286 37.0309 82.2228 37.2974C90.0024 40.2735 85.1681 53.035 81.2709 57.6356C78.6962 60.6757 73.5893 65.5769 70.2075 60.6011C68.8062 58.5395 69.0276 52.372 69.5068 49.9182C70.233 46.2002 74.6051 37.5191 78.7686 37.0266H78.7707ZM82.866 39.3142C82.0525 37.3081 79.35 37.033 77.5462 37.7216C73.3274 39.3312 69.0915 49.7626 69.4536 54.1137C69.8156 58.4649 73.5701 61.2364 77.3289 58.5886C75.5954 58.3647 74.6733 57.4459 74.1473 55.8086C72.0027 49.1443 75.0864 39.9495 82.866 39.312V39.3142ZM69.4514 56.3544C69.5004 60.8377 72.6416 64.2018 76.9733 61.2172C82.5487 57.3755 89.1867 45.842 84.6634 39.5423C84.1736 38.8601 82.9001 37.6769 82.0163 37.7174C86.284 40.6274 84.7081 46.4432 83.3494 50.5535C81.9588 54.7597 77.9146 61.6692 72.5841 59.5053C70.94 58.838 70.4353 57.6719 69.4536 56.3544H69.4514ZM80.7385 48.686C80.6576 48.3043 80.9344 48.1658 81.1601 47.9377C81.6542 47.4367 84.2247 45.8633 84.3226 45.5627C84.6634 43.3818 84.5952 41.2883 83.3026 39.4101C75.1013 40.2863 72.0219 49.6794 74.882 56.5633L75.6316 53.2738L74.1664 51.3828C74.2176 50.788 75.8425 49.511 76.0086 48.961C76.3025 47.9846 75.7232 46.1256 75.6252 45.0681L79.2435 43.7847L79.8888 46.4453L79.4628 46.4198L79.0326 44.2111L76.0788 45.3005L76.4451 48.9546L74.5924 51.3828L76.0022 53.0734L75.4144 56.3501L77.8699 55.5059C78.3086 54.8279 77.8613 52.7856 78.5024 52.0906C78.7579 53.0798 78.1339 54.6574 78.2404 55.5805C78.2979 56.0751 79.0688 56.5867 79.0369 57.2007L80.9003 54.9345L80.1017 51.6642C80.3999 51.613 80.3913 52.0224 80.4723 52.2462C80.566 52.502 81.0324 54.668 81.3731 54.4314L82.8468 50.9351C82.7552 50.5769 81.5776 50.3744 81.2049 50.2273C80.879 50.0994 80.6299 50.3488 80.7385 49.7476L83.0704 50.3808L84.1416 46.1256L80.7385 48.6817V48.686ZM78.1616 55.9429L74.9885 56.8852C75.983 58.1409 77.5185 58.7847 78.8048 57.5034L78.1616 55.9429Z" fill="#563E29"/>
<path d="M104.588 90.6458L103.313 120.467L99.6901 120.253L101.17 91.1958L104.59 90.6458H104.588ZM104.375 91.0743L101.609 91.2875L100.114 120.04H102.885L104.373 91.0743H104.375Z" fill="#563E29"/>
<path d="M113.32 90.2215L112.47 120.893H109.699L110.551 90.7524L110.9 90.2493L113.32 90.2215ZM110.125 120.68L111.908 120.65L112.257 120.147C112.372 111.963 112.487 103.825 112.674 95.6429C112.696 94.7006 113.232 91.2491 112.802 90.633C112.562 90.2876 110.945 90.2215 110.977 90.9656L110.125 120.68Z" fill="#563E29"/>
<path d="M95.8568 91.9228L94.366 120.036H91.8126L93.5142 92.1339L95.8568 91.9207V91.9228ZM95.646 92.3492L94.0764 92.379L93.7272 92.8821C93.3864 101.8 92.6304 110.76 92.3301 119.627L94.1531 119.827L95.6438 92.3492H95.646Z" fill="#563E29"/>
<path d="M83.7179 10.5614L80.845 11.8426L80.7279 10.4932L83.8947 9.03708C84.0906 8.45507 83.6157 6.06736 84.2546 5.87762C84.7998 5.71559 85.8156 7.18447 86.5652 7.13543C86.8186 8.2099 86.7569 7.51704 87.3361 7.6748C87.9559 7.84109 88.9738 8.49558 89.0526 9.16925C89.2123 10.5422 87.2829 8.94967 87.0167 8.93262L85.2427 9.74486L84.9936 14.6098L83.7179 14.0769V10.5635V10.5614ZM84.9616 8.6107C85.0191 7.775 85.2214 6.56835 84.3589 6.08868C84.0459 6.9862 84.146 7.9221 84.1438 8.85587L84.9616 8.6107ZM83.9309 9.49757C83.4112 9.65319 80.8472 10.5017 80.9515 11.0901C81.041 11.5911 81.452 11.2329 81.6564 11.1626C81.88 11.0858 84.4143 9.94313 83.9309 9.49757ZM84.7827 14.1813L84.9957 9.92181C84.9701 9.8877 84.3312 10.2181 84.2503 10.3461C84.1161 10.5571 83.7477 14.3647 84.7827 14.1813Z" fill="#563E29"/>
<path d="M89.8938 80.4213C89.4381 80.5215 89.4083 80.1953 89.2166 79.9288C81.4477 69.054 68.7296 72.6015 62.3322 82.7834C62.1639 83.0499 61.1374 85.5207 60.7179 85.1071C65.6075 73.1536 82.5445 67.3975 89.8938 80.4213Z" fill="#563E29"/>
<path d="M126.949 128.344C115.554 127.615 104.156 126.845 92.7667 126.005C91.3568 125.901 89.9342 125.894 88.5095 125.788C88.0879 125.756 87.8898 125.967 87.9792 125.366L126.949 128.344Z" fill="#563E29"/>
<path d="M86.0605 81.0587C85.2171 80.8327 84.7124 79.9267 84.0011 79.3937C77.9125 74.8293 70.8272 77.4068 66.1463 82.5489C65.9014 82.8175 64.7024 84.8002 64.3383 84.4654C68.9468 76.9996 79.8398 73.3285 86.0605 81.0566V81.0587Z" fill="#563E29"/>
<path d="M163.79 94.2679L162.291 93.7029C162.256 91.9398 162.365 90.164 162.31 88.403C162.131 82.7258 161.198 75.3964 161.654 69.8727C161.813 67.9412 162.895 67.5958 163.27 69.5486C163.458 70.5186 163.541 72.4224 163.587 73.4926C163.886 80.3168 163.528 87.416 163.79 94.2679ZM162.725 68.7087C161.311 69.1819 162.082 71.3799 162.097 72.4267C162.201 79.4534 162.457 86.4716 162.716 93.4855C164.22 94.5493 163.383 91.5987 163.355 90.7609C163.223 86.5888 163.236 82.3485 163.142 78.1934C163.11 76.8077 163.404 69.2224 162.723 68.7065L162.725 68.7087Z" fill="#563E29"/>
<path d="M142.922 87.239L141.567 87.2092L141.218 86.7061C141.114 77.3343 141.352 67.954 141.229 58.5822C141.22 57.8701 140.769 57.2071 141.203 56.4972C141.597 55.8853 142.922 56.2286 142.922 56.8873V87.239ZM141.431 56.8873V86.8127L142.485 86.802C142.502 86.2669 142.683 85.7595 142.717 85.2244C143.294 76.3579 142.259 66.8774 142.717 57.9426C143.09 57.2967 141.714 55.8747 141.429 56.8873H141.431Z" fill="#563E29"/>
<path d="M187.218 101.934C186.366 101.879 186.029 101.341 185.938 100.555C185.457 96.4509 185.472 91.5412 185.301 87.3478C185.231 85.6081 184.564 83.2758 185.625 81.7025L186.37 83.7235L187.22 101.934H187.218ZM187.005 101.295C186.698 96.9391 186.423 92.5645 186.144 88.2048C186.036 86.5099 186.149 84.8684 185.887 83.1351C185.859 82.9497 185.791 82.4934 185.516 82.5531C185.31 83.1543 185.267 83.7299 185.291 84.3695C185.437 88.3284 185.885 92.3364 186.151 96.2932C186.264 97.9518 186.204 99.6338 186.366 101.297H187.003L187.005 101.295Z" fill="#563E29"/>
<path d="M193.179 86.5995C194.005 89.9529 193.832 93.4812 194.035 96.9285C194.182 99.4398 194.454 101.985 194.672 104.49L193.168 104.156L192.178 88.0108C192.297 87.8466 192.787 86.1965 193.179 86.5995ZM194.246 104.066C194.041 99.8385 193.666 95.6131 193.396 91.3898C193.313 90.0979 193.73 88.531 192.861 87.4565C192.44 87.4522 192.521 88.9552 192.533 89.2729C192.68 92.8758 193.128 96.5277 193.392 100.128C193.487 101.442 193.336 102.763 193.607 104.068H194.243L194.246 104.066Z" fill="#563E29"/>
<path d="M154.635 120.891H131.209V121.104H154.635V120.891Z" fill="#563E29"/>
<path d="M142.014 47.4388C143.969 47.0508 145.102 52.3528 142.587 52.517C140.581 52.6491 139.631 47.9099 142.014 47.4388ZM142.396 47.6946C140.419 47.4814 140.434 52.4295 142.804 52.0991C144.63 51.8454 143.335 47.7948 142.396 47.6946Z" fill="#563E29"/>
<path d="M161.939 65.6664C161.164 64.9693 160.913 62.2384 161.564 61.4751C162.987 59.8101 164.812 63.5175 163.162 65.4127C162.842 65.7794 162.357 66.0417 161.939 65.6664ZM162.235 61.4879C160.849 61.8482 161.575 65.4021 162.406 65.4703C163.794 65.5812 163.741 61.0978 162.235 61.4879Z" fill="#563E29"/>
<path d="M175.863 70.2223C177.977 71.0431 176.352 75.4412 174.992 73.1643C174.344 72.0813 174.691 70.7169 175.863 70.2223ZM175.824 70.6295C174.713 71.3756 174.836 72.7955 175.824 73.6035C176.847 72.7912 176.844 71.4396 175.824 70.6295Z" fill="#563E29"/>
<path d="M185.218 77.2383C187.075 77.6455 185.834 82.2142 184.618 80.3616C183.885 79.2466 184.262 78.0485 185.218 77.2383ZM185.512 80.4213C185.91 79.3766 186.07 78.6496 185.41 77.6541C184.424 78.2275 184.196 80.2315 185.512 80.4213Z" fill="#563E29"/>
<path d="M192.861 82.3442C193.707 82.9539 193.577 84.4185 192.861 85.105C191.888 84.329 192.084 83.1863 192.861 82.3442Z" fill="#563E29"/>
<path d="M58.5861 95.1206L56.235 117.687L54.329 117.908L56.9101 95.6792C57.0613 95.223 58.1368 95.2912 58.5861 95.1206ZM58.3753 95.547C57.3871 95.3871 57.2636 95.8966 57.1188 96.7387L54.757 117.484L56.0369 117.124L58.3753 95.5491V95.547Z" fill="#563E29"/>
<path d="M53.9051 95.5449L51.5625 117.06H49.4308L51.6222 96.3465L51.7968 95.5705L53.9051 95.547V95.5449ZM53.4792 95.7581L52.1865 95.8519L49.7353 116.412C49.7438 117.235 51.3134 116.791 51.3496 116.101L53.4792 95.7581Z" fill="#563E29"/>
<path d="M49.6438 95.9713L47.2905 117.045L45.5953 117.058L47.5589 96.7622C47.7931 95.6429 48.7578 96.0011 49.6416 95.9713H49.6438ZM49.22 96.3955H47.9401L46.0234 116.631H47.0903L49.22 96.3955Z" fill="#563E29"/>
<path d="M75.4123 123.234L68.5953 122.81L68.8104 118.548L75.6252 118.976C75.7296 119.053 75.4123 119.247 75.4123 119.294V123.234ZM69.0234 118.974V122.063C69.0234 122.117 68.7721 122.234 68.8999 122.385L74.8543 122.822C75.325 122.694 75.1823 119.744 75.1993 119.188L69.0213 118.976L69.0234 118.974Z" fill="#563E29"/>
<path d="M69.2363 112.798C71.1573 113.297 73.47 112.732 75.3122 113.009C75.6401 113.058 75.638 112.879 75.6337 113.333C75.6188 114.51 75.0609 115.836 75.2014 117.06L69.2363 116.845V112.798ZM75.1993 113.222H69.6623V116.631L74.7499 116.821L75.1993 113.225V113.222Z" fill="#563E29"/>
<path d="M77.329 104.917V108.643C77.329 109.251 75.6956 108.752 75.3144 108.741C73.9301 108.699 72.5352 108.792 71.1531 108.75V104.703L77.329 104.917ZM76.9031 105.13H71.579L71.366 108.539H76.9031V105.13Z" fill="#563E29"/>
<path d="M74.3475 124.724V128.77C72.6374 128.534 70.0883 128.836 68.491 128.557C68.2546 128.517 68.0715 128.472 67.9821 128.222L68.3931 124.304L74.3454 124.724H74.3475ZM74.1346 125.15L68.5954 124.724L68.3824 128.135C70.1372 128.195 71.9432 128.476 73.698 128.472C73.9471 128.472 73.9727 128.457 74.1324 128.24V125.15H74.1346Z" fill="#563E29"/>
<path d="M80.3105 119.401L84.9935 119.829C85.034 120.192 84.2588 120.062 84.0267 120.049C82.9406 119.996 81.8651 119.671 80.7343 119.825V123.658C81.9524 123.961 83.2153 123.871 84.4547 124.093C84.8317 124.161 85.0915 123.858 84.9914 124.509L80.3083 124.084V119.399L80.3105 119.401Z" fill="#563E29"/>
<path d="M79.8845 125.364C81.2752 125.391 82.653 125.626 84.0288 125.801C84.312 125.837 84.9296 125.59 84.7827 126.108L80.3104 125.577L80.0932 129.838C81.2879 129.905 82.6828 129.973 83.835 130.258C84.1949 130.348 84.4568 130.045 84.3503 130.689L79.8802 130.05V125.364H79.8845Z" fill="#563E29"/>
<path d="M76.9031 111.519C77.2481 111.779 76.901 111.905 76.5879 111.945C75.029 112.144 73.4382 111.796 71.907 111.724C71.0573 111.683 70.1926 111.769 69.3408 111.732C69.0788 111.722 68.5507 111.894 68.5975 111.519H76.9031Z" fill="#563E29"/>
<path d="M74.9864 131.544C74.98 131.953 74.1026 131.749 73.8449 131.727C72.0071 131.567 69.5282 131.19 67.7052 130.838C67.4688 130.794 66.8598 130.796 66.8981 130.478L74.9886 131.544H74.9864Z" fill="#563E29"/>
<path d="M70.4076 109.816C70.3161 109.805 69.3897 109.609 69.4514 109.391L73.8257 109.379L76.903 109.816C74.8309 109.649 72.4372 110.04 70.4076 109.816Z" fill="#563E29"/>
<path d="M77.755 103.426H71.792V103H77.4355C77.4717 103 77.772 103.288 77.755 103.426Z" fill="#563E29"/>
<path d="M78.5471 47.0252C81.092 46.4496 81.2305 50.7347 78.824 51.3593C75.8766 52.1226 76.1257 47.5731 78.5471 47.0252ZM78.9794 47.2277C77.2523 47.4686 76.0256 50.4767 77.691 50.9884C79.7333 51.6152 81.1815 48.6497 79.4586 47.2917C79.3053 47.1808 79.1541 47.2043 78.9816 47.2277H78.9794Z" fill="#563E29"/>
<path d="M83.079 41.4461C83.2728 41.6763 80.7897 46.3004 80.3126 46.7694C81.0601 45.228 81.6926 43.3179 82.5487 41.866C82.619 41.7467 82.7447 41.0495 83.0769 41.4461H83.079Z" fill="#563E29"/>
</svg>
