<svg width="174" height="165" viewBox="0 0 174 165" fill="none" xmlns="http://www.w3.org/2000/svg">
<path d="M69.8381 28.5164C69.6373 28.428 69.4183 28.3852 69.2358 28.2175C68.8404 28.1534 67.3621 30.1088 66.9941 30.481C65.5645 31.933 64.2383 33.3271 62.9183 34.8798C62.8148 35.0019 62.3221 35.6577 62.3525 35.6974L65.8413 36.3624L69.9597 37.6345L70.4129 37.5063L74.5253 33.1715C74.3732 32.958 74.2363 32.7231 74.0508 32.534C72.7094 31.1704 70.927 30.06 69.8381 28.5195C70.9665 29.0228 74.5678 32.5645 74.9724 32.6072C75.4651 32.659 76.0583 31.6219 76.4293 31.2955C77.0711 30.7342 78.2422 29.6726 79.1091 30.0722C83.045 33.6505 87.3003 36.8505 91.3183 40.3464C91.9783 40.9199 93.7942 42.9424 94.3204 43.2109C94.7828 43.4457 95.4854 43.3878 95.8656 43.7813C96.553 44.486 95.5067 45.1174 95.3972 45.8801C95.5158 46.3834 99.4031 47.7195 99.838 47.6189C99.9962 47.5823 99.8836 47.2315 100.021 47.2833C102.414 48.6134 105.547 48.7079 108.239 49.3211C113.109 50.4315 118.842 51.731 123.569 53.2044C124.247 53.4149 125.394 53.7901 125.975 54.1379L95.0596 46.7007C94.6307 47.2406 94.4451 47.9697 94.1166 48.5401C92.027 52.1489 89.7366 55.5594 87.5071 59.0462C86.4243 60.7392 85.5452 62.5726 84.3133 64.1802L84.3438 64.3999C85.3232 64.9246 86.403 65.7848 86.9383 66.7793C87.0478 66.9837 86.917 67.2277 86.9991 67.365C87.0752 67.4901 88.7268 68.6157 89.2013 69.235C89.5207 69.6499 90.5396 71.3551 90.2659 71.77L89.8553 71.9256L89.6089 71.4405C89.2834 71.7608 89.1466 72.0964 88.739 72.3618C87.9238 72.8926 84.2677 73.399 83.0997 73.5576C82.4823 73.643 78.5585 73.7833 78.4551 74.1494L78.4886 74.8388C78.5859 75.0005 81.7584 75.0035 82.2389 74.9761C83.7081 74.8968 88.4439 74.3751 89.5785 73.6888C89.9982 73.4356 90.0834 72.8163 90.1777 72.3618L90.6674 72.252C90.8529 73.6156 89.5572 74.1707 88.4774 74.5429C85.8007 75.4672 82.7651 75.3849 80.0003 75.6686C79.7539 75.693 79.5957 75.6869 79.4436 75.9218C83.0328 77.9687 85.2958 81.2083 85.6 85.4059C85.8251 88.5052 83.7628 87.709 81.8709 88.8042C81.6276 88.9445 81.3264 89.0177 81.3903 89.3807C82.1021 89.5058 82.7682 89.817 83.4678 89.9908C90.1016 91.6503 96.9058 93.5966 103.321 96.0248C105.091 96.6959 108.333 98.8893 110.11 97.7056C110.77 97.2664 111.95 94.3165 112.336 93.4105C115.326 86.3912 117.385 79.2316 119.828 72.0415C121.726 66.459 124.174 61.0382 126.066 55.4466L125.972 54.1348C126.659 54.5466 126.681 54.5802 126.583 55.4771L124.007 62.6763C124.822 63.1339 127.253 64.7934 127.411 65.6781C127.596 66.7122 125.613 69.5644 125.671 69.8573L131.645 75.2354C131.584 75.6198 129.357 77.7826 128.904 78.2066C124.719 82.1235 119.956 85.4882 115.722 89.2984C113.075 91.6808 113.124 94.2402 111.521 97.1627C110.119 99.719 107.962 98.3707 105.791 97.788C103.807 100.097 101.417 101.998 99.1232 103.987C98.2868 104.713 96.3705 106.888 95.4276 107.138C95.2177 107.193 94.9683 107.232 94.7736 107.129C94.3965 106.638 93.7425 106.171 93.2285 105.829C88.4774 102.654 83.8358 97.8704 79.4436 94.0359C79.2824 93.8955 78.2604 93.0322 78.1418 93.142C77.9897 94.0694 77.8224 95.3262 78.0536 96.2475C78.3851 97.5562 80.6633 98.6727 81.5302 99.9417C82.7834 101.775 83.5012 105.844 83.1119 108.001C82.9659 108.816 81.9104 111.817 81.0861 112L80.6846 111.903C80.4413 111.72 79.471 109.09 79.4558 108.718C79.4193 107.894 80.0398 106.037 80.0946 104.975C80.201 102.913 79.5258 100.686 78.4977 98.9106C77.2171 96.7051 74.4279 95.1951 75.9457 92.1659C76.2955 91.4703 77.6764 90.6925 76.0309 90.7718C74.5344 92.7973 73.1778 94.4751 73.266 97.1443C73.3694 100.317 74.4888 101.073 75.8971 103.477C77.2658 105.814 78.3274 111.732 77.5 114.288C77.0742 115.609 75.8606 117.034 74.5587 117.54C74.2941 117.644 72.9345 118.056 72.9345 117.54V114.441C75.2978 112.44 78.1601 110.005 75.6051 106.866C74.0477 104.957 72.0828 104.145 71.1125 101.415C70.1179 98.6117 71.6813 96.3878 72.3626 93.7888L72.9314 93.7979C73.1231 93.2915 72.5877 93.383 72.606 93.0841C72.6516 92.3642 73.7131 89.5119 73.5002 89.0543L72.679 88.612C71.7239 90.0549 70.1118 88.9475 70.7901 87.3674L70.4464 87.0715C66.7416 85.8726 63.2589 84.1338 59.6302 82.7428C55.3232 81.0894 50.7668 79.799 46.4902 78.1365C46.0096 77.9504 44.6196 77.508 44.4827 77.0383C44.1542 75.9096 46.5085 70.8152 46.2195 70.3301C44.5831 69.235 42.8159 67.9568 41.289 66.7061C40.3734 65.9557 39.3666 65.1503 38.6001 64.2626C38.8313 64.2443 38.9956 64.0796 39.245 64.1772C39.7651 64.3816 40.9909 65.7177 41.5445 66.1265C42.2349 66.6359 42.9984 67.06 43.698 67.5572C44.6683 68.2497 45.5169 69.3387 46.7366 69.4851C46.7731 68.2558 48.5646 65.7452 48.3669 64.7049C48.3548 64.6409 47.5822 63.8691 47.4696 63.7715C47.1807 63.5183 46.7579 63.4451 46.4811 63.1309C46.2195 62.8319 46.11 62.2889 45.7602 61.9778C46.399 61.9717 46.4385 62.7739 46.8126 63.1248C47.2293 63.5122 48.0841 63.7928 48.446 64.4212C48.9753 64.4121 50.122 59.6929 50.3653 59.0065C51.3326 56.2763 52.5766 53.3295 53.7811 50.6847C55.3658 47.204 57.5345 43.9094 58.2888 40.1146L55.7643 42.7228C50.7668 48.5096 45.8667 54.4429 40.8053 60.1932C40.486 60.5562 39.9659 60.7911 39.5826 61.2517C38.8131 62.176 38.4846 63.1492 38.6032 64.2657C38.4754 64.1192 38.1348 64.0094 38.0314 63.7745C37.9766 62.594 38.4541 61.5354 39.2602 60.5989C45.1762 53.7108 51.6732 47.2071 57.5619 40.2793C58.0698 39.6814 58.8789 38.7113 59.2378 38.0463C59.4781 37.6009 59.5633 36.8505 59.8401 36.5302C60.199 36.1184 61.4248 35.7889 61.8202 35.496C62.7783 34.7853 64.141 32.6041 65.0413 31.628C66.0877 30.4871 67.3621 29.4773 68.3872 28.2937C69.0685 27.8606 69.4061 27.9124 69.8441 28.5317L69.8381 28.5164ZM80.7394 40.7552C82.0108 41.225 83.1393 42.0639 84.3955 42.555C86.4212 43.342 90.3571 44.7209 92.4194 44.9619C93.5266 45.093 93.5083 44.1809 94.2383 43.6013L78.5372 30.3071C77.5578 30.2064 75.7206 32.6224 75.0271 33.3149C74.1724 34.1691 73.5306 34.7731 72.6881 35.7004C72.3626 36.0573 70.5133 37.6253 70.8144 37.9822L80.8215 41.0846L80.7394 40.7582V40.7552ZM76.7092 66.8281L78.7076 67.6426C79.2703 67.2948 79.179 66.5505 79.4649 65.9923C82.2663 60.4708 86.6554 53.8023 90.3115 48.8025C90.8438 48.0734 91.9236 46.7678 92.2977 46.0631C92.3798 45.9075 92.5228 45.7947 92.4559 45.572C92.3798 45.2913 88.2341 44.4585 87.5771 44.2602C79.8816 41.9418 71.9277 38.3147 64.0163 36.7193C63.2498 36.5637 61.3913 36.219 60.7343 36.4387C59.9435 36.7041 60.2446 37.0427 60.1199 37.4545C58.1702 43.8454 54.8031 49.4706 52.4671 55.5655C50.3927 60.9802 48.0567 67.0844 46.3321 72.5845C46.1039 73.3136 45.0424 76.3275 45.3435 76.8217C45.4713 77.0291 46.7944 77.5172 47.132 77.6423C51.6367 79.3109 56.2874 80.6623 60.7648 82.4102C64.141 83.7281 67.3621 85.3998 70.7141 86.7695L74.0538 77.4867C73.3816 77.3372 72.8919 76.8369 72.2714 76.5776C70.4707 75.8333 68.0952 75.7235 66.7416 74.2104C67.5507 74.3812 68.2746 74.9456 69.0533 75.2354C69.9384 75.5648 70.9665 75.7021 71.8303 76.0407C72.5725 76.3336 73.8956 77.4806 74.6348 76.8217C74.7716 76.6996 75.5716 74.9791 75.5168 74.7992C74.7412 74.2867 73.8591 74.1738 73.0318 73.6888C71.7269 72.92 68.2625 70.3301 67.5203 69.0977C67.0854 68.3778 66.6595 67.2918 66.5774 66.4529C66.3584 64.2779 67.2922 60.4342 69.9111 60.1718C72.5451 59.9095 74.8598 61.5232 75.7663 63.927C76.0187 64.5951 76.3442 66.4559 76.7001 66.8251L76.7092 66.8281ZM83.6259 63.8843C84.0943 63.5823 85.746 60.2542 86.2053 59.5343C87.0965 58.1341 88.0272 56.801 88.9093 55.3916C91.1754 51.7615 93.5418 48.1954 95.5158 44.3884C95.747 43.5251 95.0413 43.6684 94.5698 44.0955C93.4536 45.1083 91.4004 48.6073 90.4119 50.041C87.4797 54.2996 83.9514 59.4184 81.5302 63.9789C81.3842 64.2535 81.0071 64.7629 81.15 65.068C81.6276 64.2565 83.1666 64.1833 83.629 63.8843H83.6259ZM71.1399 62.4567C71.8425 62.1394 70.7962 60.7697 70.4859 60.5715C70.2304 60.4098 69.1233 60.7087 68.8495 60.8948C67.7089 61.6727 67.277 64.3572 68.0496 65.556C68.4997 65.6323 68.2959 65.4859 68.372 65.312C68.9043 64.1101 69.2753 63.2437 70.6502 62.7862C69.8502 63.4725 68.9864 64.3907 68.8891 65.5194C68.8738 65.6994 69.397 67.246 69.5035 67.4016C69.6251 67.5816 69.9263 67.6395 70.0875 67.8348C71.4471 69.4821 73.0987 71.1172 74.8051 72.4075C74.9663 72.5296 75.7389 73.1915 75.8545 73.0665L73.4972 66.5383L70.9756 65.8855C70.9361 65.5835 71.3041 65.7635 71.4714 65.794C72.0311 65.9007 72.5269 66.215 73.1018 65.794L71.6235 62.295L71.1368 62.4597L71.1399 62.4567ZM71.4653 60.8277C72.0676 62.173 72.8463 63.4481 73.4455 64.7965C74.5253 67.2277 75.1093 70.324 76.1738 72.5052C76.5358 73.2434 76.9951 72.737 77.0073 72.1757C77.0286 71.2666 76.6483 68.9574 76.4658 67.969C75.9336 65.071 74.7838 61.3798 71.4653 60.8277ZM123.587 68.2741L125.163 69.4028L127.24 65.9374C127.347 65.3211 124.625 63.32 123.94 63.1095L122.395 66.9562L123.587 68.2741ZM84.4806 65.071C82.3211 63.4481 81.3873 65.4127 80.0885 66.944C79.9303 67.1301 79.5927 67.2186 79.5075 67.3528C79.4102 67.5114 79.5927 67.8744 79.5349 68.1703C79.2642 69.598 78.0688 71.0531 78.4612 72.737C79.1516 72.0018 79.3919 70.9616 79.9516 70.0739C81.0709 68.2985 82.6465 66.7152 84.2738 65.4401C84.4046 65.3364 84.5719 65.4432 84.4776 65.071H84.4806ZM88.3831 71.7578C88.7451 70.9768 89.1557 70.4796 88.6903 69.5766C87.7139 68.9604 85.7003 65.6628 84.8213 65.4676C84.4289 65.3822 83.5012 66.34 83.6685 66.5383C84.2221 66.215 85.1255 67.3833 85.5391 67.8409C86.5976 69.0092 87.136 70.5925 87.9238 71.4893C88.0698 71.6541 88.082 71.834 88.3831 71.7608V71.7578ZM68.6031 67.6121C68.1013 67.0661 66.4314 64.6927 67.3165 67.1881C67.5203 67.7585 68.0374 68.7072 68.3993 69.2014C68.9377 69.9366 73.7557 73.6613 74.5101 73.8443C74.7899 73.9115 75.0819 73.8871 75.3678 73.881L74.6713 72.9475C72.4326 71.8462 70.3217 69.4912 68.6001 67.6121H68.6031ZM80.2527 73.2281C80.4474 73.4081 84.8882 73.0054 85.527 72.8895C86.7011 72.676 87.7535 72.5143 87.3094 71.105C86.6767 70.4979 84.4594 66.8464 83.7537 66.8647C83.5316 66.8708 83.2701 67.2369 82.8929 67.0538C81.296 68.9818 79.9668 70.928 79.1151 73.3105C79.1456 73.4752 79.3463 73.4173 79.4436 73.3166C79.8239 72.9261 80.6116 71.0928 80.9979 70.4674C81.6549 69.4058 82.4062 68.3046 83.1788 67.3528L80.2527 73.2251V73.2281ZM77.1593 71.105C77.4757 71.166 77.5487 70.9585 77.6795 70.7297C77.8103 70.501 78.6224 68.2527 78.6194 68.0758C78.6711 67.6365 76.913 67.1057 76.8339 67.1881L77.1593 71.1019V71.105ZM126.523 71.3704C125.583 70.6169 124.631 69.8359 123.694 69.0703C123.374 68.811 122.459 67.5755 122.07 67.8439C121.519 69.6071 120.759 71.3154 120.181 73.0695C119.512 75.1042 118.794 77.6362 118.039 79.8783C117.017 82.9136 116.017 85.958 114.745 88.8926C114.982 89.0757 116.339 87.9744 116.613 87.7456C120.092 84.8354 123.676 81.9771 127.116 79.0211C127.718 78.5056 130.918 75.7448 131.103 75.3452C131.404 74.6954 130.717 74.7229 130.376 74.4392C129.099 73.3746 127.815 72.4014 126.523 71.3673V71.3704ZM76.9495 73.0939C76.11 73.3532 76.0644 75.4825 77.0012 75.9187C77.7494 76.2665 77.8316 75.6625 77.9319 75.0615C78.081 74.1677 78.4034 72.6485 76.9495 73.0939ZM79.0513 75.9035C78.5251 75.5709 78.1631 75.7204 78.3213 76.3763C78.3547 76.5197 79.5957 77.807 79.833 78.1334C81.7948 80.8575 83.6442 84.146 83.6685 87.587C85.6213 87.5962 84.9521 84.6768 84.6662 83.4047C83.9179 80.0766 81.8831 77.685 79.0513 75.9035ZM75.9396 76.0224C75.6568 76.0224 74.2028 78.8076 73.9899 79.2682C73.2356 80.9033 72.1497 83.5603 71.6722 85.2686C71.5018 85.8757 70.9574 88.1514 71.219 88.5693C71.3133 88.7218 71.5809 88.7523 71.7087 88.8896C73.2569 84.7744 74.4158 80.5189 76.6514 76.7057L75.9366 76.0224H75.9396ZM79.9273 79.1004C79.6444 78.5788 77.9988 75.5648 77.2354 76.6478L73.7436 91.992C74.069 92.0499 74.2028 91.7754 74.3884 91.5802C76.6544 89.1916 77.2323 86.7908 77.4848 83.5878L77.6521 76.8186C77.9593 76.8827 77.9471 77.142 77.9806 77.386C78.3517 80.1071 78.1601 84.2497 77.7981 87.0013C77.7312 87.5047 77.5213 88.0049 77.3783 88.49L78.6285 89.3807L77.0164 89.0665L76.5267 90.2562C77.3449 91.3331 78.23 89.8444 79.0026 89.3533C79.4041 89.097 80.0824 88.792 80.5386 88.6089C82.7378 87.7151 83.4374 88.3771 82.7803 85.3052C82.3515 83.3071 81.3082 81.4188 80.3835 79.6312L78.6315 79.1035H79.9333L79.9273 79.1004ZM76.183 79.1035C75.7267 79.4909 75.4226 80.2444 75.1792 80.7874C74.5313 82.2455 73.7801 84.3839 73.2995 85.9184C73.1687 86.3363 72.7489 87.6846 72.7763 88.011C72.8067 88.4107 73.5519 88.8164 73.7101 88.2886L76.183 79.1035ZM79.4376 90.1983C79.6626 89.9512 79.8877 89.6522 80.0885 89.3838C79.8695 89.1946 77.7433 90.9701 77.4787 91.2507C76.3077 92.4862 76.2651 93.6789 76.8369 95.2561C77.1898 95.3171 77.1654 95.2286 77.2415 94.9388C77.4392 94.2036 77.4301 92.8492 77.7342 92.1598C77.9167 91.7418 79.0695 90.604 79.4376 90.1983C79.2551 90.4027 78.2696 92.1232 78.6102 92.4099C83.4252 96.4885 87.9633 100.893 92.7905 104.957C92.9851 105.121 93.0673 105.463 93.1403 105.512C93.2133 105.561 93.4353 105.408 93.6817 105.518C94.1166 105.716 94.4391 106.235 94.8375 106.491L95.2755 106.33C98.7278 103.624 101.922 100.591 105.143 97.6111C105.2 97.3548 104.665 97.0803 104.48 96.9888C102.463 95.9912 99.546 95.5062 97.4199 94.6032L97.8244 95.1768C97.2861 95.2866 96.991 94.469 96.3614 94.1975C94.7524 93.502 91.7381 92.9529 89.8826 92.3733C88.1945 91.8456 86.6737 91.3422 85.0068 90.8999C84.0183 90.6376 82.756 90.5277 81.8405 90.1586C81.3477 89.9603 81.1318 89.3472 80.3683 89.576C80.2466 89.82 79.4771 90.1617 79.4376 90.2013V90.1983ZM72.4417 96.7264C72.0737 96.6593 72.1832 96.7417 72.0767 96.9339C70.7262 99.4231 72.0646 102.916 73.9078 104.801L76.3472 106.842C76.1708 104.112 73.7496 102.361 72.971 100.03C72.6181 98.9716 72.4204 97.8368 72.4417 96.7264ZM81.2261 111.085C82.5979 108.413 82.7925 106.003 82.1294 103.084C81.7948 101.613 81.1226 99.7983 79.7661 99.0113C79.6626 99.1394 80.6147 101.144 80.7303 101.549C81.1926 103.151 81.2382 104.768 81.0466 106.418C80.9675 107.104 80.5782 107.214 80.5782 107.266C80.5782 107.464 80.7668 107.711 80.7394 108.05C80.712 108.389 80.4383 108.724 80.4231 109.06C80.4109 109.328 80.9584 111.268 81.2261 111.085ZM73.4181 117.122C75.9427 116.573 77.4179 113.706 77.1563 111.247C76.1282 112.678 74.8751 113.904 73.4972 115.008L73.4181 117.119V117.122Z" fill="#563E29"/>
<path d="M108.68 58.8937C109.574 58.7533 110.326 60.3183 110.365 61.0687C110.38 61.328 110.085 62.4781 110.432 62.4567C110.517 62.4506 111.278 61.4226 111.576 61.1602C113.477 59.4885 116.023 59.1591 115.077 62.5513C114.651 64.0796 112.859 65.556 111.539 66.3461C110.818 66.7763 109.054 67.7524 108.336 67.3376C107.619 66.9227 106.952 64.0765 106.928 63.2041C106.895 62.0723 107.257 59.1225 108.68 58.8998V58.8937Z" fill="#563E29"/>
<path d="M115.162 67.5816C115.098 67.5053 114.906 67.5328 114.915 67.4443L118.976 56.4227C116.929 55.9194 114.964 55.111 112.929 54.571C112.038 54.3331 109.234 53.5766 108.504 53.7108C108.364 53.7352 108.224 53.7444 108.114 53.8542C107.959 54.1226 107.856 54.4185 107.746 54.7083C106.393 58.2256 104.644 62.9936 103.637 66.581C103.427 67.3314 103.184 68.091 103.184 68.8811C106.411 70.2813 109.921 70.8335 113.343 71.5869L114.827 67.847C115.889 69.1465 114.228 71.1843 113.951 72.6424C113.845 72.8438 113.589 72.74 113.41 72.7065C112.154 72.4533 110.298 71.7974 109.021 71.3887C108.221 71.1355 102.597 69.2624 102.411 68.9635C101.97 68.2405 103.531 65.3394 103.85 64.5067C105.255 60.8369 106.536 57.1121 108.023 53.4759C108.613 53.0885 111.846 53.9426 112.704 54.1562C114.173 54.5192 115.953 55.0225 117.388 55.4954C118.143 55.7425 119.977 56.1085 119.563 57.0847L115.481 68.0087C115.357 67.8805 115.28 67.7219 115.168 67.5846L115.162 67.5816Z" fill="#563E29"/>
<path d="M109.863 89.5455C108.954 89.7681 108.209 89.0848 107.469 88.9292C104.826 88.3801 104.446 87.8066 102.21 87.0227C100.912 86.5681 99.3846 86.4553 98.1071 85.9153C97.0091 85.4516 95.9993 84.2009 95.029 83.9447C93.6633 83.5877 92.0481 84.0972 90.6642 83.5878L85.6211 81.55C87.8081 81.974 89.773 83.301 92.0512 83.5054C93.4321 83.6274 94.6488 83.2003 95.9263 84.024C96.2943 84.2589 96.5194 84.6493 96.857 84.8842C98.4326 85.9702 100.133 85.9611 101.885 86.5346C103.111 86.9372 104.799 88.1605 105.751 88.3679C106.846 88.6089 108.364 88.5662 109.471 89.0421C109.717 89.1489 109.924 89.2221 109.863 89.5455Z" fill="#563E29"/>
<path d="M114.259 80.2444C113.495 80.1528 112.935 79.6892 112.178 79.4787C109.915 78.8503 107.546 79.2346 105.486 77.868C104.601 77.2792 103.613 75.9004 102.74 75.5618C101.617 75.1286 100.285 75.5374 99.1262 75.1042L91.8049 72.4136C92.4558 72.4533 93.1037 72.6638 93.7212 72.856C95.3546 73.3593 97.1491 74.2409 98.7278 74.6893C100.06 75.0676 101.541 74.8632 102.703 75.272C103.923 75.6991 104.915 77.5141 106.414 78.0785C108.875 79.0028 112.251 78.2249 114.255 80.2474L114.259 80.2444Z" fill="#563E29"/>
<path d="M119.095 62.7434C118.934 62.9021 118.371 62.8258 118.222 63.4359C118.137 63.7898 118.45 63.8874 118.471 64.165C118.55 65.251 117.507 64.7385 117.361 65.3486C117.279 65.7025 117.79 65.8367 117.559 66.6756C117.48 66.9654 117.607 67.1027 117.185 67.0294C117.632 65.7848 115.986 64.9398 118.161 64.5799C118.185 63.985 117.708 63.7959 117.979 63.1858C118.216 62.655 118.575 62.78 118.885 62.4506C119.387 61.9198 118.775 61.8832 118.669 61.5263C118.413 60.6721 119.515 60.666 119.706 60.3396C119.852 60.0925 119.639 59.6655 119.946 59.6868C120.333 60.6294 119.086 60.8521 118.985 61.267C118.918 61.5385 119.594 62.2462 119.092 62.7465L119.095 62.7434Z" fill="#563E29"/>
<path d="M99.4487 63.6037L99.3666 63.9301C98.3993 63.503 97.2831 63.4664 96.3128 63.079C95.0048 62.5574 94.4908 61.4622 92.8605 61.4653C92.0879 61.4653 91.0963 61.993 90.5032 61.1541C91.6468 61.5568 92.7905 61.0351 93.925 61.3921C94.6824 61.63 95.1448 62.2004 95.8748 62.536C97.0063 63.0576 98.2868 63.1888 99.4518 63.6006L99.4487 63.6037Z" fill="#563E29"/>
<path d="M117.023 67.0294C116.369 67.8226 117.078 68.7286 116.543 69.6956C116.421 69.9152 115.734 69.6925 115.582 70.2447C115.436 70.7694 116.528 72.2184 115.101 72.1086C114.66 72.862 115.512 73.3654 114.988 74.2134C114.858 74.427 113.236 73.9816 113.045 73.704C112.789 73.3379 113.17 73.0817 112.145 73.2281C112.3 72.7888 113.036 72.8926 113.279 73.1518C113.638 73.5332 113.297 73.8687 114.255 73.9816C115.214 74.0945 114.423 72.9109 114.687 72.2916C114.858 71.892 115.472 72.1238 115.527 71.4832C115.582 70.8426 114.76 70.4796 115.639 69.7993C115.807 69.6681 116.099 69.6925 116.22 69.5339C117.002 68.5089 115.463 67.4168 117.02 67.0325L117.023 67.0294Z" fill="#563E29"/>
<path d="M119.6 54.6534C119.706 54.7846 119.542 55.3184 119.879 55.4374C120.43 55.2635 120.807 54.9676 121.251 55.5259C120.613 55.4618 120.193 56.02 119.63 55.5197C119.399 55.3123 119.402 54.9798 119.259 54.8334C118.745 54.3087 118.131 55.1567 117.51 54.9523C117.571 54.7907 118.368 54.3514 118.432 54.3392C118.505 54.327 119.56 54.6076 119.6 54.6534Z" fill="#563E29"/>
<path d="M104.288 61.7612C104.148 61.9289 103.597 61.9503 103.43 62.295C103.178 62.8136 103.917 63.5945 103.196 63.924C103.573 63.2773 102.925 62.8411 103.147 62.3408C103.421 61.7246 104.379 61.7246 104.172 60.8246C104.592 60.8826 104.461 61.5568 104.291 61.7612H104.288Z" fill="#563E29"/>
<path d="M102.217 66.2088C103.017 65.4889 101.608 64.7354 102.703 64.0887C102.238 64.9337 103.494 65.9617 102.217 66.2088Z" fill="#563E29"/>
<path d="M102.91 70.9128C102.968 71.0073 103.263 70.8426 103.19 71.105L102.618 70.9463L102.39 70.0342C101.994 69.8542 101.59 69.9396 101.319 70.2905C101.027 69.717 102.134 69.6804 102.542 69.8817C103.007 70.1135 102.755 70.6565 102.91 70.9097V70.9128Z" fill="#563E29"/>
<path d="M65.1205 73.2251C63.6331 72.6089 61.9146 72.7431 60.4333 72.2977C59.4052 71.9866 58.4501 71.1477 57.4707 70.8609C56.5521 70.5925 55.4753 70.6352 54.5081 70.4033C54.2648 70.3454 53.6351 70.2386 53.5652 69.9641C54.8761 70.2996 56.3483 70.3118 57.6319 70.6962C58.6782 71.0104 59.4356 71.7547 60.5519 72.011C62.018 72.3465 63.9494 72.075 65.1174 73.2251H65.1205Z" fill="#563E29"/>
<path d="M84.3193 51.85C83.6927 51.9201 83.2547 51.4168 82.7316 51.2399C80.5933 50.5169 79.1241 50.3949 76.9433 50.0288C75.6992 49.8214 74.4643 49.5712 73.2233 49.3546L71.4683 48.589C72.7397 49.0038 74.0202 49.2936 75.3433 49.5163C76.8094 49.7604 78.8717 49.739 80.1279 50.102C81.0617 50.3735 81.6943 50.6389 82.7376 50.9104C83.0175 50.9836 84.0395 51.612 84.3223 51.85H84.3193Z" fill="#563E29"/>
<path d="M80.575 58.5398C79.2519 58.2256 77.7797 58.1402 76.4718 57.8443C75.3433 57.588 73.7191 57.1518 72.6028 56.8284C71.0394 56.3739 70.1117 55.1323 68.3809 54.8609C66.34 54.5436 64.8891 54.3392 62.8421 53.8877C62.1151 53.7261 61.4216 53.6986 60.719 53.5674C60.5456 53.5339 60.1928 53.5522 60.2384 53.3203C62.2459 53.2654 64.0922 54.1013 66.0328 54.4429C66.8966 54.5955 67.9399 54.5161 68.8372 54.7297C70.0721 55.0256 70.9816 55.9072 72.1192 56.3343C74.4643 57.2128 77.001 57.4477 79.4131 57.9938C79.7811 58.0761 80.4138 58.1585 80.578 58.5367L80.575 58.5398Z" fill="#563E29"/>
<path d="M66.4192 63.1125C66.4192 63.442 65.7744 63.2376 65.5979 63.201C64.3174 62.9234 63.0764 62.2157 61.8993 61.8496C61.0841 61.5964 60.2233 61.5751 59.3899 61.4286C59.1861 61.392 58.6021 61.3981 58.6082 61.1541C61.3761 61.148 63.779 62.5299 66.4162 63.1125H66.4192Z" fill="#563E29"/>
<path d="M66.2581 46.4688L65.7623 46.5573L63.1677 45.816L66.2581 46.4688Z" fill="#563E29"/>
<path d="M85.1315 70.6169C84.2646 70.2599 83.1727 70.2691 82.5278 69.476C83.197 69.8237 84.0821 69.8817 84.7239 70.1288C84.9764 70.2264 85.1954 70.266 85.1315 70.6169Z" fill="#563E29"/>
<path d="M8.09737 142.496C7.77737 142.68 7.43337 142.828 7.06537 142.94C6.70537 143.044 6.32137 143.096 5.91337 143.096C5.32137 143.096 4.76537 142.984 4.24537 142.76C3.72537 142.536 3.27337 142.228 2.88937 141.836C2.49737 141.452 2.18937 141 1.96537 140.48C1.74137 139.96 1.62937 139.404 1.62937 138.812C1.62937 138.22 1.74137 137.664 1.96537 137.144C2.18937 136.616 2.49737 136.156 2.88937 135.764C3.27337 135.38 3.72537 135.076 4.24537 134.852C4.76537 134.62 5.32137 134.504 5.91337 134.504C6.32137 134.504 6.70537 134.556 7.06537 134.66C7.43337 134.764 7.78137 134.912 8.10937 135.104V136.448H7.38937V135.572C7.15737 135.46 6.91737 135.376 6.66937 135.32C6.42137 135.256 6.16937 135.224 5.91337 135.224C5.42537 135.224 4.96537 135.32 4.53337 135.512C4.10937 135.696 3.74137 135.952 3.42937 136.28C3.10137 136.608 2.84537 136.992 2.66137 137.432C2.47737 137.864 2.38537 138.324 2.38537 138.812C2.38537 139.3 2.47737 139.764 2.66137 140.204C2.84537 140.636 3.10137 141.008 3.42937 141.32C3.74137 141.648 4.10937 141.908 4.53337 142.1C4.95737 142.284 5.41337 142.376 5.90137 142.376C6.22137 142.376 6.52937 142.336 6.82537 142.256C7.12937 142.168 7.41337 142.048 7.67737 141.896L8.09737 142.496ZM13.6336 142.4C13.4176 142.616 13.1616 142.788 12.8656 142.916C12.5776 143.036 12.2696 143.096 11.9416 143.096C11.6056 143.096 11.2936 143.036 11.0056 142.916C10.7176 142.788 10.4656 142.616 10.2496 142.4C10.0336 142.192 9.86159 141.948 9.73359 141.668C9.61359 141.38 9.55359 141.072 9.55359 140.744C9.55359 140.424 9.61359 140.12 9.73359 139.832C9.86159 139.544 10.0336 139.292 10.2496 139.076C10.4656 138.868 10.7176 138.704 11.0056 138.584C11.2936 138.456 11.6056 138.392 11.9416 138.392C12.2696 138.392 12.5776 138.456 12.8656 138.584C13.1616 138.704 13.4216 138.868 13.6456 139.076C13.8536 139.292 14.0176 139.544 14.1376 139.832C14.2656 140.12 14.3296 140.424 14.3296 140.744C14.3296 141.072 14.2656 141.38 14.1376 141.668C14.0176 141.948 13.8496 142.192 13.6336 142.4ZM10.7896 141.884C10.9336 142.036 11.1016 142.156 11.2936 142.244C11.4856 142.324 11.6936 142.364 11.9176 142.364C12.1416 142.364 12.3496 142.324 12.5416 142.244C12.7416 142.156 12.9176 142.036 13.0696 141.884C13.2136 141.74 13.3256 141.572 13.4056 141.38C13.4936 141.188 13.5376 140.98 13.5376 140.756C13.5376 140.532 13.4936 140.324 13.4056 140.132C13.3256 139.932 13.2136 139.756 13.0696 139.604C12.9176 139.46 12.7416 139.348 12.5416 139.268C12.3496 139.18 12.1416 139.136 11.9176 139.136C11.6936 139.136 11.4856 139.18 11.2936 139.268C11.1016 139.348 10.9336 139.46 10.7896 139.604C10.6376 139.756 10.5176 139.932 10.4296 140.132C10.3496 140.324 10.3096 140.528 10.3096 140.744C10.3096 140.976 10.3496 141.188 10.4296 141.38C10.5176 141.572 10.6376 141.74 10.7896 141.884ZM18.2629 143H15.7669V142.28H16.6909V139.22H15.8629V138.5H17.3389L17.3509 138.764C17.3589 138.932 17.3669 139.084 17.3749 139.22C17.3829 139.348 17.3949 139.496 17.4109 139.664C17.5709 139.28 17.8269 138.976 18.1789 138.752C18.5389 138.52 18.9349 138.404 19.3669 138.404C19.8309 138.404 20.1949 138.528 20.4589 138.776C20.7229 139.024 20.8629 139.348 20.8789 139.748V142.28H21.6829V143H19.1869V142.28H20.1229V140.048C20.1069 139.808 20.0189 139.604 19.8589 139.436C19.7069 139.26 19.4709 139.164 19.1509 139.148C18.9189 139.148 18.6989 139.188 18.4909 139.268C18.2909 139.34 18.1149 139.444 17.9629 139.58C17.8029 139.716 17.6749 139.88 17.5789 140.072C17.4909 140.256 17.4469 140.46 17.4469 140.684V142.28H18.2629V143ZM25.6246 143H23.1286V142.28H23.8606V139.244H23.1286V138.5H23.8486V136.796C23.8486 136.348 23.9166 135.952 24.0526 135.608C24.1966 135.264 24.3886 134.976 24.6286 134.744C24.8686 134.504 25.1526 134.324 25.4806 134.204C25.8166 134.076 26.1726 134.004 26.5486 133.988V134.708C26.2766 134.724 26.0246 134.78 25.7926 134.876C25.5606 134.964 25.3566 135.096 25.1806 135.272C24.9966 135.448 24.8526 135.664 24.7486 135.92C24.6526 136.176 24.6046 136.472 24.6046 136.808V138.5H26.0686V139.244H24.6046V142.28H25.6246V143ZM30.0683 143H27.5723V142.28H28.4483V139.22H27.5723V138.5H29.2043V142.28H30.0683V143ZM29.3483 136.832C29.3483 136.976 29.2963 137.1 29.1923 137.204C29.0883 137.3 28.9723 137.348 28.8443 137.348C28.7163 137.348 28.5963 137.3 28.4843 137.204C28.3803 137.1 28.3283 136.976 28.3283 136.832C28.3283 136.68 28.3803 136.556 28.4843 136.46C28.5963 136.356 28.7163 136.304 28.8443 136.304C28.9723 136.304 29.0883 136.356 29.1923 136.46C29.2963 136.556 29.3483 136.68 29.3483 136.832ZM34.0082 143H31.5122V142.28H32.4362V139.22H31.6082V138.5H33.0842L33.1202 139.124C33.1362 139.292 33.1402 139.384 33.1322 139.4C33.1322 139.408 33.1402 139.496 33.1562 139.664C33.2522 139.464 33.3722 139.288 33.5162 139.136C33.6602 138.976 33.8162 138.844 33.9842 138.74C34.1522 138.628 34.3162 138.544 34.4762 138.488C34.6442 138.432 34.8042 138.404 34.9562 138.404L34.9082 139.148C34.6922 139.148 34.4882 139.18 34.2962 139.244C34.1042 139.3 33.9362 139.384 33.7922 139.496C33.6082 139.632 33.4602 139.804 33.3482 140.012C33.2442 140.212 33.1922 140.436 33.1922 140.684V142.28H34.0082V143ZM38.8972 143H36.4012V142.28H37.3252V139.22H36.4972V138.5H37.9732L37.9852 138.764C37.9932 138.932 38.0012 139.084 38.0092 139.22C38.0172 139.348 38.0292 139.496 38.0452 139.664C38.2132 139.28 38.4652 138.976 38.8012 138.752C39.1452 138.528 39.5452 138.412 40.0012 138.404C40.4252 138.404 40.7692 138.516 41.0332 138.74C41.2972 138.956 41.4532 139.244 41.5012 139.604C41.6692 139.236 41.9212 138.948 42.2572 138.74C42.6012 138.524 42.9932 138.412 43.4332 138.404C43.8892 138.404 44.2492 138.528 44.5132 138.776C44.7772 139.024 44.9172 139.348 44.9332 139.748V142.28H45.7612V143H43.2652V142.28H44.1772V140.048C44.1612 139.808 44.0732 139.604 43.9132 139.436C43.7612 139.26 43.5292 139.164 43.2172 139.148C42.9932 139.148 42.7772 139.188 42.5692 139.268C42.3692 139.34 42.1932 139.444 42.0412 139.58C41.8812 139.716 41.7532 139.876 41.6572 140.06C41.5612 140.244 41.5132 140.444 41.5132 140.66V142.28H42.3292V143H39.8332V142.28H40.7572V140.048C40.7412 139.808 40.6532 139.604 40.4932 139.436C40.3412 139.26 40.1052 139.164 39.7852 139.148C39.5532 139.148 39.3332 139.188 39.1252 139.268C38.9252 139.34 38.7492 139.444 38.5972 139.58C38.4372 139.716 38.3092 139.88 38.2132 140.072C38.1252 140.256 38.0812 140.46 38.0812 140.684V142.28H38.8972V143ZM52.8726 143H51.3006V142.64C51.3006 142.568 51.3006 142.504 51.3006 142.448C51.3006 142.392 51.3006 142.328 51.3006 142.256C51.2686 142.336 51.2046 142.424 51.1086 142.52C51.0206 142.616 50.9046 142.704 50.7606 142.784C50.6086 142.88 50.4326 142.956 50.2326 143.012C50.0406 143.068 49.8246 143.096 49.5846 143.096C49.2486 143.096 48.9326 143.036 48.6366 142.916C48.3486 142.788 48.1006 142.616 47.8926 142.4C47.6766 142.192 47.5046 141.948 47.3766 141.668C47.2566 141.38 47.1966 141.076 47.1966 140.756C47.1966 140.436 47.2566 140.132 47.3766 139.844C47.5046 139.556 47.6766 139.308 47.8926 139.1C48.1006 138.884 48.3486 138.712 48.6366 138.584C48.9326 138.456 49.2486 138.392 49.5846 138.392C50.0406 138.392 50.4166 138.488 50.7126 138.68C51.0086 138.872 51.2046 139.08 51.3006 139.304C51.3006 139.176 51.3046 139.044 51.3126 138.908C51.3286 138.772 51.3406 138.636 51.3486 138.5H51.9726V142.28H52.8726V143ZM49.5846 139.136C49.3446 139.136 49.1206 139.18 48.9126 139.268C48.7046 139.348 48.5326 139.468 48.3966 139.628C48.2526 139.772 48.1446 139.94 48.0726 140.132C48.0006 140.316 47.9646 140.52 47.9646 140.744C47.9646 140.992 48.0126 141.224 48.1086 141.44C48.2046 141.648 48.3406 141.824 48.5166 141.968C48.6526 142.088 48.8086 142.184 48.9846 142.256C49.1686 142.328 49.3686 142.364 49.5846 142.364C49.8086 142.364 50.0166 142.324 50.2086 142.244C50.4086 142.164 50.5806 142.056 50.7246 141.92C50.8766 141.776 50.9966 141.604 51.0846 141.404C51.1726 141.196 51.2166 140.976 51.2166 140.744C51.2166 140.512 51.1726 140.296 51.0846 140.096C50.9966 139.888 50.8766 139.716 50.7246 139.58C50.5806 139.436 50.4086 139.328 50.2086 139.256C50.0166 139.176 49.8086 139.136 49.5846 139.136ZM64.1858 143H62.6138V142.64C62.6138 142.568 62.6138 142.504 62.6138 142.448C62.6138 142.392 62.6138 142.328 62.6138 142.256C62.5818 142.336 62.5178 142.424 62.4218 142.52C62.3338 142.616 62.2178 142.704 62.0738 142.784C61.9218 142.88 61.7458 142.956 61.5458 143.012C61.3538 143.068 61.1378 143.096 60.8978 143.096C60.5618 143.096 60.2458 143.036 59.9498 142.916C59.6618 142.788 59.4138 142.616 59.2058 142.4C58.9898 142.192 58.8178 141.948 58.6898 141.668C58.5698 141.38 58.5098 141.076 58.5098 140.756C58.5098 140.436 58.5698 140.132 58.6898 139.844C58.8178 139.556 58.9898 139.308 59.2058 139.1C59.4138 138.884 59.6618 138.712 59.9498 138.584C60.2458 138.456 60.5618 138.392 60.8978 138.392C61.3538 138.392 61.7298 138.488 62.0258 138.68C62.3218 138.872 62.5178 139.08 62.6138 139.304C62.6138 139.176 62.6178 139.044 62.6258 138.908C62.6418 138.772 62.6538 138.636 62.6618 138.5H63.2858V142.28H64.1858V143ZM60.8978 139.136C60.6578 139.136 60.4338 139.18 60.2258 139.268C60.0178 139.348 59.8458 139.468 59.7098 139.628C59.5658 139.772 59.4578 139.94 59.3858 140.132C59.3138 140.316 59.2778 140.52 59.2778 140.744C59.2778 140.992 59.3258 141.224 59.4218 141.44C59.5178 141.648 59.6538 141.824 59.8298 141.968C59.9658 142.088 60.1218 142.184 60.2978 142.256C60.4818 142.328 60.6818 142.364 60.8978 142.364C61.1218 142.364 61.3298 142.324 61.5218 142.244C61.7218 142.164 61.8938 142.056 62.0378 141.92C62.1898 141.776 62.3098 141.604 62.3978 141.404C62.4858 141.196 62.5298 140.976 62.5298 140.744C62.5298 140.512 62.4858 140.296 62.3978 140.096C62.3098 139.888 62.1898 139.716 62.0378 139.58C61.8938 139.436 61.7218 139.328 61.5218 139.256C61.3298 139.176 61.1218 139.136 60.8978 139.136ZM71.1815 146H68.6855V145.28H69.6335V142.688C69.6335 142.624 69.6335 142.564 69.6335 142.508C69.6415 142.452 69.6535 142.388 69.6695 142.316C69.6215 142.404 69.5575 142.492 69.4775 142.58C69.3975 142.66 69.2855 142.74 69.1415 142.82C68.9975 142.908 68.8295 142.976 68.6375 143.024C68.4455 143.08 68.2375 143.108 68.0135 143.108C67.6775 143.108 67.3615 143.048 67.0655 142.928C66.7775 142.8 66.5295 142.628 66.3215 142.412C66.1055 142.196 65.9335 141.948 65.8055 141.668C65.6855 141.38 65.6255 141.072 65.6255 140.744C65.6255 140.424 65.6855 140.124 65.8055 139.844C65.9335 139.556 66.1055 139.304 66.3215 139.088C66.5295 138.88 66.7775 138.716 67.0655 138.596C67.3615 138.468 67.6775 138.404 68.0135 138.404C68.4615 138.404 68.8255 138.496 69.1055 138.68C69.3935 138.864 69.6015 139.076 69.7295 139.316C69.7375 139.188 69.7455 139.056 69.7535 138.92C69.7615 138.784 69.7695 138.644 69.7775 138.5H71.3255V139.22H70.4015V145.28H71.1815V146ZM68.0135 139.136C67.7735 139.136 67.5535 139.18 67.3535 139.268C67.1615 139.348 66.9975 139.456 66.8615 139.592C66.7095 139.736 66.5935 139.908 66.5135 140.108C66.4335 140.308 66.3935 140.52 66.3935 140.744C66.3935 140.992 66.4375 141.22 66.5255 141.428C66.6215 141.636 66.7495 141.812 66.9095 141.956C67.0535 142.084 67.2175 142.184 67.4015 142.256C67.5935 142.328 67.7975 142.364 68.0135 142.364C68.2455 142.364 68.4615 142.324 68.6615 142.244C68.8615 142.156 69.0335 142.04 69.1775 141.896C69.3215 141.752 69.4335 141.584 69.5135 141.392C69.6015 141.192 69.6455 140.976 69.6455 140.744C69.6455 140.512 69.6015 140.296 69.5135 140.096C69.4255 139.896 69.3055 139.724 69.1535 139.58C69.0095 139.444 68.8375 139.336 68.6375 139.256C68.4455 139.176 68.2375 139.136 68.0135 139.136ZM77.0725 141.836C76.9125 142.22 76.6525 142.528 76.2925 142.76C75.9405 142.984 75.5445 143.096 75.1045 143.096C74.6485 143.096 74.2885 142.972 74.0245 142.724C73.7605 142.476 73.6205 142.152 73.6045 141.752V139.22H72.7645V138.5H74.3605V141.452C74.3765 141.692 74.4605 141.9 74.6125 142.076C74.7725 142.244 75.0125 142.336 75.3325 142.352C75.5565 142.352 75.7685 142.316 75.9685 142.244C76.1765 142.164 76.3565 142.056 76.5085 141.92C76.6685 141.784 76.7965 141.624 76.8925 141.44C76.9885 141.248 77.0365 141.04 77.0365 140.816V139.22H76.1965V138.5H77.7925V142.352H78.5845V143H77.0605L77.0485 142.376L77.0725 141.836ZM82.5168 143H80.0208V142.28H80.8968V139.22H80.0208V138.5H81.6528V142.28H82.5168V143ZM81.7968 136.832C81.7968 136.976 81.7448 137.1 81.6408 137.204C81.5368 137.3 81.4208 137.348 81.2928 137.348C81.1648 137.348 81.0448 137.3 80.9328 137.204C80.8288 137.1 80.7768 136.976 80.7768 136.832C80.7768 136.68 80.8288 136.556 80.9328 136.46C81.0448 136.356 81.1648 136.304 81.2928 136.304C81.4208 136.304 81.5368 136.356 81.6408 136.46C81.7448 136.556 81.7968 136.68 81.7968 136.832ZM93.8343 143H92.2623V142.64C92.2623 142.568 92.2623 142.504 92.2623 142.448C92.2623 142.392 92.2623 142.328 92.2623 142.256C92.2303 142.336 92.1663 142.424 92.0703 142.52C91.9823 142.616 91.8663 142.704 91.7223 142.784C91.5703 142.88 91.3943 142.956 91.1943 143.012C91.0023 143.068 90.7863 143.096 90.5463 143.096C90.2103 143.096 89.8943 143.036 89.5983 142.916C89.3103 142.788 89.0623 142.616 88.8543 142.4C88.6383 142.192 88.4663 141.948 88.3383 141.668C88.2183 141.38 88.1583 141.076 88.1583 140.756C88.1583 140.436 88.2183 140.132 88.3383 139.844C88.4663 139.556 88.6383 139.308 88.8543 139.1C89.0623 138.884 89.3103 138.712 89.5983 138.584C89.8943 138.456 90.2103 138.392 90.5463 138.392C91.0023 138.392 91.3783 138.488 91.6743 138.68C91.9703 138.872 92.1663 139.08 92.2623 139.304C92.2623 139.176 92.2663 139.044 92.2743 138.908C92.2903 138.772 92.3023 138.636 92.3103 138.5H92.9343V142.28H93.8343V143ZM90.5463 139.136C90.3063 139.136 90.0823 139.18 89.8743 139.268C89.6663 139.348 89.4943 139.468 89.3583 139.628C89.2143 139.772 89.1063 139.94 89.0343 140.132C88.9623 140.316 88.9263 140.52 88.9263 140.744C88.9263 140.992 88.9743 141.224 89.0703 141.44C89.1663 141.648 89.3023 141.824 89.4783 141.968C89.6143 142.088 89.7703 142.184 89.9463 142.256C90.1303 142.328 90.3303 142.364 90.5463 142.364C90.7703 142.364 90.9783 142.324 91.1703 142.244C91.3703 142.164 91.5423 142.056 91.6863 141.92C91.8383 141.776 91.9583 141.604 92.0463 141.404C92.1343 141.196 92.1783 140.976 92.1783 140.744C92.1783 140.512 92.1343 140.296 92.0463 140.096C91.9583 139.888 91.8383 139.716 91.6863 139.58C91.5423 139.436 91.3703 139.328 91.1703 139.256C90.9783 139.176 90.7703 139.136 90.5463 139.136ZM102.196 143H100.492V139.244H99.4716V138.5H100.492V135.572H101.248V138.5H102.532V139.244H101.248V142.28H102.196V143ZM108.282 141.836C108.122 142.22 107.862 142.528 107.502 142.76C107.15 142.984 106.754 143.096 106.314 143.096C105.858 143.096 105.498 142.972 105.234 142.724C104.97 142.476 104.83 142.152 104.814 141.752V139.22H103.974V138.5H105.57V141.452C105.586 141.692 105.67 141.9 105.822 142.076C105.982 142.244 106.222 142.336 106.542 142.352C106.766 142.352 106.978 142.316 107.178 142.244C107.386 142.164 107.566 142.056 107.718 141.92C107.878 141.784 108.006 141.624 108.102 141.44C108.198 141.248 108.246 141.04 108.246 140.816V139.22H107.406V138.5H109.002V142.352H109.794V143H108.27L108.258 142.376L108.282 141.836ZM116.906 143H115.334V142.64C115.334 142.568 115.334 142.504 115.334 142.448C115.334 142.392 115.334 142.328 115.334 142.256C115.302 142.336 115.238 142.424 115.142 142.52C115.054 142.616 114.938 142.704 114.794 142.784C114.642 142.88 114.466 142.956 114.266 143.012C114.074 143.068 113.858 143.096 113.618 143.096C113.282 143.096 112.966 143.036 112.67 142.916C112.382 142.788 112.134 142.616 111.926 142.4C111.71 142.192 111.538 141.948 111.41 141.668C111.29 141.38 111.23 141.076 111.23 140.756C111.23 140.436 111.29 140.132 111.41 139.844C111.538 139.556 111.71 139.308 111.926 139.1C112.134 138.884 112.382 138.712 112.67 138.584C112.966 138.456 113.282 138.392 113.618 138.392C114.074 138.392 114.45 138.488 114.746 138.68C115.042 138.872 115.238 139.08 115.334 139.304C115.334 139.176 115.338 139.044 115.346 138.908C115.362 138.772 115.374 138.636 115.382 138.5H116.006V142.28H116.906V143ZM113.618 139.136C113.378 139.136 113.154 139.18 112.946 139.268C112.738 139.348 112.566 139.468 112.43 139.628C112.286 139.772 112.178 139.94 112.106 140.132C112.034 140.316 111.998 140.52 111.998 140.744C111.998 140.992 112.046 141.224 112.142 141.44C112.238 141.648 112.374 141.824 112.55 141.968C112.686 142.088 112.842 142.184 113.018 142.256C113.202 142.328 113.402 142.364 113.618 142.364C113.842 142.364 114.05 142.324 114.242 142.244C114.442 142.164 114.614 142.056 114.758 141.92C114.91 141.776 115.03 141.604 115.118 141.404C115.206 141.196 115.25 140.976 115.25 140.744C115.25 140.512 115.206 140.296 115.118 140.096C115.03 139.888 114.91 139.716 114.758 139.58C114.614 139.436 114.442 139.328 114.242 139.256C114.05 139.176 113.842 139.136 113.618 139.136ZM122.651 146V145.28H123.455V139.22H122.543V138.5H124.079C124.079 138.644 124.083 138.784 124.091 138.92C124.107 139.048 124.115 139.18 124.115 139.316C124.227 139.108 124.427 138.904 124.715 138.704C125.011 138.504 125.383 138.404 125.831 138.404C126.167 138.404 126.479 138.468 126.767 138.596C127.063 138.716 127.319 138.88 127.535 139.088C127.751 139.304 127.919 139.556 128.039 139.844C128.159 140.124 128.219 140.424 128.219 140.744C128.219 141.072 128.159 141.38 128.039 141.668C127.919 141.948 127.751 142.196 127.535 142.412C127.319 142.628 127.063 142.8 126.767 142.928C126.479 143.048 126.167 143.108 125.831 143.108C125.607 143.108 125.399 143.08 125.207 143.024C125.015 142.968 124.847 142.896 124.703 142.808C124.551 142.728 124.435 142.652 124.355 142.58C124.283 142.5 124.227 142.416 124.187 142.328C124.195 142.376 124.199 142.428 124.199 142.484C124.207 142.532 124.211 142.58 124.211 142.628V145.28H125.147V146H122.651ZM125.831 139.136C125.591 139.136 125.371 139.18 125.171 139.268C124.971 139.348 124.799 139.464 124.655 139.616C124.511 139.76 124.399 139.932 124.319 140.132C124.247 140.324 124.211 140.528 124.211 140.744C124.211 140.984 124.251 141.208 124.331 141.416C124.419 141.616 124.543 141.788 124.703 141.932C124.847 142.068 125.015 142.176 125.207 142.256C125.399 142.328 125.607 142.364 125.831 142.364C126.055 142.364 126.263 142.328 126.455 142.256C126.647 142.176 126.815 142.072 126.959 141.944C127.111 141.8 127.231 141.624 127.319 141.416C127.415 141.208 127.463 140.984 127.463 140.744C127.463 140.504 127.415 140.284 127.319 140.084C127.231 139.876 127.107 139.696 126.947 139.544C126.803 139.424 126.635 139.328 126.443 139.256C126.251 139.176 126.047 139.136 125.831 139.136ZM132.155 143H129.659V142.28H130.583V139.22H129.755V138.5H131.231L131.267 139.124C131.283 139.292 131.287 139.384 131.279 139.4C131.279 139.408 131.287 139.496 131.303 139.664C131.399 139.464 131.519 139.288 131.663 139.136C131.807 138.976 131.963 138.844 132.131 138.74C132.299 138.628 132.463 138.544 132.623 138.488C132.791 138.432 132.951 138.404 133.103 138.404L133.055 139.148C132.839 139.148 132.635 139.18 132.443 139.244C132.251 139.3 132.083 139.384 131.939 139.496C131.755 139.632 131.607 139.804 131.495 140.012C131.391 140.212 131.339 140.436 131.339 140.684V142.28H132.155V143ZM136.924 139.136C136.66 139.136 136.42 139.188 136.204 139.292C135.996 139.388 135.816 139.524 135.664 139.7C135.544 139.852 135.452 140.028 135.388 140.228C135.324 140.428 135.304 140.64 135.328 140.864C135.784 140.688 136.236 140.512 136.684 140.336C137.14 140.16 137.596 139.988 138.052 139.82C137.924 139.612 137.764 139.448 137.572 139.328C137.38 139.2 137.164 139.136 136.924 139.136ZM138.472 142.46C138.272 142.66 138.04 142.816 137.776 142.928C137.52 143.04 137.236 143.096 136.924 143.096C136.596 143.096 136.284 143.036 135.988 142.916C135.7 142.788 135.452 142.62 135.244 142.412C135.028 142.196 134.856 141.948 134.728 141.668C134.608 141.38 134.548 141.072 134.548 140.744C134.548 140.424 134.608 140.12 134.728 139.832C134.856 139.544 135.028 139.292 135.244 139.076C135.452 138.868 135.7 138.704 135.988 138.584C136.284 138.456 136.596 138.392 136.924 138.392C137.172 138.392 137.408 138.44 137.632 138.536C137.856 138.632 138.06 138.76 138.244 138.92C138.42 139.088 138.572 139.284 138.7 139.508C138.836 139.732 138.94 139.976 139.012 140.24C138.428 140.464 137.848 140.688 137.272 140.912C136.696 141.128 136.116 141.348 135.532 141.572C135.668 141.812 135.856 142.004 136.096 142.148C136.336 142.292 136.612 142.364 136.924 142.364C137.14 142.364 137.34 142.328 137.524 142.256C137.708 142.176 137.868 142.064 138.004 141.92L138.472 142.46ZM143.324 142.592C143.212 142.736 143.056 142.856 142.856 142.952C142.664 143.048 142.42 143.096 142.124 143.096C141.852 143.096 141.584 143.064 141.32 143C141.064 142.928 140.848 142.804 140.672 142.628V141.656H141.356V142.196C141.476 142.268 141.596 142.312 141.716 142.328C141.844 142.344 141.988 142.352 142.148 142.352C142.236 142.352 142.324 142.34 142.412 142.316C142.5 142.292 142.584 142.252 142.664 142.196C142.72 142.148 142.768 142.088 142.808 142.016C142.848 141.936 142.868 141.84 142.868 141.728C142.868 141.552 142.82 141.42 142.724 141.332C142.636 141.236 142.516 141.16 142.364 141.104C142.212 141.04 142.044 140.984 141.86 140.936C141.684 140.88 141.516 140.808 141.356 140.72C141.204 140.632 141.076 140.512 140.972 140.36C140.868 140.2 140.816 139.984 140.816 139.712C140.816 139.48 140.86 139.284 140.948 139.124C141.036 138.956 141.148 138.82 141.284 138.716C141.42 138.612 141.572 138.536 141.74 138.488C141.908 138.432 142.064 138.404 142.208 138.404C142.296 138.404 142.392 138.412 142.496 138.428C142.608 138.444 142.724 138.472 142.844 138.512C142.956 138.552 143.064 138.6 143.168 138.656C143.28 138.712 143.376 138.784 143.456 138.872V139.844H142.772V139.268C142.692 139.228 142.608 139.2 142.52 139.184C142.432 139.16 142.336 139.148 142.232 139.148C142.144 139.148 142.056 139.16 141.968 139.184C141.888 139.208 141.816 139.24 141.752 139.28C141.696 139.336 141.652 139.4 141.62 139.472C141.588 139.544 141.576 139.628 141.584 139.724C141.592 139.86 141.648 139.968 141.752 140.048C141.864 140.128 141.996 140.196 142.148 140.252C142.3 140.316 142.464 140.384 142.64 140.456C142.816 140.52 142.976 140.6 143.12 140.696C143.272 140.8 143.396 140.932 143.492 141.092C143.588 141.252 143.636 141.46 143.636 141.716C143.636 141.836 143.612 141.976 143.564 142.136C143.516 142.296 143.436 142.448 143.324 142.592ZM147.405 139.136C147.141 139.136 146.901 139.188 146.685 139.292C146.477 139.388 146.297 139.524 146.145 139.7C146.025 139.852 145.933 140.028 145.869 140.228C145.805 140.428 145.785 140.64 145.809 140.864C146.265 140.688 146.717 140.512 147.165 140.336C147.621 140.16 148.077 139.988 148.533 139.82C148.405 139.612 148.245 139.448 148.053 139.328C147.861 139.2 147.645 139.136 147.405 139.136ZM148.953 142.46C148.753 142.66 148.521 142.816 148.257 142.928C148.001 143.04 147.717 143.096 147.405 143.096C147.077 143.096 146.765 143.036 146.469 142.916C146.181 142.788 145.933 142.62 145.725 142.412C145.509 142.196 145.337 141.948 145.209 141.668C145.089 141.38 145.029 141.072 145.029 140.744C145.029 140.424 145.089 140.12 145.209 139.832C145.337 139.544 145.509 139.292 145.725 139.076C145.933 138.868 146.181 138.704 146.469 138.584C146.765 138.456 147.077 138.392 147.405 138.392C147.653 138.392 147.889 138.44 148.113 138.536C148.337 138.632 148.541 138.76 148.725 138.92C148.901 139.088 149.053 139.284 149.181 139.508C149.317 139.732 149.421 139.976 149.493 140.24C148.909 140.464 148.329 140.688 147.753 140.912C147.177 141.128 146.597 141.348 146.013 141.572C146.149 141.812 146.337 142.004 146.577 142.148C146.817 142.292 147.093 142.364 147.405 142.364C147.621 142.364 147.821 142.328 148.005 142.256C148.189 142.176 148.349 142.064 148.485 141.92L148.953 142.46ZM153.481 143H150.985V142.28H151.909V139.22H151.081V138.5H152.557L152.569 138.764C152.577 138.932 152.585 139.084 152.593 139.22C152.601 139.348 152.613 139.496 152.629 139.664C152.789 139.28 153.045 138.976 153.397 138.752C153.757 138.52 154.153 138.404 154.585 138.404C155.049 138.404 155.413 138.528 155.677 138.776C155.941 139.024 156.081 139.348 156.097 139.748V142.28H156.901V143H154.405V142.28H155.341V140.048C155.325 139.808 155.237 139.604 155.077 139.436C154.925 139.26 154.689 139.164 154.369 139.148C154.137 139.148 153.917 139.188 153.709 139.268C153.509 139.34 153.333 139.444 153.181 139.58C153.021 139.716 152.893 139.88 152.797 140.072C152.709 140.256 152.665 140.46 152.665 140.684V142.28H153.481V143ZM161.731 144.656C161.731 145.008 161.627 145.304 161.419 145.544C161.211 145.784 160.919 145.904 160.543 145.904C160.287 145.904 160.051 145.836 159.835 145.7C159.627 145.564 159.475 145.352 159.379 145.064L159.823 144.848C159.863 144.992 159.939 145.108 160.051 145.196C160.171 145.284 160.315 145.328 160.483 145.328C160.691 145.328 160.855 145.256 160.975 145.112C161.095 144.976 161.155 144.804 161.155 144.596C161.155 144.42 161.107 144.28 161.011 144.176C160.923 144.08 160.823 143.996 160.711 143.924C160.607 143.844 160.507 143.76 160.411 143.672C160.323 143.584 160.279 143.472 160.279 143.336V143.036C160.007 142.988 159.751 142.896 159.511 142.76C159.279 142.624 159.079 142.452 158.911 142.244C158.735 142.044 158.599 141.816 158.503 141.56C158.407 141.304 158.359 141.032 158.359 140.744C158.359 140.424 158.419 140.12 158.539 139.832C158.659 139.544 158.827 139.296 159.043 139.088C159.259 138.872 159.511 138.704 159.799 138.584C160.087 138.456 160.399 138.392 160.735 138.392C161.023 138.392 161.295 138.44 161.551 138.536C161.807 138.624 162.039 138.748 162.247 138.908V140.204H161.551V139.352C161.431 139.28 161.303 139.228 161.167 139.196C161.031 139.156 160.887 139.136 160.735 139.136C160.503 139.136 160.291 139.176 160.099 139.256C159.907 139.328 159.735 139.436 159.583 139.58C159.439 139.724 159.323 139.896 159.235 140.096C159.155 140.296 159.115 140.512 159.115 140.744C159.115 140.984 159.159 141.208 159.247 141.416C159.343 141.624 159.471 141.8 159.631 141.944C159.767 142.072 159.931 142.176 160.123 142.256C160.315 142.328 160.519 142.364 160.735 142.364C160.935 142.364 161.123 142.336 161.299 142.28C161.475 142.216 161.631 142.124 161.767 142.004L162.223 142.58C162.031 142.732 161.807 142.856 161.551 142.952C161.295 143.048 161.031 143.096 160.759 143.096C160.759 143.288 160.815 143.424 160.927 143.504C161.039 143.584 161.151 143.66 161.263 143.732C161.431 143.86 161.551 144 161.623 144.152C161.695 144.312 161.731 144.48 161.731 144.656ZM169.357 143H167.785V142.64C167.785 142.568 167.785 142.504 167.785 142.448C167.785 142.392 167.785 142.328 167.785 142.256C167.753 142.336 167.689 142.424 167.593 142.52C167.505 142.616 167.389 142.704 167.245 142.784C167.093 142.88 166.917 142.956 166.717 143.012C166.525 143.068 166.309 143.096 166.069 143.096C165.733 143.096 165.417 143.036 165.121 142.916C164.833 142.788 164.585 142.616 164.377 142.4C164.161 142.192 163.989 141.948 163.861 141.668C163.741 141.38 163.681 141.076 163.681 140.756C163.681 140.436 163.741 140.132 163.861 139.844C163.989 139.556 164.161 139.308 164.377 139.1C164.585 138.884 164.833 138.712 165.121 138.584C165.417 138.456 165.733 138.392 166.069 138.392C166.525 138.392 166.901 138.488 167.197 138.68C167.493 138.872 167.689 139.08 167.785 139.304C167.785 139.176 167.789 139.044 167.797 138.908C167.813 138.772 167.825 138.636 167.833 138.5H168.457V142.28H169.357V143ZM166.069 139.136C165.829 139.136 165.605 139.18 165.397 139.268C165.189 139.348 165.017 139.468 164.881 139.628C164.737 139.772 164.629 139.94 164.557 140.132C164.485 140.316 164.449 140.52 164.449 140.744C164.449 140.992 164.497 141.224 164.593 141.44C164.689 141.648 164.825 141.824 165.001 141.968C165.137 142.088 165.293 142.184 165.469 142.256C165.653 142.328 165.853 142.364 166.069 142.364C166.293 142.364 166.501 142.324 166.693 142.244C166.893 142.164 167.065 142.056 167.209 141.92C167.361 141.776 167.481 141.604 167.569 141.404C167.657 141.196 167.701 140.976 167.701 140.744C167.701 140.512 167.657 140.296 167.569 140.096C167.481 139.888 167.361 139.716 167.209 139.58C167.065 139.436 166.893 139.328 166.693 139.256C166.501 139.176 166.293 139.136 166.069 139.136ZM172.081 142.352C172.081 142.504 172.029 142.632 171.925 142.736C171.821 142.832 171.705 142.88 171.577 142.88C171.449 142.88 171.333 142.832 171.229 142.736C171.125 142.632 171.073 142.504 171.073 142.352C171.073 142.2 171.125 142.076 171.229 141.98C171.333 141.884 171.449 141.836 171.577 141.836C171.705 141.836 171.821 141.884 171.925 141.98C172.029 142.076 172.081 142.2 172.081 142.352ZM171.949 141.008H171.193V134H171.949V141.008Z" fill="#2D1C01"/>
</svg>
