<?xml version="1.0" encoding="UTF-8"?>
<svg id="OBJECTS" xmlns="http://www.w3.org/2000/svg" viewBox="0 0 248.17 179.74">
  <defs>
    <style>
      .cls-1 {
        fill: #51402e;
      }
    </style>
  </defs>
  <path class="cls-1" d="M158.37,68.59c1.58,3.21-.02,6.55-.03,9.77,0,1.53,1.05,2.51,2.44,1.67.63-2.7.61-6.28,2.38-8.49-.64,2.49-1.55,5.02-1.79,7.6-.04.42-.37,1.66.32,1.61.8-5.8,2.22-12.38,8.12-14.92,2.47-1.07,5.15-1.07,7.38-1.83.66-.23,1.15-.9,1.82-1.13,4.62-1.6,8.03.78,10.9-4.94,1.01-2.01.81-4.02,1.82-5.91.22,2.69-1.35,7.38-3.35,9.18-2.27,2.04-6.9,1.41-9.73,2.25.32,1.07,2.41,0,2.76,0h5.9c.14,0,2.47-.54,2.68-.64,2.38-1.08,3.77-10.62,4.51-13.17l-1.11-.19c-.41,2.4-.64,5.1-1.21,7.45-.09.37-.11,1.11-.63,1.02l1.44-8.24c-.28-.99-2.76-.53-3.64-.58-.29.28-.28,5.08-1.86,5.51l1.47-5.53h-5.53l3.18-.69,2.14-.04.21-1.48.37,1.47,4.05.37.55-2.58c.51.12-.85,3.21.36,2.57l.92-3.67-59.68-9.22c-.27,1.81-.18,3.91-.42,5.67-.42,3.14-1.9,7.29-1.4,10.34.53,3.23,7.79,4.84,10.54,6.04,4.08,1.78,10.2,4.56,11.72,8.91l-2.57-2.96c-4.56-4.35-12.2-5.5-17.12-8.31-5.65-3.22-2.72-7.85-1.92-12.92.39-2.47.44-5.03.79-7.5l10.31,1.47-7.55-1.47-1.29-.73c4.43.35,8.74,1.5,13.13,2.15,3.22.48,7.54.4,10.54,1.25.23.07.95.47.46.65-2.51-.28-5.25-.93-7.74-1.11-.44-.03-2.02-.31-2.02.36,10.78,1.74,21.74,2.62,32.5,4.53,1.73.31,11.35,2.06,12.09,2.66.25.2.4.37.35.7-1.51,3.93-1.93,15.17-5.33,17.53-2.31,1.61-6.85.84-9.58,1.11-8.94.87-15.42,2.01-17.92,11.56-.46,1.76-.73,3.6-1.06,5.39,3.2.53,6.24-1.36,9.35-1.07,2.11.2,6.28,2.02,7.6,3.65-2.62-1.11-5.39-3.19-8.35-3.29-2.68-.09-6.1,1.76-8.97,1.45l3.87.73c2.97.18,12.34-.23,12.92,3.67.1.64-1.35,1.79-1.69,1.48l.96-1.49c-.95-1.93-3.18-2.72-5.2-2.92-3.62-.37-7.57-.24-11.23-.74-.18,1.08.25.6.86.78,1.99.6,4,.98,5.91,1.85,2.65,1.21,4.52,3.76,7.61,3.27-.13.63-.73.76-1.28.76-2.39.02-5.71-3.96-8.3-4.08l6.87,5.47c1.97,2.25,6.93-4.03,6.39-4.74l-.73.38.37-2.58c2.06,2.56.03,4.76-2.02,6.64-1.69,1.55-2.63,1.93-4.74.67-3.68-2.18-5.62-4.96-10.3-7.02-.3-.13-.77-.64-1-.11l.74,1.47c.09.46-1.08-.69-.73.36,1.3,3.97,5.63,5.3,8.66,7.56.28.06.24-.35.18-.54-.7-2.25-6.03-3.98-7.36-6.27l.55-.18c1.63,2.17,5.11,3.06,6.61,5.18.6.85,2.02,3.8,2.49,4.88,1.92,4.45,2.07,9.89,8.77,9.1.21.88-.16.6-.48.82-2.42,1.67-3.44,2.02-5.78-.27.98-.34,1.83,1.12,2.82,1.21.61.05,1.2-.4,1.59-.84-1.77-.75-3.76-1.47-4.94-3.16-1.43-2.05-1.5-5.32-2.6-7.35-.27-.5-.66-.6-.55.18.28,2.13.83,3.73,1.31,5.7.09.37.48,1.21-.2,1.12-1.35-2.25-.78-6.07-1.67-8.09-.61-1.38-5.62-3.47-7.18-4.98l-2.2-2.77-2.21,12.71c.28,4.89-1.42,10.23.36,14.92l-5.9-.37c-.01-.63-.21-.8.52-.71,1.42.18,2.76.58,4.27.34-.73-2.32-.1-4.3,0-6.45.14-3.17.04-6.82.38-9.94.38-3.44,1.96-7.6,2.18-10.74.08-1.1-.17-3.66-1.47-2.47-2.28,2.07-2.44,9.12-3.1,12.3-.76,3.65-1.68,7.83-2.59,11.41-.22.88-1.78,6.21-2.02,6.46-.23.23-.68.36-.75-.01.84-1.96,1.53-4.38,2.03-6.45.64-2.7,1.26-5.41,1.85-8.1.82-3.79,1.62-7.57,2.02-11.43-1.11,2.13-8.05,3.65-8.76,4.86-.3.51.03,2.19-.1,3.04-.43,2.88-4.98,7.02-6.49,9.36-.51.8-.4,2.26-1.62,1.36-.51-.38-.46-1.91-.27-2.54.14-.47.59-.5.66-.61-.2.26-.61,2.91.36,2.95.08-2.91,3.96-3.86,4.42-6.63-1.31,1.09-2.64,2.14-3.87,3.33-.29.28-.89.32-.92.36,1.23-1.76,4.64-3.74,5.18-4.68.43-.74.67-3.47,1.07-4.73,2.42-7.68,7.33-5.34,11.62-10.86.58.33-.13.83-.33,1.14-2.23,3.47-8.22,3.71-9.66,6.92-.11.25-.37.69.04.77,4.37-2.48,9.09-3.36,10.87-8.84-1.7-.54-3.09.43-4.98.39-2.07-.05-3.97-1-6.23-.73-2.42.29-4.75,2.28-7.21,2.54l7.27-3.23c3.23-.45,7.68,2.19,10.41-.45-3.52,1.32-7.5-.48-10.85-.38-3.16.09-6.77,2.96-9.77,1.27-.46-.26-.55-.74-.75-.89.18.17,2.42,1.06,2.79,1.08,1.86.09,4.58-1.59,6.6-1.82,4.21-.47,8.17,1.7,12.13.04,2.02-1.49-4.11-1.91-4.58-2.05-1.08-.32-2.35-1.48-3.57-1.59s-3.08.6-4.34.65c-2.11.09-8.66-.64-9.59,1.49-.24.55.33,1.97.57,2.2-.46-.38-.96-.79-1.47-1.11-.44,2.57.57,3.23,2.21,4.79-1.5-.24-2.52-1.5-2.79-2.93-.29-1.54.67-5.49,2.07-6.45,3.07-2.11,5.66-.71,8.65-.57,3.66.16,7.91-1.02,10.49,1.85-3.75-1.72-5.9-.86-9.76-1.11-3.54-.23-9-2.58-10.5,2.59,3.21-2.23,7.8-1.39,11.62-1.46.89-.02,1.71-.42,2.57-.42,2.23,0,4.54,2.62,7.18,1.87-.32-.48-.72-1.05-1.11-1.47.66.3,1.19.34,1.66,1.1l.5-.59c-.31-3.18,1.35-6.57-.31-9.55l.72-.16v-.72s.55-.02.55-.02c1.01,2.08,3.88.71,5.71.92-1.79,1.49-4.47,1.05-6.26-.18ZM161.32,81.86l-2.03-1.1c-.8.59-.61,1.67-.51,2.53l1.46.22,1.09-1.65Z"/>
  <path class="cls-1" d="M106.79,88.49c2.64-1.82,2.38-1.85,4.41-3.88,2.42-2.42,6.79-2.93,7.35-7.02.17-1.24.24-5.89-.69-6.62l-1.12.21v5.34c0,.47-1.21,2.63-1.65,3.14l-6.45,5.52c1.1-2.89,4.56-3.72,6.2-6.14,1.51-2.23,1.98-5.27,1.16-7.86l-.37,2.21-.36-1.84c-1.77-.16-3.4.75-5.07,1.02-.39.06-1.28.39-1.19-.27l5.89-1.48-1.47-4.79c1.2.94,1.31,3.05,1.84,4.42l.36-1.47c1.2-.3.5,1.07,1.29,1.47.94.47,1.07-.43.92-1.1l1.1.73-1.84-6.63c1.08-.18.6.26.78.86.5,1.63.7,3.36,1.34,4.96.22.56-.21,1,.83.81l-2.01-8.41-57.67,16.89c-.23.51.41,2.06,1.1,2.21v-1.47c.59-.12.37.69.73.94.57.39,1.69,0,2.31-.23,6.36-2.4,14.62-1.8,21.78-2.6,5.6-.62,10.92-2.53,16.44-3.27l-15.33,3.64c-4.43.63-9.22.34-13.58.79-1.41.14-7.05.99-7.93,1.66-.47.35-.3.48-.22.93.66,3.57,2.73,8.08,4.28,11.41-.97.14-1.21-.94-1.54-1.59-1.59-3.1-2.3-6.91-3.44-10.2-.15-.46-1.24-.04-1.29,0-.47.46,3.58,11.67,4.4,12.37.63.54,1.57.47,1.87,1.26-3.62.34-4.48-5.3-5.34-8.1-.55-1.79-1.13-3.64-1.29-5.52l-1.06.54c.72,2.57,2.04,5.61,2.45,8.21.06.39.39,1.28-.27,1.19-.78-2.7-1.26-5.66-2.22-8.3-.23-.64-.14-1.51-1.1-1.27,1.74,2.88,2.47,11.97,5.02,13.58,3.09,1.96,5.41.52,8.41.4,3.9-.16,12.23-.28,15.56,1.41.26.13,1.4.77,1.03,1.18-5.15-2.51-11.64-1.92-17.33-1.86-2.59.03-5.93,1.16-8.41-.77-1.88-1.45-2.68-7.19-3.37-9.53s-1.75-4.73-2.38-7.17l9.93-3.14-8.35,2.15-.49-.68c7.51-1.11,15.15-5.07,22.39-6.55.29-.06,1.22-.27.64.28l-6.07,1.85,1.49.2c13.22-3.88,26.15-8.9,39.77-11.26.23,3.56,1.72,6.86,2.41,10.31.47,2.34,1.44,6.68.28,8.75-.71,1.28-9.3,5.35-11.36,6.73-7.5,4.99-9.61,8.63-7.73,17.7,2.05,9.89,5.66,22.9,10.07,31.93.62,1.26,1.11,2.36,2.27,3.26-.91.51-2.21-1.67-2.64-2.51-1.53-3-3.6-8.57-4.73-11.85-1.67-4.86-6.84-23.37-6.45-27.66s3.11-6.62,5.72-9.38c-.12.08-.56.1-.92.35-1.27.85-2.41,2.91-3.86,3.7-.16-.69.38-.88.73-1.29,1.7-2.02,4.16-4.01,6.45-5.35l-2.39,2.58ZM111.21,85.54l9.74-5.54c1.47-2.28-.31-6.98-.54-9.56-1.68.88.52,2.92,0,4.42l-1.83-4.05c.71,2.66,1.28,6.43-.05,8.98s-5.72,3.48-7.32,5.75Z"/>
  <path class="cls-1" d="M138.48,52.38c-1.75-.63-.15-5.34-.37-5.52h-1.47c.35,1.73-.72,3.57-.21,5.17.28.89,1.36,1.22,1.31,2.19-3.3-1.82-1.74-4.37-1.84-7.37-1.5-.23-.66,1.56-1.47,1.84l1.84-11.79c.63-.09.39.87.36,1.28-.16,2.21-.97,4.67-1.22,6.89-.07.64-.51.87.31,1.4l1.84-7.37-.92,7.37h1.46s1.3-8.1,1.3-8.1c.68.43.3.77.26,1.32-.17,2.28-.92,4.47-.81,6.78,7.37-1.09,14.64,1.49,21.93,2.2,2.39.24,5.71.39,8.12.39.97,0,10.15-1.09,10.12.17-.28.37-1.21.22-1.66.18-4.5-.37-9.05.25-13.63,0-8.46-.46-16.69-3.34-25.24-2.58v5.53Z"/>
  <path class="cls-1" d="M100.52,96.23c-.71,2.11-3.63,2.49-5.52,2.76,1,.8,1.49,1.64,2.02,2.77,4.65,10.03,8.12,24.85,10.34,35.72.42,2.05.55,4.21.9,6.28-.71-.13-.61-.77-.75-1.27-.63-2.18-.7-4.71-1.19-6.92-2.39-10.92-5.35-22.39-9.57-32.8-.77-1.89-2.19-3.07-2.12-5.06.81.45,1.41.42,2.3.29,1.57-.24,2.25-1.33,3.59-1.76Z"/>
  <path class="cls-1" d="M176.43,125.34c.6.45,0,.67-.54.74-1.47.19-3.28-.1-4.81-.02-9.43.51-17.19-1.05-26.33-3.11-2.96-.67-7.15-1.42-9.88-2.3-.62-.2-.97.16-.8-.84,8.86,1.52,17.42,4.48,26.39,5.48,5.46.61,10.52.37,15.98.05Z"/>
  <path class="cls-1" d="M133.2,142.54c-.97,1.12-3.36,1.81-4.3,3.06,2.23-.71,4.11-2.21,6.23-3.16.62-.28,1.18-.32.39.4-12.27,7.82-26.53,10.05-40.52,13.08-.18-1.02.21-.62.81-.83,4.76-1.68,10.75-2.2,15.78-3.4,5.67-1.36,11.18-3.16,16.57-5.35.08-.69-.75-.31-1.11-.19-2.09.68-4.4,2.24-6.62,2.22,3.15-2,6.92-2.61,10.06-4.68,1.11-.73,2.54-1.33,2.47-2.88l.68.86c-.09.32-.21.62-.43.87Z"/>
  <path class="cls-1" d="M100.89,45.75c.39,2.22,1.54,4.37,4.06,3.32.24,1.24-1.64.91-2.23,1.73-.22.31-.64,1.74-.69,2.18-.09.76.51,2.47-.2,2.72-.95-1.99-.77-5.6-3.87-5.16-.72-.61,2.34-1.44,2.48-2.81.07-.72-.96-2.25.47-1.98ZM102.74,49.81l-1.98-1.09-1.34,1.44c1.34.03,1.28,1.74,2.21,2.22l1.11-2.57Z"/>
  <path class="cls-1" d="M161.45,117.1c3.56,2.98,13.91,2.93,15.27,5.55.35.68.47,1.56.44,2.32-1.09-.6-.71-2-1.86-2.74-2.51-1.63-8.82-1.75-12.14-3.34-1.95-.93-2.63-2.19-4.05-3.69.97-.64,1.76,1.42,2.34,1.9Z"/>
  <path class="cls-1" d="M135.89,141.92c-1.62-1.35-1.58-1.88-3.87-1.86-5.74.05-9.39,3.9-15.58.85-.49-.24-1.02.24-.81-.83,1.98.67,3.11,1.55,5.35,1.5,4.4-.11,13.21-5.14,14.91.34Z"/>
  <path class="cls-1" d="M107.16,142.29c-1.16,3.32-5.51,5.39-8.59,6.7-2.37,1.01-4.23.12-5.16,3.31-.28.97.14,2.81-.99,2.51-.2-5.91,2.71-5.13,6.62-6.82,1.73-.75,4.8-2.2,6.08-3.5.76-.77.95-2.21,2.03-2.2Z"/>
  <path class="cls-1" d="M188.59,28.43c-1.72-.27-3.27.42-4.22,1.86-.55.84-.54,2.09-1.3,2.56-.1-1.62,1.03-4.37.03-5.75-.4-.55-1.45-.22-1.13-1.25,2.93.3,3.04-1.15,4.42-2.95.1,1.59-1.01,3.2.55,4.43.54.42,1.47.32,1.67,1.09ZM186.38,28.06l-1.09-2.04-1.82.75.7,2.77,2.21-1.48Z"/>
  <path class="cls-1" d="M150.64,113.18c-.16.55-.75.9-1.21,1.18-1.71,1.03-6.11,1.45-8.19,1.42-2.53-.04-4.17-1.76-6.45.15-.87.72-1.2,1.88-2.2,2.41.2-1.71,1.9-3.68,3.59-3.99,1.34-.25,2.95.55,4.33.66,3.5.28,7.01-.32,10.13-1.83Z"/>
  <path class="cls-1" d="M88.74,94.02c.03.66.19.78-.55.74-1.4-.08-2.96-.66-4.41-.75-3.4-.2-7.12.8-10.3.35-.59-.08-3.92-1.41-3.16-2.18,3.38,2.83,8.42,1.01,12.34,1.08,1.91.03,4.1.93,6.08.76Z"/>
  <path class="cls-1" d="M176.8,62.7c-1.38-1.44,6.45-2.68,6.92-2.84,1.93-.68,3.46-2.25,4.44-4.04s.99-3.95,2.27-5.28c-.52,3.99-2.47,8.47-6.53,9.87-2.36.81-5.21.48-7.1,2.29Z"/>
  <path class="cls-1" d="M154.69,61.6c.09.4.1.97-.54.73-1.03-.4-3.25-2.44-4.6-3.14-3.6-1.88-9.69-2.38-10.7-6.8,1,.57,1.15,1.8,2.08,2.53,1.78,1.39,6.54,2.47,8.85,3.67,1.69.88,3.07,2.39,4.91,3.02Z"/>
  <path class="cls-1" d="M107.89,51.65c.38,1.54,1.32,2.71,2.95,1.84.19,1.05-1.05,1.15-1.48,1.74-.85,1.15-1,2.78-.73,4.15-.99.17-.64-.17-.84-.8-.26-.84-.42-2.8-.97-3.38-.46-.49-1.45-.08-1.87-.79.9-.83,1.96-.09,2.6.72.38.48.08,1.35.71,1.31l1.11-2.2c-1-.19-2.31-1.34-2.21-2.4l.73-.18Z"/>
  <path class="cls-1" d="M160.22,124.23c3.51-.08,6.99.64,10.51.38,1.03-.08,3.89-.25,3.86-1.48l.72.55c.02,1.01-4.43,1.61-5.32,1.67-2.42.16-6.04-.11-8.5-.37-.55-.06-1.14-.08-1.27-.75Z"/>
  <path class="cls-1" d="M191.9,35.43l-2.35.42-2.44,2.9c-.17-1.31.74-2.6.71-3.85-.03-1.03-1.51-1.63-1.08-2.04.77-.74,2.14,2.29,2.02,2.94l1.65-1.29c-.83-.74-1.84-2.42-.37-3.13-.02.72-.04,1.45.27,2.13.41.88,1.7.88,1.57,1.93Z"/>
  <path class="cls-1" d="M107.89,133.44c-.53.09-.5-.64-.62-1.03-1.77-5.56-2.68-11.47-4.53-17.03l2.39,6.26,2.76,11.79Z"/>
  <path class="cls-1" d="M158.74,87.02l-1.22,8.54-1.72,6.93c.8-4.84,1.51-9.68,2.22-14.55.1-.68-.37-1.09.72-.92Z"/>
  <path class="cls-1" d="M148.05,122.02c.09.66-.8.33-1.19.27-2.07-.32-10.71-2.97-11.72-4.49-.52-.78-.53-1.33.39-1.68-.14,1.5.32,1.79,1.48,2.39,3.25,1.69,7.52,2.54,11.05,3.51Z"/>
  <path class="cls-1" d="M108.63,151.5c-.32.61-1.9.78-2.57.92-2.74.59-8.24,1.41-10.87.92-1.09-.21-.98-.85-.92-1.84.64.01.45.97,1.09,1.3,2.07,1.04,10.57-1.2,13.27-1.29Z"/>
  <path class="cls-1" d="M158,116.86c-.32-.96-2.01-.64-2.76-.74-.69-.09-1.09.37-.92-.73,1.69.87,4.45-.69,4.42,1.84-2.86.66-6.52.18-8.47-2.21,1.45.52,2.77,1.49,4.33,1.75,1.13.19,2.28.07,3.41.08Z"/>
  <path class="cls-1" d="M176.8,63.07c-.13.72-.78.6-1.27.75-1.31.39-2.8.59-4.17.99s-2.77,1.01-4.14,1.57c2.24-2.26,6.49-2.68,9.58-3.31Z"/>
  <path class="cls-1" d="M116,142.65c-2.65,1.48-5.39,2.65-8.47,1.84l4.07-.53,3.67-1.87.73.55Z"/>
  <path class="cls-1" d="M91.68,94.02l-.18.73c-1.96-1.37-4.23-1.22-6.34-1.79-.64-.17-1.02.26-.85-.79l7.36,1.85Z"/>
  <path class="cls-1" d="M100.16,92.92c-1.42,1.61-4.21,1.96-6.26,1.83.54-1.09,2.42-.57,3.42-.81s1.73-1.19,2.84-1.02Z"/>
  <path class="cls-1" d="M165.37,65.28c.61.47-.04.67-.55.74-1.44.19-3.31-.33-4.61-.94-.55-.26-.91.06-.73-.91,1.93,1.02,3.71,1.31,5.89,1.11Z"/>
  <path class="cls-1" d="M157.26,63.44l-5.15-4.42c1.75.28,3.33,1.82,4.42,3.13.35.41.89.6.73,1.29Z"/>
</svg>