<svg width="108" height="68" viewBox="0 0 108 68" fill="none" xmlns="http://www.w3.org/2000/svg">
<path d="M40.3605 0.92717C41.3112 1.21579 42.2387 1.56816 43.1394 1.99102C48.0267 4.2731 51.9966 8.47816 54.0149 13.5054C55.4861 8.01167 60.0465 3.65224 65.3541 1.67891C70.6584 -0.29441 76.5966 -0.0796257 82.0444 1.45406C82.0677 1.94068 82.0911 2.4273 82.1144 2.91392C77.3772 2.7931 73.3573 6.83037 71.7894 11.3274C70.2214 15.8244 70.5283 20.7275 70.6551 25.493C70.7819 30.2586 70.6551 35.2523 68.3732 39.4305C66.1081 43.5684 62.0348 46.3304 58.8555 49.8072C55.6763 53.284 53.321 58.4556 55.4661 62.6573C57.5711 57.62 62.5986 54.6029 66.6185 50.9281C73.4307 44.6994 77.7442 35.7825 78.4147 26.5468C85.6273 26.9495 92.7864 21.9021 94.8781 14.9485C95.6321 19.4757 96.1158 24.1003 95.5353 28.6544C94.9582 33.2085 93.2401 37.7223 90.0776 41.0313C84.443 46.9211 75.4724 47.9883 68.7002 52.5088C76.8601 52.5189 85.0201 52.5289 93.1801 52.539C95.9557 52.5424 98.9081 52.4954 101.233 50.9717C104.232 49.0085 105.333 45.1961 106.211 41.7059C107.875 45.5317 108.399 49.8508 107.695 53.9687C107.105 57.422 105.63 60.7679 103.228 63.305C98.5878 68.2048 90.5079 69.3458 84.7032 65.9261C81.7441 64.1809 79.4756 61.4894 76.9002 59.2074C74.3247 56.9286 71.1288 54.9587 67.706 55.1969C64.6836 55.4084 61.988 57.3481 60.1499 59.7712C58.3117 62.1942 57.1942 65.0804 56.0999 67.9262C54.6287 67.9262 53.1542 67.9195 51.683 67.9162C50.6555 64.6172 49.251 61.3418 46.8658 58.855C44.4771 56.3682 40.9476 54.7842 37.5749 55.4587C32.5908 56.4554 29.7485 61.6337 25.7119 64.738C21.8221 67.7282 16.5144 68.7552 11.7972 67.4329C7.08007 66.1106 3.0668 62.4694 1.27201 57.8851C0.221154 55.2003 -0.0724169 52.2907 0.0143203 49.4246C0.0576889 47.9715 0.197803 46.5217 0.397966 45.0853C0.501384 44.3269 0.574776 44.0047 0.978438 43.4174C1.27868 42.9811 2.27616 42.4677 2.39959 41.9643C1.80244 44.3906 2.82661 47.0217 4.57803 48.8004C6.32946 50.5791 8.70472 51.5993 11.11 52.2235C20.1374 54.5627 29.6618 51.7671 38.9693 52.3041C32.057 47.8641 23.0364 46.6895 17.4485 40.6487C14.4027 37.3565 12.7614 32.9299 12.2276 28.4631C11.6938 23.9963 12.2042 19.469 13.0149 15.0458C15.2701 21.8686 22.2924 26.7817 29.4349 26.5267C30.2589 36.2926 35.0061 45.676 42.3888 52.0692C46.1752 55.348 50.8323 58.1536 52.5704 62.862C53.4544 58.516 52.3502 53.8042 49.6313 50.314C46.9325 46.8472 42.8358 44.6423 40.3405 41.0279C37.5315 36.9605 37.1445 31.7117 37.2246 26.7616C37.3046 21.8115 37.735 16.7339 36.2538 12.012C34.7726 7.29013 30.7426 2.9307 25.8186 2.94077C25.465 2.0917 26.5025 1.35003 27.3699 1.06477C31.5466 -0.317902 36.1437 -0.344753 40.3505 0.930524L40.3605 0.92717Z" fill="#563E29" fill-opacity="0.7"/>
</svg>
