<svg width="112" height="109" viewBox="0 0 112 109" fill="none" xmlns="http://www.w3.org/2000/svg">
<path d="M39.4379 43.1796L35.7629 41.8286C35.1935 41.1404 37.1302 40.852 37.5899 40.8613C39.3072 40.8939 41.9415 42.1983 43.3485 43.1749C44.5362 44.0004 45.7822 44.8677 47.0375 45.7188C48.4305 46.6651 49.9635 47.7789 50.9412 49.1508C51.1419 49.1252 51.0275 48.8532 50.9949 48.7113C50.5025 46.5814 49.1189 44.1678 47.9102 42.3448C47.3082 41.4357 45.1499 38.4152 44.3145 38.0292C43.2949 37.5595 43.1969 38.1687 42.3895 38.3175C41.7199 38.4408 41.0362 38.2989 40.3525 38.4082C39.0249 38.6175 37.5899 39.3941 36.0499 39.515C33.5579 39.7103 31.4812 38.471 28.9962 39.1314C28.8959 37.5177 29.5725 37.3014 30.9375 36.9201L31.0122 35.6621C31.4975 34.8808 36.3695 34.9855 37.3869 35.1064C38.8709 35.2831 39.9932 36.5759 41.5659 36.6248C42.0372 36.2527 38.6632 34.6669 38.3295 34.553C36.9342 34.0786 34.3862 33.981 33.3922 33.4996C32.8182 33.2206 31.8662 31.879 31.9782 31.2209C32.1065 30.4745 33.0655 29.863 33.2102 29.3607C33.6559 27.8168 32.3842 23.8104 35.6555 24.308C36.6332 24.4568 37.2399 25.3195 38.0845 25.645C38.3482 25.373 36.3579 23.4314 38.0145 22.5896C39.8135 21.6735 40.4925 23.336 40.6955 23.3314C41.6452 21.4968 42.9285 21.1736 43.9622 23.1617C44.8372 24.8428 44.0625 25.5055 43.9085 27.1169C43.8479 27.761 44.1979 34.3112 44.5619 34.3205C45.8779 31.8115 44.5969 28.9957 44.5385 26.4821C44.5315 26.1542 44.7859 23.4407 44.8815 23.2826C45.6049 22.0758 46.8345 24.7265 47.2709 25.2637L47.8915 24.7242L48.6755 24.9265C49.0139 25.266 48.9462 26.7611 48.9229 27.2959C48.8039 29.9978 48.6265 32.6463 47.1402 34.9599C46.6525 35.7179 45.4509 36.5759 45.6282 37.4618L49.3825 42.2379C53.2255 46.9209 52.6235 53.9129 55.3839 58.9935C55.5005 59.2074 55.6032 59.5167 55.8739 59.5632C55.8855 58.9796 55.7129 58.3029 55.7012 57.7542C55.6405 55.2592 56.0185 52.8549 55.6265 50.2762C55.1249 46.979 53.7622 45.2281 52.5559 42.3541C51.5899 40.0522 50.9739 36.8922 50.6752 34.4018C50.6192 33.9298 50.6635 33.4485 50.6565 32.9765L51.3285 33.1718C51.8185 35.3877 53.2115 37.1944 54.1775 39.1965L55.1015 42.8029C55.1389 40.5986 55.0712 38.3571 54.6932 36.1783C54.3175 34.0112 53.3865 31.8139 53.1742 29.6026C53.1065 28.9027 53.0249 26.7402 53.1999 26.1682C53.3469 25.6915 53.8392 25.7241 54.1005 26.1728C54.4085 26.7053 55.2369 30.6722 55.4305 31.593C56.4852 36.6434 56.6532 41.0497 56.0605 46.1861L56.4549 48.1998C56.8609 44.677 57.5609 41.2613 57.4279 37.6897C57.3322 35.111 56.7419 32.5021 56.5739 29.9188C56.3709 26.8123 56.5505 23.6476 57.4232 20.6458C53.4659 21.1852 48.4609 20.1412 46.9955 15.9441L48.3279 15.1303C47.8939 13.777 46.9069 11.9191 47.7772 10.5496C48.6545 9.17305 49.6952 11.2286 49.9239 11.3541C50.1222 11.4657 50.8549 11.396 51.2515 11.4797C53.7249 12.0005 53.4799 15.7442 55.4912 16.9835C55.0455 15.6698 54.6325 14.349 54.3899 12.9771C54.2195 12.0191 53.9349 10.2915 53.9302 9.37302C53.9302 8.99168 54.1332 7.04546 54.2242 6.75945C54.6022 5.59684 55.5379 6.27813 56.1609 6.2014C56.7092 6.13397 56.9285 5.27363 57.8269 5.53638C58.8629 5.83866 60.6035 6.69202 61.0515 7.68955C62.2649 10.3984 60.2279 13.212 59.5559 15.8279C60.3352 15.1303 61.2009 14.4165 61.8682 13.6073C62.7875 12.4912 63.7442 9.84969 65.2585 9.84504C65.8792 9.84504 66.2922 10.3915 66.8149 10.4263C67.4729 10.4705 68.8542 9.65902 69.3209 10.4333C69.9999 11.5634 68.3479 12.8399 68.4505 12.9376C71.4629 13.9654 67.9979 15.3024 67.0879 16.1092C66.6165 16.5278 66.2525 17.3718 65.6459 17.7555L64.0032 18.7181C66.6445 18.4763 68.1822 15.228 71.1409 16.9045C72.1279 17.4625 72.1115 17.9252 71.3322 18.6065C70.4969 19.3366 66.4789 21.3945 65.4055 21.5642C63.1072 21.9293 60.6502 20.7248 58.4872 20.083C58.0695 20.1226 57.4675 24.7358 57.4279 25.3706C57.0895 30.7396 58.9609 36.4318 58.5945 41.7542C58.4662 43.6214 57.7172 45.6536 57.4512 47.551C57.0289 50.5343 56.6019 55.9451 56.8375 58.9052C56.8632 59.2423 56.7979 59.5353 57.1409 59.7608C57.5329 59.8701 57.5376 58.8889 57.5656 58.6471C58.3986 51.5109 60.0459 45.8955 63.3172 39.522C63.7839 38.6128 64.4535 37.806 64.9762 36.9294C64.4489 36.0644 63.6252 35.4575 63.0699 34.5832C62.3465 33.4462 61.0095 30.1978 61.6722 29.0189C62.4235 27.6866 63.2752 28.7631 63.9052 28.7608C64.4512 28.7608 64.8035 28.1121 65.6132 28.3841C66.1499 28.5632 66.4205 30.3187 66.5162 30.8582C66.8429 30.8396 66.7332 30.3187 66.9245 30.0164C68.4692 27.575 71.3065 30.1095 70.7255 32.6509C70.4502 33.8624 68.7679 34.7529 68.0609 35.6761C69.0012 35.5505 70.2355 34.1972 71.2249 34.539C71.8922 34.7692 71.4955 35.9853 71.5492 36.3411C71.6029 36.6968 71.9692 36.9038 71.9389 37.3037C71.8105 39.0081 66.6002 37.6711 65.5525 37.413C63.9962 40.4823 62.7945 43.6888 61.6745 46.9442C60.5802 50.1158 59.4229 53.3362 58.9749 56.6776L64.0942 48.3904C67.3259 44.9096 71.7125 42.8401 75.5999 40.1917C74.7645 38.7198 73.9572 37.1107 73.9712 35.3854C73.9875 33.3462 75.1285 31.193 75.3595 29.1701C75.4505 28.3748 75.2032 26.4356 75.6862 26.0194C76.5169 25.3032 76.8879 27.1262 77.2869 27.3959C77.8492 27.7772 78.7079 27.668 79.2819 27.861C80.3132 28.2074 80.8872 30.428 80.8219 31.4325C81.6292 31.1186 81.9815 30.5768 82.9032 30.3304C86.3075 29.4165 85.6285 31.9813 84.6905 34.1321C85.4069 33.8368 87.1196 33.3787 87.3646 34.46C87.3926 34.5902 87.2339 36.8643 87.1919 37.1061C87.1265 37.4851 86.7579 37.8897 86.6412 38.278C86.6645 38.4849 87.2945 38.5919 87.4975 38.75C88.3049 39.3848 89.5532 43.3284 89.5392 44.4399C89.5345 44.7933 89.3922 46.0117 89.1519 46.1861C88.2419 46.8418 87.6399 44.8096 86.8419 44.6305C86.4289 44.5375 85.6029 44.9677 85.1082 45.0049C83.1972 45.1421 81.4379 44.3259 79.7275 43.6051C79.3215 43.433 78.1829 42.689 77.9939 42.6611C77.6089 42.6006 77.2309 42.9261 76.5612 42.7169C75.9335 42.5216 75.6209 41.5752 74.9722 41.6705C70.8982 44.2167 67.2395 46.4303 64.3089 50.3343C64.1105 50.5994 62.7105 52.6782 62.8435 52.8223C63.4852 52.4294 64.1619 52.0132 64.7592 51.5551C67.3819 49.5438 70.9122 45.6513 73.7309 44.5027C74.1765 44.3213 75.6162 43.5865 75.6092 44.4445L75.5135 44.7375C74.4425 45.1793 73.9432 45.8931 73.3785 46.8511L71.9272 47.8115C73.9269 47.4627 75.9429 46.8558 77.9962 47.0627C79.0719 47.1697 80.3972 47.6557 81.5195 47.7905C85.4722 48.2672 87.2432 48.1323 91.0069 50.0902C92.6495 50.9459 94.9199 52.9479 91.4549 52.8247C91.7606 53.4781 92.5352 53.5664 92.8245 54.2524C93.0112 54.6942 93.4709 57.1589 93.1955 57.4496C91.9705 57.6356 91.9239 56.6939 91.2659 55.9986C89.9872 54.6453 88.2232 53.4176 87.1032 52.055C86.1885 50.9436 86.0695 49.9949 84.7302 49.2182C83.4515 48.4788 82.0725 48.5044 80.6282 48.3951C81.4169 49.4973 83.2345 50.0739 83.1412 51.6667C82.2545 51.8085 81.9419 51.011 81.2185 50.5971C80.2455 50.039 78.8875 49.8274 77.8795 49.2996C75.9872 48.3114 76.3535 47.3534 73.6725 48.1068C69.7502 49.2089 65.7532 51.2435 62.6615 53.8989C60.9699 55.3522 60.3679 58.2773 58.9725 60.0492C60.6549 59.9887 62.0689 58.2611 63.4689 57.4007C65.2632 56.2962 72.6155 54.3337 74.7295 54.3477C78.0872 54.3709 83.5029 57.4426 82.9009 61.3513C82.7842 62.107 81.2255 66.1599 80.8359 66.997C79.5572 69.7384 74.8205 71.0173 72.0275 70.7383C67.9605 70.3314 64.8689 66.1645 61.2732 64.4997C60.9605 64.3555 59.3622 63.5719 59.5559 64.3788C60.5732 64.8019 61.5369 65.3856 62.3629 66.1111C63.8725 67.4388 64.5165 69.2199 65.8349 70.7429C71.0709 76.7909 76.8249 73.8029 83.2182 76.7351C83.8155 77.0094 88.5102 79.7834 88.6922 80.0462C88.9185 80.3717 88.9045 81.1181 89.1635 81.6018C89.5952 82.4063 90.8949 83.5991 91.2635 84.5199C91.3779 84.8059 91.2122 84.8245 90.9719 84.8129C89.9055 84.7618 88.7015 83.1294 87.8779 82.4993C85.7849 80.8995 79.5922 78.1302 77.0045 77.7279C73.5582 77.1931 71.3299 77.4954 68.0842 75.6352C65.0765 73.9099 64.7919 71.873 62.7479 69.585C61.7025 68.4154 60.3165 67.5643 59.1709 66.504C60.2302 69.9407 61.2219 73.4448 62.7479 76.7141C64.2739 79.9834 66.3039 82.5574 67.6315 85.7198C68.6395 88.1194 69.2952 90.6818 70.2915 93.0884C70.5319 93.6674 71.1409 94.4022 71.2739 94.823C71.3975 95.2067 70.8515 97.3227 70.2869 97.5157C69.4165 97.5157 67.6829 90.8167 67.2932 89.7168C64.5819 82.0831 59.6399 75.2911 57.9109 67.2713C57.7732 69.5454 58.6972 71.7683 59.1195 73.968C60.2535 79.8788 61.4342 86.7824 60.6922 92.7815C60.6339 93.2582 59.5582 97.1553 58.7812 96.367C58.5129 93.8116 59.0659 91.2864 59.1755 88.7658C59.4275 82.9458 57.4325 77.9604 57.2109 72.2101L56.6579 69.585C56.5062 71.015 56.3265 72.4775 56.2659 73.9099C56.1399 76.8234 56.4152 80.3275 56.0745 83.1667C55.8902 84.7106 54.9755 86.3383 54.7725 87.8427C54.1589 92.3885 55.1622 95.2672 55.6709 99.5665C55.7269 100.034 55.8995 102.227 55.7689 102.54C55.6755 102.766 54.2802 104.073 54.0469 104.082L53.6362 103.794C53.3305 102.35 53.8182 100.759 53.7645 99.3642C53.6245 95.6555 52.2759 90.6493 52.8359 87.0684C53.0459 85.7198 54.0515 84.034 54.3175 82.5714C54.7889 79.9764 54.5229 77.2838 54.7212 74.6935C54.8262 73.3332 55.3185 71.9381 55.2999 70.5476L53.5102 75.0237C51.6949 78.4929 49.3989 82.1435 48.4329 85.9569C47.6232 89.1541 47.7049 92.9396 46.7039 95.988C46.4612 96.7297 45.1965 97.7784 44.8815 96.8181C44.8069 96.5926 45.0519 94.9905 45.1079 94.5882C46.0645 87.8194 47.5625 83.155 50.5609 77.0931C51.8792 74.4284 52.5722 72.7217 53.6619 69.9709C54.2522 68.4828 55.2975 67.1714 55.4935 65.5367C54.2219 66.9365 52.3832 68.0224 51.1419 69.3873C49.7325 70.9382 48.9882 73.1402 47.3572 74.4796C42.9215 78.1255 38.4345 76.9606 33.4552 78.7371C31.3155 79.4998 28.1422 80.9112 26.3152 82.2203C25.1065 83.0853 24.1265 84.5804 22.6262 84.8036C22.2342 84.3967 24.2292 82.0877 24.5279 81.5948C24.8125 81.1251 24.8172 80.5159 25.1322 80.0787C25.9069 78.9975 31.2362 76.4979 32.6782 76.0398C38.5652 74.1703 43.4185 76.1607 47.9499 70.7801C49.0512 69.4733 49.7815 67.6573 50.9412 66.4924C51.9422 65.4879 53.3609 64.874 54.5275 64.0928C52.7402 63.923 50.6052 65.5902 49.1282 66.611C46.9465 68.1201 45.0612 70.2825 42.2052 70.6941C39.3655 71.1057 34.5332 69.8849 33.0259 67.2155C32.6735 66.5901 31.2385 62.6813 31.0285 61.8861C29.8222 57.3031 35.8842 54.1919 39.7319 54.364C41.5449 54.4454 48.3349 56.2939 49.8725 57.1729C50.5772 57.5751 54.2755 60.4863 54.7212 60.1422C54.2102 58.7935 53.5312 57.5007 53.0295 56.1451C52.0355 53.4525 51.5875 50.7296 49.4012 48.5834C48.9205 48.1114 45.8359 45.949 45.3272 45.8838C44.0695 45.7211 41.7502 47.0674 40.4552 47.3743C39.2372 47.6627 37.9212 47.5371 36.7382 48.0045C36.7825 47.7905 36.5609 47.6138 36.6379 47.4231C36.8829 46.8163 39.2909 45.6025 39.9745 45.3514L42.9239 44.5352C41.3792 44.5492 39.9745 44.2655 38.4789 44.8235C36.6099 45.5211 35.4642 47.7115 33.8192 48.6578C33.2405 48.9904 29.2412 50.3622 30.2515 48.7648C30.4102 48.5137 32.0015 47.9231 32.4239 47.6533C33.3152 47.0837 34.9042 45.835 35.6695 45.1072C35.8212 44.9631 36.1759 44.7236 35.8679 44.5329C33.1962 45.3328 31.2432 47.4929 28.8142 48.6788C28.3802 48.8904 26.9569 49.5414 26.5859 49.5414H22.7195C22.6612 49.5414 22.3602 49.1531 22.2412 49.0601C23.1652 48.0254 24.7495 47.9766 26.0399 47.458C28.6369 46.4093 33.3409 43.1842 36.0592 43.1842H39.4425L39.4379 43.1796ZM54.1332 62.6395L53.8532 61.4722C51.3379 60.47 48.9649 59.1749 46.3959 58.3052C43.6915 57.3891 41.4889 56.6683 38.6189 57.1054C36.6589 57.4031 33.6675 58.2587 33.4342 60.6142C33.3129 61.8442 34.1552 64.8926 34.9089 65.8971C36.0709 67.4527 37.4102 68.0829 39.3422 68.2224C45.4509 68.6642 48.1599 62.3651 54.1309 62.6372L54.1332 62.6395ZM59.7659 61.5071L59.9199 62.5558C65.6412 62.6627 68.5415 68.62 74.3445 68.234C77.0092 68.0573 78.6705 66.8807 79.5595 64.3741C79.9072 62.1117 81.2792 60.9723 79.4569 58.8866C77.8445 57.0403 73.5932 56.6334 71.3392 57.145C67.2675 58.0681 63.5575 59.8492 59.7659 61.5071Z" fill="#563E29" fill-opacity="0.8"/>
<path d="M24.9293 32.7811C25.1159 33.3253 24.9129 34.0182 25.0203 34.5041C25.2139 35.3761 26.0703 36.1318 26.4576 36.9433C27.8133 39.7708 26.5859 41.4706 24.1383 42.868C22.9553 43.5423 19.4926 45.6374 18.8346 43.5772C18.2606 41.7798 20.0876 41.438 21.0676 40.487C18.7599 39.9405 18.9606 38.4756 19.4996 36.5504C22.1596 35.8691 21.9146 40.2056 24.3553 40.2917C24.3926 39.7266 23.8023 39.6662 23.5176 39.2779C23.2656 38.936 22.8199 38.1431 22.7476 37.7455C22.6426 37.1596 23.0509 36.8294 23.0043 36.3504C22.9716 35.9993 22.6029 35.7807 22.5119 35.4854C22.0033 33.8787 23.3589 32.6161 24.9316 32.7835L24.9293 32.7811Z" fill="#563E29" fill-opacity="0.8"/>
<path d="M77.5274 20.2481C78.9087 19.8505 79.891 18.3973 81.4847 18.7135C82.2757 18.8693 82.061 19.5064 82.3643 19.918C82.6723 20.3318 83.363 20.4876 83.3327 21.1015C83.314 21.4991 82.5067 22.6083 82.1753 22.8617C80.4673 24.1755 76.783 21.9386 75.3293 20.7829L73.2737 14.6653C74.1043 14.349 75.4227 14.7931 75.4064 15.8162H75.971C76.181 15.2768 77.2987 13.0306 77.6207 12.7353C78.897 11.5634 79.0183 14.2142 79.1583 14.6746C79.5923 16.1022 80.3437 16.3231 79.3917 17.9648C78.8947 18.8228 77.903 19.2925 77.5274 20.2481Z" fill="#563E29" fill-opacity="0.8"/>
<path d="M34.4213 18.3112C34.6056 17.5974 34.3933 15.2442 35.0326 14.9815C35.5506 14.7676 36.5446 14.7699 37.1583 14.5071L41.1763 16.2022C41.5683 15.7837 39.6363 14.1653 39.5173 13.7073C39.4379 13.3957 39.6526 13.0957 39.6083 12.8516C39.4893 12.1679 39.1113 11.4262 39.2419 10.7193C39.4286 9.70553 41.2229 9.12422 42.1446 9.15677C42.4783 9.36604 42.7863 11.1193 42.9543 11.6331C43.2436 12.5284 43.6846 12.7562 43.7009 13.9816C43.7243 15.7744 41.7759 18.4717 39.8999 18.6902C38.6026 18.8414 37.9983 18.2019 37.0183 18.1159C36.0966 18.0368 35.2823 18.5856 34.4189 18.3089L34.4213 18.3112Z" fill="#563E29" fill-opacity="0.8"/>
<path d="M28.1751 26.0775C29.4164 27.1471 26.6467 29.8537 25.2374 27.754C24.0474 25.9798 27.4914 25.4915 28.1751 26.0775Z" fill="#563E29" fill-opacity="0.8"/>
<path d="M87.1522 24.3336C88.8276 24.1313 89.3479 26.8634 87.8242 27.1587C86.6132 27.3936 85.2109 24.5661 87.1522 24.3336Z" fill="#563E29" fill-opacity="0.8"/>
</svg>
