<svg width="122" height="100" viewBox="0 0 122 100" fill="none" xmlns="http://www.w3.org/2000/svg">
<path d="M99.9243 26.9034C77.3211 22.1206 56.9328 10.0843 34.859 3.26659C33.8722 2.96046 32.8025 2.66873 31.8301 3.01448C30.9946 3.31341 30.3859 4.03011 29.8241 4.718C28.4879 6.3495 27.1517 7.98099 25.8156 9.60888C25.2141 10.3436 24.5875 11.1323 24.4578 12.0759C24.3245 13.0628 24.7603 14.028 25.2033 14.9211C29.0534 22.704 34.1099 29.8855 40.1425 36.1306C37.9635 33.8724 35.5289 31.9132 33.44 29.5434C31.3223 27.1447 29.3775 24.5912 27.6271 21.9153C25.8768 19.2394 24.3137 16.4338 22.9668 13.5345C22.4986 12.5225 21.3425 10.8694 21.8899 9.74214C22.4373 8.61486 24.3822 7.61724 25.3258 6.76007C27.5479 4.74321 29.536 2.47065 31.2323 0C60.4407 12.5297 90.5315 23.0102 121.206 31.3333C121.332 31.3657 121.454 31.4017 121.58 31.4342C118.036 54.8513 100.753 73.8098 93.3587 96.3121C94.1078 90.4957 96.1535 84.852 99.312 79.9071C108.078 66.1745 115.306 51.3542 119.556 35.6263C117.118 37.582 116.805 41.1727 114.986 43.7154C113.189 46.2256 110.113 47.4538 107.142 48.2965C98.0299 50.886 88.421 51.0373 78.949 51.0049C87.128 49.9028 95.3071 48.8007 103.486 47.6987C105.838 47.3817 108.28 47.0324 110.268 45.7322C114.853 42.725 115.436 35.7956 119.931 32.6551C115.382 31.1676 110.833 29.6802 106.285 28.1964C104.848 27.7282 101.401 27.242 99.9279 26.9034" fill="#563E29"/>
<path d="M90.755 99.0529C90.9927 99.8885 90.276 99.9965 89.6277 99.9389C88.7957 99.8669 85.1294 98.8945 84.1858 98.5955C82.5399 98.0733 79.9936 96.4598 78.4413 96.0529C73.3956 94.7239 67.6079 93.9388 62.663 92.0227C47.3277 86.0874 32.3345 76.1184 17.1757 69.4448C11.723 67.0461 5.8813 65.3138 0.2377 63.3978L0 62.3101L13.6786 66.8156C25.488 71.9694 36.8437 78.0236 48.4838 83.5123C55.5644 86.8545 60.747 88.7958 68.1518 90.8559C75.9995 93.0384 82.9577 96.766 90.755 99.0493V99.0529Z" fill="#563E29"/>
<path d="M55.8991 36.2963C55.9856 36.3827 56.072 36.4691 56.1584 36.5556C57.6963 38.1438 59.0577 40.0815 59.2269 42.2892C59.2485 42.5593 59.2269 42.8835 58.9928 43.0275C58.5931 43.2724 58.1825 42.7322 58.024 42.2892C57.3577 40.4632 56.6338 38.5868 55.2616 37.2111C53.8895 35.8353 51.6997 35.0826 49.953 35.9361C49.0814 36.3611 48.4151 37.139 47.9902 38.0106C47.2951 39.4368 47.2086 41.0971 47.4499 42.6638C47.6912 44.2304 48.2387 45.7323 48.7645 47.2269C49.7945 50.1586 50.7597 53.137 51.1739 56.2163C51.2135 56.5117 51.2531 56.8214 51.408 57.0735C51.5629 57.3256 51.8798 57.5129 52.1643 57.4228C52.402 57.3472 52.5461 57.1131 52.7046 56.9186C53.216 56.2884 54.0191 55.9894 54.7934 55.7373C57.455 54.8694 60.1993 54.2751 62.8393 53.3459C65.4792 52.4167 68.0579 51.1166 69.9739 49.0817C70.597 48.4226 71.166 47.6159 71.1624 46.7083C71.1624 45.9952 70.7986 45.3397 70.4313 44.7274C69.8298 43.7298 69.16 42.7466 68.2524 42.0155C67.3448 41.2844 66.1635 40.8234 65.011 41.0035C63.7433 41.2015 62.724 42.1199 61.802 43.0167C61.6976 43.1212 61.5751 43.2292 61.4275 43.2364C61.179 43.2472 61.0133 42.9483 61.0601 42.707C61.1069 42.4657 61.2978 42.2784 61.4743 42.1055C62.5367 41.0935 63.682 40.0779 65.101 39.6997C66.7073 39.2711 68.4685 39.7573 69.8046 40.7442C71.1408 41.731 72.088 43.168 72.7399 44.6986C73.0244 45.3613 73.2585 46.0852 73.1324 46.7947C73.0208 47.4214 72.6426 47.9616 72.2465 48.4586C69.3328 52.1214 65.0686 54.5668 60.5523 55.7986C57.5306 56.6233 54.2496 56.9943 51.7574 58.8923C51.6457 58.9751 51.5341 59.0651 51.3972 59.0976C51.1307 59.1588 50.8606 58.9679 50.7381 58.7266C50.6157 58.4853 50.5977 58.2044 50.5833 57.9343C50.4464 55.6761 49.9962 53.436 49.2543 51.2966C48.5124 49.1609 47.4823 47.1369 46.7656 44.994C46.2182 43.3589 45.8544 41.6265 45.9769 39.8942C46.0993 38.1619 46.9169 36.7284 48.0622 35.5435C48.8365 34.744 49.8449 34.1317 50.9506 34.0057C52.8234 33.7932 54.5485 34.9601 55.9063 36.2963H55.8991Z" fill="#563E29"/>
<path d="M23.7665 17.6547C23.4315 20.1038 21.6632 21.7245 20.5899 23.6585C14.9499 33.8112 8.90297 43.7262 4.33983 53.9402C4.14895 54.3723 3.25217 57.8406 4.45868 56.5117C4.62435 56.328 4.68558 56.0002 4.95569 55.8238C9.34956 52.9101 23.4964 50.4503 29.4425 49.4383C31.8411 49.0277 36.8905 48.0084 39.0154 48.0445C39.3791 48.0517 40.9386 48.0661 40.6901 48.8008C39.678 49.8056 37.9853 49.2978 36.7428 49.5067C34.0489 49.9641 31.3585 50.7672 28.6754 51.221C21.6992 52.4059 12.2452 52.6112 6.34588 56.6089L1.98443 60.5058C0.356537 59.0976 2.41661 58.9499 2.51385 58.5141C2.55707 58.3268 1.6891 56.4216 1.81516 55.6941C1.85838 55.4312 2.42381 55.5068 2.49945 55.2367C5.06373 45.934 11.6401 37.5028 16.4482 29.4426C18.2886 26.356 20.3198 22.1278 22.3655 18.6668C22.4663 18.4975 23.4351 17.2658 23.7665 17.6547Z" fill="#563E29"/>
<path d="M57.9811 34.5783C58.8671 34.5531 60.4049 34.6612 61.0676 35.277C61.8635 36.0117 61.3269 37.3911 62.13 37.8197C62.8828 38.0466 62.555 37.3011 62.9008 37.0958C64.5359 36.1342 65.3714 37.3227 66.5095 37.3767C67.1794 37.4091 67.7124 36.6888 68.5804 36.7428C70.7413 36.8725 71.9838 39.2315 72.2107 39.2315C72.769 39.2315 72.7257 38.1727 74.7318 39.6277C78.4558 42.3252 75.7438 43.312 75.9779 45.1596C75.9959 45.2965 77.1304 45.5234 76.8819 46.8667C76.8603 46.9892 76.0824 49.0745 76.0103 49.1717C75.3477 50.0973 73.9107 50.335 73.8386 50.4395C73.8062 50.4899 74.2204 51.131 74.1231 51.5956C73.6874 53.6484 72.913 54.0446 71.1483 54.7685C70.572 55.0062 69.4916 54.9918 69.2251 55.1827C68.9405 55.388 69.0126 56.2992 68.4111 56.7097C67.2514 57.5021 65.3642 57.5777 64.1181 56.9078C63.7507 59.4793 61.4061 59.5909 59.4253 58.7086C59.5081 60.9595 56.2884 60.4625 54.7433 59.789C55.0746 62.8071 51.1166 61.7123 49.3518 61.95C49.1213 60.5057 46.6831 59.0003 47.6123 57.0735C47.7095 56.8754 48.7756 56.9222 48.2533 56.1983C48.1885 56.1083 46.6939 55.3087 46.4526 54.8405C45.9196 53.8033 46.6399 53.1946 46.4202 52.4707C46.2725 51.9881 45.2533 51.6316 44.8139 51.1634C43.312 49.5643 44.8931 48.4082 44.6554 46.467L47.1729 47.0072C45.3973 47.1657 44.4177 50.1045 45.9412 51.1238C46.7299 51.6496 47.9508 51.2462 48.6135 52.0493L47.2197 52.6328C46.8415 54.6893 48.0553 56.0074 50.0541 56.1911C50.263 56.454 48.7143 57.2247 48.4514 57.6209C48.0228 58.2728 48.844 60.4661 49.413 60.7903C49.9245 61.0784 52.4491 61.2369 53.0686 60.8371C54.7865 59.7314 52.9642 58.7554 53.2955 58.3484C54.3687 58.4421 56.0363 59.6414 56.9294 59.609C59.681 59.5117 57.7182 58.0459 59.2272 56.9042C61.7267 59.3208 62.9188 59.0291 63.3942 55.4744C64.7339 55.0674 64.3306 56.382 65.357 56.5657C67.4495 56.9402 68.2887 55.5464 68.4219 53.6628C69.1278 53.4972 69.4087 54.3867 70.0318 54.3831C70.2659 54.3831 71.9874 53.5008 72.1891 53.2919C73.1435 52.3123 72.5421 49.9244 72.7546 49.7156C72.823 49.6507 73.8458 49.7984 74.5769 49.1969C75.3549 48.5559 75.3116 47.3529 75.9779 46.6362L74.2276 45.5126L74.5481 44.2988L75.2576 44.659L74.9587 43.6254C77.7103 42.6566 72.8878 38.4716 71.476 40.6865C70.003 38.2519 69.2071 36.6096 66.4195 38.9146L63.9812 37.8881L61.0388 39.9734C60.1456 39.3107 60.9379 38.4572 60.7867 37.3731C60.3725 34.3982 57.9991 35.9613 57.2536 35.1258C56.0903 33.8256 57.2212 30.6887 53.4792 33.4943L51.311 31.3225L48.8728 33.9769L46.4526 33.1341C45.9015 34.654 45.6602 35.6336 46.0744 37.2435L45.7359 37.6432C43.7478 37.2254 43.3877 39.4728 43.5822 41.0431C44.1296 40.9962 45.5774 41.0899 45.3685 41.9543C45.03 42.4585 43.9783 42.7142 43.7478 43.1968C43.5173 43.6794 44.5114 44.8211 43.3949 44.6554C41.9111 43.6938 43.6182 42.1055 43.5353 41.6445C43.4453 41.1367 42.336 41.0035 42.4873 39.4728C42.6566 37.7585 44.1944 36.9193 44.569 36.127C45.0552 35.1005 44.5474 33.4114 46.0204 33.0693L45.7467 32.4354C46.6759 31.7511 47.8608 32.3778 48.4622 32.3022C48.6783 32.2733 49.8668 30.2169 51.2678 30.2565C52.6688 30.2961 54.0014 31.9744 54.1887 31.9744C54.3579 31.9744 54.8117 31.4054 55.3015 31.3297C56.7349 31.0992 58.7734 33.0981 57.9775 34.5783H57.9811Z" fill="#563E29"/>
<path d="M91.4752 96.8884H90.3983L90.1786 86.0658C84.8808 77.3969 77.6813 69.135 73.0462 60.0339C72.7148 59.382 72.2898 58.777 72.3943 57.9883C77.5049 63.3077 80.5662 70.3451 84.8376 76.3344C86.6743 78.9095 89.4908 81.337 90.8305 84.3875C92.1703 87.438 91.3815 88.9182 91.3203 92.0227C91.2879 93.6182 91.8822 95.2605 91.4752 96.8884Z" fill="#563E29"/>
</svg>
