<svg width="107" height="108" viewBox="0 0 107 108" fill="none" xmlns="http://www.w3.org/2000/svg">
<path d="M53.5 108C83.0472 108 107 83.8234 107 54C107 24.1766 83.0472 0 53.5 0C23.9528 0 0 24.1766 0 54C0 83.8234 23.9528 108 53.5 108Z" fill="#2D1C01" fill-opacity="0.8"/>
<path d="M55.5497 25.5515C62.6161 26.3975 67.927 31.3946 67.9902 38.3687C68.0032 39.7681 69.01 40.9367 70.3809 41.1374C74.633 41.7639 78.4839 43.681 81.5786 46.6972C82.0356 47.1418 82.7044 47.2862 83.2914 47.0405C86.6146 45.6487 89.8989 43.696 93.5175 42.9156C93.9968 42.8125 94.2011 43.5009 93.7442 43.6791L91.0618 44.7201C89.9119 45.1666 88.8159 45.7425 87.7942 46.4384L85.3645 48.0909C84.6084 48.6049 84.2945 49.5653 84.588 50.4357C88.8809 63.1348 83.5533 77.1882 71.9469 83.8322C66.0973 87.1805 60.1064 88.199 53.38 87.5744C51.3794 87.3887 48.4443 86.0794 46.9434 86.1038C45.7786 86.1225 44.7124 86.6534 43.6145 86.9535C42.3681 87.2949 41.0975 87.5538 39.8176 87.7282C38.1643 87.9533 36.4924 88.0396 34.8261 87.9833C33.2917 87.9308 31.5567 87.9158 30.1914 87.1111C29.7994 86.8803 29.4428 86.5633 29.2626 86.1319C28.9264 85.3234 29.4799 84.4606 30.0706 83.9204C30.2397 83.7665 30.4217 83.6296 30.6168 83.5114C31.3951 83.0369 32.3072 82.8399 33.2082 82.7236C34.8224 82.5154 36.4664 82.5435 38.0733 82.8043C39.6801 83.065 41.2776 83.6521 42.8678 84.1211C43.609 84.3405 44.4356 84.6407 45.2195 84.6144C51.7119 84.3968 71.7166 54.9995 80.3285 48.9688C80.8653 48.5937 80.9526 47.8265 80.5124 47.3388C77.5049 44.0186 73.7469 42.0678 69.2682 41.5988C68.4639 41.5144 67.6911 41.929 67.3103 42.6474C66.727 43.7485 66.4651 44.9996 65.5994 46.1345C60.2736 53.1143 43.5811 51.3436 40.1965 58.9086C38.2497 63.2586 41.025 67.7548 45.7489 67.8224C48.7007 67.8655 51.6339 66.4005 54.1156 64.928C57.0079 63.2135 59.7535 61.0733 62.1721 58.7379C63.556 57.4023 64.7468 55.8623 65.696 54.1835C66.597 52.591 67.1078 50.9215 67.7115 49.2145C67.8248 48.8938 68.2948 49.0026 68.2632 49.3402C67.2973 59.8371 54.8141 69.6531 44.7161 68.3194C41.0845 67.8392 37.8373 64.7892 37.8336 60.9607C37.8281 52.6078 46.6666 45.6768 53.6457 42.85C54.2698 42.5968 55.455 42.3323 56.642 42.0359C58.873 41.4788 60.3294 39.3291 60.0842 37.0219C59.7944 34.3114 59.1312 31.4227 56.6178 29.9727C55.2711 29.1961 53.7162 28.8772 52.18 28.6653C48.5706 28.1682 44.9111 28.2038 41.2665 28.2395C40.0795 28.2507 38.8609 28.2695 37.7537 28.7066C36.5834 29.1699 35.6045 30.1059 35.0825 31.2595C34.4881 32.5744 34.4899 34.0751 34.5029 35.5213C34.6311 49.1376 34.7593 62.7558 34.8856 76.3722C34.8874 76.601 34.8782 76.8618 34.7091 77.0156C34.5624 77.1506 34.3432 77.1581 34.1463 77.1563C31.9673 77.1563 29.7883 77.1544 27.6074 77.1525C27.4328 77.1525 27.2378 77.1431 27.1189 77.0156C27.0056 76.8955 27 76.7136 27 76.5485C27 59.7602 27 42.9719 27 26.1836C27 26.0167 27.0056 25.8347 27.1115 25.7053C27.2396 25.5515 27.4625 25.5346 27.6613 25.529C32.584 25.529 37.5123 25.1557 42.4349 25.0394C46.4548 24.9437 50.4728 25.0037 54.4742 25.4277C54.8308 25.4652 55.1856 25.5046 55.5423 25.5477L55.5497 25.5515ZM60.2402 46.0201C61.0668 45.0653 60.2551 43.5759 59.0105 43.756C56.237 44.1574 53.51 45.4161 51.1156 46.6672C50.4097 47.0349 46.1037 49.7097 44.1402 51.5855C43.6312 52.0732 44.1161 52.9192 44.7867 52.7073L54.4333 49.6628C55.2135 49.4171 55.9677 49.0945 56.6847 48.7006C57.9981 47.9765 59.2687 47.1399 60.2402 46.0201ZM49.271 86.0831C69.1995 91.7611 89.4475 72.5418 82.9143 52.3509C82.6672 51.5874 81.731 51.321 81.131 51.85C79.9681 52.8761 78.456 54.5587 78.1272 54.9376C70.6428 63.6131 66.6378 73.476 56.8612 80.6752C54.359 82.5173 51.5205 83.6784 49.1707 85.5823C48.9905 85.7286 49.0462 86.0212 49.2691 86.085L49.271 86.0831ZM43.3377 85.5861C43.386 85.4998 43.4065 85.4041 43.386 85.3009C43.3266 85.0121 42.9829 84.9033 42.6969 84.8507C41.3872 84.6069 40.0739 84.3949 38.755 84.2167C37.2262 84.0085 35.6806 83.8453 34.137 83.9035C33.1469 83.941 30.7059 83.8941 30.3381 85.1302C30.2193 85.5279 30.3902 85.9706 30.6781 86.267C30.966 86.5633 31.3561 86.7359 31.7462 86.8672C33.3122 87.3962 35.0063 87.3699 36.6503 87.2255C38.0454 87.1017 39.4312 86.8991 40.8021 86.6159C41.5117 86.4695 42.2232 86.2989 42.8733 85.98C43.0535 85.8918 43.2467 85.7568 43.3377 85.5879V85.5861Z" fill="white"/>
</svg>
