<?xml version="1.0" encoding="UTF-8"?>
<svg id="OBJECTS" xmlns="http://www.w3.org/2000/svg" viewBox="0 0 248.17 179.74">
  <defs>
    <style>
      .cls-1 {
        fill: #2d2d2d;
      }
    </style>
  </defs>
  <path class="cls-1" d="M89.33,93.41c3.89-5.78,7.43-9.77,11.65-15.08,5.88-7.41,12.81-18.25,19.13-24.7.39-.39,1.12-.31,1.29-.5.58-.64.63-5.35.32-6.36-.5-1.63-4.35-3.74-4.21-4.55l11.01-10.31c1.24-6.07,2.64-13.46,4.91-19.21.26-.66.37-1.45,1.33-1.28.21,5.69,1.88,11.15,2.77,16.73.2,1.25-.17,2.55.23,3.79.45,1.42,6.2,9.08,7.53,10.96.54.76,2.56,2.9,2.74,3.3.26.6-.17.55-.5.69-1.41.61-2.35,0-2.69,2.15l.15,19.07,34.19,18.89c7.51,7.9,16.11,14.71,23.92,22.3.99.96,6.36,6.04,6.62,6.64.63,1.5.21,3.26-.55,4.59l.76,6.65c-.89.16-.8-.07-1-.78-.61-2.19.18-4.64-.38-6.87-3.22-.73-6.29-1.96-9.47-2.79l.21,4.04-3.83-.02-.4-4.82c.27-.2,3.37.63,4.02.8l-29.74-11.66c-.1,5.56.12,11.14.01,16.7s-.25,10.66-.42,16.06c-.03.97-.66,2.03-.62,2.83.1,2.06,2.46,4.56,1.42,6.75l-1.2.28c.76-2.42-.82-5.93-2.41-7.84l1.6.2c.33-2.4-1.67-3.45-2.39-5.47l-1.62.24c1.94-2.56,2.51,1.43,4.42,1.21l.62-31.74c-15.37-15.48-31.6-30.03-46.62-45.86-1.03-.95-1.77.2-2.63.83.41-.72.61-2.26,1.74-2.37,2.27.19,15.06,15.04,17.74,17.66,1.65,1.61,4,3.19,5.65,4.8,8.25,8.09,16.45,16.25,24.7,24.34.37.5,1.14-.12,1.21-.42.26-1.09-4.14-5.39-5.01-6.23-10.8-10.36-21.74-20.58-32.58-30.93-4.1-3.92-7.95-8.13-12.05-12.06-4.74,4.7-7.68,10.73-11.87,15.86-6.45,7.89-13.08,15.74-19.68,23.52ZM136.36,31.51l-.05-4.17-1.95-11.1-4.02,14.87c2.16-.28,4-.83,6.02.4ZM137.07,32.41c-.19-.12-4.03-.77-4.47-.76-3.86.14-5.76,3.39-8.29,5.69-.55.5-5.54,3.88-4.83,4.62,3.91-1.45,8.15-1.28,12.25-1.61,2.07-.17,5.61-1.17,7.46-.62.7.21,3.54,2.7,4,2.23.13-.68-.34-1.06-.64-1.56-.61-.99-5.06-7.74-5.48-7.99ZM146.41,46.38c.36-.41-6.95-5.9-7.88-6.02-6.6.15-12.89,2.36-19.46,2.41l3.39,2.78c4.97-1.16,10.2-2.38,15.26-2.74.86.17,1.72.35,2.53.68,1.2.49,5.17,3.99,6.15,2.89ZM137.57,51.41c.2-2.24,0-4.93,0-7.24,0-.43-.88-.61-1.35-.58-4.34.22-9.28,1.66-13.54,2.59l-.35.43c1.18,2.23-.72,5.4.34,7.23,2.01,3.49,10.77,2.12,14.09,1.19.25-.21.75-3.07.8-3.62ZM144,58.84l.32-10.97c-.31-1.04-5.77-4.51-6.35-3.9l.49,11.97,5.54,2.89ZM133.95,62.06c-2.24-1.52-4.62-3.14-6.96-4.49-.8-.46-2.19-1.45-3.08-1.34,5.34,5.81,11.77,10.48,17.49,15.87,6.14,5.78,11.63,12.21,17.66,18.11,3.02,2.95,10.01,10.37,13.09,12.23,3.37,2.03,12.15,5.1,16.25,6.66,6.26,2.37,12.75,4.31,19.1,6.42-4.56-4.73-9.1-9.54-13.86-14.07-3.29-3.14-10.97-10.96-14.29-13.04-1.49-.93-4.24-1.65-6.14-2.71-7.34-4.09-14.64-9.55-22.12-13.66-6.86-3.77-11.2-4.46-17.15-9.98,1.21.82,2.47,1.51,3.42,2.81.66-.3-.2-.94-.2-1v-7.24c0-.41-.94-.63-1.39-.62-2.37.02-5.38,1.03-7.86.83,2.11,1.68,4.08,3.41,6.03,5.22ZM138.37,56.84v8.24l5.22,2.21c-.47-2.36,1.54-6.36-.59-8.05l-4.64-2.4ZM209.11,117.54c-7.02-2.87-14.34-5.01-21.41-7.74-5.01-1.93-10.11-4.87-15.29-6.42-.75-.22-.85-.6-1.48.29-.16.82,2.59,1.71,3.23,1.99,11.16,5.01,23.09,9.01,34.76,12.67l.19-.79ZM198.66,117.13l-2.81-.4v3.22s2.81,0,2.81,0v-2.81Z"/>
  <path class="cls-1" d="M119.48,59.25c-4.04,7.1-11.79,15.13-17.04,21.75-6.04,7.61-11.7,15.52-18.25,22.75-.23,8.47-.8,16.77-1.28,25.25-.04.63-.48,1.15-.41,1.8,3.19-2.36,1.96,2.17,2.61,3.61.38.84,1.94,1.2,2.16,1.88.23.74-.24,1.43-.18,1.95.08.59,1.02,1.15,1.06,2.41.06,1.58-1.67,3.54-.44,5.81-1.24.2-.64-.32-.79-1-.45-2.04-.45-4.67-.62-6.81-.05-.67.4-1.56.22-2.35-.06-.28-3.79-2.72-2.83-4.71-2.22-.74-1.5,3.01-1.64,3.18-.57.74-3.43.56-2.38,4.05-2.52-2.34.44-3.59,1.38-4.85.1-.14,1.36-2.51,1.38-2.65.06-.47-.61-.83-.64-1.45-.13-2.74.13-7.63.28-10.56.25-4.62,1.3-9.22,1.22-13.85-1.79,1.57-1.9,3.24-4.01.6,3.35-3.57,5.71-7.9,8.84-11.66.4-.47.97-.73,1.2-1-2.91,4.32-5.28,9.09-9.24,12.66l1.2.81c3.91-6.26,9.05-11.59,13.65-17.3,7.22-8.97,14.55-19.74,22.13-28.11.76-.84,1.48-1.56,2.4-2.22Z"/>
  <path class="cls-1" d="M130.73,119.54c-.07-.59,1.05-.73,1.44-.77,2.03-.21,5.07.92,4.59-2.04h-6.43c-.33-.35.59-4.63.82-5.41.55-1.83,2.8-3.92.39-5.05-.71,1.72-1.89,3.21-1.62,5.23h-1.2c-.64-3.37-2.73-6.02-5.22-8.27l1.59-2.18c-1.97.19-2.14,1.92-4.42.81.23.9,1.56.44,1.2,1.6-3.22.83-5.08,5.01-5.63,8.04-1.17,1.09-1.69-4.54-2.02-4.82h-1.18c-.65,1.69.91,3.27,1.4,5.21.18.71.67,3.21.53,3.74-.66,2.51-6.04-.53-5.96,2.53.05,2.14,4.98-.88,5.86,1.56l-.24,27.35c-.34,1.9-1.84.3-3.06.21-1.1-.08-2.22.56-3.37.39v4.02s-1.21,0-1.21,0c.02-3.61.69-7.46.82-11.04.29-7.98-.18-16.65.37-24.55.23-3.35,1.9-9.5,4.56-11.71.71-.59,1.86-.68,2.64-1.18,2.13-1.36,4.19-2.81,6.44-3.99,3.47,1.48,9.82,2.96,11.95,6.19,2.68,4.08,4.37,11.09,4.56,15.94l-1.2,31.35c-.26,1.68-2.59.21-4.02,1,.42-.95,1.97-1.12,2.81-.8l-.18-3.24-6.24-.38v-29.54c0-.07.54-.63.8-.6v28.74c1.39,1.23,3.84.35,5.63.61.31-9.66,1.56-19.31.8-28.94h-6.03ZM116.26,109.09c.23-2.68,2.72-4.39,4.42-6.23-2.01-2.4-4.61,1.28-6.24,2.62-.23.47.66,2.4.99,3.03.22.42-.21.76.84.57ZM129.52,109.89l1.84-4.42c-1.8-1.67-5.09-5.13-7.06-2.02l2.4,1.83,2.82,4.61ZM136.36,115.92c.5-1.04-2.63-8.09-3.21-7.64-.28,1.64-1.29,3.06-1.51,4.73-.63,4.9,1.76,1.46,4.71,2.91ZM114.21,115.47c.2-1.05-.88-7.09-2.16-6.78-1.72,2.02-1.92,4.79-2.62,7.23l4.77-.45ZM113.85,119.94c-1.23.39-4.27-1.24-4.77.26-.32,6.13.22,12.32-.04,18.45-.09,2.21-.81,5.05-.84,7.21,0,.85-.02.52.61.61,1.39.21,3.18-.16,4.64,0l.4-16.88c-1.22-1.6-.64,3.86-.8,4.02l-3.16-.46-.27-11.62c1.06-.98,2.49-.81,3.83-.78.67.66-1.16,5.09.4,5.63v-6.43ZM112.65,121.55h-2.42c.51,2.99-.1,7.5.4,10.25.18.97,1.25,1.5,1.6.75l.41-11Z"/>
  <path class="cls-1" d="M45.92,92.21c.62,3.37-.66,6.72-.82,9.83-.31,6.15-.43,16.98.92,22.82.34,1.47,1.47,2.07,1.09,4.1-.99,5.21.24,11.9.03,17.73-.14,4.05-.48,11.02-1.24,14.84-.32,1.62-1.62,1.21-1.61-.37.01-2.39.88-5.57.83-8.04-.06-2.94-1.28-6.34-1.61-9.27-.2-1.78.14-3.73-.06-5.57-.39-3.54-1.39-6.99-1.96-10.5.42-.64.49.31.6.6,2.24,5.83,1.98,11.53,3.04,17.48.13.71-.44,1.2.79,1.01-1.08-4.23-.46-8.74-.86-13.01-.22-2.33-1.87-5.77-1.88-7.38,0-.48.24-.85.72-.92l1,4.03c.35.62.88.16.99-.24.21-.8-.8-5.93-1.44-6.14l-2.16-.05c.39-1.98.79-5.31-2.01-4.82l.41-.8c-.58-.05-1.15,0-1.72.11-1.35.27-1.17.53-1.1,1.9.81.09,1.88-.47,1.61.8l-2.01.41c1.55,2.41-.32,2.69-.43,4.62-.08,1.5,1.27,3.73,1.23,4.01-.2,1.56-2.09-.43-2.32-1.69-.63-3.55,1.21-3.56,1.45-4.79.09-.47-1.69-4.14-.5-5.41,3.49-1.65,8.15.44,6.19,4.87h1.6c-.82-4.64-1.7-9.53-1.62-14.28.07-4.35,1.35-8.01,1.98-12.09.06-.39-.21-5.16.85-3.77Z"/>
  <path class="cls-1" d="M94.56,76.53l-1,5.63c-1.32,1.12-4.78,1.36-4.16,3.71.22.82,1.3,1.11.85,2.19-.55,1.31-3.93,3.6-4.93,1.73,1.43.21,3.73-.96,3.56-2.52-.14-1.25-1.01-1.4-.15-3.11.92-1.84,3.11-1.72,3.63-2.81.66-1.4-.35-3.81,1.38-5.45,1.54-1.45,2.47.37,4.2.21,3.31-.31,1.09-2.73,1.02-4.22-.11-2.16,1.2-2.23,1.81-3.44.88-1.74,1.87-3.58,2.71-5.33.33-.68,2.22-5.79,2.26-6.17.07-.79-.98-1.53-1.14-2.73-.27-2.03.73-3.96.37-6l-.34-.46c-3.52-.17-2.24-3.58-4.03-5.62,1.97-.61,1.9,3.16,2.81,4.02.66.63,1.83.41,2.41.81s1.12,3.62,1.17,4.46-.49,1.68-.36,2.73c.12.96.94,1.53.8,2.81-.05.5-2.69,6.51-3.14,7.35-.87,1.61-1.85,2.96-2.81,4.83-.36.7-1.37,1.45-1.51,2.09-.31,1.4,2.93,3.16-.04,5.2-2.01,1.38-3.28.87-5.36.06Z"/>
  <path class="cls-1" d="M51.15,136.02l4.74-6.31,5.7-9.77c-1.44,4.14-3.48,8.74-5.86,12.43-.65,1.01-4.55,6.6-5.8,5.66.58-1.16.49-2.51.36-3.77-1.2-11.49-6.71-26.64-2.97-37.62.2-.58.25-1.21.81-1.6.24,1.56-.52,3.05-.62,4.61-.51,7.88,1.55,18.8,2.43,26.94.34,3.15,1.09,6.27,1.21,9.45Z"/>
  <path class="cls-1" d="M75.98,40.45c.35.35.68,2.02,1.08,2.74.51.93,1.52,1.71,1.75,2.67.51,2.2-.55,4.2-.29,6.31.19,1.52,1.46,2.7,1.56,4.1.1,1.33-.95,4.36-1.52,5.65-1.43,3.22-4.11,3.96-2.48,8.17l2.21-2.42.2,2.42-1.16-.39c-.52,1.38-1.54,2.54-1.9,4-.19.78.19,1.79.05,2.04-.22.4-2.31,1.56-3.1,2.91s-1.27,3.06-1.12,4.71c-1.84.38-.19-3-.4-3.21-1.5.6-2.75,1.8-4.41,2.21-.82.2-1.58.28-2.41.19-.19-1.11.23-.68.88-.91,2.03-.71,5.09-1.36,6.06-3.63.38-.88-.06-1.54.19-2.18.44-1.15,3.09-3.04,3.54-4.51.53-1.7-.19-3.84.26-5.37.21-.72,1.27-1.23,1.7-1.92,1.08-1.73,3.28-7,2.43-8.81-.21-.46-1-.87-1.34-1.47-1.55-2.76.04-4.64-.55-7.49-.08-.37-2.52-5.11-2.74-5.31-1.49-1.39-5.77,1.89-6.81,3.21-2.1,2.68-.78,6.46-3.02,9.04l1.43-7.01c.27-2.96,7.6-8.12,9.93-5.76Z"/>
  <path class="cls-1" d="M116.26,119.54c.18-.75.63-.75,1.28-.72,1.63.07,3.16.38,4.96.33,1.62-.04,3.39-.76,5.14-.43l.63,1.45-.36,33.13-.8-.59.76-32.53c-.23-.96-4.17-.88-4.6-.26-.44,6.45-.02,13.04-.16,19.54-.09,4.2-.25,8.6-.42,12.85-.02.54.33,1.67-.6,1.41v-34.17h-5.83Z"/>
  <path class="cls-1" d="M101.35,119.09c-.64,1.07-4.36-2.24-3.52,2.01,4.87,1.86,3.55,5.69,1.9,9.64h-5.13s-1.45-6.35-1.45-6.35c.58-1.7,3.15-2.88,3.61-3.65s.11-2.06.72-2.7,2.81-.88,3.32-2.5c.79-.02.69,2.94.56,3.56ZM96.57,125.98l-2.01-.4c-.05,3.26.74,5.34,4.43,4.22l1.6-4.22-3.15.07-.87,3.14,1.56-.64-.36-1.77c3.9,3.71-4.5,5.17-1.21-.4Z"/>
  <path class="cls-1" d="M66.94,112.42c-.22.13-.35.77-.76,1.02-4.76,3-7.55-2.68-7.39-6.77l2.24,4.38c1.43,1.68,2.89,3.5,4.82,1.24l-.63-1.01.6-.6c1.46.81,6.76-.87,7.86-1.78,1.64-1.37.82-3.11,1.36-3.87.37-.52,2.6-.23,3.26-2.36s-.73-4.21-.25-4.95c.44-.69,2.32-1.25,3.05-1.89,1.87-1.65,1.06-3.28,1.58-5.25,1.18-4.49,2.77-7.34,6.25-10.43.18,1.43-1.2,2.03-1.94,3.08-2.8,4.01-3.41,6.75-3.59,11.68l-4.05,3.61c.29,2.13.2,4.87-1.86,6.15-.63.39-1.76.38-2.06.77-.16.22.88,2.85-1.8,4.62-1.79,1.18-5.31,1.53-6.7,2.35Z"/>
  <path class="cls-1" d="M203.89,146.47c.2,1.11-.23.68-.88.91-10.52,3.7-21.81,5.45-32.37,8.85.11,1.04-3.58,4.72-2.85,2.18.42-1.49,1.85-1.17,1.53-2.68-2.37,1.34-3.25-1.05-4.3-1.14-.98-.08-1.48.61-1.92.59-.77-.03-2.56-1.9-4.23-.65l.41,1.2-2.82,1.2c.76-1.69,1.64-3.46,3.69-3.77,1.06-.16,1.57.56,2.54.59.81.03,1.68-.52,2.33-.37.59.13,1.18,1.29,2.19,1.48.21.04,4,.4,4.22.38,1.52-.08,4.84-1.72,6.66-2.22,8.55-2.34,17.27-4.15,25.81-6.54Z"/>
  <path class="cls-1" d="M53.57,29.5l.82-.24c.27-1.14,1.4-3.22,2.66-3.33.97-.09,1.17,1.73,1.93,2.38.68.59,2.16.84,2.82,1.91.61-.69,1.73-.71,2.33-1.1.89-.58,1.02-2.18,3.21-1.55.57.16,2.94,3.43,3.2,4.05.63,1.5-.18,3.04,1.11,4.32-1.95-.04-.98-3.18-1.72-4.31-.19-.29-.98-.45-1.32-.88-.53-.68-.86-1.91-1.49-2.18-1.66-.71-2.4,1.87-3.51,2.37-.12.05-1.85-.72-2.55-.26l-4.48-3.98-2.79,3.6c-2.08-2.34-4.52-2.87-5.66-6.01l-1.59,1.22-2.76-1.54c-2.82.26-2.09,4.52-2.29,4.72-.08.08-1.08-.03-1.58.22-.76.38-1.77,2.84-1.93,3.71-.25,1.45.58,4.08-1.3,4.12-.16-2.77-.02-6.46,2.2-8.45.43-.38,1.39-.39,1.64-.77.61-.92-.19-3.43,2.58-4.27,1.51-.46,2.04.46,3.12.56.87.08,1.58-.58,2.52-.14s1.01,2.14,1.59,2.85c.81.99,3.12,1.15,3.24,2.99Z"/>
  <path class="cls-1" d="M141.6,130.78c-.2-4.4-3.47-6.15.35-9.87.49-.47,1.31-.44,1.54-.66.33-.33.45-2.33,1.3-3.33.92-1.09,3.51-3.38,3.66-.8.19,3.34-2.15.8-2.85,1.17l-1.18,2.42c1.85.85,3.38,1.59,3.84,3.83.16.8-.76,5.87-1.13,6.57-.69,1.33-4.12.45-5.53.66ZM144.8,123.96c0-1.11.38-2.87-1.2-2.81l-.81,2.81h2.01ZM147.62,124.77h-6.03l.87,5.16c4.88,2.04,4.22-1.82,5.16-5.16Z"/>
  <path class="cls-1" d="M29.76,70.19c.26.14.78,1.76,1.55,1.89l1.9-1.15c.76.48,1.36,1.57,2.25,1.83s1.78-.48,2.42-.07c1.11.69,2.5,6.04,5.22,5.86l-.25.82c-.9.48-4.2,2.02-4.59,2.66-.96,1.58.19,2.92-.04,3.86-.13.52-1.93,2.23-2.52,2.26-.7.04-3.11-1.18-3.06.24l1.43,4.62,2.06-2.44c.57-.14,3.15,1.5,3.28,1.72.28.5-.01,1.67.17,2.45.25,1.07,1.42,1.89,1.73,2.73.26.71-.1,1.33.08,1.89.21.65,1.54,3.04,1.33,3.29-.59.72-1.58-1.83-1.69-2.12-.82-2.12-1.71-3.69-2.46-5.58-.64-1.6.03-2.97-2.67-3.55-.14,1.35-.94,2.59-2.42,1.82-.85-.44-1.66-4.7-1.24-5.25,1.34-1.8,3.17-.04,4.3-.95.97-.79.39-2.35.59-3.44.39-2.15,2.42-2.9,3.99-4.04l-5.02-5.82-.2,1.2c-1.66-1.15-4.61-1.66-6.55-1.2-.3.07-.24.7-.56.78-1.34.35-2.25-.13-3.72,1.04-.97.77-1.11,1.99-2.02,2.59-.31-3.04,2.85-3.38,4.54-4.4.74-.44.62-2.08,2.69-.82-.13-2.73-2.65-1.44-4.15-3.32-.93-1.17-2.35-4.71-.67-5.52.01,1.75.93,5.31,2.72,5.94.49.17,1.19-.05,1.61.18Z"/>
  <path class="cls-1" d="M182.59,124.77v23.11l-2.41.6c.15-4.88-.19-9.81-.02-14.69.04-1.04.37-1.9.42-2.8.12-2.16-1.06-7.8,2.01-6.23ZM181.78,148.08v-21.91c0-.29.79-.99-.8-1-.02,5.43.02,10.86.02,16.29,0,2.08-.31,3.67-.02,6.02.07.55.29,1.28.8.6Z"/>
  <path class="cls-1" d="M62.4,63.47c-.11.37-1.87,1.65-2.22,3-.41,1.58.13,3.39-.18,4.55-.08.28-1.8,1.09-2.33,2.19-.97,2.01-.61,4.97.71,6.74l4.42,3.41c-5.99.06-9.27-6.45-5.63-11.35.41-.55,1.29-.58,1.54-1.39.4-1.28.1-2.79.8-4.42.49-1.14,2.2-2.55,2.4-3.22.6-1.99-1.15-4.23.49-5.35-.28,1.57.39,4.48,0,5.83Z"/>
  <path class="cls-1" d="M52.35,160.94c-1.92-.07-1.07-2.86-1.21-4.22-.49-4.75-1.07-8.75.1-13.57l7.53-11.55c-.43,3.11-5.38,7.82-5.94,10.33-.31,1.39.08,2.93-.09,4.33-.64,5.14-1.85,9.37-.4,14.68Z"/>
  <path class="cls-1" d="M115.86,119.94c.49-.65.73,0,.8.6.28,2.16-.09,4.98-.02,7.26.21,7.08.99,16.28.03,23.31-.08.6-.05,1.24-.81,1.4v-32.56Z"/>
  <path class="cls-1" d="M186.55,147.22l-2.34.44c-.98-7.41-.24-15.03-.01-22.49l1.63.18.38.83.34,21.04ZM184.6,125.57v21.3c1.04.11,1.38.14,1.4-1,.12-6.39-.48-12.89-.19-19.3l-1.2-1.01Z"/>
  <path class="cls-1" d="M136.36,133.01c-.9,1.24-4.74,1.28-5.44.22s.87-10.4.39-12.5c.48-.75,4.45-1.31,5.05-.18v12.46ZM135.16,132.81l.4-12.46-3.19.42-.36,11.38.6.6,2.56.06Z"/>
  <path class="cls-1" d="M121.09,80.15l-2.44-.18-.38-1.83,2.42-.2.8-2.62c1.85.16,1.52,1.45,1.21,2.81h2.59c.53.06.31,1.91-.45,1.94-4.56-.52.08,6.56-3.75,6.5v-6.43Z"/>
  <path class="cls-1" d="M123.5,104.67c-.85-.57-3.21,2.54-3.7,3.34-1.33,2.17-1.98,5-2.32,7.49.47.67,8.68.5,10.02.24.35-.07.61.08.79-.47-.23-4.06-2.76-7.3-4.8-10.61,3.29,2.6,5.52,7.9,5.63,12.06l-12.86-.41c.63-4.95,2.19-9.35,6.27-12.44.69-.14.75.62.97.79Z"/>
  <path class="cls-1" d="M174.53,120.36l.42,15.06-.38.83-3.25-.23c.83-5.04.42-10.34-.02-15.42l3.22-.23ZM174.14,135.62v-14.27l-2.01-.6c-.37,2.1.36,4.27.42,6.22.04,1.43-.36,7.95.36,8.48l1.23.18Z"/>
  <path class="cls-1" d="M124.3,134.01c.04.07,1.48.61,1.56-.25l.45-13.01c-.81.17-1.63.76-2.01-.4l2.35.05c1.31,4.59-.43,9.44.08,14.15-.23.93-2.78.48-3.23-.34v-12.06c0-.19.49-1.24.8-1v12.86Z"/>
  <path class="cls-1" d="M88.94,79.35c.15-2.2,3.11-4.46,3.53-6.31.46-2.03-.65-4.13-.29-6.33.32-1.95,1.74-1.87,1.99-5.24.05-.62-.41-1.6.59-1.41,2.42,2.72-1.09,5.3-1.39,7.06s.77,3.69.3,5.91c-.43,2.04-3.29,4.79-4.73,6.32Z"/>
  <path class="cls-1" d="M39.49,104.26c-1.34-.12-3.52-1.43-4.66-1.61-1.3-.2-2.07.91-3.09.75-1.12-.18-3-2.35-4.69-1.94-1.36,2.79,1.08,5.31,3.83,5.58.39.04,4.1.02,4.3-.04.72-.22,1.35-1.6,2.7-1.14-2.34-2.26-6.84,1.23-9.64-1.4,1.03-1.31,2.44.19,3.8.2,2.32.02,3.21-1.09,6.13-.09,1.2.41,3.96,2.03,3.53,3.3-3.18-4.21-4.3-.54-6.52-.07-.3.06-4.2.1-4.69.06-3.51-.28-5.7-3.94-4.23-7.18,2.17-.96,4.54,1.69,5.87,1.9,1,.16,1.79-.7,2.67-.63s4.15,1.35,4.69,2.3Z"/>
  <path class="cls-1" d="M196.65,127.18l.83,17.5-.4,1.21-1.22.18c-.79-4.59-.8-9.24-.79-13.88,0-1.59-1.25-5.1,1.59-5.01ZM196.25,127.98c-.5-.65-.73,0-.8.59-.21,1.63-.07,4.32-.02,6.05.1,3.06.44,6.98.82,10.04.07.55.29,1.28.8.6l-.8-17.28Z"/>
  <path class="cls-1" d="M58.38,36.74c-.21,1.44.48,2.78.42,4.2-.06,1.31-.94,2.68-.81,4,.16,1.6,1.92,3.62,1.86,5.6-.05,1.67-1.28,3.1-1.78,4.58s.25,3.55-2.1,4.53c-.19-.93.91-1.15,1.12-1.89.26-.92-.04-2.03.17-3.05.23-1.13,1.36-2.31,1.5-3.75.25-2.63-1.93-4.45-1.95-5.97,0-.77.67-1.6.73-2.45.13-1.69-.17-3.61.03-5.2.09-.73-.14-.65.8-.6Z"/>
  <path class="cls-1" d="M135.96,136.02v8.24c-1.17,1.18-3.27.39-4.82.6v-8.84c1.66-.56,3.17-.56,4.82,0ZM135.16,136.42c-5.26-2.05-2.31,3.82-2.64,6.86l2.64.38v-7.24Z"/>
  <path class="cls-1" d="M53.96,72.51v1.21s1.81-1.21,1.81-1.21l.2.79c-.94.07-1.35.88-2.02,1.36-.21.15-.64-.23-.82.07-.61,1.07-.16,2.47-.46,3.52-.21.74-1.41,1.29-1.84,2.18-.46.96-.33,2.1-.69,2.93-.95,2.16-2.54,3.93-2.81,6.43-1.89-2.11.77-4.18,1.49-5.74.57-1.24.49-2.83,1.17-4.05.44-.79,1.67-1.42,1.88-2.14.19-.66.55-5.02.89-5.35h1.2Z"/>
  <path class="cls-1" d="M200.27,128.99c.03-.14.55-.62.8-.6-.29,5.38-.67,10.73.2,16.08l.57-2.61-.16-12.8.59-1.07v16.68l-1,.6c-.18-.04-1.01-1.27-1.01-1.41v-14.87Z"/>
  <path class="cls-1" d="M117.47,120.75h2.81s0,.4,0,.4h-2.41v11.86c0,.38,1.43,1.29,2.01,1l.41-7.43.8-5.43-.17,13.28c-.59.87-2.81.08-3.44-.62v-13.06Z"/>
  <path class="cls-1" d="M199.47,145.06c-.1.33-.77.73-1.2.6-.75-.54-.33-13-.39-15.09-.05-1.68-1.36-4.78,1.99-2.8l-1.21-.03c-1.08.73-.07,8.81,0,10.48s-.06,3.22,0,4.82c.02.49-.31,1.49.4,1.4v-14.47h.4v15.07Z"/>
  <path class="cls-1" d="M186.91,112.4l.1,5.94-6.67-1.58c.02-1.06.07-5.97.83-6.04l5.74,1.69ZM186.19,113.13l-4.8-1.22c-1.14,4.83.53,4.99,4.82,5.63l-.02-4.4Z"/>
  <path class="cls-1" d="M48.74,78.54c-.78.78-4.2-4.68-4.49-5.35-1.58-3.69-1.82-8.81,2.52-10.57.03-.95-.81-1.91-.8-2.78.01-.98,1.14-1.87,1.14-2.81,0-1.27-2.32-2.83-1.18-4.62l2,4.59c-1.84,1.87-.5,4.05-.88,5.55-.23.9-1.78,2.41-2.24,3.81-.93,2.8-.4,4.52.76,7.09l3.16,5.07Z"/>
  <path class="cls-1" d="M189.82,131.2c.71-.09.38.91.4,1.4.19,4.62-.02,9.26.4,13.87l-1.95-.66-.48-19.23c-.09-1.08,2.32-1.75,2.03-.21h-1.21v19.09l.6.59.61-.6c.12-.52-.41-1.03-.41-1.2v-13.06Z"/>
  <path class="cls-1" d="M206.33,150.93c1.74,2.82-2.11,2.61-.03,5.58-1.77.02-3.33-1.77-4.99-1.6-1.15.12-1.83,1.23-2.63,1.44-.73.19-1.42-.37-2.14-.18-1.01.26-1.01,2.1-2.29,1.96.32-2.96,2.1-2,3.73-2.49,2.53-.77,3.54-2.8,6.71-.32-.35-1.02,1.09-1.82,1.17-2.27.12-.65-1.17-1.27-.99-2.19.26-1.28,1.84-1.7,2.63-.57l-1.17.64Z"/>
  <path class="cls-1" d="M125.51,158.93c.33,1.41-1.24.39-2.19.38-2.41-.04-4.84.08-7.25.02l-15.48-2c2.99-.62,5.97.61,8.64.8,5.38.38,10.89.14,16.27.81Z"/>
  <path class="cls-1" d="M55.97,35.94c-.07.66-.98.42-1.64.97-1.74,1.46-2.81,5.28-5.8,3.14-1.38.59-.78,2.09-1.18,3.14-.36.94-1.21,1.43-1.4,2.61-.35,2.15.5,3.8.58,5.81-1.46-1.2-1.58-3.28-1.41-5.02.06-.64,1.8-6.04,2.04-6.4,1.02-1.47,2.42.08,3.57-.42,1.61-.7,2.72-5.23,5.24-3.83Z"/>
  <path class="cls-1" d="M172.13,114.72v-6.83l6.04,1.8c.64.47.62,5.64.02,6.07l-6.05-1.04ZM177.33,114.68c1.75-4.6-1.17-4.97-4.79-5.99l.02,5.21,4.77.78Z"/>
  <path class="cls-1" d="M177.76,121.55c1.06,1.05.35,4.43.39,6.25.05,2.53.18,3.73,0,6.43-.13,1.91,1.51,3.29-2.39,2.19v-15.07l.63-.6c.77,0,.96.38,1.38.8h-1.61s-.03,13.89-.03,13.89l.09.52,1.55.46v-14.87Z"/>
  <path class="cls-1" d="M178.57,138.03v9.85c0,.62-1.85,1.14-2.52-.3-.39-.84-.76-9.22-.26-9.51l2.78-.04ZM177.76,138.43h-1.61c-.3,3.11.56,6.14.4,9.25h1.2v-9.25Z"/>
  <path class="cls-1" d="M57.44,108.16c-.11.2-.79.24-.99.8-.72,2.02.44,5.11-3.29,4.56.73,3.03-2.71,5.45-4.02,2.01l2.01.63c1.16-.56.96-3.22,1.58-3.68.33-.24,1.76.75,2.23-.16.72-1.02.34-2.7.8-3.63.27-.55,1.1-.59,1.43-1.08.59-.88.84-3.07,1.59-4.13.76-.08.33.82.2,1.21-.34,1.05-1,2.51-1.55,3.48Z"/>
  <path class="cls-1" d="M171.33,138.83c.71-.09.38.91.4,1.4.1,2.63.32,5.22.4,7.84h1.61v-9.25c.94-.05.71-.14.8.6.26,2.03-.07,4.72-.02,6.86.02.96.85,2.19-.24,2.53-.67.21-2.79.24-3.19-.33-.24-.29.23-.51.23-.61v-9.04Z"/>
  <path class="cls-1" d="M191.83,144.66c.02.39,1.15,1.19-.4,1-.52-6.52-.72-13.18,0-19.69l1.6.59-1.21.21c.2,5.94-.27,11.95,0,17.89Z"/>
  <path class="cls-1" d="M34.27,23.88l-4.84,3c-1.73.59-3.28-.51-3.62,2-.45,3.29,1.32,4.72,2.43,7.45l-2.81-.81,1.21-.4c-1.03-2.12-1.98-4.14-1.59-6.61.45-2.82,2.57-1.82,4.38-2.45,1.34-.47,2.87-2.69,4.84-2.19Z"/>
  <path class="cls-1" d="M121.49,137.63v6.23c-.76.91-2.5.87-3.43.21-.75-.74-.88-4.83-.4-5.64,1.01-1.02,2.51-.82,3.82-.8ZM120.69,143.66l.35-4.64c-.64-1.07-1.7.17-2.76-.59v5.23s2.41,0,2.41,0Z"/>
  <path class="cls-1" d="M36.28,59.65l-1.22.21,1.21,4.62c-1.72.42-2.47-3.1-2.44-4.24.02-.82.72-1.29.65-1.8-.21-1.53-2.12-3.23-.02-5.21.38.61-.23,1.23-.14,2.09.17,1.62,1.73,2.78,1.95,4.33Z"/>
  <path class="cls-1" d="M143.19,156.93c-1.63,2.5-2.31,2.49-4.94,2.9-.88.14-3.4.73-4.1.75-1.48.04-3.08-1.9-5.03-.04,1.09-4.12,4.59-.48,5.02-.47.25,0,.94-.95,1.66-1.03,1.45-.15,2.55.61,4.58-.3,1.36-.61,1.23-2.05,2.81-1.81Z"/>
  <path class="cls-1" d="M203.49,143.66h1.21s-1.61.8-1.61.8c-.66-.57-.28-16.01.4-16.48l1.6.79c-.9-.19-1.61,1.61-1.61,2.22v12.66Z"/>
  <path class="cls-1" d="M193.37,115.59l.07,4.36-4.77-1.26-.05-4.77,4.75,1.67ZM190.02,114.74c-2.93,3.85,4.28,6.42,2.55,1.45-.31-.91-1.82-.92-2.55-1.45Z"/>
  <path class="cls-1" d="M125.51,155.72c-.27.71-2.4.46-3.03.41-2.66-.18-5.36-.99-8.03-1.22-2.29-.19-5.79.74-7.43-.8,6.23-.4,12.32,1.1,18.49,1.61Z"/>
  <path class="cls-1" d="M103.4,152.5v1.2s-3.56-.34-3.56-.34l-1.07,1.94c-.37.19-2.35-2.01-2.71-2.14-.85-.32-1.48.14-2.3.14,1.08-3.46,4.33.4,4.62.4.13,0,1.17-1.39,2.09-1.53.85-.12,1.97.54,2.94.33Z"/>
  <path class="cls-1" d="M86.92,33.53c-1.64,1.96-3.43,4.02-5.83,5.07-1.09.09-1.18-1.37-1.79-1.67-1.53-.72-2.74.45-3.63-2.41,1.11-.77.76,1.01,1.88,1.34,1.47.42,2.8-.53,3.54,1.68l5.83-4.01Z"/>
  <path class="cls-1" d="M60.39,129.18l-.21-1.22c2.12-3.21,2.64-7.54,5.04-10.44-.14,4.45-2.92,7.88-4.82,11.65Z"/>
  <path class="cls-1" d="M224.9,143.15c.25.22.88.07,1.46.74.87,1.02.75,3.23.88,3.35.07.07,1.16,0,1.8.4.92.56,1.03,1.9,1.48,2.34.74.72,2.33.32,3.23.59,1.5.45,2.94,4.38,1.69,4.33-.78-.03-1.5-2.73-1.91-3.11-.6-.56-1.92-.34-2.7-.72-1.08-.52-1.46-2.26-2.15-2.87s-2.54-.87-2.64-.98c-.18-.22,0-1.55-.34-2.27-.47-1-1.53-.78-1.92-1.29-.53-.7-.24-2.73-1.41-3.42,2.21-.73,1.88,2.34,2.52,2.92Z"/>
  <path class="cls-1" d="M126.71,138.43v6.03h-3.22v-6.03h3.22ZM125.91,138.83l-1.36.05-.61.59.36,4.19h1.6s0-4.83,0-4.83Z"/>
  <path class="cls-1" d="M92.95,55.23c-.54,1.1-1.92.7-2.97,1.25-1.9.99-2.99,3.49-2.66,5.58l-4.02.4c.38-1,2.19-.52,2.85-1.36.5-.63.26-1.6.56-2.26,1.09-2.42,3.49-4.1,6.24-3.61Z"/>
  <path class="cls-1" d="M26.15,91.08c.9.58-.16,3.82,1.29,4.54.82.41,2.53-.15,2.4,1.41-.9-1.05-1.8-.33-2.69-.69-2.4-.96-1.42-4.07-1.79-4.49-.22-.25-1.85,0-1.92-1.43l.77-3.44.18,3.65c.38.53,1.38.21,1.75.45Z"/>
  <path class="cls-1" d="M65.62,93.01c-4.37-1.75-5.17.91-4.02,4.82l-1.41-.39c-.45-2.17-.6-4.13,1.44-5.41s4.72.31,4,.98Z"/>
  <path class="cls-1" d="M40.69,56.03c-3.42-4.56-5.17-10.8-4.82-16.48l1.8,9.25,3.01,7.23Z"/>
  <path class="cls-1" d="M206.3,137.23c-1.85,2.06.76,5.13.31,7.39-.16.82-2.03,1.72-.71,3.86h-1.18c-1.3-1.83.91-3.5,1.02-4.2.33-2.15-2.41-6.08.57-7.05Z"/>
  <path class="cls-1" d="M162.89,130.4c-.62.73-.18,2.29-.46,2.75-.12.2-.98.24-1.31.49-1.01.76-.54,2.42-1.05,3.6l-1.2-.4c.84,2.28-1.67,3.6-1.18,5.4.11.4.64.85.99.23-.43-3.49,1.33-1.38,1.81.6l-1.83.91c-1.17-.84-2.4-1.98-1.61-3.53,3.09-1.05-.88-4.01,2.56-4.47-.47-2.91,1.36-2.51,1.98-3.25.54-.65-.07-2.64,1.3-2.32Z"/>
  <path class="cls-1" d="M205.35,119.59c2.96-1,3.42,3.88.54,3.01-1.49-.45-1.71-2.61-.54-3.01Z"/>
  <path class="cls-1" d="M22.61,43.98c.02,1.21-1.29,1.09-1.95,2.26-.79,1.4-.94,2.79-.37,4.28.41,1.08,1.58,1.7,1.32,2.7-3.35-2.59-3.63-8.01,1-9.24Z"/>
  <path class="cls-1" d="M80.09,146.47c.77-.97-.22-2.1.04-2.94.21-.7,1.67-.85,1.92-1.76.38-1.34-1.59-3.61.05-4.54.72,1.27.66,3.52.33,4.94-.16.7-.78,1.14-1.03,1.79-.33.89.35,2.61-1.31,2.51Z"/>
  <path class="cls-1" d="M225.48,149.8c.1.07.99,1.38-.09,1.1-.38-.39-.04-.62-.78-.85-1.24-.39-6.06-1.96-6.66-.56-.55,1.3,1.47.71.6,1.81-2.48-.7-1.18-3.15.81-3.26.64-.04,5.6,1.38,6.12,1.76Z"/>
  <path class="cls-1" d="M26.63,62.47c-.4,1.51-3.13.44-3.64-.28-1.14-1.61-1.09-5.7.23-7.36-.07,3.19-1.44,8.14,3.41,7.64Z"/>
  <path class="cls-1" d="M168.12,152.1c-.85-2.12-1.08-4.54-2.41-6.43,2.39-.13,2.12,2.09,2.61,3.62.37,1.17,2.04,2.55-.2,2.81Z"/>
  <path class="cls-1" d="M132.34,153.71l-4.6,4.44c.04.78-.92,2.82-1.83,1.99-.61-.56,2.52-3.18,2.82-3.52,1.01-1.11,1.3-3.18,3.61-2.91Z"/>
  <path class="cls-1" d="M72.85,149.68c-1.53-.16-1.95-.17-2.61,1.2l-1.01-.61c-1.04,1.18-1.07,2.86-.4,4.23-.95.73-2.43-2.57-.44-4.25.58-.49,4.18-2.1,4.46-.57Z"/>
  <path class="cls-1" d="M160.48,148.08l-.8,1.6,1.8-.8.61,1-.8.61-.4-.8-.39,1.44-1.22-.24-.2,1.6c-1.15-.8.34-5.47,1.4-4.41Z"/>
  <path class="cls-1" d="M203.86,118.77l-.42,2.74c-1.93.34-3.76-.17-2.77-2.36l1.19,1.83,1.23-.48-.04-1.33c-.22-.24-2.82.22-2.39-1.23l3.19.83Z"/>
  <path class="cls-1" d="M57.17,94.62c-.75-.75-2.21-4.2-2.33-5.11-.14-1.08.42-3.14-.07-4.53.57-.11.53.77.61,1.19.2,1.15.05,2.34.28,3.34.37,1.58,1.74,3.3,1.51,5.12Z"/>
  <path class="cls-1" d="M215.54,130c-.05.83-1.16,0-1.9.29-1.05.42-1.19,1.59-1.74,1.91-.47.28-1.21.09-1.51.28-.44.29-.52,2.92-1.69,3.14.05-1.03.45-2.7,1.22-3.4.23-.21,3.39-2.41,3.59-2.47.81-.24,1.28.08,2.01.25Z"/>
  <path class="cls-1" d="M80.89,138.84c-.72.87.13,1.92-.04,2.56-.1.38-2.29,1.37-1.57,3.06l-1.2-.4v2.22c-1.36-.28-2.14.37-2.01,1.8.4-.34,1.62-.44,1.6.2-.01.34-2.38.69-2.8,1-.14-2.64,1.61-3.09,2.61-4.42.81-1.09,1.95-4.17,2.52-5.52.24-.57.07-.62.9-.5Z"/>
  <path class="cls-1" d="M207.1,132.4c.26,1.16-.91.74-1.32,1.7-.22.52.47,2.75-.49,2.71-1.83-.09-.98-5.39,1.81-4.41Z"/>
  <path class="cls-1" d="M90.54,152.5c.69-2.13-1.76-4.79-4.02-3.62,1.18-3.5,7.68,2.86,4.02,3.62Z"/>
  <path class="cls-1" d="M227.61,153.3c.05-.83,1.99-.38,2.4-.19.2.09,2.8,2.61,2.81,2.81.09,2.36-4.45-3.35-5.21-2.62Z"/>
  <rect class="cls-1" x="192.63" y="129.99" width=".4" height="14.87"/>
  <path class="cls-1" d="M218.76,128.38c-2.03-.97-3.11-1.36-4.82.4l.4-1.2c-.82-.69-2.75.67-2.41-.8,1.98.54,6.16-.92,6.83,1.6Z"/>
  <path class="cls-1" d="M213.13,151.29c-2.77.08-2.01-3.37-1.6-5.22l1.6,5.22Z"/>
  <path class="cls-1" d="M157.66,160.13l-3.24-.99v-1.18s-1.18-.44-1.18-.44c1.52-1.71,1.74.33,2.43.78.82.53,2.36-.07,1.99,1.83Z"/>
  <path class="cls-1" d="M94.16,34.33l-1.46-2.35c-.89-.14-1.79-.13-2.67.04-1.08.2-1.77,1.18-2.7.91,2.27-2.28,6.93-2.98,6.83,1.4Z"/>
  <path class="cls-1" d="M230.82,158.93c-1.29,1.78-3.95,1.03-5.81,1.22-1.03.1-1.73,1.17-3.03.38-.02-.6,1.43-.59,1.93-.67,2.37-.42,4.65-.21,6.91-.92Z"/>
  <path class="cls-1" d="M226.39,156.52c-.11.73-2.63,0-2.91-.11-1.03-.42-1.58-1.84-2.96-1.91-1.07-.06-1.38,1.12-2.17.61.72-1.02,1.81-1.24,3-1,1.05.21,1.18,1.06,1.84,1.39.81.4,2.28.37,3.2,1.03Z"/>
  <path class="cls-1" d="M164.1,148.48c-2.44.14-1.11-1.18-1.23-2.18-.17-1.37-1.31-2.5.22-3.85l1,6.02Z"/>
  <path class="cls-1" d="M85.15,145.11l-1.44,1.36v-2.41s1.2.4,1.2.4l-.8-2.81c2.16-.37,1.93,2.32,1.04,3.46Z"/>
  <path class="cls-1" d="M202.68,158.53l-1.6.4.8.4c-.73,1.44-3.02.6-4.42.8-.32-1.42,1.53-.57,2.53-.88.9-.28,1.07-1.68,2.69-.72Z"/>
  <path class="cls-1" d="M90.14,156.52c-.64.76-.99-1.03-1.45-1.18-1.64-.51-3.74,2.67-5.38-.02,2.08.94,3.41-.78,5.41-.4.62.12,1.87,1.07,1.42,1.6Z"/>
  <path class="cls-1" d="M204.69,160.13c.81-1.07,3.91-1.71,4.82-.59.32,1.55-3.92.17-4.82.59Z"/>
  <path class="cls-1" d="M220.77,160.14c-2.22,2.76-4.05-.9-6.83.39-.02-.65,1.41-.81,1.82-.82,1.98-.02,3,1.22,5.01.42Z"/>
  <path class="cls-1" d="M78.08,154.92c-.73,1.65-2.63-.22-3.85-.39-.96-.13-1.72-.04-2.58.38v-.8c2.71-1.41,3.94.99,6.43.8Z"/>
  <path class="cls-1" d="M219.17,133.61c-.04-1.63.38-3.11-.81-4.42,2.1.29,2.91,3.55.81,4.42Z"/>
  <path class="cls-1" d="M216.35,136.82l.4,5.63c-.49.64-.73,0-.8-.59-.17-1.43-.18-2.89-.37-4.47-.1-.8.09-.58.77-.57Z"/>
  <path class="cls-1" d="M126.31,46.39c1.42-.71,3.51-.81,5.22-.8l-2.03,1.06.02,2.55,2.22-.39,1-3.63,1.02.4-.69,7.77c-.12.54-.47.59-.94.67-2.06.37-4.91.29-7.04.4v-6.23c0-.29.54-1.2.5-1.72.19-.24.59-.03.71-.09-1.39,4.6,3.24,4.51,2.41,0h-2.41ZM131.94,49.6h-2.42s0,3.22,0,3.22c-1.58.45-.44-2.45-.8-2.81-2.74-.16-3.1,1.18-2.81,3.62,3.12-.61,6.96.49,6.03-4.02Z"/>
  <path class="cls-1" d="M139.18,47.39c.05-.17.83-1.02,1.22-.83l2.84,2.04c-.94,1.93.7,6.86-.24,8.25-.88,1.31-3.83-1.98-3.83-2.22,0-1.67-.33-6,0-7.24ZM139.98,47.19v6.63c0,.14,1.6,1.65,2.01,1.81-.7-3.02,2.21-7.64-2.01-8.44Z"/>
  <path class="cls-1" d="M109.43,135.22h3.22c.02,3.08,2.3,11.08-3.22,8.24v-8.24ZM111.84,136.02h-1.61v6.63c0,.43,1.14.77,1.61.6v-7.24Z"/>
  <path class="cls-1" d="M145.21,125.97c1.65.69.62,2.93-.84,2.63-1.7-.35-1.5-2.46.03-3.03-1.19,2.84,1.41,3.14.81.4Z"/>
</svg>