<svg width="124" height="111" viewBox="0 0 124 111" fill="none" xmlns="http://www.w3.org/2000/svg">
<path d="M42.3343 104H40.2223V103.268H40.8823V96.32H40.2223V95.6H42.7423C43.3183 95.6 43.8623 95.7 44.3743 95.9C44.8863 96.092 45.3343 96.372 45.7183 96.74C46.1023 97.108 46.4063 97.552 46.6303 98.072C46.8543 98.584 46.9663 99.164 46.9663 99.812C46.9663 100.284 46.8823 100.768 46.7143 101.264C46.5543 101.76 46.2903 102.208 45.9223 102.608C45.5543 103.016 45.0743 103.352 44.4823 103.616C43.8983 103.872 43.1823 104 42.3343 104ZM41.6383 96.32V103.268H42.5743C43.1343 103.268 43.6383 103.18 44.0863 103.004C44.5423 102.82 44.9303 102.568 45.2503 102.248C45.5543 101.936 45.7903 101.572 45.9583 101.156C46.1263 100.74 46.2103 100.288 46.2103 99.8C46.2103 99.272 46.1183 98.792 45.9343 98.36C45.7503 97.928 45.5023 97.56 45.1903 97.256C44.8623 96.96 44.4823 96.732 44.0503 96.572C43.6263 96.404 43.1703 96.32 42.6823 96.32H41.6383ZM50.9004 104H48.4044V103.28H49.2804V100.22H48.4044V99.5H50.0364V103.28H50.9004V104ZM50.1804 97.832C50.1804 97.976 50.1284 98.1 50.0244 98.204C49.9204 98.3 49.8044 98.348 49.6764 98.348C49.5484 98.348 49.4284 98.3 49.3164 98.204C49.2124 98.1 49.1604 97.976 49.1604 97.832C49.1604 97.68 49.2124 97.556 49.3164 97.46C49.4284 97.356 49.5484 97.304 49.6764 97.304C49.8044 97.304 49.9204 97.356 50.0244 97.46C50.1284 97.556 50.1804 97.68 50.1804 97.832ZM54.8402 104H52.3442V103.28H53.2682V100.22H52.4402V99.5H53.9162L53.9522 100.124C53.9682 100.292 53.9722 100.384 53.9642 100.4C53.9642 100.408 53.9722 100.496 53.9882 100.664C54.0842 100.464 54.2042 100.288 54.3482 100.136C54.4922 99.976 54.6482 99.844 54.8162 99.74C54.9842 99.628 55.1482 99.544 55.3082 99.488C55.4762 99.432 55.6362 99.404 55.7882 99.404L55.7402 100.148C55.5242 100.148 55.3202 100.18 55.1282 100.244C54.9362 100.3 54.7682 100.384 54.6242 100.496C54.4402 100.632 54.2922 100.804 54.1802 101.012C54.0762 101.212 54.0242 101.436 54.0242 101.684V103.28H54.8402V104ZM59.6093 100.136C59.3453 100.136 59.1053 100.188 58.8893 100.292C58.6813 100.388 58.5013 100.524 58.3493 100.7C58.2293 100.852 58.1373 101.028 58.0733 101.228C58.0093 101.428 57.9893 101.64 58.0133 101.864C58.4693 101.688 58.9213 101.512 59.3693 101.336C59.8253 101.16 60.2813 100.988 60.7373 100.82C60.6093 100.612 60.4493 100.448 60.2573 100.328C60.0653 100.2 59.8493 100.136 59.6093 100.136ZM61.1573 103.46C60.9573 103.66 60.7253 103.816 60.4613 103.928C60.2053 104.04 59.9213 104.096 59.6093 104.096C59.2813 104.096 58.9693 104.036 58.6733 103.916C58.3853 103.788 58.1373 103.62 57.9293 103.412C57.7133 103.196 57.5413 102.948 57.4133 102.668C57.2933 102.38 57.2333 102.072 57.2333 101.744C57.2333 101.424 57.2933 101.12 57.4133 100.832C57.5413 100.544 57.7133 100.292 57.9293 100.076C58.1373 99.868 58.3853 99.704 58.6733 99.584C58.9693 99.456 59.2813 99.392 59.6093 99.392C59.8573 99.392 60.0933 99.44 60.3173 99.536C60.5413 99.632 60.7453 99.76 60.9293 99.92C61.1053 100.088 61.2573 100.284 61.3853 100.508C61.5213 100.732 61.6253 100.976 61.6973 101.24C61.1133 101.464 60.5333 101.688 59.9573 101.912C59.3813 102.128 58.8013 102.348 58.2173 102.572C58.3533 102.812 58.5413 103.004 58.7813 103.148C59.0213 103.292 59.2973 103.364 59.6093 103.364C59.8253 103.364 60.0253 103.328 60.2093 103.256C60.3933 103.176 60.5533 103.064 60.6893 102.92L61.1573 103.46ZM66.5727 105.656C66.5727 106.008 66.4687 106.304 66.2607 106.544C66.0527 106.784 65.7607 106.904 65.3847 106.904C65.1287 106.904 64.8927 106.836 64.6767 106.7C64.4687 106.564 64.3167 106.352 64.2207 106.064L64.6647 105.848C64.7047 105.992 64.7807 106.108 64.8927 106.196C65.0127 106.284 65.1567 106.328 65.3247 106.328C65.5327 106.328 65.6967 106.256 65.8167 106.112C65.9367 105.976 65.9967 105.804 65.9967 105.596C65.9967 105.42 65.9487 105.28 65.8527 105.176C65.7647 105.08 65.6647 104.996 65.5527 104.924C65.4487 104.844 65.3487 104.76 65.2527 104.672C65.1647 104.584 65.1207 104.472 65.1207 104.336V104.036C64.8487 103.988 64.5927 103.896 64.3527 103.76C64.1207 103.624 63.9207 103.452 63.7527 103.244C63.5767 103.044 63.4407 102.816 63.3447 102.56C63.2487 102.304 63.2007 102.032 63.2007 101.744C63.2007 101.424 63.2607 101.12 63.3807 100.832C63.5007 100.544 63.6687 100.296 63.8847 100.088C64.1007 99.872 64.3527 99.704 64.6407 99.584C64.9287 99.456 65.2407 99.392 65.5767 99.392C65.8647 99.392 66.1367 99.44 66.3927 99.536C66.6487 99.624 66.8807 99.748 67.0887 99.908V101.204H66.3927V100.352C66.2727 100.28 66.1447 100.228 66.0087 100.196C65.8727 100.156 65.7287 100.136 65.5767 100.136C65.3447 100.136 65.1327 100.176 64.9407 100.256C64.7487 100.328 64.5767 100.436 64.4247 100.58C64.2807 100.724 64.1647 100.896 64.0767 101.096C63.9967 101.296 63.9567 101.512 63.9567 101.744C63.9567 101.984 64.0007 102.208 64.0887 102.416C64.1847 102.624 64.3127 102.8 64.4727 102.944C64.6087 103.072 64.7727 103.176 64.9647 103.256C65.1567 103.328 65.3607 103.364 65.5767 103.364C65.7767 103.364 65.9647 103.336 66.1407 103.28C66.3167 103.216 66.4727 103.124 66.6087 103.004L67.0647 103.58C66.8727 103.732 66.6487 103.856 66.3927 103.952C66.1367 104.048 65.8727 104.096 65.6007 104.096C65.6007 104.288 65.6567 104.424 65.7687 104.504C65.8807 104.584 65.9927 104.66 66.1047 104.732C66.2727 104.86 66.3927 105 66.4647 105.152C66.5367 105.312 66.5727 105.48 66.5727 105.656ZM72.6031 103.4C72.3871 103.616 72.1311 103.788 71.8351 103.916C71.5471 104.036 71.2391 104.096 70.9111 104.096C70.5751 104.096 70.2631 104.036 69.9751 103.916C69.6871 103.788 69.4351 103.616 69.2191 103.4C69.0031 103.192 68.8311 102.948 68.7031 102.668C68.5831 102.38 68.5231 102.072 68.5231 101.744C68.5231 101.424 68.5831 101.12 68.7031 100.832C68.8311 100.544 69.0031 100.292 69.2191 100.076C69.4351 99.868 69.6871 99.704 69.9751 99.584C70.2631 99.456 70.5751 99.392 70.9111 99.392C71.2391 99.392 71.5471 99.456 71.8351 99.584C72.1311 99.704 72.3911 99.868 72.6151 100.076C72.8231 100.292 72.9871 100.544 73.1071 100.832C73.2351 101.12 73.2991 101.424 73.2991 101.744C73.2991 102.072 73.2351 102.38 73.1071 102.668C72.9871 102.948 72.8191 103.192 72.6031 103.4ZM69.7591 102.884C69.9031 103.036 70.0711 103.156 70.2631 103.244C70.4551 103.324 70.6631 103.364 70.8871 103.364C71.1111 103.364 71.3191 103.324 71.5111 103.244C71.7111 103.156 71.8871 103.036 72.0391 102.884C72.1831 102.74 72.2951 102.572 72.3751 102.38C72.4631 102.188 72.5071 101.98 72.5071 101.756C72.5071 101.532 72.4631 101.324 72.3751 101.132C72.2951 100.932 72.1831 100.756 72.0391 100.604C71.8871 100.46 71.7111 100.348 71.5111 100.268C71.3191 100.18 71.1111 100.136 70.8871 100.136C70.6631 100.136 70.4551 100.18 70.2631 100.268C70.0711 100.348 69.9031 100.46 69.7591 100.604C69.6071 100.756 69.4871 100.932 69.3991 101.132C69.3191 101.324 69.2791 101.528 69.2791 101.744C69.2791 101.976 69.3191 102.188 69.3991 102.38C69.4871 102.572 69.6071 102.74 69.7591 102.884ZM72.4711 98.324C72.3751 98.412 72.2671 98.476 72.1471 98.516C72.0271 98.556 71.9071 98.576 71.7871 98.576C71.6111 98.576 71.4471 98.54 71.2951 98.468C71.1511 98.396 71.0151 98.296 70.8871 98.168C70.7591 98.04 70.6511 97.956 70.5631 97.916C70.4751 97.868 70.3751 97.844 70.2631 97.844C70.1911 97.844 70.1111 97.86 70.0231 97.892C69.9351 97.916 69.8511 97.96 69.7711 98.024C69.7231 98.072 69.6791 98.128 69.6391 98.192C69.6071 98.256 69.5871 98.336 69.5791 98.432L69.1471 98.396C69.1551 98.244 69.1951 98.108 69.2671 97.988C69.3391 97.86 69.4231 97.756 69.5191 97.676C69.6231 97.588 69.7351 97.524 69.8551 97.484C69.9751 97.436 70.0951 97.412 70.2151 97.412C70.3911 97.412 70.5511 97.448 70.6951 97.52C70.8391 97.592 70.9751 97.696 71.1031 97.832C71.2311 97.96 71.3391 98.048 71.4271 98.096C71.5231 98.136 71.6271 98.156 71.7391 98.156C71.7951 98.156 71.8591 98.148 71.9311 98.132C72.0031 98.116 72.0751 98.084 72.1471 98.036C72.2111 97.996 72.2671 97.94 72.3151 97.868C72.3711 97.788 72.4071 97.688 72.4231 97.568L72.8431 97.604C72.8351 97.756 72.7951 97.896 72.7231 98.024C72.6591 98.144 72.5751 98.244 72.4711 98.324ZM77.1124 100.136C76.8484 100.136 76.6084 100.188 76.3924 100.292C76.1844 100.388 76.0044 100.524 75.8524 100.7C75.7324 100.852 75.6404 101.028 75.5764 101.228C75.5124 101.428 75.4924 101.64 75.5164 101.864C75.9724 101.688 76.4244 101.512 76.8724 101.336C77.3284 101.16 77.7844 100.988 78.2404 100.82C78.1124 100.612 77.9524 100.448 77.7604 100.328C77.5684 100.2 77.3524 100.136 77.1124 100.136ZM78.6604 103.46C78.4604 103.66 78.2284 103.816 77.9644 103.928C77.7084 104.04 77.4244 104.096 77.1124 104.096C76.7844 104.096 76.4724 104.036 76.1764 103.916C75.8884 103.788 75.6404 103.62 75.4324 103.412C75.2164 103.196 75.0444 102.948 74.9164 102.668C74.7964 102.38 74.7364 102.072 74.7364 101.744C74.7364 101.424 74.7964 101.12 74.9164 100.832C75.0444 100.544 75.2164 100.292 75.4324 100.076C75.6404 99.868 75.8884 99.704 76.1764 99.584C76.4724 99.456 76.7844 99.392 77.1124 99.392C77.3604 99.392 77.5964 99.44 77.8204 99.536C78.0444 99.632 78.2484 99.76 78.4324 99.92C78.6084 100.088 78.7604 100.284 78.8884 100.508C79.0244 100.732 79.1284 100.976 79.2004 101.24C78.6164 101.464 78.0364 101.688 77.4604 101.912C76.8844 102.128 76.3044 102.348 75.7204 102.572C75.8564 102.812 76.0444 103.004 76.2844 103.148C76.5244 103.292 76.8004 103.364 77.1124 103.364C77.3284 103.364 77.5284 103.328 77.7124 103.256C77.8964 103.176 78.0564 103.064 78.1924 102.92L78.6604 103.46ZM83.5119 103.592C83.3999 103.736 83.2439 103.856 83.0439 103.952C82.8519 104.048 82.6079 104.096 82.3119 104.096C82.0399 104.096 81.7719 104.064 81.5079 104C81.2519 103.928 81.0359 103.804 80.8599 103.628V102.656H81.5439V103.196C81.6639 103.268 81.7839 103.312 81.9039 103.328C82.0319 103.344 82.1759 103.352 82.3359 103.352C82.4239 103.352 82.5119 103.34 82.5999 103.316C82.6879 103.292 82.7719 103.252 82.8519 103.196C82.9079 103.148 82.9559 103.088 82.9959 103.016C83.0359 102.936 83.0559 102.84 83.0559 102.728C83.0559 102.552 83.0079 102.42 82.9119 102.332C82.8239 102.236 82.7039 102.16 82.5519 102.104C82.3999 102.04 82.2319 101.984 82.0479 101.936C81.8719 101.88 81.7039 101.808 81.5439 101.72C81.3919 101.632 81.2639 101.512 81.1599 101.36C81.0559 101.2 81.0039 100.984 81.0039 100.712C81.0039 100.48 81.0479 100.284 81.1359 100.124C81.2239 99.956 81.3359 99.82 81.4719 99.716C81.6079 99.612 81.7599 99.536 81.9279 99.488C82.0959 99.432 82.2519 99.404 82.3959 99.404C82.4839 99.404 82.5799 99.412 82.6839 99.428C82.7959 99.444 82.9119 99.472 83.0319 99.512C83.1439 99.552 83.2519 99.6 83.3559 99.656C83.4679 99.712 83.5639 99.784 83.6439 99.872V100.844H82.9599V100.268C82.8799 100.228 82.7959 100.2 82.7079 100.184C82.6199 100.16 82.5239 100.148 82.4199 100.148C82.3319 100.148 82.2439 100.16 82.1559 100.184C82.0759 100.208 82.0039 100.24 81.9399 100.28C81.8839 100.336 81.8399 100.4 81.8079 100.472C81.7759 100.544 81.7639 100.628 81.7719 100.724C81.7799 100.86 81.8359 100.968 81.9399 101.048C82.0519 101.128 82.1839 101.196 82.3359 101.252C82.4879 101.316 82.6519 101.384 82.8279 101.456C83.0039 101.52 83.1639 101.6 83.3079 101.696C83.4599 101.8 83.5839 101.932 83.6799 102.092C83.7759 102.252 83.8239 102.46 83.8239 102.716C83.8239 102.836 83.7999 102.976 83.7519 103.136C83.7039 103.296 83.6239 103.448 83.5119 103.592Z" fill="#2D1C01"/>
<path d="M59.5042 15.257C73.2598 13.9151 84.7669 24.8058 83.6527 38.7109C83.193 44.4893 79.5205 52.0902 76.7424 57.1876C72.5853 64.8186 67.3589 71.999 62.1574 78.934C61.8426 79.0141 60.5985 77.4168 60.3037 77.0613C52.519 67.6727 40.3174 49.3112 40.2624 36.9333C40.2125 26.0977 48.6417 16.3186 59.4992 15.257H59.5042ZM60.0039 20.7349C49.4911 21.8165 43.1554 33.1228 46.9428 42.8919C51.5047 54.6439 67.6836 56.752 75.0636 46.5372C83.4678 34.9104 74.1692 19.2778 59.9989 20.7349H60.0039Z" fill="#51402E"/>
<path d="M61.5528 31.6157H62.0424C63.7662 28.0755 68.8527 28.4861 71.0962 31.3903C76.0978 37.8797 65.615 44.7797 61.8925 49.0308C61.5927 49.0909 61.4828 48.8255 61.2979 48.6853C59.2144 47.083 52.8837 40.4534 51.8994 38.1801C50.915 35.9069 50.8901 33.4884 52.504 31.3903C54.7424 28.4861 59.8289 28.0755 61.5577 31.6157H61.5528Z" fill="#51402E"/>
</svg>
