<?xml version="1.0" encoding="UTF-8"?>
<svg id="OBJECTS" xmlns="http://www.w3.org/2000/svg" viewBox="0 0 248.17 179.74">
  <defs>
    <style>
      .cls-1 {
        fill: #51402e;
      }
    </style>
  </defs>
  <path class="cls-1" d="M191.15,112.68c-.53-.07-.28.68-.3,1.05-.19,4.56.1,9.09.56,13.61-.73.38-1.81.23-2.48.66-.77.49-.74,2.49-2.26,1.32-.38-.29-1.67-1.89-.31-1.5-1.34-3.9-.28-8.33-.6-12.44l.59.6c.32-1.22.36-2.19.03-3.41,1.24-5.62-.26-11.15.8-16.9.11-.58-.02-.36-.53-.38-1.01,7.19-3.16,14.28-3.01,21.59l-.59-3.3.27,10.67c.9.97.76,2.65,1.02,4.08.11.61.83,2.87.78,3.05-.4,1.36-2.2.03-2.68.32-.67.41-.54,2.61-1.38,2.85-1.44.33-1.08-2.06-1.77-2.38l-.75.9c-.34-1.45-.66-2.9-.86-4.39-.96-7.05-1.29-11.93-.29-19.1.66-4.71,2.12-9.28,2.65-13.99-1.34-.63-1.92,1.05-2.23,1.1-.24.04-.8-.27-1.22-.23-.75.07-1.59.37-2.26.17-.02-.69.57-.64,1.03-.77.7-.19,4.72-.93,4.94-.55l.18,2.37,1.65-1.95-.6-.45c.58-.09,1.37.14,1.89,0,.29-.08.26-.65.71-.84.17-.08,3.34-.96,3.53-.99.98-.13,2.24.14,3.27.01.55.13.13,1.53,1.1,1.21-.57-2.65,3-2.14,4.8-2.7.15.9-.22.48-.73.61-.68.16-2.32.16-2.53.78-.25.73.03,2.52-.08,3.52-.33,3.17-1.5,6.55-1.76,9.64-.32,3.88.47,8.56,0,12.3-.07.55.1.48-.6.44v-6.6ZM192.35,101.58c.02-2.6,1.75-5.67.45-8.09-.73-.14-.43.58-.45,1.04-.07,1.73-.18,3.4-.3,5.1-.03.41-.26,1.85.29,1.95ZM191.45,104.74c.12-1.62-.09-3.32,0-4.95l-.8,7.06.49.44c-.29-.89.25-1.92.3-2.55ZM177.96,117.48l.6-10.19-.82,3.23-.68,6.97h.9ZM177.66,118.98c-.39-.49-.54.04-.6.44-.2,1.49.36,2.89.3,4.35.7.04.53.1.6-.44.18-1.38-.33-2.96-.3-4.36Z"/>
  <path class="cls-1" d="M193.25,81.79c.37-.49.54,0,.6.44.16,1.28-.3,3.77.04,4.77.14.41.78.38.87.7.18.69-.22,1.51-.31,2.19l1.17.28c.2-1.26,1.81-1.73,2.43-.58h-1.5c.8,1.59,1.96,0,3.3.31l-.9,1.19h1.8s-.6-.9-.6-.9h.9c-.39,2.28,2.69,1.87,1.32.02-.34-.47-1.23-.51-1.03-1.52-.97.98-1.78,1.17-3.01.41l.02-3.11.87.5.07,2.46,1.16.04-.31-3.59c-.28-.25-2.24.74-1.79-.15.68-1.33,3.21,0,2.84,1.64,1.01-.91.07-2.16-.45-2.99,2.43-.2.35,4.23,1.28,5.02,1.59,1.35,1.75-1.84,1.37-2.28-.15-.18-1.1.01-1.15-.64,3.52-.56.4,4.58.9,5.09.84-.3,1.75.1,2.52,0,.56-.08.99-.51,1.55-.59,1.12-.16,2.26.75,2.71-.9.21-.77-1.08-1.76-1.39-1.5.21.41.34,1.67-.3,1.79l-.76-2.99c-1.04-.08-.05,1.47-.12,1.9-.05.3-.64.28-.79.49-.28.38.65,1.71-.29.91.26-1.21-.77-1.55-.92-2.07-.17-.61-.34-2.56.15-2.9l1.03-.15c.53.74.38,1.02,1.39.62l-.3.9,1.03.02c.57-.45.06-2.16.92-2.12,2.21.09,1.14,1.61,1.35,3.31h2.4s-.9.75-.9.75l1.2-.15-.9,1.2,1.34-.3-.15-.6.6.6,1.2-.6c.03.75-.03,1.5,0,2.25.02.36-.23,1.11.3,1.04.13-.92.77-3.85-.49-4.16-.35-.09-.8.25-1.12.19-.4-.07-.83-.86-1.37-1-.45-.12-.89,1.01-1.51.03.73-.79,2.23-.64,2.84.15l.28-.56.9.26.47-.74-1.49.15c-.74-1.27,2.45-2.21,1.84.86l2.06.34-1.2.3.9,1.8,1.19-.6c.02.49-1.16,1.28-1.19,1.41-.44,2.08,0,8.35.43,10.59.52,2.67,2.75,6-1.04,7.19-.04-.97,1.31-1.07,1.65-1.8.66-1.42-1.35-4.53-1.35-5.84v-10.8l-1.06-.16-.44,3.01c-1.42.03-.62-1.61-1.04-2.4-.25-.46-.61-.17-.71.2-.21.82-.65,4.21-.65,5.07-.01,1.14,1.11,7.15.61,7.63-1.05.28-3.1-1.28-1.95-2.09l.89.6c1.13-.21-.06-4.6-.1-5.53-.05-1.11,1.07-6.22.85-6.47-.6-.32-3,1.76-3,1.95v6.15c-.42.05-.58-1.17-.58-1.4,0-.82.32-1.53.31-2.35-.03-1.19-.84-2-.33-3.15-.25-.24-2.48.62-2.4,1.35l.05,18.25.68.48,3.18-.43c.24,1.2-.83.53-1.67,1.03-.9.54-1.08,1.89-1.93,2.42-1.24-5.36-.88-10.89-.92-16.36,0-.71.33-1.36.32-2.07-.01-1.19-.64-2.8-.61-4.06-.8.19-2,.23-2.3,1.09l-.41,13.76c.39,1.26.18,2.59.35,3.85.24,1.79,1.01,3.66,1.16,5.44.03.33.24,1.39-.29,1.34-.22-2.89-1.32-5.63-1.51-8.53-.37-5.53.31-11.15.31-16.65l-2.84,1.2-1.36,13.96.91,10.72,1.36,1.11c.77.34.31-1.06.44-1.2.6.17,2.13-.38,2.4.3-1.2-.26-.76.51-1.06.88-.53.66-2.11.8-2.84.32.42,2.43-1.65,1.99-3.3,2.7l.2-.9c.72-.01,2.44-.07,2.51-1.05l-.93-10.19c-.2-5.99.38-11.91.91-17.86-5.29-.8-2.65,8.04-3.3,11.24l-.59,5.55c.33-5.64-.15-11.58.9-17.09-1.96.29-3.43-1.97-5.1-.45l.9.75c-.72-.24-4.62-.6-4.79-1.05-.23-.6.37-.46.74-.44,1.04.04,2.07.7,3.15.6l-1.49-1.05,1.19-.14c.28-1.66.68-4.05-1.8-3.6-.02.75.03,1.51,0,2.25-.02.36.23,1.11-.3,1.04v-3.6s2.7.3,2.7.3v-4.2ZM210.34,88.09c.09-.5.61-3.22-.44-2.99-.59.55-.93,2.23-.48,2.82l.91.18ZM193.25,90.19c.61.7,2.26-3.1,0-2.25v2.25Z"/>
  <path class="cls-1" d="M81.4,94.69c-.69-.15.08-1.56-.77-1.76-.41-.1-3.72.84-3.72,1.31.83.86.83,4.62.53,5.64-.37,1.26-3.14.96-3.24,1.11-.44.69.77.64.87,1.06l-.27,2.23c-.97-.21-.39-1.77-.64-2.06-.11-.13-1.02-.04-1.16-.5-.31-1.04,1.55-1.68,1.5-1.79-1.4-.64-1.85-1.19-2.57-2.51-1.36.67-3.51-.37-4.33.86,2.23-.05,5.76,1.39,2.56,3.31-1.73,1.04-3.7.41-5.55.3.24.65,1.2.38.9,1.49-.52.05-.98.03-1.48-.16-.21-.08-3.62-2.36-3.77-2.53-.18-.2-.3-.54,0-.61l2.25.89c.1-.47-.55-.28-.75-.59-.22-.34-.14-.82-.15-1.21-2.86.71-5.93.05-8.84.31-1.38.12-2.86.7-4.24.85-2.37.27-4.76.41-7.14.64l-.77-.45.62-.33c-.64-3.59-1.22-7.29-.79-10.93.49-.69,2.21,0,3.01.03,3.19.1,6.44-.21,9.61-.62-.14.99-2.18.57-3,.6-.36.01-1.12-.22-1.04.3,2.6.69,4.81.95,7.5.91.09.73,0,.48-.42.63-2.79,1.04-5.68-1.02-8.47-1.2l-7.01-.34,1.2,10.5c5.76-.23,11.21-1.79,17.09-1.2-.03-.75-.58-1.12-.62-1.95-.05-.98.54-2.17.63-3.29.07-.86.04-4.99-.8-5.24-.73-.02-2.31.8-2.81-.02,1.15.19,3.01-1.05,3.68.37.7,1.5.31,6.65-.05,8.44l.28,1.67,5.71-1.39c-.74-2.94-1.2-5.71-1.46-8.74-.03-.34-.14-.59.24-.81.79-.63,4.68-.54,5.86-.46s2.16.63,3.24.59c2.66-.1,5.34-2.37,8.24-1.42,0,.31.35.84.35.99v7.05ZM81.1,92.59v-4.35c0-3.24-6.2.52-7.8.15-.04.7-.1.53.45.6.89.11,1.94-.08,2.85,0-.89.99-3.36,1.06-4.58.82-.94-.18-1.91-.95-3.06-1.14-.66-.11-3.97-.38-4.52-.29-.47.07-.46-.18-.45.46.01,1.01,1.11,8.46,1.7,8.57l6.4-.32.3-3c1.71-.19,4.5.26,4.98-1.82l3.71.32ZM75.96,94.73h-2.93c-.61,2.34-.28,4.74,2.68,4.28l.43,1.08c.99-.55.21-5.1-.19-5.36ZM70.9,100.09c-.86-.27-1.47-.82-2.38-1.07-1.66-.45-5.18-.88-5.99.92,2.25,1.61,6.55,2.78,8.37.15Z"/>
  <path class="cls-1" d="M103.89,27.82c-.07,1.78,1.99,3.4-1.2,2.39-.14-.94.69-.24.62-1.33-.11-1.83-1.63-.79-2.86-.75-13.58.41-27.8-.44-41.41-.9-.71-.02-1.37-.31-2.07-.32-2.5-.07-5.02.11-7.51.01-.37-.01-1.12.23-1.05-.3l34.62.91c6.79.31,13.65-.32,20.39-.33,14.8-.03,29.62.15,44.38.33,19.39.23,38.97,1.12,57.89-3.91.49.37-.27.33-.51.39-4.74,1.3-9.49,2.57-14.44,2.96l-.47.44c1.3,3.71-2.2,2.57-1.22.93.19-.32.88-.14.6-1.11l-16,.94-.36.57.16,1.3.91.19v1.49c-1.43-.18-1.33-2.27-1.63-3.31l-.61-.29-20.06.03c-1.29.2-1.9.44-1.69,1.88.01.08,1.51.57.16.79-1.22-.16-.27-1.78-.48-2.5l-.42-.5h-21.44c.04.51-.12,1.14.04,1.62.18.52,1.58.45.4,2.29l-1.64-.61c-.29-.84.71-.53.88-1.08.19-.61-.42-1.53-.28-2.21h-23.69Z"/>
  <path class="cls-1" d="M124.88,132.78l.6.45c-.49.76-1.06.13-1.79.15l-.32,3.1c2.43.5,2.32,1.17-.14,1.68l-.39,3.26,5.28,2.06,5.76,1.58c-3.18.45-6.92-2.23-9.83-2.33-2.1-.07-1.58,1.84-1.53,3.34l1.76.94c-1.85.26-1.31,2.43-1.2,3.75.89.28.35-.98,1.34-.6.45.17.52.76.45,1.19l-2.43.49c-.84,1.68-.73,3.71-.26,5.51.98.29.37-.8.74-.91.29-.08,1.3-.16,1.05.46-.54.63-1.02,1.2-1.94,1.07-.09-.02-.66-1.53-.69-1.73-.49-3,1.57-5.77,1.46-8.94,0-.19-1.02-1.44-.96-2.99.12-3.27,1.18-7.09,1.25-10.51,0-.4-1.37-1-.59-2.2,2.34-.28,4.19.95,6.51,1.38,2.66.5,7.16,1.15,9.81,1.28,1.32.06,2.45-.09,3.73-.31v-2.68c-.16-.18-3.34.61-4.03.62-.39,0-1.82-.11-1.95-.62,2.01.41,3.79-.27,5.8-.35l.45-.45v-5.31c-.25-.75-1.92-.64-1.76-1.69l1.51-.5.29-14.04,1.49-6.45c.26,2.01-.64,3.93-.86,5.88-.86,7.64.01,15.4-.35,23.04-.17,3.63,1.5,4.44-3.73,4.06-2.94-.21-6.22-1.51-9.05-1.78-.71-.07-1.26.34-1.98.23-.94-.14-2.35-1.29-3.52-1.15Z"/>
  <path class="cls-1" d="M169.56,133.37l-3.3-.9c.1,1.72-.42,3.16-.26,4.91.22,2.46,1.38,5.17,2.05,7.55-.02.87-1.4,1.11-2.09,1.03l1.52-1.4c-.79-2.53-1.98-5.68-1.95-8.35.02-1.74.67-3.89.74-5.68.21-5.01-.27-10.34,0-15.3.31-5.86,1.53-11.71,2.09-17.54l-5.7.75,6.3-1.35-.3,3.6,1.88-.3.82-3.59c-.05,1.95.08,3.91.02,5.86-.19,6.12-1.3,13.11-.62,19.19.05.42.35,1.48.59,1.75s1.47.11.92.78c-.06.07-1.39,1.07-1.48,1.1-.51.13-.77,0-1.21-.19.23,4.7.84,9.36.59,14.09-.19.02-.6-.4-.6-.45v-5.55ZM170.76,100.69c-.78.06-2.06-.01-2.27.87-.26,3.57-1.04,7.12-1.33,10.68-.06.7-.31,5.32-.16,5.55.4.64,2.3-.8,3.16-.31l-3.26,1.39v4.71s1.91,1.4,1.91,1.4c.66-.92-.45-.91-.72-1.37-.34-.58-.3-1.34-.63-1.93,1.38-.23,1.51,1.19,2.03,2.01.19.3-.03.53.67.38l.6-23.39ZM167.64,125.7c-.14-.11-.72-.49-.78-.42-.63,1.4.06,3.45,1.8,2.25,1.22-.84-.39-1.13-.69-1.35-.17-.13-.22-.39-.34-.48ZM169.26,128.87c-1.91-.15-3.09.24-2.69,2.39l2.68.91v-3.3Z"/>
  <path class="cls-1" d="M103.29,100.24c-.19,1.37-1.57,2.81-.43,4.33.41.54,1.42.43.72,1.52l3.3,1.2c-.92.06-1.83-.16-2.69-.45-1.51-.52-2.77-1.59-4.2-2.24-.01.42-.05.86.07,1.27s1.88,2.23.67,2.03c-.96-.16-.9-1.05-1.09-1.17-.45-.26-1.54.76-2.05-.19l1.15-.49.37-1.57c-1.67-.58-2.02-1.76-1.82-3.48l.88,2.26,1.21.44.3-3.6c-.99.29-2.63-.31-3.4-.21-.15.02-2.73,1.08-2.83,1.19-.15.16.03.64-.24.84-1.9,1.43-7.92-1.94-7.62-3.47.22-1.12,3.09.85,3.6-.31.24-.54-1.64-1.02-2.02-1.27-.54-.34-.42-.28-.37-.98l3.29,1.8c-.02-.84.06-1.7,0-2.55-.1-1.45-1.54-4.87.89-4.34.07,2.15,1.72,5.39-.58,6.73l1.19.48c-.38,1.71,1.51,2.55,3.06,1.98s2.28-2.01,4.16-1.53l.58-2.43,3.01-.44c-.41.93-1.76.45-2.53.86-.31.22-.26,1.57-.13,1.95.14.42.83.39.88.68.1.58-.77,1.97-.18,2.81l1.93-.33c.52-1.58.18-3.27.49-4.88.06-.32-.18-.69.44-.79-.13,1.37.18,3.02,0,4.35ZM92.79,100.99c-3.2.69-3.71-2.78-6.6-2.4-.58.43,4.09,4.01,6.22,3.08.43-.19.46-.08.38-.68Z"/>
  <path class="cls-1" d="M108.77,156.38c.73.87,3.33,1.46,4.46,1.41,2.63-.13,3.57-2.4,6.25-1.93.38-1.46-.82-2.05-1.32-3.03-.99-1.93-2.01-4.09-2.28-6.26.81.76.96,2.17,1.45,3.2.9,1.9,2.29,3.49,3.07,5.35-.04,1.71-1.46,1.13-2.44,1.49s-1.66,1.09-2.75,1.45c-2.93.97-7.09.07-7.74-3.39-1.65.13-2.84,3.01-4.71,2.2-.21-.09-2.12-2.31-2.71-2.79-.41-.33-2.11-1.18-2.17-1.42l7.65-33.37c.01,4.18-.92,8.76-1.8,12.9-1.39,6.56-3.38,13.01-5.52,19.35.06,1.46,1.53,1.44,2.35,2.11.62.51,2.15,2.35,2.63,2.49,1.4.39,2.36-2.34,4.12-2.07,1.14.18.9,1.67,1.45,2.33Z"/>
  <path class="cls-1" d="M91.89,79.1v6.15c0,.08-.6.61-.15.75,1.08-.4,2.2-.19,3.26-.34,2.41-.34,5.02-1.64,7.38-.42-.66.46-1.55-.16-2.23-.13-1.11.05-3.02,1.04-4.35.9l-.58,4.91-1.83.18c.25,1.23,1.94,2.66,1.36,3.89-.21.45-.89.55-1.05,1.36-.2.98.11,1.91.29,2.84-1.21-.32-1.19-4.28-.88-5.17.09-.26.88-.48.81-.99-.04-.3-.77-.67-.96-1.07-.29-.58-.55-2.03-.84-2.31-.65-.63-2.5.12-2.88-1.78-.36-1.8.89-.65,1.45-1.58l-2.7-.3.6.59-4.15.04c-.98.62.8,6.08.87,7.3.03.63.23,1.25-.61,1.06-.25-2.87-1.3-5.49-.91-8.5.17-.73,3.26-.46,3.91-.5.08-.59-.48-.77-.59-1.36-.3-1.63.25-3.23-.91-4.94,1.86-.55,3.75-.71,5.7-.6ZM91.59,79.69l-4.2.3c.8,3.04-1.11,6.45,3.58,5.98l.61-6.28ZM94.56,90.46l.62-3.13c-.44-.73-.93-.06-1.63-.11s-1.27-.32-1.94-.33c-.87,2.51-.11,1.64.76,2.36.41.34.39,1,.71,1.4l1.49-.2Z"/>
  <path class="cls-1" d="M38.51,101.89l-.62,1.34c0,.15.49.14.54.23.6,1.05-5.8,20.17-6.43,23.26l-2.48,17.76c-.42-3.07.85-6.52.92-9.45.26-10.22,3.5-22.09,6.67-31.99.23-.71.55-1.37,1.4-1.14Z"/>
  <path class="cls-1" d="M155.76,98.59c.34,1.33.44,2.37-.3,3.6l3.6-.6v.9c-.6-.51-3.12.11-3.6.45-.6.43-2.39,7.3-2.61,8.48-.61,3.33-.77,6.7-.71,10.09l.92.31-.92.31c.29,1.45-.51,6.21.45,7.05.66.57,2.21.59,2.88,1.62.63.96,1.38,5.56,1.5,6.9.26,2.94-.34,6.17.02,8.98.12.89.13,1.62,1.16,1.38l-.17.61-1.17.3c-1.18-3.31.24-6.91-.6-10.2l-4.05-1.79c-.03.85.03,1.7,0,2.55-.01.36.23,1.12-.3,1.04.28-1.22-.28-2.72-.27-3.78,0-2.18.29-4.31.26-6.85-.08-7.37-.6-15.33,1.3-22.42.71-2.65,2.59-5.98,2.08-8.55-.11-.58.03-.36.53-.38ZM155.47,133.37c-.22-2.05-.92-3.08-3-3.59v3.3s2.4-.6,2.4-.6l-.9.89h1.5ZM155.42,134.02l-2.94-.03-.34,2.21,4.22,1.97c-.05-1.92-2.13-1.28-3.3-2.25.09-1.19,2.31.56,2.69.15l-.34-2.06Z"/>
  <path class="cls-1" d="M208.54,26.92l-2.49,1.55c-12.72,6.36-26.15,11.18-40.08,14.2-3.29.71-6.88,1.42-10.21,1.64v1.2c-.84.17-.55-.29-.61-.88l-11.38,1.47c10.44,1.27,20.86,3.18,31.34,4.2,14.33,1.39,33.77,2.33,47.46-2.32.96-.33,5.26-2.49,5.58-2.42,1.05.2,2.31,5.32.33,5.63l-1.04-.89v-.59s1.05.59,1.05.59c.93-.06.19-3.85-.3-4.49-4.59,3.11-10.78,4.27-16.24,5.05-7.42,1.06-15.26,1.15-22.77.96-.51-.01-.88-.1-1.33-.32-.19,2.37.13,4.48,1.2,6.59l-1.5.3c.45-.75-.48-.94-.62-1.65,1.25-1.22-.03-3.04.27-4.75l-.45-.45c-12.76-.68-25.36-2.63-38-4.28-2.15-.28-4.46-1-6.64-1.16-3.16-.23-6.29.29-9.44.29l2.25-.59h2.54s-1.2-.6-1.2-.6c6.61.66,13.35-.24,19.89-1.25,15.81-2.46,31.2-7.35,45.68-13.99,2.19-1.01,4.42-2.39,6.69-3.05Z"/>
  <path class="cls-1" d="M101.19,157.96c.02-.97-.57-1.46-1.5-1.5l.45-.59c4.11,2.61-.54,2.88-3.01,2.7-1.6-.11-3.89-1.16-5.34-.31-.2.12-.17.62-.36.62-.44,0-1.12-.6-1.64-.76-1.59-.5-3.96-.87-5.36-1.53-1.15-.55-2.74-2.74-3.49-2.82-1.55-.16-3.82,2.28-5.16,2.63-2.2.57-5.94-1.48-8.42-1.93-4.4-.8-8.08.2-10.85-4.29,1.5.46,2.48,2.3,3.89,2.85,1.87.73,5.27.43,7.56.83s5.43,2.08,7.44,1.57c1.86-.47,3.22-2.7,5.52-2.54,1.61.11,2.49,1.97,3.68,2.62,1.26.68,2.66.52,3.92.87.89.25,2,1.14,2.68,1.25.74.12,1.49-.31,2.32-.28,2.43.11,5.04,1.08,7.65.62Z"/>
  <path class="cls-1" d="M114.08,97.69c-1.07-.22-1.59.12-2.71-.74-1.4-1.06-1.09-2.73-1.2-2.85-.1-.1-.83.07-1.19-.16-.8-.51-1.2-7.31-.75-8.26.57-1.19,2.96-.89,4.05-.9-.75,1.39-3.37-.29-3.74,1.46l.73,7.04,1.01.21.5-.77c-.98-.24-.55-1.08-.6-1.94l1.5.3v-3.14s.6-2.55.6-2.55v5.85c0,.93,2.06,1.18,2.1,2.25l-2.71.44c-1.18.79.82,3.1,2.81,2.56.27-.07.09-.8.64-.6l1.05,1.05-2.1.75c1.7.35,1.05.65,1.9,1.39,1.57,1.36,3.36,2.49,4.69,4.16l-1.2.45c.2,1.02.69,1.81-.14,2.71-1.86,2.03-8.21,1.02-10.52,0-.59-.26-1.96-1.39-2.09-1.41-.72-.08-1.45,1.12-2.57.06s-.96-3.39-.13-4.66c.75-.14.4.59.43,1.05.06.73.2,1.53,0,2.24,1.73.3,2.23-1.74,2.55-3l.3.91c2.28-.65,4.34-.15,6.59.02.8.06,1.31-.25,1.83-.29.16-.01.13.45.34.56,1.34.7,2.78,1.71,4.28,1.5l-4.51-3.73-1.5-.3-.28-1.67ZM110.18,101.89c-3.52-.25-4.64,2.06-1.19,3.74,2.19,1.07,5.81,1.37,8.22,1.04s2.61-2.54.31-3.28c-.28,1.08-1.68.52-2.66.56l-.78-1.61c-.81-.39-4.47-.21-3.6.75l3.6.6c-1.37,0-2.86.22-4.07-.58l.18-1.21Z"/>
  <path class="cls-1" d="M146.77,154.66l-.9-.3.35-.85c1.52.16,2.27-.38,3.55-.95l-4.57,3.67-1.24.25-1.99-6.02c-.71.27-1.53,1.09-2.3,1.13s-1.28-.98-2.02-.85c-.26.04-.23,1.22-1.48.94-.63-1.4-1.71-2.27-3.34-2.11-.95.09-1.87,2.11-2.7,2.11-.98.06-.57-1.65-1.22-1.78l-3.43,1.02c1.29-.83,3.79-2.8,4.51-.46h.43c.83-1.03,2.83-2.15,4.18-2.08,1.68.09.95,1.44,1.83,2.39l1.49-.9c.62,0,1.08,1.01,2.04.86.72-.11,2.54-2.4,2.91-.4.11.62-.34,1.97.3,2.25.12-3.51-.14-7.09,0-10.65.02-.36-.23-1.11.3-1.04.19,3.45.13,6.91.29,10.36.03.65.28,1.2.32,1.8.07.92-.64,1.98.44,2.83l2.25-1.2Z"/>
  <path class="cls-1" d="M105.69,110.58c-.73-.04-1.52.1-2.23-.01-9.6-1.53-19.64-1.21-29.37-2.42-6.93-.86-13.38-2.98-20.39-3.3l-9.49-2.06c7.06,1.52,14.29,1.94,21.42,3.02.77.12,1.58.65,2.5.79,10.94,1.72,21.57,2.2,32.57,2.51,1.24.04,4.11.56,4.98,1.46Z"/>
  <path class="cls-1" d="M150.97,89.59h-2.4s.3,5.1.3,5.1h-1.8c-.24.79.88.73.92,1.09.03.25-.19,1.89-.47,2.2-.4-.36.06-1.38-.19-1.76-.13-.2-1.74-.28-1.46-1.84-1.15.24-.87.82-.6,1.8-.63.43-2.35-1.83-3.15-2.1l-.15-4.79,2.4-.3-.3-2.7,3.7-.31.5,3.01h3.3s.28,5.51.28,5.51l-1.48.49.3,2.69c-1.01.22-.5-1.57-.73-2.43-.2-.78-.96-.3-.77-1.17l1.8.3v-4.8ZM147.37,86.59l-2.69.3.04,1.75,1.16.64-3.3.3.28,4.37c1.95.74,3.33-.78,5.12-.17l-.6-7.2Z"/>
  <path class="cls-1" d="M167.46,78.2l-1.19-.6c.29.82-1.36,2.61-1.5,1.65-.15-1.04.92-.62.45-1.05-.75-.69-1,.85-.61,1.51l1.45.59.2.9c-.67.36-2.11-1.85-2.4-.75-.47,1.84,1.81,1.33,2.98,1.33l.61-3.28c-.09,1.04.22,3.13-.28,4-.24.41-1.09-.09-.93.63l1.22,4.35-.93-.17c-.42-.6-.11-2.65-1.17-2.52.21,1.29.5,2.72.28,4.03-.12.72-.65,1.18-.75,1.66-.16.73.47,1.33-.43,2.11l.9.15-.59.75c.02-.93-1.08-.91-1.8-.9l.15,2.4c-.73-.27-.68-1.99-.77-2.08-.19-.18-1.66.31-2.32-.83-.35-.6-.54-3.1-.5-3.85.09-1.59,1.35-1.42,2.52-1.98l-.27-2.06,3.76-.11.44-1.69-2.41-.5c.08-1.32-.35-2.64.61-3.7l-.6-.3c.36-.12,2.08-.08,1.79-.75l-2.7-2.55c1.64-.22,2.39,1.87,3.13,2.41.57.41,1.77.13,1.66,1.18ZM165.06,84.49l-2.42.14-.29,1.66.9.3c-3.92-.02-3.93,2.83-2.5,5.71,1.61,1.01,4.3-2.1,4.3-3.16v-4.65Z"/>
  <path class="cls-1" d="M127.58,95.74c-.11.59-.98,1.28-.84,2.33s1.12,1.59,1.74,2.32c-1,.14-1.26-.05-1.65-.9l-1.04.9.26-2.66-1.46-.33c.17,1.49-.62,2.49.17,3.87.17.29,1.83,1.67.57,1.53-.94-.11-1.28-.58-1.35-1.5l-1.6.61-.49-.77c.64-.58,1.53-.49,1.74-1.51-1.21-1.01-2.21-1.61-2.04-3.44.62.34.53,1.86,1.19,2.25.38.22.79.15,1.2.15v-3.9s-2.4,0-2.4,0l-.3,1.2c.45-1.05-.61-1.26-.61-1.35-.02-1,1.89-1.54,2.71-1.35l.38-2.33,2.92-.37c.13,1.41-2.61-.23-2.71,1.34-.06.89.31,2.1,1.21,2.41-1.14.31-.42,1.83-.6,2.85l2.1-1.04.89-5.56c-.21,1.56.28,3.79,0,5.25Z"/>
  <path class="cls-1" d="M140.77,103.69l-32.39,7.19c.4-.67,1.67-.86,2.4-1.05,9.84-2.59,19.97-4.42,29.99-6.14Z"/>
  <path class="cls-1" d="M175.56,84.8c-1.22,1.17.11,2.16.01,3.58l1.79.16c1.18.56.34,3,.28,4.03l-1.49.02c.04,1.18,1.31.52,1.2,1.49-2.65.17-6.38,1.2-8.11-1.35,0-1.01,2.14-1.63,3.01-1.65-.85-1.32-.13-2.73-.47-4.2.45-.61,1.79-.21,2.42,0l.36-.44c-.22-.87-.22-1.94,1-1.65ZM175.22,87.54l-2.96-.35c.11.89-.34,2.77.42,3.33l2.42.57c.88-1.02.03-2.34.11-3.55ZM177.06,92.29c.19-.73.87-3.81-.74-3.3-.62.2-.4,1.73-.65,2.33-.19.45-1.56,1.05-1.3,2.16h1.5s-.3-1.49-.3-1.49l1.5.3ZM173.72,92.33c-.94-.43-1.98-.48-2.97-.19-.28.08-.79.1-.59.59.47,1.13,2.57,1.15,3.6,1.05l-.04-1.46Z"/>
  <path class="cls-1" d="M159.07,106.68l.3,1.05.27,19.46c-.27,1.22-.64,2.43-.83,3.67-.17,1.13.36,2.54-.49,3.41-.7.15-.47-.62-.46-1.06.02-1.33.54-2.65.31-4.04l-.9.16v-1.2s-.9-.31-.9-.31l2.1-.75.3.9c-.07-.28.3-.61.3-.75v-20.54Z"/>
  <path class="cls-1" d="M184,90.45l1.16.64c-1.98.06-4.76-.38-6,1.5,2.52,1.18,4.11-1.02,6.6,0-.08,1.31-2.16,1.24-3.14,1.19-2.27-.1-6.38-1-2.5-2.79.44-.2,1.55-.79,1.64-.81.61-.11,1.26.39,1.89.31l-.13-2.42c-.4-.56-1.71-.28-2.27.02v-.9s2.57.28,2.57.28l.17,2.97Z"/>
  <path class="cls-1" d="M171.06,127.08l.6,4.05.31,8.24c1.6.62,2.02-1.8,2.46-2.04.31-.17,2.67-.34,3.34-.65l.2-.91c.77.24.6,1.16.6,1.8-1.34-.54-1.58.01-2.57.29-.38.11-1.07-.12-1.29.06-.31.25-.76,3.22-2.74,2.21-.44-.22-.9-1.97-.9-2.41v-10.65Z"/>
  <path class="cls-1" d="M113.48,74.6c.77,2.32-.81,2.2-2.7,2.1-.82,3,1.51,2.61,1.98,3.29.28.4-.22,1.15-.06,1.83.2.87,1.18.03.52,2.28-.15.5.23.84-.64.69.51-1.57-.21-1.91-.53-2.92-.15-.47.04-1.37-.1-1.55-.12-.15-1.44-.02-1.72-.83-.15-.42-.14-3.03-.05-3.55.22-1.2,2.32-1.13,3.29-1.35Z"/>
  <path class="cls-1" d="M134.17,139.82c-.03-.48.1-.77-.45-.76-2.77.05-5.71,1.36-8.55,1.06,2.72-1.18,5.86-.76,8.67-1.68.52-.61-1.08-3.17.33-2.97l.91,9.74-.61.45c.14-.38-.3-.88-.3-1.05,0-1.56.11-3.27,0-4.8Z"/>
  <path class="cls-1" d="M142.57,125.88l-.15.59c-1.71-.14-4.08-1.38-5.65-1.38-2.43-.01-5.98,1.25-8.48,1.66-1.7.28-3.73-.04-5.49.66l.02,1.12,3.85,1.54c-1.42.15-2.8-.23-4.05-.89-1,.46.62,1.97-.74,1.79-1.07-5.63,3.52-4.22,7.31-4.83,2.27-.37,5.63-1.47,7.84-1.41,1.62.04,3.81,1.18,5.54,1.14Z"/>
  <path class="cls-1" d="M126.96,83.3l.31,1.79c-.46.09-.3-.5-.59-.73-.41-.33-2.8-.07-2.97.6.43,4.2,2.65,4.08,2.37-.17,1.34.45-.21,2.32.75,2.7l.45-.6c.18,1.74-2.43.85-1.2,2.99-2.25-.36-2.86-3.4-2.71-5.5l3.6-1.09Z"/>
  <path class="cls-1" d="M195.95,112.08l-.59-4.65.32-9.87,1.17-4.67c.25,2.59-.74,5.07-.91,7.63-.25,3.75.22,7.78,0,11.56Z"/>
  <path class="cls-1" d="M143.77,84.79l-2.4,1.05,1.2.15v.9c-2.2-.43-1.98.42-3.02,1.33-1.37,1.2-2.01-.67-2.31-1.85-.06-.24-.2-1.01.23-.53.28.66.65,2.23,1.62,1.93.94-.79,1.29-2.43,2.58-2.68l-1.19-.59c1.12-.66,2.45-.92,3.3.29Z"/>
  <path class="cls-1" d="M135.38,76.99c-.83,2.29,2.52,6.1-.6,6.75.29.24.54.52.59.91.29,1.99.17,4.39.6,6.44l-.9-.2c-.46-.82-1.23-6.65-.85-7.25.1-.16.87-.21,1.16-.48.94-.91-.85-4.44-.31-5.86l-2.09.6c-.38-1.04,2.3-1,2.4-.9Z"/>
  <path class="cls-1" d="M128.77,95.29c.24.21.23,2.4.31,2.85.06.38-.19.54.44.45.45-.06,1.31-.5,1.5-.9.38-.79-.22-1.98.45-2.4l-.15,2.7-1.95.9c.36,1.09,1.15.16,1.8.45-2.55,2.79-3.95-1.18-3.03-3.63.12-.32.15-.85.63-.42Z"/>
  <path class="cls-1" d="M159.07,93.19c-1.12.05-2.22.57-2.97,1.38l.27.87c2.4.85,4.87.11,7.33.15.61.01.89-.21.76.6-1.28-.57-2.21.67-3.74.61-.47-.02-4.86-1.02-5.08-1.18-1.05-1.99,1.94-2.41,3.27-3.03l.15.59Z"/>
  <path class="cls-1" d="M221.44,88.99c-.48-.15-.99-.26-1.5-.3l.6-.89c-.33-.26-2.11.55-1.8-.6.83-.53,2.99.26,3.3,1.05.1.26-.63-.14-.6.75.14.04.4-.06.59,0,.42,5.11,1.33,10.15,2.44,15.15.17,1.45-1.39,2.06-2.57,2.25-.22-.14.76-1.11.82-1.15.23-.14.66.36.97-.04.9-1.15-.4-4.44-.66-5.95-.52-3.02-1.5-7.34-1.59-10.26Z"/>
  <path class="cls-1" d="M132.98,82.99l.59-1.5c.27,2.94.08,3.89-3.14,3.29-1.64-.31-1.25-4.3-1.36-5.69h.9c-.71.64-.41,4.29-.02,4.9.41.65,2.01.49,2.72.5l-.32-3.45.62-2.24v4.2Z"/>
  <path class="cls-1" d="M173.76,103.98l2.09-1.2c-.04,2.46-2.17,4.29-1.8,6.9-.55-.06-.33-1.58-.27-1.92.21-1.23,1-2.24,1.17-3.47l-1.8.6c-.21-1.36.44-2.48.95-3.7l1.44-2-1.79,4.8Z"/>
  <path class="cls-1" d="M42.41,150.77c-2.3,3.09-6.87.99-9.83.38-1.23-.25-2.53-.26-3.73-.47-.32-.05-1.19-.08-1.13-.51,1.5.41,3.12.12,4.62.32,2.28.31,6.04,2.16,8.45,1.2.67-.27.91-.94,1.63-.92Z"/>
  <path class="cls-1" d="M135.97,140.57c1.86.12,4.03,1.17,5.4,2.4-1.76.37-4.75-3.26-5.33-.68l-.37,2.78v-7.95c0-.23-.52-.86-.3-1.35.08-.1.6.38.6.45v4.35Z"/>
  <path class="cls-1" d="M132.38,50.76c.09.33,1.21,1.19,1.21,1.81,0,.82-1.52,1.03-2.11,1.04.46-1.94.06-4.16.29-6.16.05-.45.06-.93.61-1.04.2,1.21-.28,3.28,0,4.35Z"/>
  <path class="cls-1" d="M145.57,99.18c-2.72,1.28-5.52-.3-8.4-.15,0-.23,3.59-.19,4.05-.15,1.39.11,1.98,1.07,3.45,0-1.26-1.24-3.57-1.38-5.24-1.49v-.61c1.47.45,3.21.49,4.63,1.06.28.11,1.99.83,1.51,1.34Z"/>
  <path class="cls-1" d="M189.31,86.33l.27,2.82-1.72.44.3,1.94c-.89.85-1.6-1.22-1.46-1.77.15-.59,1.5-.62,2.01-.83l.35-2.34-3-.6,3.26.34Z"/>
  <path class="cls-1" d="M104.18,91.39c-2.7-1-1.15-5.13-.59-7.19.5-.08.33.73.31,1.06-.06,1.04-.41,1.86-.32,2.99.09,1.07.81,2.01.6,3.15Z"/>
  <path class="cls-1" d="M132.38,85.09c.31.95-.55.73-.62,1.33-.18,1.54.26,3.02.34,4.5.02.4.22,1.87-.31,1.96l-.58-6.41-1.34-.46-.18-.93h2.7Z"/>
  <path class="cls-1" d="M147.97,135.17l-.3,6,1.67.28-.32,1.82-.15-1.5h-1.5s.3-5.99.3-5.99l-1.49,2.7c-.2-.67.88-4.17,1.79-3.3Z"/>
  <path class="cls-1" d="M51.41,149.57c-.34.35-1.72,1.69-2.01,1.75-.42.09-.89-.26-1.38-.2-1.17.16-2.95,1.61-3.81-.51.15-1.14.26.6,1.31.45.79-.11,1.41-.81,2.16-.89s1.45.35,2,.24,1-.99,1.72-.84Z"/>
  <path class="cls-1" d="M133.74,150.17c1.6-.51,2.16,4.32-.16,3.15-1.05-.53-.48-2.94.16-3.15Z"/>
  <path class="cls-1" d="M135.67,91.99c0,.35.05.79.28,1.07,1,1.22,2.93-.64,3.18.73l-.75,1.2c1.34-.33,2.37-.12,2.39,1.5l-1.03-1.1-1.97.2.3-1.5c-.76-.04-1.59.2-2.27-.28-.43-.31-1.36-2.08-.13-1.82Z"/>
  <path class="cls-1" d="M117.9,97.61c-.16.17-1.58.8-1.72.67-.18-.8.81-.8,1.05-1.2.86-1.38-1.43-2.31-2.41-2.7l.31-.6c1.69-.08,4.22,2.31,2.77,3.82Z"/>
  <path class="cls-1" d="M111.08,126.77c-.42-.18-.48-1.51-.56-1.99-.58-3.9-.75-7.89-1.24-11.8l.86,3.48.93,10.31Z"/>
  <polygon class="cls-1" points="217.24 107.58 216.35 106.98 216.64 109.68 214.24 109.68 215.77 108.29 215.45 105.18 216.04 105.49 215.75 101.89 216.04 103.09 217.24 103.09 217.24 107.58"/>
  <path class="cls-1" d="M117.98,81.5c.07.52-.68.28-1.04.3-.75.03-1.5-.02-2.25,0-.17.16.85,2.09,1.06,2.39.38.57,1.55.53.89,1.5-.99-.2-3.01-4.05-2.55-4.49l3.9.3Z"/>
  <path class="cls-1" d="M142.27,146.57c.07.52-.68.28-1.04.3-1.42.06-3.6-.07-4.97-.45-.53-.15-.7-.09-.58-.75l6.59.9Z"/>
  <path class="cls-1" d="M98.49,40.71c.07.52-.68.28-1.04.3-.85.03-1.71-.02-2.55,0,.39,1.4-1.2,3.92.3,4.65l-2.1.45c-.23-.99.75-.35,1.1-1.03.24-.47.26-4.49.4-4.67l3.89.3Z"/>
  <path class="cls-1" d="M50.04,29.95c-.13.05-.29.09-.49.09-.61.01-.91-.27-.98-.5-.16-.52-.1-1.04.19-1.55.09-.16,1.31-1.11,1.23-1.2.79.9.95,1.88.46,2.81-.07.12-.19.27-.41.36Z"/>
  <path class="cls-1" d="M154.27,97.99c-.16.48-1.37.57-1.85.69-2.47.6-4.96,1.15-7.44,1.7.14-.52,1.26-.67,1.73-.81,2.38-.71,5.11-1.39,7.56-1.58Z"/>
  <path class="cls-1" d="M186.05,85.1c-1.29,1.13.85,3.33-.6,4.5-.02-.86.25-3.62-.78-3.85-.49-.11-2.15.93-1.92-.35l3.3-.3Z"/>
  <path class="cls-1" d="M56.21,102.79c.24,1.05-1.21.36-1.8.9l-.03-.85-1.34-.32-.13-1.52c1.48-.1,1.5,2.06,3.3,1.8Z"/>
  <path class="cls-1" d="M168.96,87.49c.01,2.77.58,5.33-3,5.4v-1.5c.78-.25.75.89,1.08.92,1.54.13,2.06-3.6,1.33-4.68l.59-.14Z"/>
  <path class="cls-1" d="M47.51,40.11c.69.33-.07,1.46.05,2.17.08.51,2.07,3.03,1,3.22-1.44.26-1.54-4.52-1.04-5.39Z"/>
  <path class="cls-1" d="M162.96,82.7c.15.85-.21.49-.66.67-1.72.7-4.1.89-5.94,1.42l3.06-1.28,3.53-.81Z"/>
  <path class="cls-1" d="M210.94,100.39c.53-.07.28.68.3,1.05.05,1.29-.09,2.61,0,3.9.08,1.08.54,2.17.6,3.3.04.71-.15.84-.35.05-.11-.43-.56-2.21-.56-2.45v-5.85Z"/>
  <path class="cls-1" d="M194.21,123.55c-.25.14-.22,1.16-1.26.83.88-2.48,2.43-.78,3.9-1.8l-.43,1.13c-.58-.17-1.68-.46-2.2-.16Z"/>
  <path class="cls-1" d="M164.46,99.79l-.91.48-4.19-1.98c1.97-.1,3.31,1.31,5.1,1.5Z"/>
  <path class="cls-1" d="M132.67,100.99c.09,1.83-2.47,2.17-3.9,2.09l3.3-1.2-.6-.89h1.2Z"/>
  <polygon class="cls-1" points="112.58 134.87 111.77 132.24 111.39 128.28 112.58 134.87"/>
  <path class="cls-1" d="M47.51,40.02s44.8-1.23,76.31,3.36.32.34.32.34c0,0-31.85-3.98-76.63-3.7Z"/>
  <path class="cls-1" d="M76.95,30.83c-.13.05-.29.09-.49.09-.61.01-.91-.27-.98-.5-.16-.52-.1-1.04.19-1.55.09-.16,1.31-1.11,1.23-1.2.79.9.95,1.88.46,2.81-.07.12-.19.27-.41.36Z"/>
  <path class="cls-1" d="M103.89,31.17c-.13.05-.29.09-.49.09-.61.01-.91-.27-.98-.5-.16-.52-.1-1.04.19-1.55.09-.16,1.31-1.11,1.23-1.2.79.9.95,1.88.46,2.81-.07.12-.19.27-.41.36Z"/>
  <path class="cls-1" d="M128.74,31.7c-.11.08-.26.16-.45.21-.58.16-.94-.04-1.07-.24-.29-.46-.36-.99-.21-1.55.05-.18.99-1.41.89-1.47,1,.67,1.4,1.58,1.15,2.6-.03.14-.12.31-.31.45Z"/>
  <path class="cls-1" d="M150.85,32.89c-.14.11-.32.19-.5.24-.21.05-.43.06-.63-.01-.32-.11-.55-.41-.64-.74-.22-.86.39-1.72.84-2.4.02-.04.05-.07.1-.08.03,0,.05.03.08.03,1.33-.11,1.01,1.06,1.12,1.77.05.34.03.7-.16.98-.06.08-.12.15-.2.21Z"/>
  <circle class="cls-1" cx="174.44" cy="31.02" r=".99"/>
  <path class="cls-1" d="M200.02,31.34c.13.46.47.94.24,1.42-.07.15-.66.66-.56.83.17.32.27.66.7.64l.95-.38s0-.6,0-.6c-.38-.68-.71-1.45-.46-2.29"/>
  <ellipse class="cls-1" cx="155.84" cy="46.41" rx=".81" ry="1.16" transform="translate(20.12 135.96) rotate(-50)"/>
  <path class="cls-1" d="M95.08,44.75c.1.1.2.23.28.41.25.55.11.94-.07,1.1-.41.36-.92.51-1.5.45-.19-.02-1.54-.76-1.59-.65.51-1.09,1.34-1.62,2.39-1.54.14.01.32.07.49.24Z"/>
  <path class="cls-1" d="M49.3,45.52c-.13.05-.29.09-.49.09-.61.01-.91-.27-.98-.5-.16-.52-.1-1.04.19-1.55.09-.16,1.31-1.11,1.23-1.2.79.9.95,1.88.46,2.81-.07.12-.19.27-.41.36Z"/>
  <path class="cls-1" d="M228.58,51.22c-.14.03-.3.04-.5.02-.6-.08-.85-.41-.89-.65-.08-.54.06-1.05.43-1.51.12-.15,1.47-.9,1.41-.99.65,1.01.65,2,.01,2.84-.09.11-.23.23-.46.29Z"/>
  <path class="cls-1" d="M188.97,58.38c-.14.13-.32.26-.56.38-.75.39-1.24.32-1.44.16-.43-.36-.59-.87-.46-1.51.04-.2,1.13-1.81.99-1.84,1.39.31,2.02,1.09,1.82,2.23-.03.15-.12.36-.35.57Z"/>
</svg>