<svg width="180" height="173" viewBox="0 0 180 173" fill="none" xmlns="http://www.w3.org/2000/svg">
<path d="M5.15822 150.709H2.49422V149.989H3.26222V143.029H2.49422V142.309H8.33822V144.157H7.61822V143.029H4.01822V146.113H7.87022V146.833H4.01822V149.989H5.15822V150.709ZM15.4499 150.709H13.8779V150.349C13.8779 150.277 13.8779 150.213 13.8779 150.157C13.8779 150.101 13.8779 150.037 13.8779 149.965C13.8459 150.045 13.7819 150.133 13.6859 150.229C13.5979 150.325 13.4819 150.413 13.3379 150.493C13.1859 150.589 13.0099 150.665 12.8099 150.721C12.6179 150.777 12.4019 150.805 12.1619 150.805C11.8259 150.805 11.5099 150.745 11.2139 150.625C10.9259 150.497 10.6779 150.325 10.4699 150.109C10.2539 149.901 10.0819 149.657 9.95391 149.377C9.83391 149.089 9.77391 148.785 9.77391 148.465C9.77391 148.145 9.83391 147.841 9.95391 147.553C10.0819 147.265 10.2539 147.017 10.4699 146.809C10.6779 146.593 10.9259 146.421 11.2139 146.293C11.5099 146.165 11.8259 146.101 12.1619 146.101C12.6179 146.101 12.9939 146.197 13.2899 146.389C13.5859 146.581 13.7819 146.789 13.8779 147.013C13.8779 146.885 13.8819 146.753 13.8899 146.617C13.9059 146.481 13.9179 146.345 13.9259 146.209H14.5499V149.989H15.4499V150.709ZM12.1619 146.845C11.9219 146.845 11.6979 146.889 11.4899 146.977C11.2819 147.057 11.1099 147.177 10.9739 147.337C10.8299 147.481 10.7219 147.649 10.6499 147.841C10.5779 148.025 10.5419 148.229 10.5419 148.453C10.5419 148.701 10.5899 148.933 10.6859 149.149C10.7819 149.357 10.9179 149.533 11.0939 149.677C11.2299 149.797 11.3859 149.893 11.5619 149.965C11.7459 150.037 11.9459 150.073 12.1619 150.073C12.3859 150.073 12.5939 150.033 12.7859 149.953C12.9859 149.873 13.1579 149.765 13.3019 149.629C13.4539 149.485 13.5739 149.313 13.6619 149.113C13.7499 148.905 13.7939 148.685 13.7939 148.453C13.7939 148.221 13.7499 148.005 13.6619 147.805C13.5739 147.597 13.4539 147.425 13.3019 147.289C13.1579 147.145 12.9859 147.037 12.7859 146.965C12.5939 146.885 12.3859 146.845 12.1619 146.845ZM21.2455 150.709H16.8895V149.965C17.4335 149.429 17.9335 148.929 18.3895 148.465C18.8535 147.993 19.3695 147.481 19.9375 146.929H17.0335V145.789H17.7175V146.209H20.9935V146.953C20.4255 147.497 19.9095 148.005 19.4455 148.477C18.9895 148.941 18.4895 149.437 17.9455 149.965H20.5735V149.305H21.2455V150.709ZM31.1866 149.545C31.0266 149.929 30.7666 150.237 30.4066 150.469C30.0546 150.693 29.6586 150.805 29.2186 150.805C28.7626 150.805 28.4026 150.681 28.1386 150.433C27.8746 150.185 27.7346 149.861 27.7186 149.461V146.929H26.8786V146.209H28.4746V149.161C28.4906 149.401 28.5746 149.609 28.7266 149.785C28.8866 149.953 29.1266 150.045 29.4466 150.061C29.6706 150.061 29.8826 150.025 30.0826 149.953C30.2906 149.873 30.4706 149.765 30.6226 149.629C30.7826 149.493 30.9106 149.333 31.0066 149.149C31.1026 148.957 31.1506 148.749 31.1506 148.525V146.929H30.3106V146.209H31.9066V150.061H32.6986V150.709H31.1746L31.1626 150.085L31.1866 149.545ZM34.2428 153.709V152.989H35.0468V146.929H34.1348V146.209H35.6708C35.6708 146.353 35.6748 146.493 35.6828 146.629C35.6988 146.757 35.7068 146.889 35.7068 147.025C35.8188 146.817 36.0188 146.613 36.3068 146.413C36.6028 146.213 36.9748 146.113 37.4228 146.113C37.7588 146.113 38.0708 146.177 38.3588 146.305C38.6548 146.425 38.9108 146.589 39.1268 146.797C39.3428 147.013 39.5108 147.265 39.6308 147.553C39.7508 147.833 39.8108 148.133 39.8108 148.453C39.8108 148.781 39.7508 149.089 39.6308 149.377C39.5108 149.657 39.3428 149.905 39.1268 150.121C38.9108 150.337 38.6548 150.509 38.3588 150.637C38.0708 150.757 37.7588 150.817 37.4228 150.817C37.1988 150.817 36.9908 150.789 36.7988 150.733C36.6068 150.677 36.4388 150.605 36.2948 150.517C36.1428 150.437 36.0268 150.361 35.9468 150.289C35.8748 150.209 35.8188 150.125 35.7788 150.037C35.7868 150.085 35.7908 150.137 35.7908 150.193C35.7988 150.241 35.8028 150.289 35.8028 150.337V152.989H36.7388V153.709H34.2428ZM37.4228 146.845C37.1828 146.845 36.9628 146.889 36.7628 146.977C36.5628 147.057 36.3908 147.173 36.2468 147.325C36.1028 147.469 35.9908 147.641 35.9108 147.841C35.8388 148.033 35.8028 148.237 35.8028 148.453C35.8028 148.693 35.8428 148.917 35.9228 149.125C36.0108 149.325 36.1348 149.497 36.2948 149.641C36.4388 149.777 36.6068 149.885 36.7988 149.965C36.9908 150.037 37.1988 150.073 37.4228 150.073C37.6468 150.073 37.8548 150.037 38.0468 149.965C38.2388 149.885 38.4068 149.781 38.5508 149.653C38.7028 149.509 38.8228 149.333 38.9108 149.125C39.0068 148.917 39.0548 148.693 39.0548 148.453C39.0548 148.213 39.0068 147.993 38.9108 147.793C38.8228 147.585 38.6988 147.405 38.5388 147.253C38.3948 147.133 38.2268 147.037 38.0348 146.965C37.8428 146.885 37.6388 146.845 37.4228 146.845ZM43.7465 150.709H41.2505V149.989H42.1505V142.429H41.3345V141.709H42.9065V149.989H43.7465V150.709ZM49.2703 150.109C49.0543 150.325 48.7983 150.497 48.5023 150.625C48.2143 150.745 47.9063 150.805 47.5783 150.805C47.2423 150.805 46.9303 150.745 46.6423 150.625C46.3543 150.497 46.1023 150.325 45.8863 150.109C45.6703 149.901 45.4983 149.657 45.3703 149.377C45.2503 149.089 45.1903 148.781 45.1903 148.453C45.1903 148.133 45.2503 147.829 45.3703 147.541C45.4983 147.253 45.6703 147.001 45.8863 146.785C46.1023 146.577 46.3543 146.413 46.6423 146.293C46.9303 146.165 47.2423 146.101 47.5783 146.101C47.9063 146.101 48.2143 146.165 48.5023 146.293C48.7983 146.413 49.0583 146.577 49.2823 146.785C49.4903 147.001 49.6543 147.253 49.7743 147.541C49.9023 147.829 49.9663 148.133 49.9663 148.453C49.9663 148.781 49.9023 149.089 49.7743 149.377C49.6543 149.657 49.4863 149.901 49.2703 150.109ZM46.4263 149.593C46.5703 149.745 46.7383 149.865 46.9303 149.953C47.1223 150.033 47.3303 150.073 47.5543 150.073C47.7783 150.073 47.9863 150.033 48.1783 149.953C48.3783 149.865 48.5543 149.745 48.7063 149.593C48.8503 149.449 48.9623 149.281 49.0423 149.089C49.1303 148.897 49.1743 148.689 49.1743 148.465C49.1743 148.241 49.1303 148.033 49.0423 147.841C48.9623 147.641 48.8503 147.465 48.7063 147.313C48.5543 147.169 48.3783 147.057 48.1783 146.977C47.9863 146.889 47.7783 146.845 47.5543 146.845C47.3303 146.845 47.1223 146.889 46.9303 146.977C46.7383 147.057 46.5703 147.169 46.4263 147.313C46.2743 147.465 46.1543 147.641 46.0663 147.841C45.9863 148.033 45.9463 148.237 45.9463 148.453C45.9463 148.685 45.9863 148.897 46.0663 149.089C46.1543 149.281 46.2743 149.449 46.4263 149.593ZM57.0796 150.709H55.5076V150.349C55.5076 150.277 55.5076 150.213 55.5076 150.157C55.5076 150.101 55.5076 150.037 55.5076 149.965C55.4756 150.045 55.4116 150.133 55.3156 150.229C55.2276 150.325 55.1116 150.413 54.9676 150.493C54.8156 150.589 54.6396 150.665 54.4396 150.721C54.2476 150.777 54.0316 150.805 53.7916 150.805C53.4556 150.805 53.1396 150.745 52.8436 150.625C52.5556 150.497 52.3076 150.325 52.0996 150.109C51.8836 149.901 51.7116 149.657 51.5836 149.377C51.4636 149.089 51.4036 148.785 51.4036 148.465C51.4036 148.145 51.4636 147.841 51.5836 147.553C51.7116 147.265 51.8836 147.017 52.0996 146.809C52.3076 146.593 52.5556 146.421 52.8436 146.293C53.1396 146.165 53.4556 146.101 53.7916 146.101C54.2476 146.101 54.6236 146.197 54.9196 146.389C55.2156 146.581 55.4116 146.789 55.5076 147.013C55.5076 146.885 55.5116 146.753 55.5196 146.617C55.5356 146.481 55.5476 146.345 55.5556 146.209H56.1796V149.989H57.0796V150.709ZM53.7916 146.845C53.5516 146.845 53.3276 146.889 53.1196 146.977C52.9116 147.057 52.7396 147.177 52.6036 147.337C52.4596 147.481 52.3516 147.649 52.2796 147.841C52.2076 148.025 52.1716 148.229 52.1716 148.453C52.1716 148.701 52.2196 148.933 52.3156 149.149C52.4116 149.357 52.5476 149.533 52.7236 149.677C52.8596 149.797 53.0156 149.893 53.1916 149.965C53.3756 150.037 53.5756 150.073 53.7916 150.073C54.0156 150.073 54.2236 150.033 54.4156 149.953C54.6156 149.873 54.7876 149.765 54.9316 149.629C55.0836 149.485 55.2036 149.313 55.2916 149.113C55.3796 148.905 55.4236 148.685 55.4236 148.453C55.4236 148.221 55.3796 148.005 55.2916 147.805C55.2036 147.597 55.0836 147.425 54.9316 147.289C54.7876 147.145 54.6156 147.037 54.4156 146.965C54.2236 146.885 54.0156 146.845 53.7916 146.845ZM64.1952 150.709H62.6232V150.349C62.6232 150.277 62.6232 150.213 62.6232 150.157C62.6232 150.101 62.6232 150.037 62.6232 149.965C62.5912 150.045 62.5272 150.133 62.4312 150.229C62.3432 150.325 62.2272 150.413 62.0832 150.493C61.9312 150.589 61.7552 150.665 61.5552 150.721C61.3632 150.777 61.1472 150.805 60.9072 150.805C60.5712 150.805 60.2552 150.745 59.9592 150.625C59.6712 150.497 59.4232 150.325 59.2152 150.109C58.9992 149.901 58.8272 149.653 58.6992 149.365C58.5792 149.077 58.5192 148.773 58.5192 148.453C58.5192 148.133 58.5792 147.833 58.6992 147.553C58.8272 147.265 58.9992 147.013 59.2152 146.797C59.4232 146.581 59.6712 146.413 59.9592 146.293C60.2552 146.165 60.5712 146.101 60.9072 146.101C61.1232 146.101 61.3272 146.133 61.5192 146.197C61.7112 146.253 61.8832 146.325 62.0352 146.413C62.1872 146.509 62.3032 146.601 62.3832 146.689C62.4632 146.769 62.5232 146.849 62.5632 146.929C62.5472 146.785 62.5392 146.657 62.5392 146.545C62.5392 146.425 62.5392 146.301 62.5392 146.173V142.429H61.7112V141.709H63.2952V149.989H64.1952V150.709ZM60.9072 146.845C60.6672 146.845 60.4472 146.889 60.2472 146.977C60.0472 147.057 59.8752 147.169 59.7312 147.313C59.5952 147.457 59.4872 147.629 59.4072 147.829C59.3272 148.021 59.2872 148.229 59.2872 148.453C59.2872 148.685 59.3312 148.905 59.4192 149.113C59.5072 149.321 59.6272 149.497 59.7792 149.641C59.9232 149.777 60.0912 149.885 60.2832 149.965C60.4752 150.037 60.6832 150.073 60.9072 150.073C61.1312 150.073 61.3352 150.037 61.5192 149.965C61.7112 149.885 61.8832 149.777 62.0352 149.641C62.1872 149.497 62.3072 149.321 62.3952 149.113C62.4912 148.905 62.5392 148.685 62.5392 148.453C62.5392 148.205 62.4912 147.981 62.3952 147.781C62.2992 147.573 62.1712 147.397 62.0112 147.253C61.8752 147.125 61.7112 147.025 61.5192 146.953C61.3272 146.881 61.1232 146.845 60.9072 146.845ZM75.5085 150.709H73.9365V150.349C73.9365 150.277 73.9365 150.213 73.9365 150.157C73.9365 150.101 73.9365 150.037 73.9365 149.965C73.9045 150.045 73.8405 150.133 73.7445 150.229C73.6565 150.325 73.5405 150.413 73.3965 150.493C73.2445 150.589 73.0685 150.665 72.8685 150.721C72.6765 150.777 72.4605 150.805 72.2205 150.805C71.8845 150.805 71.5685 150.745 71.2725 150.625C70.9845 150.497 70.7365 150.325 70.5285 150.109C70.3125 149.901 70.1405 149.653 70.0125 149.365C69.8925 149.077 69.8325 148.773 69.8325 148.453C69.8325 148.133 69.8925 147.833 70.0125 147.553C70.1405 147.265 70.3125 147.013 70.5285 146.797C70.7365 146.581 70.9845 146.413 71.2725 146.293C71.5685 146.165 71.8845 146.101 72.2205 146.101C72.4365 146.101 72.6405 146.133 72.8325 146.197C73.0245 146.253 73.1965 146.325 73.3485 146.413C73.5005 146.509 73.6165 146.601 73.6965 146.689C73.7765 146.769 73.8365 146.849 73.8765 146.929C73.8605 146.785 73.8525 146.657 73.8525 146.545C73.8525 146.425 73.8525 146.301 73.8525 146.173V142.429H73.0245V141.709H74.6085V149.989H75.5085V150.709ZM72.2205 146.845C71.9805 146.845 71.7605 146.889 71.5605 146.977C71.3605 147.057 71.1885 147.169 71.0445 147.313C70.9085 147.457 70.8005 147.629 70.7205 147.829C70.6405 148.021 70.6005 148.229 70.6005 148.453C70.6005 148.685 70.6445 148.905 70.7325 149.113C70.8205 149.321 70.9405 149.497 71.0925 149.641C71.2365 149.777 71.4045 149.885 71.5965 149.965C71.7885 150.037 71.9965 150.073 72.2205 150.073C72.4445 150.073 72.6485 150.037 72.8325 149.965C73.0245 149.885 73.1965 149.777 73.3485 149.641C73.5005 149.497 73.6205 149.321 73.7085 149.113C73.8045 148.905 73.8525 148.685 73.8525 148.453C73.8525 148.205 73.8045 147.981 73.7085 147.781C73.6125 147.573 73.4845 147.397 73.3245 147.253C73.1885 147.125 73.0245 147.025 72.8325 146.953C72.6405 146.881 72.4365 146.845 72.2205 146.845ZM82.6241 150.709H81.0521V150.349C81.0521 150.277 81.0521 150.213 81.0521 150.157C81.0521 150.101 81.0521 150.037 81.0521 149.965C81.0201 150.045 80.9561 150.133 80.8601 150.229C80.7721 150.325 80.6561 150.413 80.5121 150.493C80.3601 150.589 80.1841 150.665 79.9841 150.721C79.7921 150.777 79.5761 150.805 79.3361 150.805C79.0001 150.805 78.6841 150.745 78.3881 150.625C78.1001 150.497 77.8521 150.325 77.6441 150.109C77.4281 149.901 77.2561 149.657 77.1281 149.377C77.0081 149.089 76.9481 148.785 76.9481 148.465C76.9481 148.145 77.0081 147.841 77.1281 147.553C77.2561 147.265 77.4281 147.017 77.6441 146.809C77.8521 146.593 78.1001 146.421 78.3881 146.293C78.6841 146.165 79.0001 146.101 79.3361 146.101C79.7921 146.101 80.1681 146.197 80.4641 146.389C80.7601 146.581 80.9561 146.789 81.0521 147.013C81.0521 146.885 81.0561 146.753 81.0641 146.617C81.0801 146.481 81.0921 146.345 81.1001 146.209H81.7241V149.989H82.6241V150.709ZM79.3361 146.845C79.0961 146.845 78.8721 146.889 78.6641 146.977C78.4561 147.057 78.2841 147.177 78.1481 147.337C78.0041 147.481 77.8961 147.649 77.8241 147.841C77.7521 148.025 77.7161 148.229 77.7161 148.453C77.7161 148.701 77.7641 148.933 77.8601 149.149C77.9561 149.357 78.0921 149.533 78.2681 149.677C78.4041 149.797 78.5601 149.893 78.7361 149.965C78.9201 150.037 79.1201 150.073 79.3361 150.073C79.5601 150.073 79.7681 150.033 79.9601 149.953C80.1601 149.873 80.3321 149.765 80.4761 149.629C80.6281 149.485 80.7481 149.313 80.8361 149.113C80.9241 148.905 80.9681 148.685 80.9681 148.453C80.9681 148.221 80.9241 148.005 80.8361 147.805C80.7481 147.597 80.6281 147.425 80.4761 147.289C80.3321 147.145 80.1601 147.037 79.9601 146.965C79.7681 146.885 79.5601 146.845 79.3361 146.845ZM86.8838 150.301C86.7718 150.445 86.6158 150.565 86.4158 150.661C86.2238 150.757 85.9798 150.805 85.6838 150.805C85.4118 150.805 85.1438 150.773 84.8798 150.709C84.6238 150.637 84.4078 150.513 84.2318 150.337V149.365H84.9158V149.905C85.0358 149.977 85.1558 150.021 85.2758 150.037C85.4038 150.053 85.5478 150.061 85.7078 150.061C85.7958 150.061 85.8838 150.049 85.9718 150.025C86.0598 150.001 86.1438 149.961 86.2238 149.905C86.2798 149.857 86.3278 149.797 86.3678 149.725C86.4078 149.645 86.4278 149.549 86.4278 149.437C86.4278 149.261 86.3798 149.129 86.2838 149.041C86.1958 148.945 86.0758 148.869 85.9238 148.813C85.7718 148.749 85.6038 148.693 85.4198 148.645C85.2438 148.589 85.0758 148.517 84.9158 148.429C84.7638 148.341 84.6358 148.221 84.5318 148.069C84.4278 147.909 84.3758 147.693 84.3758 147.421C84.3758 147.189 84.4198 146.993 84.5078 146.833C84.5958 146.665 84.7078 146.529 84.8438 146.425C84.9798 146.321 85.1318 146.245 85.2998 146.197C85.4678 146.141 85.6238 146.113 85.7678 146.113C85.8558 146.113 85.9518 146.121 86.0558 146.137C86.1678 146.153 86.2838 146.181 86.4038 146.221C86.5158 146.261 86.6238 146.309 86.7278 146.365C86.8398 146.421 86.9358 146.493 87.0158 146.581V147.553H86.3318V146.977C86.2518 146.937 86.1678 146.909 86.0798 146.893C85.9918 146.869 85.8958 146.857 85.7918 146.857C85.7038 146.857 85.6158 146.869 85.5278 146.893C85.4478 146.917 85.3758 146.949 85.3118 146.989C85.2558 147.045 85.2118 147.109 85.1798 147.181C85.1478 147.253 85.1358 147.337 85.1438 147.433C85.1518 147.569 85.2078 147.677 85.3118 147.757C85.4238 147.837 85.5558 147.905 85.7078 147.961C85.8598 148.025 86.0238 148.093 86.1998 148.165C86.3758 148.229 86.5358 148.309 86.6798 148.405C86.8318 148.509 86.9558 148.641 87.0518 148.801C87.1478 148.961 87.1958 149.169 87.1958 149.425C87.1958 149.545 87.1718 149.685 87.1238 149.845C87.0758 150.005 86.9958 150.157 86.8838 150.301ZM95.5112 150.709H93.8072V146.953H92.7872V146.209H93.8072V143.281H94.5632V146.209H95.8472V146.953H94.5632V149.989H95.5112V150.709ZM101.598 149.545C101.438 149.929 101.178 150.237 100.818 150.469C100.466 150.693 100.07 150.805 99.6295 150.805C99.1735 150.805 98.8135 150.681 98.5495 150.433C98.2855 150.185 98.1455 149.861 98.1295 149.461V146.929H97.2895V146.209H98.8855V149.161C98.9015 149.401 98.9855 149.609 99.1375 149.785C99.2975 149.953 99.5375 150.045 99.8575 150.061C100.082 150.061 100.294 150.025 100.494 149.953C100.702 149.873 100.882 149.765 101.034 149.629C101.194 149.493 101.322 149.333 101.418 149.149C101.514 148.957 101.562 148.749 101.562 148.525V146.929H100.722V146.209H102.318V150.061H103.11V150.709H101.586L101.574 150.085L101.598 149.545ZM110.222 150.709H108.65V150.349C108.65 150.277 108.65 150.213 108.65 150.157C108.65 150.101 108.65 150.037 108.65 149.965C108.618 150.045 108.554 150.133 108.458 150.229C108.37 150.325 108.254 150.413 108.11 150.493C107.958 150.589 107.782 150.665 107.582 150.721C107.39 150.777 107.174 150.805 106.934 150.805C106.598 150.805 106.282 150.745 105.986 150.625C105.698 150.497 105.45 150.325 105.242 150.109C105.026 149.901 104.854 149.657 104.726 149.377C104.606 149.089 104.546 148.785 104.546 148.465C104.546 148.145 104.606 147.841 104.726 147.553C104.854 147.265 105.026 147.017 105.242 146.809C105.45 146.593 105.698 146.421 105.986 146.293C106.282 146.165 106.598 146.101 106.934 146.101C107.39 146.101 107.766 146.197 108.062 146.389C108.358 146.581 108.554 146.789 108.65 147.013C108.65 146.885 108.654 146.753 108.662 146.617C108.678 146.481 108.69 146.345 108.698 146.209H109.322V149.989H110.222V150.709ZM106.934 146.845C106.694 146.845 106.47 146.889 106.262 146.977C106.054 147.057 105.882 147.177 105.746 147.337C105.602 147.481 105.494 147.649 105.422 147.841C105.35 148.025 105.314 148.229 105.314 148.453C105.314 148.701 105.362 148.933 105.458 149.149C105.554 149.357 105.69 149.533 105.866 149.677C106.002 149.797 106.158 149.893 106.334 149.965C106.518 150.037 106.718 150.073 106.934 150.073C107.158 150.073 107.366 150.033 107.558 149.953C107.758 149.873 107.93 149.765 108.074 149.629C108.226 149.485 108.346 149.313 108.434 149.113C108.522 148.905 108.566 148.685 108.566 148.453C108.566 148.221 108.522 148.005 108.434 147.805C108.346 147.597 108.226 147.425 108.074 147.289C107.93 147.145 107.758 147.037 107.558 146.965C107.366 146.885 107.158 146.845 106.934 146.845ZM114.481 150.301C114.369 150.445 114.213 150.565 114.013 150.661C113.821 150.757 113.577 150.805 113.281 150.805C113.009 150.805 112.741 150.773 112.477 150.709C112.221 150.637 112.005 150.513 111.829 150.337V149.365H112.513V149.905C112.633 149.977 112.753 150.021 112.873 150.037C113.001 150.053 113.145 150.061 113.305 150.061C113.393 150.061 113.481 150.049 113.569 150.025C113.657 150.001 113.741 149.961 113.821 149.905C113.877 149.857 113.925 149.797 113.965 149.725C114.005 149.645 114.025 149.549 114.025 149.437C114.025 149.261 113.977 149.129 113.881 149.041C113.793 148.945 113.673 148.869 113.521 148.813C113.369 148.749 113.201 148.693 113.017 148.645C112.841 148.589 112.673 148.517 112.513 148.429C112.361 148.341 112.233 148.221 112.129 148.069C112.025 147.909 111.973 147.693 111.973 147.421C111.973 147.189 112.017 146.993 112.105 146.833C112.193 146.665 112.305 146.529 112.441 146.425C112.577 146.321 112.729 146.245 112.897 146.197C113.065 146.141 113.221 146.113 113.365 146.113C113.453 146.113 113.549 146.121 113.653 146.137C113.765 146.153 113.881 146.181 114.001 146.221C114.113 146.261 114.221 146.309 114.325 146.365C114.437 146.421 114.533 146.493 114.613 146.581V147.553H113.929V146.977C113.849 146.937 113.765 146.909 113.677 146.893C113.589 146.869 113.493 146.857 113.389 146.857C113.301 146.857 113.213 146.869 113.125 146.893C113.045 146.917 112.973 146.949 112.909 146.989C112.853 147.045 112.809 147.109 112.777 147.181C112.745 147.253 112.733 147.337 112.741 147.433C112.749 147.569 112.805 147.677 112.909 147.757C113.021 147.837 113.153 147.905 113.305 147.961C113.457 148.025 113.621 148.093 113.797 148.165C113.973 148.229 114.133 148.309 114.277 148.405C114.429 148.509 114.553 148.641 114.649 148.801C114.745 148.961 114.793 149.169 114.793 149.425C114.793 149.545 114.769 149.685 114.721 149.845C114.673 150.005 114.593 150.157 114.481 150.301ZM122.881 150.709H120.385V149.989H121.117V146.953H120.385V146.209H121.105V144.505C121.105 144.057 121.173 143.661 121.309 143.317C121.453 142.973 121.645 142.685 121.885 142.453C122.125 142.213 122.409 142.033 122.737 141.913C123.073 141.785 123.429 141.713 123.805 141.697V142.417C123.533 142.433 123.281 142.489 123.049 142.585C122.817 142.673 122.613 142.805 122.437 142.981C122.253 143.157 122.109 143.373 122.005 143.629C121.909 143.885 121.861 144.181 121.861 144.517V146.209H123.325V146.953H121.861V149.989H122.881V150.709ZM128.909 150.109C128.693 150.325 128.437 150.497 128.141 150.625C127.853 150.745 127.545 150.805 127.217 150.805C126.881 150.805 126.569 150.745 126.281 150.625C125.993 150.497 125.741 150.325 125.525 150.109C125.309 149.901 125.137 149.657 125.009 149.377C124.889 149.089 124.829 148.781 124.829 148.453C124.829 148.133 124.889 147.829 125.009 147.541C125.137 147.253 125.309 147.001 125.525 146.785C125.741 146.577 125.993 146.413 126.281 146.293C126.569 146.165 126.881 146.101 127.217 146.101C127.545 146.101 127.853 146.165 128.141 146.293C128.437 146.413 128.697 146.577 128.921 146.785C129.129 147.001 129.293 147.253 129.413 147.541C129.541 147.829 129.605 148.133 129.605 148.453C129.605 148.781 129.541 149.089 129.413 149.377C129.293 149.657 129.125 149.901 128.909 150.109ZM126.065 149.593C126.209 149.745 126.377 149.865 126.569 149.953C126.761 150.033 126.969 150.073 127.193 150.073C127.417 150.073 127.625 150.033 127.817 149.953C128.017 149.865 128.193 149.745 128.345 149.593C128.489 149.449 128.601 149.281 128.681 149.089C128.769 148.897 128.813 148.689 128.813 148.465C128.813 148.241 128.769 148.033 128.681 147.841C128.601 147.641 128.489 147.465 128.345 147.313C128.193 147.169 128.017 147.057 127.817 146.977C127.625 146.889 127.417 146.845 127.193 146.845C126.969 146.845 126.761 146.889 126.569 146.977C126.377 147.057 126.209 147.169 126.065 147.313C125.913 147.465 125.793 147.641 125.705 147.841C125.625 148.033 125.585 148.237 125.585 148.453C125.585 148.685 125.625 148.897 125.705 149.089C125.793 149.281 125.913 149.449 126.065 149.593ZM133.766 150.709H132.062V146.953H131.042V146.209H132.062V143.281H132.818V146.209H134.102V146.953H132.818V149.989H133.766V150.709ZM139.624 150.109C139.408 150.325 139.152 150.497 138.856 150.625C138.568 150.745 138.26 150.805 137.932 150.805C137.596 150.805 137.284 150.745 136.996 150.625C136.708 150.497 136.456 150.325 136.24 150.109C136.024 149.901 135.852 149.657 135.724 149.377C135.604 149.089 135.544 148.781 135.544 148.453C135.544 148.133 135.604 147.829 135.724 147.541C135.852 147.253 136.024 147.001 136.24 146.785C136.456 146.577 136.708 146.413 136.996 146.293C137.284 146.165 137.596 146.101 137.932 146.101C138.26 146.101 138.568 146.165 138.856 146.293C139.152 146.413 139.412 146.577 139.636 146.785C139.844 147.001 140.008 147.253 140.128 147.541C140.256 147.829 140.32 148.133 140.32 148.453C140.32 148.781 140.256 149.089 140.128 149.377C140.008 149.657 139.84 149.901 139.624 150.109ZM136.78 149.593C136.924 149.745 137.092 149.865 137.284 149.953C137.476 150.033 137.684 150.073 137.908 150.073C138.132 150.073 138.34 150.033 138.532 149.953C138.732 149.865 138.908 149.745 139.06 149.593C139.204 149.449 139.316 149.281 139.396 149.089C139.484 148.897 139.528 148.689 139.528 148.465C139.528 148.241 139.484 148.033 139.396 147.841C139.316 147.641 139.204 147.465 139.06 147.313C138.908 147.169 138.732 147.057 138.532 146.977C138.34 146.889 138.132 146.845 137.908 146.845C137.684 146.845 137.476 146.889 137.284 146.977C137.092 147.057 136.924 147.169 136.78 147.313C136.628 147.465 136.508 147.641 136.42 147.841C136.34 148.033 136.3 148.237 136.3 148.453C136.3 148.685 136.34 148.897 136.42 149.089C136.508 149.281 136.628 149.449 136.78 149.593ZM144.577 150.301C144.465 150.445 144.309 150.565 144.109 150.661C143.917 150.757 143.673 150.805 143.377 150.805C143.105 150.805 142.837 150.773 142.573 150.709C142.317 150.637 142.101 150.513 141.925 150.337V149.365H142.609V149.905C142.729 149.977 142.849 150.021 142.969 150.037C143.097 150.053 143.241 150.061 143.401 150.061C143.489 150.061 143.577 150.049 143.665 150.025C143.753 150.001 143.837 149.961 143.917 149.905C143.973 149.857 144.021 149.797 144.061 149.725C144.101 149.645 144.121 149.549 144.121 149.437C144.121 149.261 144.073 149.129 143.977 149.041C143.889 148.945 143.769 148.869 143.617 148.813C143.465 148.749 143.297 148.693 143.113 148.645C142.937 148.589 142.769 148.517 142.609 148.429C142.457 148.341 142.329 148.221 142.225 148.069C142.121 147.909 142.069 147.693 142.069 147.421C142.069 147.189 142.113 146.993 142.201 146.833C142.289 146.665 142.401 146.529 142.537 146.425C142.673 146.321 142.825 146.245 142.993 146.197C143.161 146.141 143.317 146.113 143.461 146.113C143.549 146.113 143.645 146.121 143.749 146.137C143.861 146.153 143.977 146.181 144.097 146.221C144.209 146.261 144.317 146.309 144.421 146.365C144.533 146.421 144.629 146.493 144.709 146.581V147.553H144.025V146.977C143.945 146.937 143.861 146.909 143.773 146.893C143.685 146.869 143.589 146.857 143.485 146.857C143.397 146.857 143.309 146.869 143.221 146.893C143.141 146.917 143.069 146.949 143.005 146.989C142.949 147.045 142.905 147.109 142.873 147.181C142.841 147.253 142.829 147.337 142.837 147.433C142.845 147.569 142.901 147.677 143.005 147.757C143.117 147.837 143.249 147.905 143.401 147.961C143.553 148.025 143.717 148.093 143.893 148.165C144.069 148.229 144.229 148.309 144.373 148.405C144.525 148.509 144.649 148.641 144.745 148.801C144.841 148.961 144.889 149.169 144.889 149.425C144.889 149.545 144.865 149.685 144.817 149.845C144.769 150.005 144.689 150.157 144.577 150.301ZM156.157 150.709H154.585V150.349C154.585 150.277 154.585 150.213 154.585 150.157C154.585 150.101 154.585 150.037 154.585 149.965C154.553 150.045 154.489 150.133 154.393 150.229C154.305 150.325 154.189 150.413 154.045 150.493C153.893 150.589 153.717 150.665 153.517 150.721C153.325 150.777 153.109 150.805 152.869 150.805C152.533 150.805 152.217 150.745 151.921 150.625C151.633 150.497 151.385 150.325 151.177 150.109C150.961 149.901 150.789 149.657 150.661 149.377C150.541 149.089 150.481 148.785 150.481 148.465C150.481 148.145 150.541 147.841 150.661 147.553C150.789 147.265 150.961 147.017 151.177 146.809C151.385 146.593 151.633 146.421 151.921 146.293C152.217 146.165 152.533 146.101 152.869 146.101C153.325 146.101 153.701 146.197 153.997 146.389C154.293 146.581 154.489 146.789 154.585 147.013C154.585 146.885 154.589 146.753 154.597 146.617C154.613 146.481 154.625 146.345 154.633 146.209H155.257V149.989H156.157V150.709ZM152.869 146.845C152.629 146.845 152.405 146.889 152.197 146.977C151.989 147.057 151.817 147.177 151.681 147.337C151.537 147.481 151.429 147.649 151.357 147.841C151.285 148.025 151.249 148.229 151.249 148.453C151.249 148.701 151.297 148.933 151.393 149.149C151.489 149.357 151.625 149.533 151.801 149.677C151.937 149.797 152.093 149.893 152.269 149.965C152.453 150.037 152.653 150.073 152.869 150.073C153.093 150.073 153.301 150.033 153.493 149.953C153.693 149.873 153.865 149.765 154.009 149.629C154.161 149.485 154.281 149.313 154.369 149.113C154.457 148.905 154.501 148.685 154.501 148.453C154.501 148.221 154.457 148.005 154.369 147.805C154.281 147.597 154.161 147.425 154.009 147.289C153.865 147.145 153.693 147.037 153.493 146.965C153.301 146.885 153.093 146.845 152.869 146.845ZM163.153 153.709H160.657V152.989H161.605V150.397C161.605 150.333 161.605 150.273 161.605 150.217C161.613 150.161 161.625 150.097 161.641 150.025C161.593 150.113 161.529 150.201 161.449 150.289C161.369 150.369 161.257 150.449 161.113 150.529C160.969 150.617 160.801 150.685 160.609 150.733C160.417 150.789 160.209 150.817 159.985 150.817C159.649 150.817 159.333 150.757 159.037 150.637C158.749 150.509 158.501 150.337 158.293 150.121C158.077 149.905 157.905 149.657 157.777 149.377C157.657 149.089 157.597 148.781 157.597 148.453C157.597 148.133 157.657 147.833 157.777 147.553C157.905 147.265 158.077 147.013 158.293 146.797C158.501 146.589 158.749 146.425 159.037 146.305C159.333 146.177 159.649 146.113 159.985 146.113C160.433 146.113 160.797 146.205 161.077 146.389C161.365 146.573 161.573 146.785 161.701 147.025C161.709 146.897 161.717 146.765 161.725 146.629C161.733 146.493 161.741 146.353 161.749 146.209H163.297V146.929H162.373V152.989H163.153V153.709ZM159.985 146.845C159.745 146.845 159.525 146.889 159.325 146.977C159.133 147.057 158.969 147.165 158.833 147.301C158.681 147.445 158.565 147.617 158.485 147.817C158.405 148.017 158.365 148.229 158.365 148.453C158.365 148.701 158.409 148.929 158.497 149.137C158.593 149.345 158.721 149.521 158.881 149.665C159.025 149.793 159.189 149.893 159.373 149.965C159.565 150.037 159.769 150.073 159.985 150.073C160.217 150.073 160.433 150.033 160.633 149.953C160.833 149.865 161.005 149.749 161.149 149.605C161.293 149.461 161.405 149.293 161.485 149.101C161.573 148.901 161.617 148.685 161.617 148.453C161.617 148.221 161.573 148.005 161.485 147.805C161.397 147.605 161.277 147.433 161.125 147.289C160.981 147.153 160.809 147.045 160.609 146.965C160.417 146.885 160.209 146.845 159.985 146.845ZM169.044 149.545C168.884 149.929 168.624 150.237 168.264 150.469C167.912 150.693 167.516 150.805 167.076 150.805C166.62 150.805 166.26 150.681 165.996 150.433C165.732 150.185 165.592 149.861 165.576 149.461V146.929H164.736V146.209H166.332V149.161C166.348 149.401 166.432 149.609 166.584 149.785C166.744 149.953 166.984 150.045 167.304 150.061C167.528 150.061 167.74 150.025 167.94 149.953C168.148 149.873 168.328 149.765 168.48 149.629C168.64 149.493 168.768 149.333 168.864 149.149C168.96 148.957 169.008 148.749 169.008 148.525V146.929H168.168V146.209H169.764V150.061H170.556V150.709H169.032L169.02 150.085L169.044 149.545ZM174.488 150.709H171.992V149.989H172.868V146.929H171.992V146.209H173.624V149.989H174.488V150.709ZM173.768 144.541C173.768 144.685 173.716 144.809 173.612 144.913C173.508 145.009 173.392 145.057 173.264 145.057C173.136 145.057 173.016 145.009 172.904 144.913C172.8 144.809 172.748 144.685 172.748 144.541C172.748 144.389 172.8 144.265 172.904 144.169C173.016 144.065 173.136 144.013 173.264 144.013C173.392 144.013 173.508 144.065 173.612 144.169C173.716 144.265 173.768 144.389 173.768 144.541ZM177.216 150.061C177.216 150.213 177.164 150.341 177.06 150.445C176.956 150.541 176.84 150.589 176.712 150.589C176.584 150.589 176.468 150.541 176.364 150.445C176.26 150.341 176.208 150.213 176.208 150.061C176.208 149.909 176.26 149.785 176.364 149.689C176.468 149.593 176.584 149.545 176.712 149.545C176.84 149.545 176.956 149.593 177.06 149.689C177.164 149.785 177.216 149.909 177.216 150.061ZM177.084 148.717H176.328V141.709H177.084V148.717Z" fill="#2D1C01"/>
<path d="M112.953 112.676C112.542 112.922 107.856 112.081 106.89 111.879C94.4609 109.279 82.1153 105.461 69.9911 101.802L44.4541 95.2692C45.7093 84.7517 49.3242 74.6084 51.6603 64.2734C52.6762 59.7791 53.4277 55.1531 54.4674 50.6159C58.199 34.3358 61.6368 17.6565 67.5154 1.94109C67.7503 1.31087 68.1603 0.436858 68.7776 0.12028C69.637 -0.320041 74.156 0.570479 75.4465 0.837273C96.1156 5.14718 116.562 12.4798 137.269 16.9048L138.115 17.4422C138.278 17.8803 136.431 24.8638 136.104 25.9572C134.16 32.4629 131.794 38.7378 130.157 45.3705C126.241 61.2228 122.601 77.2067 118.35 93.0225C116.798 98.7964 115.665 105.658 113.755 111.173C113.564 111.722 113.423 112.286 112.956 112.677L112.953 112.676ZM137.092 18.1833L69.6112 1.95977C68.487 5.64894 66.8068 9.22229 65.6899 12.903C60.3225 30.6153 56.6337 49.0871 52.5348 67.1326C52.3687 67.8653 52.4924 68.61 52.324 69.3421C50.4327 77.6378 47.7839 85.7717 46.3177 94.1525L111.932 110.514C113.177 106.211 114.024 101.775 115.26 97.465C117.251 90.5104 119.003 84.3289 120.72 77.2995C122.049 71.8679 123.807 66.4681 124.558 60.946L130.272 38.5022L137.09 18.1802L137.092 18.1833Z" fill="#563E29"/>
<path d="M78.9346 9.35693C93.012 12.6065 108.164 16.6393 121.961 20.5564C123.285 20.9322 129.737 22.0756 130.173 22.9564C130.698 25.2322 129.253 27.2949 128.71 29.2782C126.888 35.9284 125.154 42.539 123.339 49.1934C120.198 60.7138 117.592 72.3602 113.883 83.7284C113.425 85.1359 113.211 88.3746 111.723 88.8635C110.266 89.3421 109.313 88.296 108.086 87.9581C92.4453 83.659 77.3978 79.5702 61.5051 76.098C59.8214 75.7311 56.6319 76.2862 55.9388 74.2276C55.4295 72.7178 57.178 69.3704 57.6187 67.7807C62.5637 49.9223 65.9502 30.2072 71.6059 12.7949C71.8695 11.9815 73.1147 8.60376 73.6868 8.4044C75.3565 8.76518 77.3114 8.98482 78.934 9.35934L78.9346 9.35693ZM73.8786 10.2633L57.6932 73.8323C60.8697 74.327 63.9681 75.2394 67.11 75.9004C79.0763 78.4141 91.0473 80.718 102.814 84.3268C105.454 85.1353 108.077 86.3207 110.76 87.0193C111.08 85.9652 111.232 84.8428 111.581 83.7961C113.143 79.1422 114.479 75.1955 115.616 70.4463C118.699 57.554 122.389 44.9351 126.315 32.268C126.557 31.4902 129.345 24.1229 128.913 23.9434L73.8755 10.2651L73.8786 10.2633Z" fill="#563E29"/>
<path d="M95.6468 41.3111C100.033 35.9756 109.522 38.6671 107.419 46.4326C105.43 53.769 97.7695 56.3937 92.2189 59.8879C91.6285 60.2603 90.7882 61.3517 90.1741 61.131C84.8358 54.6738 77.9562 43.357 85.2562 35.8359C89.3258 31.6428 94.2568 37.35 95.6486 41.3141L95.6468 41.3111ZM93.8775 44.4576C94.5658 36.5095 85.5275 32.3699 83.9389 42.4317C83.0758 47.8996 87.4259 54.6072 90.6994 58.6643C95.1803 56.3859 100.41 54.0305 103.427 49.8268C106.503 45.5428 107.338 40.1656 100.441 40.3923C97.0615 40.505 96.3569 42.9698 93.8799 44.4582L93.8775 44.4576Z" fill="#563E29"/>
</svg>
