<svg width="230" height="186" viewBox="0 0 230 186" fill="none" xmlns="http://www.w3.org/2000/svg">
<path d="M42.4069 33.784C46.1189 33.528 49.3829 33.4 52.1989 33.4C60.1349 33.4 64.1029 36.2 64.1029 41.8C64.1029 44.392 63.4309 46.664 62.0869 48.616C61.3829 49.672 60.2949 50.52 58.8229 51.16C57.3509 51.768 55.5749 52.072 53.4949 52.072H46.3909V67H42.4069V33.784ZM52.2469 33.88C50.3909 33.88 48.4389 33.992 46.3909 34.216V51.592H53.4949C58.0069 51.4 60.2629 48.168 60.2629 41.896C60.2629 39.336 59.5909 37.368 58.2469 35.992C56.9029 34.584 54.9029 33.88 52.2469 33.88ZM87.3221 67C85.1461 67 83.6581 66.584 82.8581 65.752C82.1221 65.048 81.7541 64.44 81.7541 63.928V62.92C80.1861 65.768 77.6741 67.192 74.2181 67.192C70.1861 67.192 67.8981 65.368 67.3541 61.72C67.2901 61.336 67.2581 60.952 67.2581 60.568C67.2581 60.152 67.3221 59.704 67.4501 59.224C67.5781 58.744 67.9461 58.216 68.5541 57.64C69.7701 56.488 72.4421 55.784 76.5701 55.528C77.5941 55.432 78.5381 55.384 79.4021 55.384C80.2661 55.384 81.0501 55.416 81.7541 55.48V47.512C81.6901 47.48 81.6901 47.336 81.7541 47.08C81.8181 46.792 81.7541 46.44 81.5621 46.024C81.4021 45.576 81.1781 45.144 80.8901 44.728C80.6021 44.312 80.0901 43.96 79.3541 43.672C78.6181 43.352 77.6581 43.192 76.4741 43.192C75.2901 43.192 73.8981 43.416 72.2981 43.864C70.7301 44.28 69.5781 44.696 68.8421 45.112L68.6501 44.776C71.4981 43.464 74.3941 42.808 77.3381 42.808C80.6341 42.808 82.8101 43.4 83.8661 44.584C84.6981 45.512 85.1141 46.488 85.1141 47.512V63.592C85.1141 64.52 85.2901 65.24 85.6421 65.752C86.0261 66.232 86.4101 66.488 86.7941 66.52L87.3221 66.616H88.8101V67H87.3221ZM74.9861 66.808C76.6821 66.808 78.2021 66.232 79.5461 65.08C80.9221 63.896 81.6581 62.76 81.7541 61.672V55.864C80.8901 55.8 80.0101 55.768 79.1141 55.768C78.2501 55.768 77.3861 55.816 76.5221 55.912C74.0901 56.2 72.5061 56.744 71.7701 57.544C71.0341 58.344 70.6661 59.448 70.6661 60.856C70.6661 61.112 70.6821 61.4 70.7141 61.72C71.0021 65.112 72.4261 66.808 74.9861 66.808ZM92.1488 43.384V43H93.1568V38.2H96.5168V43H103.861V43.384H96.5168V60.856C96.5168 62.936 96.7408 64.44 97.1888 65.368C97.6688 66.296 98.6448 66.76 100.117 66.76C101.621 66.76 103.141 66.456 104.677 65.848L104.821 66.232C103.221 66.84 101.381 67.144 99.3008 67.144C97.2528 67.144 95.7168 66.728 94.6928 65.896C93.6688 65.032 93.1568 63.336 93.1568 60.808V43.384H92.1488ZM116.135 45.064V44.056C114.695 44.632 113.383 45.8 112.199 47.56C111.015 49.288 110.391 50.92 110.327 52.456V67H106.967V43H110.327V50.632C110.839 48.776 111.815 47.032 113.255 45.4C114.695 43.736 116.327 42.872 118.151 42.808H118.343C118.983 42.808 119.511 43.032 119.927 43.48C120.375 43.896 120.599 44.424 120.599 45.064C120.599 45.704 120.375 46.232 119.927 46.648C119.511 47.064 118.983 47.272 118.343 47.272C117.703 47.272 117.175 47.064 116.759 46.648C116.343 46.232 116.135 45.704 116.135 45.064ZM128.873 67C127.561 67 126.553 66.712 125.849 66.136C125.177 65.56 124.825 64.984 124.793 64.408L124.745 63.592V43H128.105V63.592C128.105 64.52 128.281 65.24 128.633 65.752C129.017 66.232 129.401 66.488 129.785 66.52L130.313 66.616H131.801V67H128.873ZM128.153 33.016L131.609 32.92L126.569 39.784H125.945L128.153 33.016ZM143.371 43.192C141.099 43.192 139.195 44.28 137.659 46.456C136.155 48.632 135.403 51.64 135.403 55.48C135.403 59.32 136.091 62.168 137.467 64.024C138.875 65.88 140.715 66.808 142.987 66.808C145.835 66.808 148.363 66.328 150.571 65.368L150.715 65.704C148.443 66.696 145.787 67.192 142.747 67.192C139.707 67.192 137.179 66.232 135.163 64.312C133.147 62.392 132.139 59.432 132.139 55.432C132.139 51.432 133.195 48.328 135.307 46.12C137.419 43.912 140.107 42.808 143.371 42.808C145.195 42.808 146.875 43.224 148.411 44.056C149.979 44.888 151.131 46.152 151.867 47.848H148.795C148.315 46.28 147.579 45.112 146.587 44.344C145.627 43.576 144.555 43.192 143.371 43.192ZM160.144 67C158.832 67 157.824 66.712 157.12 66.136C156.448 65.56 156.096 64.984 156.064 64.408L156.016 63.592V43H159.376V63.592C159.376 64.52 159.552 65.24 159.904 65.752C160.288 66.232 160.656 66.488 161.008 66.52L161.584 66.616H163.072V67H160.144ZM156.304 37.624C155.92 37.24 155.728 36.76 155.728 36.184C155.728 35.608 155.92 35.128 156.304 34.744C156.688 34.328 157.168 34.12 157.744 34.12C158.32 34.12 158.8 34.328 159.184 34.744C159.6 35.128 159.808 35.608 159.808 36.184C159.808 36.76 159.6 37.24 159.184 37.624C158.8 38.008 158.32 38.2 157.744 38.2C157.168 38.2 156.688 38.008 156.304 37.624ZM185.807 67C183.631 67 182.143 66.584 181.343 65.752C180.607 65.048 180.239 64.44 180.239 63.928V62.92C178.671 65.768 176.159 67.192 172.703 67.192C168.671 67.192 166.383 65.368 165.839 61.72C165.775 61.336 165.743 60.952 165.743 60.568C165.743 60.152 165.807 59.704 165.935 59.224C166.063 58.744 166.431 58.216 167.039 57.64C168.255 56.488 170.927 55.784 175.055 55.528C176.079 55.432 177.023 55.384 177.887 55.384C178.751 55.384 179.535 55.416 180.239 55.48V47.512C180.175 47.48 180.175 47.336 180.239 47.08C180.303 46.792 180.239 46.44 180.047 46.024C179.887 45.576 179.663 45.144 179.375 44.728C179.087 44.312 178.575 43.96 177.839 43.672C177.102 43.352 176.143 43.192 174.959 43.192C173.775 43.192 172.383 43.416 170.783 43.864C169.215 44.28 168.063 44.696 167.327 45.112L167.135 44.776C169.983 43.464 172.879 42.808 175.823 42.808C179.119 42.808 181.295 43.4 182.351 44.584C183.183 45.512 183.599 46.488 183.599 47.512V63.592C183.599 64.52 183.775 65.24 184.127 65.752C184.511 66.232 184.895 66.488 185.279 66.52L185.807 66.616H187.295V67H185.807ZM173.471 66.808C175.167 66.808 176.687 66.232 178.031 65.08C179.407 63.896 180.143 62.76 180.239 61.672V55.864C179.375 55.8 178.495 55.768 177.599 55.768C176.735 55.768 175.871 55.816 175.007 55.912C172.575 56.2 170.991 56.744 170.255 57.544C169.519 58.344 169.151 59.448 169.151 60.856C169.151 61.112 169.167 61.4 169.199 61.72C169.487 65.112 170.911 66.808 173.471 66.808Z" fill="#452A00"/>
<path d="M65.9031 134.448C67.3111 134.384 68.6871 134.352 70.0311 134.352C71.4071 134.352 72.8471 134.496 74.3511 134.784C75.8871 135.072 77.3911 135.616 78.8631 136.416C80.3671 137.184 81.6311 138.192 82.6551 139.44C83.7111 140.656 84.5591 142.272 85.1991 144.288C85.8391 146.304 86.1591 148.752 86.1591 151.632C86.1591 154.512 85.6791 157.104 84.7191 159.408C83.7911 161.68 82.5111 163.424 80.8791 164.64C77.7111 167.008 73.8871 168.192 69.4071 168.192C67.8391 168.192 66.1911 168.128 64.4631 168H62.0631V134.448H65.9031ZM66.0471 167.616C66.7191 167.68 67.5671 167.712 68.5911 167.712C69.6151 167.712 70.3831 167.696 70.8951 167.664C71.4071 167.632 72.1111 167.504 73.0071 167.28C73.9031 167.024 74.7351 166.688 75.5031 166.272C76.2711 165.856 77.0711 165.248 77.9031 164.448C78.7671 163.616 79.5031 162.64 80.1111 161.52C81.4871 158.896 82.1751 155.472 82.1751 151.248C82.1751 148.24 81.8071 145.648 81.0711 143.472C80.3351 141.264 79.4871 139.632 78.5271 138.576C77.5991 137.52 76.4631 136.688 75.1191 136.08C73.7751 135.44 72.7031 135.072 71.9031 134.976C71.1031 134.88 70.1751 134.832 69.1191 134.832C68.0631 134.832 67.0391 134.88 66.0471 134.976V167.616ZM93.2778 156.288C93.2778 160.256 93.9658 163.168 95.3418 165.024C96.7498 166.88 98.5898 167.808 100.862 167.808C104.062 167.808 106.91 167.328 109.406 166.368L109.55 166.704C106.99 167.696 104.094 168.192 100.862 168.192C97.6618 168.192 95.0538 167.232 93.0378 165.312C91.0218 163.392 90.0138 160.432 90.0138 156.432C90.0138 152.432 91.0698 149.328 93.1818 147.12C95.2938 144.912 97.9818 143.808 101.246 143.808C103.87 143.808 106.078 144.592 107.87 146.16C109.662 147.728 110.558 150.048 110.558 153.12C110.558 153.28 110.558 153.44 110.558 153.6H93.4218C93.3258 154.464 93.2778 155.36 93.2778 156.288ZM107.294 153.216C107.262 150.144 106.67 147.872 105.518 146.4C104.366 144.928 102.878 144.192 101.054 144.192C99.2298 144.192 97.5978 144.992 96.1578 146.592C94.7498 148.192 93.8538 150.4 93.4698 153.216H107.294ZM102.878 134.016L106.334 133.92L101.294 140.784H100.67L102.878 134.016ZM125.199 144.192C122.927 144.192 121.023 145.28 119.487 147.456C117.983 149.632 117.231 152.64 117.231 156.48C117.231 160.32 117.919 163.168 119.295 165.024C120.703 166.88 122.543 167.808 124.815 167.808C127.663 167.808 130.191 167.328 132.399 166.368L132.543 166.704C130.271 167.696 127.615 168.192 124.575 168.192C121.535 168.192 119.007 167.232 116.991 165.312C114.975 163.392 113.967 160.432 113.967 156.432C113.967 152.432 115.023 149.328 117.135 147.12C119.247 144.912 121.935 143.808 125.199 143.808C127.023 143.808 128.703 144.224 130.239 145.056C131.807 145.888 132.959 147.152 133.695 148.848H130.623C130.143 147.28 129.407 146.112 128.415 145.344C127.455 144.576 126.383 144.192 125.199 144.192ZM141.972 168C140.66 168 139.652 167.712 138.948 167.136C138.276 166.56 137.924 165.984 137.892 165.408L137.844 164.592V144H141.204V164.592C141.204 165.52 141.38 166.24 141.732 166.752C142.116 167.232 142.484 167.488 142.836 167.52L143.412 167.616H144.9V168H141.972ZM138.132 138.624C137.748 138.24 137.556 137.76 137.556 137.184C137.556 136.608 137.748 136.128 138.132 135.744C138.516 135.328 138.996 135.12 139.572 135.12C140.148 135.12 140.628 135.328 141.012 135.744C141.428 136.128 141.636 136.608 141.636 137.184C141.636 137.76 141.428 138.24 141.012 138.624C140.628 139.008 140.148 139.2 139.572 139.2C138.996 139.2 138.516 139.008 138.132 138.624ZM157.734 168.192C154.374 168.192 151.638 167.232 149.526 165.312C147.414 163.392 146.358 160.432 146.358 156.432C146.358 152.432 147.446 149.328 149.622 147.12C151.83 144.912 154.614 143.808 157.974 143.808C161.366 143.808 164.118 144.768 166.23 146.688C168.342 148.608 169.398 151.568 169.398 155.568C169.398 159.568 168.294 162.672 166.086 164.88C163.91 167.088 161.126 168.192 157.734 168.192ZM158.07 144.192C155.638 144.192 153.622 145.28 152.022 147.456C150.422 149.6 149.622 152.608 149.622 156.48C149.622 160.32 150.358 163.168 151.83 165.024C153.302 166.88 155.254 167.808 157.686 167.808C160.118 167.808 162.134 166.736 163.734 164.592C165.334 162.416 166.134 159.408 166.134 155.568C166.134 151.696 165.398 148.832 163.926 146.976C162.454 145.12 160.502 144.192 158.07 144.192Z" fill="#452A00"/>
<path d="M139.869 85.28V83.68H179.389V85.28H170.589C164.829 100.96 155.282 115.04 141.949 127.52C135.442 133.6 127.815 138.56 119.069 142.4C110.322 146.133 101.309 148 92.0288 148C83.1754 148 75.0688 146.293 67.7088 142.88C63.4421 140.96 59.6554 138.507 56.3488 135.52C53.1488 132.427 50.4821 128.32 48.3488 123.2C46.2154 117.973 45.1488 112 45.1488 105.28C45.1488 92.16 49.1488 81.12 57.1488 72.16C65.2554 63.0933 74.4288 58.56 84.6688 58.56C103.229 58.56 112.829 66.8267 113.469 83.36L140.029 62.4L141.149 63.36L61.7888 125.76C64.4554 132.16 68.2421 137.227 73.1488 140.96C78.1621 144.587 84.4021 146.4 91.8688 146.4C99.4421 146.4 106.962 144.533 114.429 140.8C122.002 136.96 128.562 132 134.109 125.92C145.309 113.547 153.202 100 157.789 85.28H139.869ZM100.829 93.44C100.722 81.28 99.4954 72.6933 97.1488 67.68C94.9088 62.6667 91.0688 60.16 85.6288 60.16C80.2954 60.16 75.7621 61.6 72.0288 64.48C68.4021 67.2533 65.5754 70.9333 63.5488 75.52C59.8154 84.3733 57.9488 94.0267 57.9488 104.48L58.2688 111.52C58.8021 116.32 59.7621 120.693 61.1488 124.64L100.829 93.44Z" fill="#452A00" fill-opacity="0.19"/>
</svg>
