<?xml version="1.0" encoding="UTF-8"?>
<svg id="Camada_1" data-name="Camada 1" xmlns="http://www.w3.org/2000/svg" viewBox="0 0 641.36 600.51">
  <defs>
    <style>
      .cls-1 {
        fill: #fff;
      }
    </style>
  </defs>
  <circle cx="320.68" cy="302.43" r="290.04"/>
  <path class="cls-1" d="M330.64,150.32c38.04,4.51,66.63,31.15,66.97,68.33.07,7.46,5.49,13.69,12.87,14.76,22.89,3.34,43.62,13.56,60.28,29.64,2.46,2.37,6.06,3.14,9.22,1.83,17.89-7.42,35.57-17.83,55.05-21.99,2.58-.55,3.68,3.12,1.22,4.07l-14.44,5.55c-6.19,2.38-12.09,5.45-17.59,9.16l-13.08,8.81c-4.07,2.74-5.76,7.86-4.18,12.5,23.11,67.7-5.57,142.62-68.05,178.04-31.49,17.85-63.74,23.28-99.95,19.95-10.77-.99-26.57-7.97-34.65-7.84-6.27.1-12.01,2.93-17.92,4.53-6.71,1.82-13.55,3.2-20.44,4.13-8.9,1.2-17.9,1.66-26.87,1.36-8.26-.28-17.6-.36-24.95-4.65-2.11-1.23-4.03-2.92-5-5.22-1.81-4.31,1.17-8.91,4.35-11.79.91-.82,1.89-1.55,2.94-2.18,4.19-2.53,9.1-3.58,13.95-4.2,8.69-1.11,17.54-.96,26.19.43s17.25,4.52,25.81,7.02c3.99,1.17,8.44,2.77,12.66,2.63,34.95-1.16,142.64-157.88,189-190.03,2.89-2,3.36-6.09.99-8.69-16.19-17.7-36.42-28.1-60.53-30.6-4.33-.45-8.49,1.76-10.54,5.59-3.14,5.87-4.55,12.54-9.21,18.59-28.67,37.21-118.53,27.77-136.75,68.1-10.48,23.19,4.46,47.16,29.89,47.52,15.89.23,31.68-7.58,45.04-15.43,15.57-9.14,30.35-20.55,43.37-33,7.45-7.12,13.86-15.33,18.97-24.28,4.85-8.49,7.6-17.39,10.85-26.49.61-1.71,3.14-1.13,2.97.67-5.2,55.96-72.4,108.29-126.76,101.18-19.55-2.56-37.03-18.82-37.05-39.23-.03-44.53,47.55-81.48,85.12-96.55,3.36-1.35,9.74-2.76,16.13-4.34,12.01-2.97,19.85-14.43,18.53-26.73-1.56-14.45-5.13-29.85-18.66-37.58-7.25-4.14-15.62-5.84-23.89-6.97-19.43-2.65-39.13-2.46-58.75-2.27-6.39.06-12.95.16-18.91,2.49-6.3,2.47-11.57,7.46-14.38,13.61-3.2,7.01-3.19,15.01-3.12,22.72.69,72.59,1.38,145.19,2.06,217.78.01,1.22-.04,2.61-.95,3.43-.79.72-1.97.76-3.03.75-11.73,0-23.46-.01-35.2-.02-.94,0-1.99-.05-2.63-.73-.61-.64-.64-1.61-.64-2.49,0-89.5,0-179,0-268.5,0-.89.03-1.86.6-2.55.69-.82,1.89-.91,2.96-.94,26.5,0,53.03-1.99,79.53-2.61,21.64-.51,43.27-.19,64.81,2.07,1.92.2,3.83.41,5.75.64ZM355.89,259.44c4.45-5.09.08-13.03-6.62-12.07-14.93,2.14-29.61,8.85-42.5,15.52-3.8,1.96-26.98,16.22-37.55,26.22-2.74,2.6-.13,7.11,3.48,5.98l51.93-16.23c4.2-1.31,8.26-3.03,12.12-5.13,7.07-3.86,13.91-8.32,19.14-14.29ZM296.84,473.02c107.28,30.27,216.28-72.19,181.11-179.83-1.33-4.07-6.37-5.49-9.6-2.67-6.26,5.47-14.4,14.44-16.17,16.46-40.29,46.25-61.85,98.83-114.48,137.21-13.47,9.82-28.75,16.01-41.4,26.16-.97.78-.67,2.34.53,2.68ZM264.9,470.37c.26-.46.37-.97.26-1.52-.32-1.54-2.17-2.12-3.71-2.4-7.05-1.3-14.12-2.43-21.22-3.38-8.23-1.11-16.55-1.98-24.86-1.67-5.33.2-18.47-.05-20.45,6.54-.64,2.12.28,4.48,1.83,6.06s3.65,2.5,5.75,3.2c8.43,2.82,17.55,2.68,26.4,1.91,7.51-.66,14.97-1.74,22.35-3.25,3.82-.78,7.65-1.69,11.15-3.39.97-.47,2.01-1.19,2.5-2.09Z"/>
</svg>